<svg xmlns="http://www.w3.org/2000/svg" viewBox="0 0 603.08 529.75"><defs><style>.cls-1{fill:#ccc}.cls-1,.cls-10,.cls-11,.cls-12,.cls-13,.cls-14,.cls-15,.cls-16,.cls-17,.cls-18,.cls-19,.cls-2,.cls-20,.cls-21,.cls-22,.cls-23,.cls-3,.cls-4,.cls-5,.cls-6,.cls-7,.cls-8,.cls-9{stroke:#192d79;stroke-linecap:round;stroke-linejoin:round;stroke-width:.75px}.cls-11,.cls-2{fill:#fff}.cls-3{fill:#ec6657}.cls-4{fill:#00a2e0}.cls-5{fill:#daf0fc}.cls-6{fill:#f7b34c}.cls-7{fill:#fff68a}.cls-8{fill:#50bcb6}.cls-9{fill:#e8b950}.cls-10,.cls-12{fill:#f5e929}.cls-11,.cls-12,.cls-15,.cls-16,.cls-17,.cls-18,.cls-19,.cls-20,.cls-21,.cls-22,.cls-23{fill-rule:evenodd}.cls-13{fill:#987035}.cls-14{fill:#fff571}.cls-15{fill:#b0dff8}.cls-16{fill:#ef8a8a}.cls-17{fill:#ea595c}.cls-18{fill:#bcda8d}.cls-19{fill:#fff100}.cls-20{fill:#22ac38}.cls-21{fill:#bf98c5}.cls-22{fill:#fff5e0}.cls-23{fill:#8f509c}</style></defs><title>display</title><g id="圖層_2" data-name="圖層 2"><g id="Layer_1" data-name="Layer 1"><path class="cls-1" d="M522.69 493.64l-508.61-57.7V120.2l508.61-26.71z"/><path class="cls-1" d="M67.92 375.23C50 373.14 32 372.8 14.08 370.72v-323l54.26 7c-.14 129.45-.28 191.07-.42 320.51z"/><path class="cls-2" d="M57 123.33h4.69a1.54 1.54 0 0 1 1.54 1.54v1.22h-7.82v-1.22a1.54 1.54 0 0 1 1.59-1.54z"/><path class="cls-3" d="M58.88 203.24l-22.77.27v-76.7l22.77-1.14v77.57z"/><path class="cls-2" d="M58.88 185.62l-22.77.47v-6.63l22.77-.55v6.71zm-6.58-19.74c0 4.42-2.6 8.07-5.8 8.16s-5.77-3.41-5.77-7.81 2.58-8 5.77-8.15 5.8 3.38 5.8 7.8z"/><path class="cls-2" d="M80.8 203l-21.92.24v-77.57l21.92 2.5V203z"/><path class="cls-2" d="M80.8 186l-21.92-.38v-6.71l21.92.62V186z"/><path class="cls-3" d="M80.8 203l-21.92.24v-77.57l21.92 2.5V203z"/><path class="cls-2" d="M89.08 122.24h4.77a1.56 1.56 0 0 1 1.56 1.56v1.2h-7.89v-1.2a1.56 1.56 0 0 1 1.56-1.56z"/><path class="cls-4" d="M91.04 202.84l-23.09.28v-77.37l23.09-1.14v78.23z"/><path class="cls-2" d="M91.04 185.07l-23.09.47v-6.68l23.09-.55v6.76zm-6.67-19.91c0 4.46-2.64 8.14-5.88 8.23s-5.85-3.44-5.85-7.87 2.61-8.12 5.85-8.23 5.88 3.41 5.88 7.87zm28.89 37.44l-22.22.24v-78.23l22.22 2.51v75.48z"/><path class="cls-2" d="M113.26 185.45l-22.22-.38v-6.76l22.22.62v6.52z"/><path class="cls-4" d="M113.26 202.6l-22.22.24v-78.23l22.22 2.51v75.48z"/><path class="cls-2" d="M119.66 120.54h4.77a1.56 1.56 0 0 1 1.57 1.56v1.22h-7.9v-1.22a1.56 1.56 0 0 1 1.56-1.56z"/><path class="cls-4" d="M121.62 201.14l-23.08.28v-77.37l23.08-1.14v78.23z"/><path class="cls-2" d="M121.62 183.37l-23.08.47v-6.68l23.08-.55v6.76zM115 163.46c0 4.46-2.64 8.14-5.88 8.23s-5.85-3.44-5.85-7.87 2.61-8.12 5.85-8.23S115 159 115 163.46zm28.84 37.44l-22.22.24v-78.23l22.22 2.51v75.48z"/><path class="cls-2" d="M143.84 183.75l-22.22-.38v-6.76l22.22.62v6.52z"/><path class="cls-4" d="M143.84 200.9l-22.22.24v-78.23l22.22 2.51v75.48z"/><path class="cls-2" d="M151.75 119.23h4.85a1.58 1.58 0 0 1 1.58 1.58v1.23h-8v-1.23a1.58 1.58 0 0 1 1.57-1.58z"/><path class="cls-3" d="M153.75 200.72l-23.46.28v-78.22l23.46-1.15v79.09z"/><path class="cls-2" d="M153.75 182.75l-23.46.48v-6.76l23.46-.55v6.83zM147 162.63c0 4.51-2.68 8.23-6 8.32s-5.94-3.48-5.94-8 2.66-8.2 5.94-8.32 6 3.49 6 8zm29.33 37.84l-22.58.25v-79.09l22.58 2.54v76.3z"/><path class="cls-2" d="M176.33 183.14l-22.58-.39v-6.83l22.58.63v6.59z"/><path class="cls-3" d="M176.33 200.47l-22.58.25v-79.09l22.58 2.54v76.3z"/><path class="cls-2" d="M183.68 117.39h5a1.62 1.62 0 0 1 1.62 1.62v1.26h-8.2V119a1.62 1.62 0 0 1 1.58-1.61z"/><path class="cls-3" d="M185.72 200.71l-23.98.29v-79.98l23.98-1.18v80.87z"/><path class="cls-2" d="M185.72 182.34l-23.98.49v-6.91l23.98-.57v6.99zm-6.92-20.58c0 4.61-2.74 8.42-6.11 8.5s-6.07-3.56-6.07-8.14 2.72-8.39 6.07-8.5 6.11 3.53 6.11 8.14zm30.01 38.7l-23.09.25v-80.87l23.09 2.6v78.02z"/><path class="cls-2" d="M208.81 182.74l-23.09-.4v-6.99l23.09.65v6.74z"/><path class="cls-3" d="M208.81 200.46l-23.09.25v-80.87l23.09 2.6v78.02z"/><path class="cls-2" d="M215.74 116h5a1.65 1.65 0 0 1 1.65 1.65v1.28h-8.29v-1.28a1.65 1.65 0 0 1 1.64-1.65z"/><path class="cls-4" d="M217.82 200.71l-24.39.29v-81.33l24.39-1.2v82.24z"/><path class="cls-2" d="M217.82 182.02l-24.39.51v-7.03l24.39-.58v7.1zm-7.05-20.92c0 4.69-2.79 8.56-6.21 8.65s-6.18-3.62-6.18-8.28 2.76-8.53 6.18-8.65 6.21 3.59 6.21 8.28zm30.53 39.35l-23.48.26v-82.24l23.48 2.64v79.34z"/><path class="cls-2" d="M241.3 182.43l-23.48-.41v-7.1l23.48.65v6.86z"/><path class="cls-4" d="M241.3 200.45l-23.48.26v-82.24l23.48 2.64v79.34z"/><path class="cls-2" d="M247.76 114.41h5.14a1.68 1.68 0 0 1 1.68 1.68v1.31h-8.49v-1.31a1.68 1.68 0 0 1 1.67-1.68z"/><path class="cls-4" d="M249.87 200.7l-24.84.3v-82.84l24.84-1.22v83.76z"/><path class="cls-2" d="M249.87 181.67l-24.84.51v-7.15l24.84-.59v7.23zm-7.17-21.31c0 4.77-2.84 8.72-6.33 8.81s-6.29-3.68-6.29-8.43 2.81-8.69 6.29-8.81 6.33 3.66 6.33 8.43z"/><path class="cls-2" d="M273.78 200.44l-23.91.26v-83.76l23.91 2.7v80.8z"/><path class="cls-2" d="M273.78 182.09l-23.91-.42v-7.23l23.91.66v6.99z"/><path class="cls-4" d="M273.78 200.44l-23.91.26v-83.76l23.91 2.7v80.8z"/><path class="cls-2" d="M279.82 113H285a1.7 1.7 0 0 1 1.7 1.7v1.3h-8.63v-1.33a1.7 1.7 0 0 1 1.75-1.67z"/><path class="cls-3" d="M281.97 200.69l-25.25.31v-84.18l25.25-1.24v85.11z"/><path class="cls-2" d="M281.97 181.36l-25.25.52v-7.28l25.25-.6v7.36zm-7.29-21.66c0 4.85-2.88 8.86-6.43 9s-6.39-3.74-6.39-8.57 2.86-8.83 6.39-8.95 6.43 3.67 6.43 8.52z"/><path class="cls-2" d="M306.27 200.43l-24.3.26v-85.11l24.3 2.73v82.12z"/><path class="cls-2" d="M306.27 181.78l-24.3-.42V174l24.3.68v7.1z"/><path class="cls-3" d="M306.27 200.43l-24.3.26v-85.11l24.3 2.73v82.12z"/><path class="cls-2" d="M313.49 112.31h4.92a1.54 1.54 0 0 1 1.54 1.54v1.3h-8v-1.3a1.54 1.54 0 0 1 1.54-1.54z"/><path class="cls-3" d="M315.52 194.51l-23.43.29v-78.91l23.43-1.16v79.78z"/><path class="cls-2" d="M315.52 176.39l-23.43.48v-6.81l23.43-.57v6.9zm-6.77-20.3c0 4.55-2.67 8.3-6 8.39s-5.93-3.51-5.93-8 2.65-8.28 5.93-8.39 6 3.45 6 8zm29.32 38.18l-22.55.24v-79.78l22.55 2.56v76.98z"/><path class="cls-2" d="M338.07 176.78l-22.55-.39v-6.9l22.55.64v6.65z"/><path class="cls-3" d="M338.07 194.27l-22.55.24v-79.78l22.55 2.56v76.98z"/><path class="cls-2" d="M346.54 111.19h5a1.56 1.56 0 0 1 1.56 1.56v1.3H345v-1.3a1.56 1.56 0 0 1 1.54-1.56z"/><path class="cls-4" d="M348.6 194.1l-23.75.29V114.8l23.75-1.17v80.47z"/><path class="cls-2" d="M348.6 175.82l-23.75.49v-6.87l23.75-.57v6.95zm-6.86-20.47c0 4.59-2.71 8.37-6 8.46s-6-3.54-6-8.1 2.69-8.35 6-8.46 6 3.51 6 8.1z"/><path class="cls-2" d="M371.46 193.86l-22.86.24v-80.47l22.86 2.59v77.64z"/><path class="cls-2" d="M371.46 176.22l-22.86-.4v-6.95l22.86.64v6.71z"/><path class="cls-4" d="M371.46 193.86l-22.86.24v-80.47l22.86 2.59v77.64z"/><path class="cls-2" d="M587.99 505.08l-65.3 24.3v-20.24l65.3-22.71v18.65zM379.55 109.85h5.08a1.58 1.58 0 0 1 1.58 1.58v1.32H378v-1.32a1.58 1.58 0 0 1 1.55-1.58z"/><path class="cls-3" d="M381.65 193.67l-24.14.29V113.5l24.14-1.19v81.36z"/><path class="cls-2" d="M381.65 175.19l-24.14.49v-6.95l24.14-.57v7.03zm-6.97-20.7c0 4.64-2.76 8.47-6.15 8.56s-6.11-3.58-6.11-8.19 2.73-8.44 6.11-8.55 6.15 3.54 6.15 8.18zm30.2 38.93l-23.23.25v-81.36l23.23 2.62v78.49z"/><path class="cls-2" d="M404.88 175.59l-23.23-.4v-7.03l23.23.65v6.78z"/><path class="cls-3" d="M404.88 193.42l-23.23.25v-81.36l23.23 2.62v78.49z"/><path class="cls-2" d="M412.4 108h5.2a1.62 1.62 0 0 1 1.62 1.62v1.34h-8.44v-1.34a1.62 1.62 0 0 1 1.62-1.62z"/><path class="cls-3" d="M414.54 193.66l-24.67.3v-82.28l24.67-1.21v83.19z"/><path class="cls-2" d="M414.54 174.77l-24.67.5v-7.11l24.67-.58v7.19zm-7.12-21.17c0 4.74-2.82 8.66-6.28 8.75s-6.25-3.66-6.25-8.37 2.79-8.63 6.25-8.75 6.28 3.63 6.28 8.37zm30.88 39.81l-23.76.25v-83.19l23.76 2.68v80.26z"/><path class="cls-2" d="M438.3 175.18l-23.76-.41v-7.19l23.76.66v6.94z"/><path class="cls-3" d="M438.3 193.41l-23.76.25v-83.19l23.76 2.68v80.26z"/><path class="cls-2" d="M445.38 106.5h5.28a1.65 1.65 0 0 1 1.65 1.65v1.37h-8.58v-1.37a1.65 1.65 0 0 1 1.65-1.65z"/><path class="cls-4" d="M447.56 193.66l-25.09.3v-83.67l25.09-1.23v84.6z"/><path class="cls-2" d="M447.56 174.44l-25.09.52v-7.23l25.09-.6v7.31zm-7.25-21.53c0 4.82-2.87 8.8-6.39 8.9s-6.35-3.72-6.35-8.51 2.84-8.78 6.35-8.9 6.39 3.69 6.39 8.51zm31.4 40.49l-24.15.26v-84.6l24.15 2.72v81.62z"/><path class="cls-2" d="M471.71 174.86l-24.15-.42v-7.31l24.15.68v7.05z"/><path class="cls-4" d="M471.71 193.4l-24.15.26v-84.6l24.15 2.72v81.62z"/><path class="cls-2" d="M478.31 104.88h5.38a1.68 1.68 0 0 1 1.68 1.68V108h-8.74v-1.39a1.68 1.68 0 0 1 1.68-1.73z"/><path class="cls-4" d="M480.53 193.65l-25.55.31v-85.21l25.55-1.26v86.16z"/><path class="cls-2" d="M480.53 174.08l-25.55.52v-7.36l25.55-.61v7.45zm-7.38-21.92c0 4.91-2.92 9-6.51 9.06s-6.47-3.79-6.47-8.67 2.89-8.94 6.47-9.06 6.51 3.76 6.51 8.67zm31.98 41.23l-24.6.26v-86.16l24.6 2.77v83.13z"/><path class="cls-2" d="M505.13 174.5l-24.6-.42v-7.45l24.6.69v7.18z"/><path class="cls-4" d="M505.13 193.39l-24.6.26v-86.16l24.6 2.77v83.13z"/><path class="cls-1" d="M599.62 386.71l-76.92 17L14.08 365l54.26-13.86zm1.38-95.49l-78.27 7.35-508.65-16.46 54.26-6.3z"/><path class="cls-5" d="M370.15 229.86a12.85 12.85 0 0 0-1.55-3.86 14.56 14.56 0 0 0-3.2-3.49c-1.48-1.39-3-4-3.11-9.37h-12.81c-.08 5.38-1.62 8-3.11 9.37a14.57 14.57 0 0 0-3.2 3.49 12.86 12.86 0 0 0-1.55 3.83 12.53 12.53 0 0 0-.29 2.23v52.56c0 2.21 6.52 4 14.56 4s14.55-1.79 14.56-4v-52.53a12.5 12.5 0 0 0-.3-2.23z"/><path class="cls-6" d="M368.33 229.89a11.2 11.2 0 0 0-1.35-3.34 11.52 11.52 0 0 0-2.58-2.85 31.11 31.11 0 0 1-17 0 11.42 11.42 0 0 0-2.55 2.83 11.2 11.2 0 0 0-1.35 3.34 10.92 10.92 0 0 0-.25 1.95v51.63c0 1.93 5.69 3.49 12.69 3.49s12.69-1.56 12.69-3.49v-51.61a10.9 10.9 0 0 0-.3-1.95z"/><path class="cls-2" d="M362 206.32h-12.2a2 2 0 0 0-2 2v4.88c0 .65 3.61 1.18 8.06 1.18s8.06-.53 8.06-1.18v-4.88a2 2 0 0 0-1.92-2z"/><ellipse class="cls-2" cx="355.89" cy="206.63" rx="6.88" ry="1.01"/><path class="cls-5" d="M356 240.69a60.17 60.17 0 0 1-14.68-1.79v33.24a54.8 54.8 0 0 0 23.58 1.22V240a59.93 59.93 0 0 1-8.9.69z"/><path class="cls-6" d="M347.35 223.72s7.18-3.63 17 0c.04-.02-9.05 2.64-17 0z"/><path class="cls-5" d="M397.27 229.86a12.85 12.85 0 0 0-1.55-3.83 14.56 14.56 0 0 0-3.2-3.49c-1.48-1.39-3-4-3.11-9.37H376.6c-.08 5.38-1.62 8-3.11 9.37a14.57 14.57 0 0 0-3.2 3.49 12.86 12.86 0 0 0-1.55 3.83 12.53 12.53 0 0 0-.29 2.23v52.56c0 2.21 6.52 4 14.56 4s14.55-1.79 14.56-4v-52.56a12.5 12.5 0 0 0-.3-2.23z"/><path class="cls-6" d="M395.45 229.89a11.2 11.2 0 0 0-1.35-3.34 11.52 11.52 0 0 0-2.58-2.85 31.11 31.11 0 0 1-17 0 11.42 11.42 0 0 0-2.55 2.83 11.2 11.2 0 0 0-1.35 3.34 10.92 10.92 0 0 0-.25 1.95v51.63c0 1.93 5.69 3.49 12.69 3.49s12.69-1.56 12.69-3.49v-51.61a10.9 10.9 0 0 0-.3-1.95z"/><path class="cls-2" d="M389.1 206.32h-12.18a2 2 0 0 0-2 2v4.88c0 .65 3.61 1.18 8.06 1.18s8.06-.53 8.06-1.18v-4.88a2 2 0 0 0-1.94-2z"/><ellipse class="cls-2" cx="383.01" cy="206.63" rx="6.88" ry="1.01"/><path class="cls-5" d="M383.13 240.69a60.17 60.17 0 0 1-14.68-1.79v33.24a54.8 54.8 0 0 0 23.55 1.21V240a59.93 59.93 0 0 1-8.87.69z"/><path class="cls-6" d="M374.47 223.72s7.18-3.63 17 0c.04-.02-9.05 2.64-17 0z"/><path class="cls-5" d="M423.64 230.69a12.85 12.85 0 0 0-1.55-3.83 14.56 14.56 0 0 0-3.2-3.49c-1.48-1.39-3-4-3.11-9.37H403c-.08 5.38-1.62 8-3.11 9.37a14.57 14.57 0 0 0-3.2 3.49 12.86 12.86 0 0 0-1.55 3.83 12.53 12.53 0 0 0-.29 2.23v52.56c0 2.21 6.52 4 14.56 4s14.55-1.79 14.56-4v-52.56a12.5 12.5 0 0 0-.33-2.23z"/><path class="cls-6" d="M421.81 230.72a11.2 11.2 0 0 0-1.35-3.34 11.52 11.52 0 0 0-2.58-2.85 31.11 31.11 0 0 1-17 0 11.42 11.42 0 0 0-2.55 2.83 11.2 11.2 0 0 0-1.35 3.34 10.92 10.92 0 0 0-.25 1.95v51.65c0 1.93 5.69 3.49 12.69 3.49s12.69-1.56 12.69-3.49v-51.63a10.9 10.9 0 0 0-.3-1.95z"/><path class="cls-2" d="M415.46 207.15h-12.18a2 2 0 0 0-2 2V214c0 .65 3.61 1.18 8.06 1.18s8.06-.53 8.06-1.18v-4.88a2 2 0 0 0-1.94-1.97z"/><ellipse class="cls-2" cx="409.37" cy="207.46" rx="6.88" ry="1.01"/><path class="cls-5" d="M409.49 241.52a60.17 60.17 0 0 1-14.68-1.79V273a54.8 54.8 0 0 0 23.58 1.22v-33.39a59.93 59.93 0 0 1-8.9.69z"/><path class="cls-6" d="M400.84 224.55s7.18-3.63 17 0c.04-.02-9.06 2.64-17 0z"/><path class="cls-5" d="M450.65 231.52a12.85 12.85 0 0 0-1.55-3.83 14.56 14.56 0 0 0-3.2-3.49c-1.48-1.39-3-4-3.11-9.37H430c-.08 5.38-1.62 8-3.11 9.37a14.57 14.57 0 0 0-3.2 3.49 12.86 12.86 0 0 0-1.55 3.83 12.53 12.53 0 0 0-.29 2.23v52.56c0 2.21 6.52 4 14.56 4s14.55-1.79 14.56-4v-52.56a12.5 12.5 0 0 0-.32-2.23z"/><path class="cls-6" d="M448.82 231.55a11.2 11.2 0 0 0-1.35-3.34 11.52 11.52 0 0 0-2.58-2.85 31.11 31.11 0 0 1-17 0 11.42 11.42 0 0 0-2.55 2.83 11.2 11.2 0 0 0-1.35 3.34 10.92 10.92 0 0 0-.25 1.95v51.63c0 1.93 5.69 3.49 12.69 3.49s12.69-1.56 12.69-3.49V233.5a10.9 10.9 0 0 0-.3-1.95z"/><path class="cls-2" d="M442.47 208h-12.18a2 2 0 0 0-2 2v4.88c0 .65 3.61 1.18 8.06 1.18s8.06-.53 8.06-1.18V210a2 2 0 0 0-1.94-2z"/><ellipse class="cls-2" cx="436.38" cy="208.29" rx="6.88" ry="1.01"/><path class="cls-5" d="M436.5 242.35a60.17 60.17 0 0 1-14.68-1.79v33.24a54.8 54.8 0 0 0 23.58 1.2v-33.34a59.93 59.93 0 0 1-8.9.69z"/><path class="cls-6" d="M427.84 225.38s7.18-3.63 17 0c.04-.02-9.05 2.62-17 0z"/><path class="cls-5" d="M477.77 231.52a12.85 12.85 0 0 0-1.55-3.83 14.56 14.56 0 0 0-3.2-3.49c-1.48-1.39-3-4-3.11-9.37h-12.82c-.08 5.38-1.62 8-3.11 9.37a14.57 14.57 0 0 0-3.2 3.49 12.86 12.86 0 0 0-1.55 3.83 12.53 12.53 0 0 0-.29 2.23v52.56c0 2.21 6.52 4 14.56 4s14.55-1.79 14.56-4v-52.56a12.5 12.5 0 0 0-.29-2.23z"/><path class="cls-6" d="M475.94 231.55a11.2 11.2 0 0 0-1.35-3.34 11.52 11.52 0 0 0-2.58-2.85 31.11 31.11 0 0 1-17 0 11.42 11.42 0 0 0-2.55 2.83 11.2 11.2 0 0 0-1.35 3.34 10.92 10.92 0 0 0-.25 1.95v51.63c0 1.93 5.69 3.49 12.69 3.49s12.69-1.56 12.69-3.49V233.5a10.9 10.9 0 0 0-.3-1.95z"/><path class="cls-2" d="M469.59 208h-12.18a2 2 0 0 0-2 2v4.88c0 .65 3.61 1.18 8.06 1.18s8.06-.53 8.06-1.18V210a2 2 0 0 0-1.94-2z"/><ellipse class="cls-2" cx="463.5" cy="208.29" rx="6.88" ry="1.01"/><path class="cls-5" d="M463.62 242.35a60.17 60.17 0 0 1-14.68-1.79v33.24a54.8 54.8 0 0 0 23.58 1.2v-33.34a59.93 59.93 0 0 1-8.9.69z"/><path class="cls-6" d="M455 225.38s7.18-3.63 17 0c0-.02-9.09 2.62-17 0z"/><path class="cls-5" d="M504.13 231.5a12.85 12.85 0 0 0-1.55-3.83 14.56 14.56 0 0 0-3.2-3.49c-1.48-1.39-3-4-3.11-9.37h-12.81c-.08 5.38-1.62 8-3.11 9.37a14.57 14.57 0 0 0-3.2 3.49 12.86 12.86 0 0 0-1.55 3.83 12.53 12.53 0 0 0-.29 2.23v52.56c0 2.21 6.52 4 14.56 4s14.55-1.79 14.56-4v-52.56a12.5 12.5 0 0 0-.3-2.23z"/><path class="cls-6" d="M502.3 231.53a11.2 11.2 0 0 0-1.35-3.34 11.52 11.52 0 0 0-2.58-2.85 31.11 31.11 0 0 1-17 0 11.42 11.42 0 0 0-2.55 2.83 11.2 11.2 0 0 0-1.35 3.34 10.92 10.92 0 0 0-.25 1.95v51.63c0 1.93 5.69 3.49 12.69 3.49s12.69-1.56 12.69-3.49v-51.61a10.9 10.9 0 0 0-.3-1.95z"/><path class="cls-2" d="M496 208h-12.23a2 2 0 0 0-2 2v4.88c0 .65 3.61 1.18 8.06 1.18s8.06-.53 8.06-1.18V210a2 2 0 0 0-1.89-2z"/><ellipse class="cls-2" cx="489.86" cy="208.27" rx="6.88" ry="1.01"/><path class="cls-5" d="M490 242.33a60.17 60.17 0 0 1-14.68-1.79v33.24a54.8 54.8 0 0 0 23.56 1.22v-33.36a59.93 59.93 0 0 1-8.88.69z"/><path class="cls-6" d="M481.33 225.36s7.18-3.63 17 0c.04-.02-9.06 2.64-17 0z"/><path class="cls-5" d="M531.25 232.35a12.85 12.85 0 0 0-1.55-3.83 14.56 14.56 0 0 0-3.2-3.49c-1.48-1.39-3-4-3.11-9.37h-12.81c-.08 5.38-1.62 8-3.11 9.37a14.57 14.57 0 0 0-3.2 3.49 12.86 12.86 0 0 0-1.55 3.83 12.53 12.53 0 0 0-.29 2.23v52.56c0 2.21 6.52 4 14.56 4s14.55-1.79 14.56-4v-52.56a12.5 12.5 0 0 0-.3-2.23z"/><path class="cls-6" d="M529.42 232.38a11.2 11.2 0 0 0-1.35-3.34 11.52 11.52 0 0 0-2.58-2.85 31.11 31.11 0 0 1-17 0 11.42 11.42 0 0 0-2.59 2.81 11.2 11.2 0 0 0-1.35 3.34 10.92 10.92 0 0 0-.25 1.95V286c0 1.93 5.69 3.49 12.69 3.49s12.69-1.56 12.69-3.49v-51.67a10.9 10.9 0 0 0-.26-1.95z"/><path class="cls-2" d="M523.07 208.81h-12.18a2 2 0 0 0-2 2v4.88c0 .65 3.61 1.18 8.06 1.18s8.06-.53 8.06-1.18v-4.88a2 2 0 0 0-1.94-2z"/><ellipse class="cls-5" cx="516.98" cy="209.12" rx="6.88" ry="1.01"/><path class="cls-7" d="M517.11 243.17a60.17 60.17 0 0 1-14.68-1.79v33.24a54.8 54.8 0 0 0 23.57 1.22v-33.35a59.93 59.93 0 0 1-8.89.68z"/><path class="cls-6" d="M508.45 226.21s7.18-3.63 17 0c.04-.02-9.06 2.64-17 0z"/><path class="cls-5" d="M357.41 230.71a12.85 12.85 0 0 0-1.55-3.83 14.56 14.56 0 0 0-3.2-3.49c-1.48-1.39-3-4-3.11-9.37h-12.81c-.08 5.38-1.62 8-3.11 9.37a14.57 14.57 0 0 0-3.2 3.49 12.86 12.86 0 0 0-1.55 3.83 12.53 12.53 0 0 0-.29 2.23v52.56c0 2.21 6.52 4 14.56 4s14.55-1.79 14.56-4v-52.56a12.5 12.5 0 0 0-.3-2.23z"/><path class="cls-6" d="M355.58 230.74a11.2 11.2 0 0 0-1.35-3.34 11.52 11.52 0 0 0-2.58-2.85 31.11 31.11 0 0 1-17 0 11.42 11.42 0 0 0-2.55 2.83 11.2 11.2 0 0 0-1.35 3.34 10.92 10.92 0 0 0-.25 1.95v51.63c0 1.93 5.69 3.49 12.69 3.49s12.69-1.56 12.69-3.49v-51.61a10.9 10.9 0 0 0-.3-1.95z"/><path class="cls-2" d="M349.23 207.17h-12.18a2 2 0 0 0-2 2V214c0 .65 3.61 1.18 8.06 1.18s8.06-.53 8.06-1.18v-4.88a2 2 0 0 0-1.94-1.95z"/><ellipse class="cls-2" cx="343.14" cy="207.48" rx="6.88" ry="1.01"/><path class="cls-7" d="M343.26 241.54a60.17 60.17 0 0 1-14.68-1.79V273a54.8 54.8 0 0 0 23.58 1.22v-33.37a59.93 59.93 0 0 1-8.9.69z"/><path class="cls-6" d="M334.61 224.57s7.18-3.63 17 0c.04-.02-9.06 2.64-17 0z"/><path class="cls-5" d="M384.53 232.41a12.85 12.85 0 0 0-1.55-3.83 14.56 14.56 0 0 0-3.2-3.49c-1.48-1.39-3-4-3.11-9.37h-12.81c-.08 5.38-1.62 8-3.11 9.37a14.57 14.57 0 0 0-3.2 3.49 12.86 12.86 0 0 0-1.55 3.83 12.53 12.53 0 0 0-.29 2.23v52.56c0 2.21 6.52 4 14.56 4s14.55-1.79 14.56-4v-52.56a12.5 12.5 0 0 0-.3-2.23z"/><path class="cls-6" d="M382.7 232.44a11.2 11.2 0 0 0-1.35-3.34 11.52 11.52 0 0 0-2.58-2.85 31.11 31.11 0 0 1-17 0 11.42 11.42 0 0 0-2.55 2.83 11.2 11.2 0 0 0-1.35 3.34 10.92 10.92 0 0 0-.25 1.95V286c0 1.93 5.69 3.49 12.69 3.49S383 288 383 286v-51.61a10.9 10.9 0 0 0-.3-1.95z"/><path class="cls-2" d="M376.35 208.87h-12.18a2 2 0 0 0-2 2v4.88c0 .65 3.61 1.18 8.06 1.18s8.06-.53 8.06-1.18v-4.88a2 2 0 0 0-1.94-2z"/><ellipse class="cls-2" cx="370.26" cy="209.18" rx="6.88" ry="1.01"/><path class="cls-7" d="M370.38 243.24a60.17 60.17 0 0 1-14.68-1.79v33.24a54.8 54.8 0 0 0 23.58 1.22v-33.36a59.93 59.93 0 0 1-8.9.69z"/><path class="cls-6" d="M361.73 226.27s7.18-3.63 17 0c.04-.02-9.06 2.64-17 0z"/><path class="cls-5" d="M410.9 233.24a12.85 12.85 0 0 0-1.55-3.83 14.56 14.56 0 0 0-3.2-3.49c-1.48-1.39-3-4-3.11-9.37h-12.82c-.08 5.38-1.62 8-3.11 9.37a14.57 14.57 0 0 0-3.2 3.49 12.86 12.86 0 0 0-1.55 3.83 12.53 12.53 0 0 0-.29 2.23V288c0 2.21 6.52 4 14.56 4s14.55-1.79 14.56-4v-52.53a12.5 12.5 0 0 0-.29-2.23z"/><path class="cls-6" d="M409.07 233.27a11.2 11.2 0 0 0-1.35-3.34 11.52 11.52 0 0 0-2.58-2.85 31.11 31.11 0 0 1-17 0 11.42 11.42 0 0 0-2.55 2.83 11.2 11.2 0 0 0-1.35 3.34 10.92 10.92 0 0 0-.25 1.95v51.63c0 1.93 5.69 3.49 12.69 3.49s12.69-1.56 12.69-3.49v-51.61a10.9 10.9 0 0 0-.3-1.95z"/><path class="cls-2" d="M402.72 209.7h-12.18a2 2 0 0 0-2 2v4.88c0 .65 3.61 1.18 8.06 1.18s8.06-.53 8.06-1.18v-4.88a2 2 0 0 0-1.94-2z"/><ellipse class="cls-2" cx="396.63" cy="210.01" rx="6.88" ry="1.01"/><path class="cls-7" d="M396.75 244.06a60.17 60.17 0 0 1-14.68-1.79v33.24a54.8 54.8 0 0 0 23.58 1.22v-33.35a59.93 59.93 0 0 1-8.9.68z"/><path class="cls-6" d="M388.09 227.1s7.18-3.63 17 0c.05-.02-9.09 2.64-17 0z"/><path class="cls-5" d="M437.9 234.07a12.85 12.85 0 0 0-1.55-3.83 14.56 14.56 0 0 0-3.2-3.49c-1.48-1.39-3-4-3.11-9.37h-12.81c-.08 5.38-1.62 8-3.11 9.37a14.57 14.57 0 0 0-3.2 3.49 12.86 12.86 0 0 0-1.55 3.83 12.53 12.53 0 0 0-.29 2.23v52.56c0 2.21 6.52 4 14.56 4s14.55-1.79 14.56-4V236.3a12.5 12.5 0 0 0-.3-2.23z"/><path class="cls-6" d="M436.07 234.1a11.2 11.2 0 0 0-1.35-3.34 11.52 11.52 0 0 0-2.58-2.85 31.11 31.11 0 0 1-17 0 11.42 11.42 0 0 0-2.55 2.83 11.2 11.2 0 0 0-1.35 3.34 10.92 10.92 0 0 0-.25 1.95v51.63c0 1.93 5.69 3.49 12.69 3.49s12.69-1.56 12.69-3.49V236a10.9 10.9 0 0 0-.3-1.9z"/><path class="cls-2" d="M429.72 210.53h-12.18a2 2 0 0 0-2 2v4.88c0 .65 3.61 1.18 8.06 1.18s8.06-.53 8.06-1.18v-4.91a2 2 0 0 0-1.94-1.97z"/><ellipse class="cls-2" cx="423.63" cy="210.83" rx="6.88" ry="1.01"/><path class="cls-7" d="M423.75 244.89a60.17 60.17 0 0 1-14.68-1.79v33.24a54.8 54.8 0 0 0 23.58 1.22v-33.35a59.93 59.93 0 0 1-8.9.68z"/><path class="cls-6" d="M415.1 227.93s7.18-3.63 17 0c.04-.03-9.1 2.64-17 0z"/><path class="cls-5" d="M82.84 311.43a9.91 9.91 0 0 0-1.2-3 11.23 11.23 0 0 0-2.47-2.69c-1.14-1.07-2.34-3.08-2.4-7.22H66.9c-.06 4.14-1.25 6.15-2.4 7.22a11.23 11.23 0 0 0-2.5 2.73 9.91 9.91 0 0 0-1.2 3 9.66 9.66 0 0 0-.22 1.72v40.53c0 1.71 5 3.09 11.23 3.09s11.22-1.38 11.23-3.09v-40.57a9.64 9.64 0 0 0-.2-1.72z"/><path class="cls-8" d="M81.43 311.46a8.64 8.64 0 0 0-1-2.58 8.88 8.88 0 0 0-2-2.2 24 24 0 0 1-13.14 0 8.81 8.81 0 0 0-2 2.18 8.64 8.64 0 0 0-1 2.58A8.42 8.42 0 0 0 62 313v39.81c0 1.49 4.38 2.69 9.79 2.69s9.78-1.2 9.79-2.69V313a8.41 8.41 0 0 0-.15-1.54z"/><path class="cls-2" d="M76.53 293.28h-9.39a1.52 1.52 0 0 0-1.52 1.52v3.76c0 .5 2.78.91 6.21.91s6.21-.41 6.21-.91v-3.76a1.52 1.52 0 0 0-1.51-1.52z"/><ellipse class="cls-2" cx="71.84" cy="293.51" rx="5.31" ry=".78"/><path class="cls-7" d="M71.93 319.78a46.4 46.4 0 0 1-11.32-1.38V344a42.26 42.26 0 0 0 18.18.94v-25.69a46.21 46.21 0 0 1-6.86.53z"/><path class="cls-8" d="M65.25 306.69s5.53-2.8 13.14 0c.01-.01-7.01 2.04-13.14 0z"/><path class="cls-5" d="M109.35 313.6a9.91 9.91 0 0 0-1.2-3 11.23 11.23 0 0 0-2.47-2.69c-1.14-1.07-2.34-3.08-2.4-7.22h-9.87c-.06 4.14-1.25 6.15-2.4 7.22a11.23 11.23 0 0 0-2.47 2.69 9.91 9.91 0 0 0-1.2 3 9.66 9.66 0 0 0-.22 1.72v40.53c0 1.71 5 3.09 11.23 3.09s11.22-1.38 11.23-3.09v-40.53a9.64 9.64 0 0 0-.23-1.72z"/><path class="cls-8" d="M107.94 313.62a8.64 8.64 0 0 0-1-2.58 8.88 8.88 0 0 0-2-2.2 24 24 0 0 1-13.14 0 8.81 8.81 0 0 0-2 2.18 8.64 8.64 0 0 0-1 2.58 8.42 8.42 0 0 0-.2 1.5v39.81c0 1.49 4.38 2.69 9.79 2.69s9.78-1.2 9.79-2.69v-39.79a8.41 8.41 0 0 0-.24-1.5z"/><path class="cls-2" d="M103 295.45h-9.35a1.52 1.52 0 0 0-1.52 1.55v3.76c0 .5 2.78.91 6.21.91s6.21-.41 6.21-.91V297a1.52 1.52 0 0 0-1.55-1.55z"/><ellipse class="cls-2" cx="98.35" cy="295.68" rx="5.31" ry=".78"/><path class="cls-7" d="M98.44 321.94a46.4 46.4 0 0 1-11.32-1.38v25.64a42.26 42.26 0 0 0 18.18.94v-25.72a46.21 46.21 0 0 1-6.86.52z"/><path class="cls-8" d="M91.76 308.86s5.53-2.8 13.14 0c.01-.02-7.01 2.04-13.14 0z"/><path class="cls-5" d="M137 315.25a9.91 9.91 0 0 0-1.2-3 11.23 11.23 0 0 0-2.47-2.69c-1.14-1.07-2.34-3.08-2.4-7.22h-9.88c-.06 4.14-1.25 6.15-2.4 7.22a11.23 11.23 0 0 0-2.47 2.69 9.91 9.91 0 0 0-1.2 3 9.66 9.66 0 0 0-.22 1.72v40.53c0 1.71 5 3.09 11.23 3.09s11.22-1.38 11.23-3.09V317a9.64 9.64 0 0 0-.22-1.75z"/><path class="cls-8" d="M135.62 315.27a8.64 8.64 0 0 0-1-2.58 8.88 8.88 0 0 0-2-2.2 24 24 0 0 1-13.14 0 8.81 8.81 0 0 0-2 2.18 8.64 8.64 0 0 0-1 2.58 8.42 8.42 0 0 0-.2 1.5v39.81c0 1.49 4.38 2.69 9.79 2.69s9.78-1.2 9.79-2.69v-39.79a8.41 8.41 0 0 0-.24-1.5z"/><path class="cls-2" d="M130.72 297.1h-9.39a1.52 1.52 0 0 0-1.52 1.52v3.76c0 .5 2.78.91 6.21.91s6.21-.41 6.21-.91v-3.76a1.52 1.52 0 0 0-1.51-1.52z"/><ellipse class="cls-2" cx="126.02" cy="297.33" rx="5.31" ry=".78"/><path class="cls-7" d="M126.12 323.59a46.4 46.4 0 0 1-11.32-1.38v25.63a42.26 42.26 0 0 0 18.18.94v-25.71a46.21 46.21 0 0 1-6.86.52z"/><path class="cls-8" d="M119.44 310.51s5.53-2.8 13.14 0c0-.02-7.01 2.04-13.14 0z"/><path class="cls-5" d="M61.6 316.26a9.91 9.91 0 0 0-1.2-3 11.23 11.23 0 0 0-2.47-2.69c-1.14-1.07-2.34-3.08-2.4-7.22h-9.87c-.06 4.14-1.25 6.15-2.4 7.22a11.23 11.23 0 0 0-2.47 2.69 9.91 9.91 0 0 0-1.2 3 9.66 9.66 0 0 0-.22 1.72v40.53c0 1.71 5 3.09 11.23 3.09s11.22-1.38 11.23-3.09V318a9.64 9.64 0 0 0-.23-1.74z"/><path class="cls-8" d="M60.19 316.29a8.64 8.64 0 0 0-1-2.58 8.88 8.88 0 0 0-2-2.2 24 24 0 0 1-13.14 0 8.81 8.81 0 0 0-2 2.18 8.64 8.64 0 0 0-1 2.58 8.42 8.42 0 0 0-.2 1.5v39.83c0 1.49 4.38 2.69 9.79 2.69s9.78-1.2 9.79-2.69v-39.81a8.41 8.41 0 0 0-.24-1.5z"/><path class="cls-2" d="M55.3 298.11h-9.4a1.52 1.52 0 0 0-1.52 1.52v3.76c0 .5 2.78.91 6.21.91s6.21-.41 6.21-.91v-3.76a1.52 1.52 0 0 0-1.5-1.52z"/><ellipse class="cls-2" cx="50.6" cy="298.35" rx="5.31" ry=".78"/><path class="cls-7" d="M50.69 324.61a46.4 46.4 0 0 1-11.32-1.38v25.63a42.26 42.26 0 0 0 18.18.94v-25.72a46.21 46.21 0 0 1-6.86.53z"/><path class="cls-8" d="M44 311.53s5.53-2.8 13.14 0c.02-.02-6.99 2.04-13.14 0z"/><path class="cls-5" d="M87.49 318.16a9.91 9.91 0 0 0-1.2-3 11.23 11.23 0 0 0-2.47-2.69c-1.14-1.07-2.34-3.08-2.4-7.22h-9.87c-.06 4.14-1.25 6.15-2.4 7.22a11.23 11.23 0 0 0-2.47 2.69 9.91 9.91 0 0 0-1.2 3 9.66 9.66 0 0 0-.22 1.72v40.52c0 1.71 5 3.09 11.23 3.09s11.22-1.38 11.23-3.09v-40.52a9.64 9.64 0 0 0-.23-1.72z"/><path class="cls-8" d="M86.08 318.18a8.64 8.64 0 0 0-1-2.58 8.88 8.88 0 0 0-2-2.2 24 24 0 0 1-13.14 0 8.81 8.81 0 0 0-2 2.18 8.64 8.64 0 0 0-1 2.58 8.42 8.42 0 0 0-.2 1.5v39.81c0 1.49 4.38 2.69 9.79 2.69s9.78-1.2 9.79-2.69v-39.79a8.41 8.41 0 0 0-.24-1.5z"/><path class="cls-2" d="M81.19 300h-9.4a1.52 1.52 0 0 0-1.52 1.52v3.76c0 .5 2.78.91 6.21.91s6.21-.41 6.21-.91v-3.76a1.52 1.52 0 0 0-1.5-1.52z"/><ellipse class="cls-2" cx="76.49" cy="300.24" rx="5.31" ry=".78"/><path class="cls-7" d="M76.58 326.5a46.4 46.4 0 0 1-11.32-1.38v25.63a42.26 42.26 0 0 0 18.18.94V326a46.21 46.21 0 0 1-6.86.5z"/><path class="cls-8" d="M69.91 313.42s5.53-2.8 13.14 0c0-.02-7.05 2.04-13.14 0z"/><path class="cls-5" d="M113.42 320.82a9.91 9.91 0 0 0-1.2-3 11.23 11.23 0 0 0-2.47-2.69c-1.14-1.07-2.34-3.08-2.4-7.22h-9.87c-.06 4.14-1.25 6.15-2.4 7.22a11.23 11.23 0 0 0-2.47 2.69 9.91 9.91 0 0 0-1.2 3 9.66 9.66 0 0 0-.22 1.72v40.53c0 1.71 5 3.09 11.23 3.09s11.22-1.38 11.23-3.09v-40.53a9.64 9.64 0 0 0-.23-1.72z"/><path class="cls-8" d="M112 320.84a8.64 8.64 0 0 0-1-2.58 8.88 8.88 0 0 0-2-2.2 24 24 0 0 1-13.14 0 8.81 8.81 0 0 0-2 2.18 8.64 8.64 0 0 0-1 2.58 8.42 8.42 0 0 0-.2 1.5v39.81c0 1.49 4.38 2.69 9.79 2.69s9.78-1.2 9.79-2.69v-39.79a8.41 8.41 0 0 0-.24-1.5z"/><path class="cls-2" d="M107.12 302.67h-9.39a1.52 1.52 0 0 0-1.52 1.52v3.76c0 .5 2.78.91 6.21.91s6.21-.41 6.21-.91v-3.76a1.52 1.52 0 0 0-1.51-1.52z"/><ellipse class="cls-2" cx="102.42" cy="302.9" rx="5.31" ry=".78"/><path class="cls-7" d="M102.52 329.16a46.4 46.4 0 0 1-11.32-1.38v25.63a42.26 42.26 0 0 0 18.18.94v-25.71a46.21 46.21 0 0 1-6.86.52z"/><path class="cls-8" d="M95.84 316.08s5.53-2.8 13.14 0c.02-.02-6.98 2.04-13.14 0z"/><path class="cls-5" d="M135.83 323.18a9.91 9.91 0 0 0-1.2-3 11.23 11.23 0 0 0-2.47-2.69c-1.14-1.07-2.34-3.08-2.4-7.22h-9.88c-.06 4.14-1.25 6.15-2.4 7.22a11.23 11.23 0 0 0-2.47 2.69 9.91 9.91 0 0 0-1.2 3 9.66 9.66 0 0 0-.22 1.72v40.53c0 1.71 5 3.09 11.23 3.09s11.22-1.38 11.23-3.09V324.9a9.64 9.64 0 0 0-.22-1.72z"/><path class="cls-8" d="M134.42 323.21a8.64 8.64 0 0 0-1-2.58 8.88 8.88 0 0 0-2-2.2 24 24 0 0 1-13.14 0 8.81 8.81 0 0 0-2 2.18 8.64 8.64 0 0 0-1 2.58 8.42 8.42 0 0 0-.2 1.5v39.81c0 1.49 4.38 2.69 9.79 2.69s9.78-1.2 9.79-2.69v-39.79a8.41 8.41 0 0 0-.24-1.5z"/><path class="cls-2" d="M129.52 305h-9.39a1.52 1.52 0 0 0-1.52 1.52v3.76c0 .5 2.78.91 6.21.91s6.21-.41 6.21-.91v-3.76a1.52 1.52 0 0 0-1.51-1.52z"/><ellipse class="cls-2" cx="124.83" cy="305.27" rx="5.31" ry=".78"/><path class="cls-7" d="M124.92 331.53a46.4 46.4 0 0 1-11.32-1.38v25.63a42.26 42.26 0 0 0 18.18.94V331a46.21 46.21 0 0 1-6.86.53z"/><path class="cls-8" d="M118.24 318.45s5.53-2.8 13.14 0c.01-.02-7.01 2.04-13.14 0z"/><path class="cls-5" d="M465 234.92a12.85 12.85 0 0 0-1.55-3.83 14.56 14.56 0 0 0-3.2-3.49c-1.48-1.39-3-4-3.11-9.37h-12.79c-.08 5.38-1.62 8-3.11 9.37a14.57 14.57 0 0 0-3.2 3.49 12.86 12.86 0 0 0-1.55 3.83 12.53 12.53 0 0 0-.29 2.23v52.56c0 2.21 6.52 4 14.56 4s14.55-1.79 14.56-4v-52.56a12.5 12.5 0 0 0-.32-2.23z"/><path class="cls-6" d="M463.19 235a11.2 11.2 0 0 0-1.35-3.34 11.52 11.52 0 0 0-2.58-2.85 31.11 31.11 0 0 1-17 0 11.42 11.42 0 0 0-2.55 2.83 11.2 11.2 0 0 0-1.35 3.34 10.92 10.92 0 0 0-.25 1.95v51.63c0 1.93 5.69 3.49 12.69 3.49s12.69-1.56 12.69-3.49V236.9a10.9 10.9 0 0 0-.3-1.9z"/><path class="cls-2" d="M456.84 211.38h-12.18a2 2 0 0 0-2 2v4.88c0 .65 3.61 1.18 8.06 1.18s8.06-.53 8.06-1.18v-4.88a2 2 0 0 0-1.94-2z"/><ellipse class="cls-2" cx="450.75" cy="211.68" rx="6.88" ry="1.01"/><path class="cls-7" d="M450.88 245.74a60.17 60.17 0 0 1-14.69-1.74v33.2a54.8 54.8 0 0 0 23.58 1.22v-33.36a59.93 59.93 0 0 1-8.89.68z"/><path class="cls-6" d="M442.22 228.78s7.18-3.63 17 0c.04-.03-9.06 2.64-17 0z"/><path class="cls-5" d="M491.39 235.75a12.85 12.85 0 0 0-1.55-3.83 14.56 14.56 0 0 0-3.2-3.49c-1.48-1.39-3-4-3.11-9.37h-12.82c-.08 5.38-1.62 8-3.11 9.37a14.57 14.57 0 0 0-3.2 3.49 12.86 12.86 0 0 0-1.55 3.83 12.53 12.53 0 0 0-.29 2.23v52.56c0 2.21 6.52 4 14.56 4s14.55-1.79 14.56-4V238a12.5 12.5 0 0 0-.29-2.25z"/><path class="cls-6" d="M489.56 235.78a11.2 11.2 0 0 0-1.35-3.34 11.52 11.52 0 0 0-2.58-2.85 31.11 31.11 0 0 1-17 0 11.42 11.42 0 0 0-2.55 2.83 11.2 11.2 0 0 0-1.35 3.34 10.92 10.92 0 0 0-.25 1.95v51.63c0 1.93 5.69 3.49 12.69 3.49s12.69-1.56 12.69-3.49v-51.61a10.9 10.9 0 0 0-.3-1.95z"/><path class="cls-2" d="M483.21 212.21H471a2 2 0 0 0-2 2v4.88c0 .65 3.61 1.18 8.06 1.18s8.06-.53 8.06-1.18v-4.88a2 2 0 0 0-1.91-2z"/><ellipse class="cls-2" cx="477.12" cy="212.51" rx="6.88" ry="1.01"/><path class="cls-7" d="M477.24 246.57a60.17 60.17 0 0 1-14.68-1.79V278a54.8 54.8 0 0 0 23.58 1.22v-33.33a59.93 59.93 0 0 1-8.9.68z"/><path class="cls-6" d="M468.59 229.61s7.18-3.63 17 0c.04-.03-9.06 2.64-17 0z"/><path class="cls-5" d="M518.51 236.6a12.85 12.85 0 0 0-1.55-3.83 14.56 14.56 0 0 0-3.2-3.49c-1.48-1.39-3-4-3.11-9.37h-12.82c-.08 5.38-1.62 8-3.11 9.37a14.57 14.57 0 0 0-3.2 3.49 12.86 12.86 0 0 0-1.52 3.83 12.53 12.53 0 0 0-.29 2.23v52.56c0 2.21 6.52 4 14.56 4s14.55-1.79 14.56-4v-52.56a12.5 12.5 0 0 0-.32-2.23z"/><path class="cls-6" d="M516.68 236.63a11.2 11.2 0 0 0-1.35-3.34 11.52 11.52 0 0 0-2.58-2.85 31.11 31.11 0 0 1-17 0 11.42 11.42 0 0 0-2.55 2.83 11.2 11.2 0 0 0-1.35 3.34 10.92 10.92 0 0 0-.25 1.95v51.63c0 1.93 5.69 3.49 12.69 3.49s12.69-1.56 12.69-3.49v-51.61a10.9 10.9 0 0 0-.3-1.95z"/><path class="cls-2" d="M510.33 213.06h-12.18a2 2 0 0 0-2 2v4.88c0 .65 3.61 1.18 8.06 1.18s8.06-.53 8.06-1.18V215a2 2 0 0 0-1.94-1.94z"/><ellipse class="cls-2" cx="504.24" cy="213.36" rx="6.88" ry="1.01"/><path class="cls-7" d="M504.36 247.42a60.17 60.17 0 0 1-14.68-1.79v33.24a54.8 54.8 0 0 0 23.58 1.22v-33.35a59.93 59.93 0 0 1-8.9.68z"/><path class="cls-6" d="M495.71 230.46s7.18-3.63 17 0c.04-.03-9.06 2.64-17 0z"/><path class="cls-2" d="M511.29 103.44h5.47a1.7 1.7 0 0 1 1.7 1.7v1.42h-8.88v-1.42a1.7 1.7 0 0 1 1.71-1.7z"/><path class="cls-3" d="M513.55 193.65l-25.97.31v-86.6l25.97-1.27v87.56z"/><path class="cls-2" d="M513.55 173.76l-25.97.53v-7.48l25.97-.62v7.57zm-7.5-22.28c0 5-3 9.11-6.61 9.21s-6.58-3.85-6.58-8.81 2.94-9.08 6.58-9.21 6.61 3.82 6.61 8.81zm32.5 41.9l-25 .27v-87.56l25 2.81v84.48z"/><path class="cls-2" d="M538.55 174.19l-25-.43v-7.57l25 .7v7.3z"/><path class="cls-3" d="M538.55 193.38l-25 .27v-87.56l25 2.81v84.48z"/><path class="cls-2" d="M522.69 1.35v72.63L14.08 105V47.71L522.69 1.35zm0 72.63v20.36L14.08 121.05V105l508.61-31.02z"/><path class="cls-2" d="M522.69 83.56v1.2L14.08 113.49v-.94l508.61-28.99zm0-9.58v1.2L14.08 105.94V105l508.61-31.02zm0 14.61v1.19L14.08 117.46v-.94l508.61-27.93zm0-9.51v1.2L14.08 109.96v-.94l508.61-29.94zm0 14.06v1.2L14.08 121.05v-.95l508.61-26.96zm0 401.35v14.65L14.08 448.18v-11.56l508.61 57.87z"/><path class="cls-2" d="M522.69 480.05v14.65L14.08 436.79v-11.56l508.61 54.82zm0-41.51L14.04 392.5v-5.9l508.65 44.46v7.48z"/><path class="cls-2" d="M241.22 413.06l-5.81-.52v36.55l5.81.62v-36.65zM121.21 402.2l-5.17-.47v34.49l5.17.56V402.2zm255.29 23.11l-6.56-.6v38.87l6.56.71v-38.98zm146.19-21.63v9.15L14.08 372.22v-7.21l508.61 38.67zm0-212.02v9.15l-508.61 4.21v-7.22l508.61-6.14z"/><path class="cls-9" d="M81.49 280.84l-22.79-.59v-55.46l22.79.12v55.93z"/><path class="cls-10" d="M81.49 268.14l-22.79-.49v-4.79l22.79.45v4.83zm0-16.27l-22.79-.35v-9.44l22.79.27v9.52zm0 28.97l-22.79-.59v-9.29l22.79.52v9.36z"/><path class="cls-2" transform="rotate(.11 73.137 223.904)" d="M69.11 210.65h1.87v5.31h-1.87z"/><path class="cls-2" d="M81.49 224.91l-1.34 1.32-11.43-11.41 1.32-1.32 11.45 11.41z"/><path class="cls-2" d="M58.7 224.79l1.31 1.32 11.36-11.28-1.33-1.32-11.34 11.28z"/><path class="cls-2" d="M80.21 224.91L60 224.8l10-4.73z"/><path class="cls-2" d="M60 224.8l10-4.73v-5.12l-4.23 4.12zm20.21.11L70 220.07v-5.12l4.24 4.15z"/><path class="cls-9" d="M96.09 279.04l-14.6 1.78v-55.91l14.6 3.06v51.07z"/><path class="cls-9" d="M96.09 267.44l-14.6.68v-4.83l14.6-.26v4.41zm0 11.6l-14.6 1.78v-9.36l14.6-.97v8.55z"/><path class="cls-9" d="M96.09 279.04l-14.6 1.78v-55.91l14.6 3.06v51.07z"/><path class="cls-2" d="M96.09 228l-14.6-3.06L71 214.44l14.68 4.41z"/><path class="cls-2" d="M85.58 216L71 210.65v3.79l14.68 4.41z"/><path class="cls-11" d="M69.61 234.1c-4.49 0-8.13 5.17-8.13 11.54s3.64 11.54 8.13 11.54 8.13-5.16 8.13-11.54-3.64-11.54-8.13-11.54z"/><path class="cls-12" d="M69.71 244.46c0 .4-.33.57-.48.22L66.34 238c-.26-.58 1-1.73 2-2 .53-.14 1.73-.36 1.7.45l-.32 8.06zm-.54.26c.23.43 0 .76-.27.61l-5.25-2.52c-.46-.21 0-2.22.61-3.35.34-.59 1.16-1.85 1.5-1.2l3.4 6.46zm-.29.69a.38.38 0 0 1 .07.71L63.79 249c-.45.26-1-1.67-1-3.12 0-.76 0-2.48.61-2.29l5.54 1.85zm.09.79c.34-.25.52.09.37.48l-2.66 6.9c-.23.61-1.55-.34-2.22-1.44-.35-.57-1.08-1.94-.57-2.31l5.11-3.62zm.43.53c.15-.5.44-.41.51 0l1.09 7.75c.1.67-1.34 1.15-2.35.92-.53-.12-1.71-.5-1.48-1.25l2.24-7.42zm.57 0c-.11-.52.15-.72.4-.44l4.32 4.91c.38.43-.5 2.11-1.38 2.85-.46.39-1.54 1.18-1.7.4l-1.61-7.7zm.44-.51c-.33-.31-.2-.69.11-.7l5.54-.18c.49 0 .57 2.07.23 3.44-.18.72-.64 2.3-1.12 1.86l-4.76-4.42zm.11-.79c-.39.06-.46-.35-.23-.64l4.16-5.19c.36-.46 1.37 1.07 1.74 2.43.19.71.55 2.35 0 2.45l-5.65 1zm-.28-.71c-.27.41-.51.16-.47-.27l.84-7.78c.07-.68 1.54-.43 2.43.28.47.37 1.49 1.3 1.1 1.89l-3.89 5.88z"/><path class="cls-9" d="M109.74 281.35l-22.79-.6V225.3l22.79.12v55.93z"/><path class="cls-10" d="M109.74 268.65l-22.79-.49v-4.79l22.79.44v4.84zm0-16.27l-22.79-.35v-9.44l22.79.27v9.52zm0 28.97l-22.79-.6v-9.28l22.79.52v9.36z"/><path class="cls-2" transform="rotate(.11 104.39 223.874)" d="M97.36 211.16h1.87v5.31h-1.87z"/><path class="cls-2" d="M109.74 225.42l-1.33 1.32-11.44-11.41 1.32-1.32 11.45 11.41z"/><path class="cls-2" d="M86.95 225.3l1.31 1.32 11.36-11.28-1.32-1.32-11.35 11.28z"/><path class="cls-2" d="M108.46 225.42l-20.25-.11 10.09-4.73z"/><path class="cls-2" d="M88.21 225.31l10.09-4.73v-5.12l-4.23 4.12zm20.25.11l-10.16-4.84v-5.12l4.24 4.15z"/><path class="cls-9" d="M124.34 279.55l-14.6 1.78v-55.91l14.6 3.06v51.07z"/><path class="cls-9" d="M124.34 267.95l-14.6.68v-4.83l14.6-.26v4.41zm0 11.6l-14.6 1.78v-9.36l14.6-.97v8.55z"/><path class="cls-9" d="M124.34 279.55l-14.6 1.78v-55.91l14.6 3.06v51.07z"/><path class="cls-2" d="M124.34 228.48l-14.6-3.06L99.23 215l14.68 4.41z"/><path class="cls-2" d="M113.83 216.51l-14.6-5.35V215l14.68 4.41z"/><path class="cls-11" d="M97.87 234.61c-4.49 0-8.13 5.17-8.13 11.54s3.64 11.54 8.13 11.54 8.13-5.16 8.13-11.54-3.64-11.54-8.13-11.54z"/><path class="cls-12" d="M98 245c0 .4-.33.57-.48.22l-2.88-6.72c-.26-.58 1-1.73 2-2 .53-.14 1.73-.36 1.7.45L98 245zm-.54.26c.23.43 0 .76-.27.61l-5.25-2.52c-.46-.21 0-2.22.61-3.35.34-.59 1.16-1.85 1.5-1.2l3.4 6.46zm-.29.69a.38.38 0 0 1 .07.71L92 249.5c-.45.26-1-1.67-1-3.12 0-.76 0-2.48.61-2.29l5.54 1.85zm.09.79c.34-.25.52.09.37.48l-2.66 6.9c-.23.61-1.55-.34-2.22-1.44-.35-.57-1.08-1.94-.57-2.31l5.08-3.64zm.43.53c.15-.5.44-.41.51 0l1.05 7.73c.1.67-1.34 1.15-2.35.92-.53-.12-1.71-.5-1.48-1.25l2.24-7.42zm.57 0c-.11-.52.15-.72.4-.44l4.32 4.91c.38.43-.5 2.11-1.38 2.85-.46.39-1.54 1.18-1.7.4l-1.64-7.73zm.44-.51c-.33-.31-.2-.69.11-.7l5.54-.18c.49 0 .57 2.07.23 3.44-.18.72-.64 2.3-1.12 1.86l-4.76-4.42zm.11-.79c-.39.06-.46-.35-.23-.64l4.16-5.19c.36-.46 1.37 1.07 1.74 2.43.19.71.55 2.35 0 2.45l-5.65 1zm-.28-.71c-.27.41-.51.16-.47-.27l.84-7.78c.07-.68 1.54-.43 2.43.28.47.37 1.49 1.3 1.1 1.89l-3.89 5.88z"/><path class="cls-9" d="M137.42 280.84l-22.79-.59v-55.46l22.79.12v55.93z"/><path class="cls-10" d="M137.42 268.14l-22.79-.49v-4.79l22.79.44v4.84zm0-16.27l-22.79-.35v-9.44l22.79.27v9.52zm0 28.97l-22.79-.59v-9.29l22.79.52v9.36z"/><path class="cls-2" transform="rotate(.11 130.433 223.85)" d="M125.04 210.65h1.87v5.31h-1.87z"/><path class="cls-2" d="M137.42 224.91l-1.34 1.32-11.43-11.41 1.32-1.32 11.45 11.41z"/><path class="cls-2" d="M114.63 224.79l1.31 1.32 11.36-11.28-1.33-1.32-11.34 11.28z"/><path class="cls-2" d="M136.14 224.91l-20.25-.11 10.11-4.73z"/><path class="cls-2" d="M115.89 224.8l10.11-4.73v-5.12l-4.23 4.12zm20.25.11L126 220.07v-5.12l4.24 4.15z"/><path class="cls-9" d="M152.02 279.04l-14.6 1.78v-55.91l14.6 3.06v51.07z"/><path class="cls-9" d="M152.02 267.44l-14.6.68v-4.83l14.6-.26v4.41zm0 11.6l-14.6 1.78v-9.36l14.6-.97v8.55z"/><path class="cls-9" d="M152.02 279.04l-14.6 1.78v-55.91l14.6 3.06v51.07z"/><path class="cls-2" d="M152 228l-14.6-3.06-10.51-10.47 14.68 4.41zm-10.49-12l-14.6-5.35v3.79l14.68 4.41z"/><path class="cls-11" d="M125.55 234.1c-4.49 0-8.13 5.17-8.13 11.54s3.64 11.54 8.13 11.54 8.13-5.16 8.13-11.54-3.68-11.54-8.13-11.54z"/><path class="cls-12" d="M125.64 244.46c0 .4-.33.57-.48.22l-2.88-6.68c-.26-.58 1-1.73 2-2 .53-.14 1.73-.36 1.7.45l-.32 8.06zm-.54.26c.23.43 0 .76-.27.61l-5.25-2.52c-.46-.21 0-2.22.61-3.35.34-.59 1.16-1.85 1.5-1.2l3.4 6.46zm-.29.69a.38.38 0 0 1 .07.71l-5.16 2.88c-.45.26-1-1.67-1-3.12 0-.76 0-2.48.61-2.29l5.54 1.85zm.09.79c.34-.25.52.09.37.48l-2.66 6.9c-.23.61-1.55-.34-2.22-1.44-.35-.57-1.08-1.94-.57-2.31l5.08-3.64zm.43.53c.15-.5.44-.41.51 0l1.09 7.71c.1.67-1.34 1.15-2.35.92-.53-.12-1.71-.5-1.48-1.25l2.24-7.42zm.57 0c-.11-.52.15-.72.4-.44l4.32 4.91c.38.43-.5 2.11-1.38 2.85-.46.39-1.54 1.18-1.7.4l-1.64-7.73zm.44-.51c-.33-.31-.2-.69.11-.7l5.54-.18c.49 0 .57 2.07.23 3.44-.18.72-.64 2.3-1.12 1.86l-4.76-4.42zm.11-.79c-.39.06-.46-.35-.23-.64l4.16-5.19c.36-.46 1.37 1.07 1.74 2.43.19.71.55 2.35 0 2.45l-5.65 1zm-.28-.71c-.27.41-.51.16-.47-.27l.84-7.78c.07-.68 1.54-.43 2.43.28.47.37 1.49 1.3 1.1 1.89l-3.89 5.88z"/><path class="cls-9" d="M161.83 281.62l-22.78-.6v-55.45l22.78.12v55.93z"/><path class="cls-10" d="M161.83 268.91l-22.78-.48v-4.8l22.78.45v4.83zm0-16.27l-22.78-.35v-9.43l22.78.27v9.51zm0 28.98l-22.78-.6v-9.28l22.78.52v9.36z"/><path class="cls-2" transform="rotate(.11 156.476 223.824)" d="M149.46 211.43h1.87v5.31h-1.87z"/><path class="cls-2" d="M161.83 225.69L160.5 227l-11.43-11.4 1.32-1.32 11.44 11.41z"/><path class="cls-2" d="M139.05 225.57l1.31 1.32 11.36-11.29-1.33-1.32-11.34 11.29z"/><path class="cls-2" d="M160.56 225.68l-20.25-.11 10.09-4.73z"/><path class="cls-2" d="M140.3 225.58l10.09-4.73v-5.12l-4.23 4.12zm20.25.1l-10.16-4.84v-5.12l4.24 4.15z"/><path class="cls-9" d="M176.44 279.82l-14.61 1.78v-55.92l14.61 3.07v51.07z"/><path class="cls-9" d="M176.44 268.22l-14.61.67v-4.83l14.61-.26v4.42zm0 11.6l-14.61 1.78v-9.36l14.61-.97v8.55z"/><path class="cls-9" d="M176.44 279.82l-14.61 1.78v-55.92l14.61 3.07v51.07z"/><path class="cls-2" d="M176.44 228.75l-14.6-3.06-10.51-10.47 14.67 4.4z"/><path class="cls-2" d="M165.92 216.78l-14.6-5.35v3.79l14.68 4.4z"/><path class="cls-11" d="M150 234.88c-4.49 0-8.13 5.17-8.13 11.54s3.64 11.54 8.13 11.54 8.13-5.16 8.13-11.54-3.64-11.54-8.13-11.54z"/><path class="cls-12" d="M150.05 245.24c0 .4-.33.57-.48.22l-2.88-6.72c-.26-.58 1-1.73 2-2 .53-.14 1.73-.36 1.7.45l-.32 8.06zm-.54.26c.23.43 0 .76-.27.61l-5.24-2.52c-.46-.21 0-2.22.61-3.35.34-.59 1.16-1.85 1.5-1.2l3.4 6.46zm-.29.69a.38.38 0 0 1 .07.71l-5.16 2.86c-.45.26-1-1.67-1-3.12 0-.76 0-2.48.61-2.29l5.54 1.85zm.09.79c.34-.25.52.09.37.48l-2.66 6.9c-.23.61-1.55-.34-2.22-1.44-.35-.57-1.08-1.94-.57-2.31l5.08-3.64zm.43.53c.15-.5.44-.41.51 0l1.09 7.71c.1.67-1.34 1.15-2.35.92-.53-.12-1.71-.5-1.48-1.25l2.24-7.42zm.57 0c-.11-.52.15-.72.4-.44L155 252c.38.43-.5 2.11-1.38 2.85-.46.39-1.54 1.18-1.7.4l-1.64-7.73zm.44-.51c-.33-.31-.2-.69.11-.7l5.54-.18c.49 0 .57 2.07.23 3.44-.18.72-.64 2.3-1.12 1.86l-4.75-4.42zm.11-.79c-.39.06-.46-.35-.23-.64l4.16-5.19c.36-.46 1.37 1.07 1.74 2.43.19.71.55 2.35 0 2.45l-5.65 1zm-.28-.71c-.27.41-.51.16-.47-.27l.84-7.78c.07-.68 1.54-.43 2.43.28.47.37 1.49 1.3 1.1 1.89l-3.89 5.88z"/><path class="cls-9" d="M63.13 280.95l-22.79-.59V224.9l22.79.12v55.93z"/><path class="cls-10" d="M63.13 268.25l-22.79-.49v-4.79l22.79.45v4.83zm0-16.27l-22.79-.35v-9.44l22.79.27v9.52zm0 28.97l-22.79-.59v-9.29l22.79.52v9.36z"/><path class="cls-2" transform="rotate(.11 52.302 223.924)" d="M50.75 210.76h1.87v5.31h-1.87z"/><path class="cls-2" d="M63.13 225.02l-1.33 1.32-11.44-11.41 1.32-1.31 11.45 11.4z"/><path class="cls-2" d="M40.34 224.9l1.32 1.32 11.35-11.28-1.32-1.32-11.35 11.28z"/><path class="cls-2" d="M61.85 225l-20.25-.11 10.09-4.73z"/><path class="cls-2" d="M41.6 224.91l10.09-4.73v-5.12l-4.23 4.12zm20.25.09l-10.16-4.84v-5.12l4.24 4.15z"/><path class="cls-9" d="M77.73 279.15l-14.6 1.78v-55.91l14.6 3.06v51.07z"/><path class="cls-9" d="M77.73 267.55l-14.6.68v-4.83l14.6-.26v4.41zm0 11.6l-14.6 1.78v-9.36l14.6-.97v8.55z"/><path class="cls-9" d="M77.73 279.15l-14.6 1.78v-55.91l14.6 3.06v51.07z"/><path class="cls-2" d="M77.73 228.08L63.13 225l-10.51-10.45L67.3 219z"/><path class="cls-2" d="M67.22 216.11l-14.6-5.35v3.79L67.3 219z"/><path class="cls-11" d="M51.26 234.21c-4.49 0-8.13 5.17-8.13 11.54s3.64 11.54 8.13 11.54 8.13-5.16 8.13-11.54-3.64-11.54-8.13-11.54z"/><path class="cls-12" d="M51.35 244.57c0 .4-.33.57-.48.22L48 238.07c-.26-.58 1-1.73 2-2 .53-.14 1.73-.36 1.7.45l-.32 8.06zm-.54.26c.23.43 0 .76-.27.61l-5.25-2.52c-.46-.21 0-2.22.61-3.35.34-.59 1.16-1.85 1.5-1.2l3.4 6.46zm-.29.69a.38.38 0 0 1 .07.71l-5.16 2.86c-.45.26-1-1.67-1-3.12 0-.76 0-2.48.61-2.29l5.54 1.85zm.09.79c.34-.25.52.09.37.48l-2.66 6.9c-.23.61-1.55-.34-2.22-1.44-.35-.57-1.08-1.94-.57-2.31l5.08-3.64zm.43.53c.15-.5.44-.41.51 0l1.09 7.71c.1.67-1.34 1.15-2.35.92-.53-.12-1.71-.5-1.48-1.25l2.19-7.37zm.57 0c-.11-.52.15-.72.4-.44l4.32 4.91c.38.43-.5 2.11-1.38 2.85-.46.39-1.54 1.18-1.7.4l-1.64-7.73zm.44-.51c-.33-.31-.2-.69.11-.7l5.54-.18c.49 0 .57 2.07.23 3.44-.18.72-.64 2.3-1.12 1.86l-4.76-4.42zm.11-.79c-.39.06-.46-.35-.23-.64l4.16-5.19c.36-.46 1.37 1.07 1.74 2.43.19.71.55 2.35 0 2.45l-5.65 1zm-.28-.71c-.27.41-.51.16-.47-.27l.84-7.78c.07-.68 1.54-.43 2.43.28.47.37 1.49 1.3 1.1 1.89l-3.89 5.88z"/><path class="cls-9" d="M90.2 281.99l-22.78-.6v-55.45l22.78.12v55.93z"/><path class="cls-10" d="M90.2 269.29l-22.78-.49V264l22.78.45v4.84zm0-16.27l-22.78-.36v-9.43l22.78.27v9.52zm0 28.97l-22.78-.6v-9.28l22.78.52v9.36z"/><path class="cls-2" transform="rotate(.11 83.554 223.894)" d="M77.82 211.8h1.87v5.31h-1.87z"/><path class="cls-2" d="M90.2 226.06l-1.33 1.32-11.44-11.41 1.33-1.32 11.44 11.41z"/><path class="cls-2" d="M67.42 225.94l1.31 1.32 11.35-11.28-1.32-1.32-11.34 11.28z"/><path class="cls-2" d="M88.92 226.06l-20.25-.11 10.09-4.73z"/><path class="cls-2" d="M68.67 225.95l10.09-4.73v-5.12l-4.23 4.12zm20.25.11l-10.16-4.84v-5.12l4.24 4.14z"/><path class="cls-9" d="M104.8 280.19l-14.6 1.78v-55.91l14.6 3.06v51.07z"/><path class="cls-9" d="M104.8 268.59l-14.6.68v-4.83l14.6-.26v4.41zm0 11.6l-14.6 1.78v-9.36l14.6-.97v8.55z"/><path class="cls-9" d="M104.8 280.19l-14.6 1.78v-55.91l14.6 3.06v51.07z"/><path class="cls-2" d="M104.8 229.12l-14.6-3.06-10.51-10.47L94.37 220zm-10.51-11.97l-14.6-5.35v3.79L94.37 220z"/><path class="cls-11" d="M78.33 235.25c-4.49 0-8.13 5.17-8.13 11.54s3.64 11.54 8.13 11.54 8.13-5.16 8.13-11.54-3.64-11.54-8.13-11.54z"/><path class="cls-12" d="M78.42 245.61c0 .4-.33.57-.48.22l-2.88-6.72c-.26-.58 1-1.73 2-2 .53-.14 1.73-.36 1.7.45l-.32 8.06zm-.54.26c.23.43 0 .76-.27.61L72.37 244c-.46-.21 0-2.22.61-3.35.34-.59 1.16-1.85 1.5-1.2l3.4 6.46zm-.29.69a.38.38 0 0 1 .07.71l-5.16 2.86c-.45.26-1-1.67-1-3.12 0-.76 0-2.48.61-2.29l5.54 1.85zm.09.79c.34-.25.52.09.37.48l-2.66 6.9c-.23.61-1.55-.34-2.22-1.44-.35-.57-1.08-1.94-.57-2.31l5.08-3.64zm.43.53c.15-.5.44-.41.51 0l1.09 7.71c.1.67-1.34 1.15-2.35.92-.53-.12-1.71-.5-1.48-1.25l2.24-7.42zm.57 0c-.11-.52.15-.72.4-.44l4.32 4.91c.38.43-.5 2.11-1.38 2.85-.46.39-1.54 1.18-1.7.4l-1.64-7.73zm.44-.51c-.33-.31-.2-.69.11-.7l5.54-.18c.49 0 .57 2.07.23 3.44-.18.72-.64 2.3-1.12 1.86l-4.76-4.42zm.11-.79c-.39.06-.46-.35-.23-.64l4.16-5.19c.36-.46 1.37 1.07 1.74 2.43.19.71.55 2.35 0 2.45l-5.65 1zm-.28-.71c-.27.41-.51.16-.47-.27l.84-7.78c.07-.68 1.54-.43 2.43.28.47.37 1.49 1.3 1.1 1.89l-3.85 5.9z"/><path class="cls-9" d="M118.41 282.1l-22.78-.6v-55.45l22.78.12v55.93z"/><path class="cls-10" d="M118.41 269.4l-22.78-.49v-4.79l22.78.44v4.84zm0-16.27l-22.78-.35v-9.44l22.78.27v9.52zm0 28.97l-22.78-.6v-9.28l22.78.52v9.36z"/><path class="cls-2" transform="rotate(.11 109.598 223.87)" d="M106.04 211.91h1.87v5.31h-1.87z"/><path class="cls-2" d="M118.41 226.17l-1.33 1.32-11.43-11.41 1.32-1.32 11.44 11.41z"/><path class="cls-2" d="M95.63 226.05l1.31 1.32 11.36-11.28-1.33-1.32-11.34 11.28z"/><path class="cls-2" d="M117.14 226.17l-20.25-.11 10.11-4.73z"/><path class="cls-2" d="M96.89 226.06l10.11-4.73v-5.12l-4.23 4.12zm20.24.11L107 221.33v-5.12l4.24 4.15z"/><path class="cls-9" d="M133.02 280.3l-14.61 1.78v-55.92l14.61 3.07v51.07z"/><path class="cls-9" d="M133.02 268.7l-14.61.68v-4.83l14.61-.26v4.41zm0 11.6l-14.61 1.78v-9.36l14.61-.97v8.55z"/><path class="cls-9" d="M133.02 280.3l-14.61 1.78v-55.92l14.61 3.07v51.07z"/><path class="cls-2" d="M133 229.23l-14.6-3.06-10.49-10.47 14.68 4.41z"/><path class="cls-2" d="M122.5 217.26l-14.6-5.35v3.79l14.68 4.41z"/><path class="cls-11" d="M106.54 235.36c-4.49 0-8.13 5.17-8.13 11.54s3.64 11.54 8.13 11.54 8.13-5.16 8.13-11.54-3.64-11.54-8.13-11.54z"/><path class="cls-12" d="M106.63 245.72c0 .4-.33.57-.48.22l-2.88-6.72c-.26-.58 1-1.73 2-2 .53-.14 1.73-.36 1.7.45l-.32 8.06zm-.54.26c.23.43 0 .76-.27.61l-5.25-2.52c-.46-.21 0-2.22.61-3.35.34-.59 1.16-1.85 1.5-1.2l3.4 6.46zm-.29.69a.38.38 0 0 1 .07.71l-5.16 2.86c-.45.26-1-1.67-1-3.12 0-.76 0-2.48.61-2.29l5.54 1.85zm.09.79c.34-.25.52.09.37.48l-2.66 6.9c-.23.61-1.55-.34-2.22-1.44-.35-.57-1.08-1.94-.57-2.31l5.08-3.64zm.43.53c.15-.5.44-.41.51 0l1.09 7.71c.1.67-1.34 1.15-2.35.92-.53-.12-1.71-.5-1.48-1.25l2.24-7.42zm.57 0c-.11-.52.15-.72.4-.44l4.32 4.91c.38.43-.5 2.11-1.38 2.85-.46.39-1.54 1.18-1.7.4L106.9 248zm.44-.51c-.33-.31-.2-.69.11-.7l5.54-.18c.49 0 .57 2.07.23 3.44-.18.72-.64 2.3-1.12 1.86l-4.76-4.42zm.11-.79c-.39.06-.46-.35-.23-.64l4.16-5.19c.36-.46 1.37 1.07 1.74 2.43.19.71.55 2.35 0 2.45l-5.65 1zm-.28-.71c-.27.41-.51.16-.47-.27l.84-7.78c.07-.68 1.54-.43 2.43.28.47.37 1.49 1.3 1.1 1.89l-3.89 5.9z"/><path class="cls-9" d="M146.94 282.67l-22.78-.6v-55.45l22.78.12v55.93z"/><path class="cls-10" d="M146.94 269.97l-22.78-.49v-4.79l22.78.44v4.84zm0-16.27l-22.78-.35v-9.44l22.78.27v9.52zm0 28.97l-22.78-.6v-9.28l22.78.52v9.36z"/><path class="cls-2" transform="rotate(.11 140.85 223.84)" d="M134.57 212.48h1.87v5.31h-1.87z"/><path class="cls-2" d="M146.94 226.74l-1.33 1.32-11.43-11.41 1.32-1.31 11.44 11.4z"/><path class="cls-2" d="M124.16 226.62l1.31 1.32 11.35-11.28-1.32-1.32-11.34 11.28z"/><path class="cls-2" d="M145.67 226.74l-20.25-.11 10.09-4.73zm-20.26-.11l10.09-4.73v-5.12l-4.23 4.12z"/><path class="cls-2" d="M145.66 226.74l-10.16-4.84v-5.12l4.24 4.15z"/><path class="cls-9" d="M161.55 280.87l-14.61 1.78v-55.91l14.61 3.06v51.07z"/><path class="cls-9" d="M161.55 269.27l-14.61.68v-4.83l14.61-.26v4.41zm0 11.6l-14.61 1.78v-9.36l14.61-.97v8.55z"/><path class="cls-9" d="M161.55 280.87l-14.61 1.78v-55.91l14.61 3.06v51.07z"/><path class="cls-2" d="M161.55 229.8l-14.6-3.06-10.51-10.47 14.68 4.41z"/><path class="cls-2" d="M151 217.83l-14.6-5.35v3.79l14.68 4.41z"/><path class="cls-11" d="M135.07 235.93c-4.49 0-8.13 5.17-8.13 11.54s3.64 11.53 8.13 11.53 8.13-5.16 8.13-11.54-3.64-11.54-8.13-11.54z"/><path class="cls-12" d="M135.16 246.29c0 .4-.33.57-.48.22l-2.88-6.72c-.26-.58 1-1.73 2-2 .53-.14 1.73-.36 1.7.45l-.32 8.06zm-.54.26c.23.43 0 .76-.27.61l-5.25-2.52c-.46-.21 0-2.22.61-3.35.34-.59 1.16-1.85 1.5-1.2l3.4 6.46zm-.29.69a.38.38 0 0 1 .07.71l-5.16 2.86c-.45.26-1-1.67-1-3.12 0-.76 0-2.48.61-2.29l5.54 1.85zm.09.79c.34-.25.52.09.37.48l-2.66 6.9c-.23.61-1.55-.34-2.22-1.44-.35-.57-1.08-1.94-.57-2.31l5.08-3.64zm.43.53c.15-.5.44-.41.51 0l1.09 7.71c.1.67-1.34 1.15-2.35.92-.53-.12-1.71-.5-1.48-1.25l2.24-7.42zm.57 0c-.11-.52.15-.72.4-.44l4.32 4.91c.38.43-.5 2.11-1.38 2.85-.46.39-1.54 1.18-1.7.4l-1.64-7.73zm.44-.51c-.33-.31-.2-.69.11-.7l5.54-.18c.49 0 .57 2.07.23 3.44-.18.72-.64 2.3-1.12 1.86l-4.76-4.42zm.11-.79c-.39.06-.46-.35-.23-.64l4.16-5.19c.36-.46 1.37 1.07 1.74 2.43.19.71.55 2.35 0 2.45l-5.65 1zm-.28-.71c-.27.41-.51.16-.47-.27l.84-7.78c.07-.68 1.54-.43 2.43.28.47.37 1.49 1.3 1.1 1.89l-3.89 5.88z"/><path class="cls-9" d="M173.26 283.22l-22.78-.6v-55.45l22.78.12v55.93z"/><path class="cls-10" d="M173.26 270.51l-22.78-.49v-4.79l22.78.45v4.83zm0-16.26l-22.78-.36v-9.43l22.78.27v9.52zm0 28.97l-22.78-.6v-9.28l22.78.52v9.36z"/><path class="cls-2" transform="rotate(.11 166.894 223.814)" d="M160.89 213.03h1.87v5.31h-1.87z"/><path class="cls-2" d="M173.26 227.29l-1.33 1.32-11.43-11.41 1.32-1.32 11.44 11.41z"/><path class="cls-2" d="M150.48 227.17l1.31 1.32 11.36-11.28-1.33-1.32-11.34 11.28z"/><path class="cls-2" d="M172 227.28l-20.25-.11 10.09-4.73z"/><path class="cls-2" d="M151.74 227.18l10.09-4.73v-5.12l-4.23 4.12zm20.26.1l-10.16-4.84v-5.12l4.24 4.15z"/><path class="cls-9" d="M187.87 281.42l-14.61 1.78v-55.92l14.61 3.07v51.07z"/><path class="cls-9" d="M187.87 269.82l-14.61.68v-4.84l14.61-.26v4.42zm0 11.6l-14.61 1.78v-9.36l14.61-.97v8.55z"/><path class="cls-9" d="M187.87 281.42l-14.61 1.78v-55.92l14.61 3.07v51.07z"/><path class="cls-2" d="M187.87 230.35l-14.6-3.06-10.51-10.47 14.68 4.41zm-10.52-11.97L162.76 213v3.79l14.68 4.41z"/><path class="cls-11" d="M161.39 236.48c-4.49 0-8.13 5.17-8.13 11.54s3.64 11.54 8.13 11.54 8.13-5.16 8.13-11.54-3.64-11.54-8.13-11.54z"/><path class="cls-12" d="M161.48 246.84c0 .4-.33.57-.48.22l-2.88-6.72c-.26-.58 1-1.73 2-2 .53-.14 1.73-.36 1.7.45l-.32 8.06zm-.54.26c.23.43 0 .76-.27.61l-5.25-2.52c-.46-.21 0-2.22.61-3.35.34-.59 1.16-1.85 1.5-1.2l3.4 6.46zm-.29.69a.38.38 0 0 1 .07.71l-5.16 2.86c-.45.26-1-1.67-1-3.12 0-.76 0-2.48.61-2.29l5.54 1.85zm.09.79c.34-.25.52.09.37.48l-2.66 6.9c-.23.61-1.55-.34-2.22-1.44-.35-.57-1.08-1.94-.57-2.31l5.08-3.64zm.43.53c.15-.5.44-.41.51 0l1.09 7.71c.1.67-1.34 1.15-2.35.92-.53-.12-1.71-.5-1.48-1.25l2.24-7.42zm.57 0c-.11-.52.15-.72.4-.44l4.32 4.91c.38.43-.5 2.11-1.38 2.85-.46.39-1.54 1.18-1.7.4l-1.64-7.73zm.44-.51c-.33-.31-.2-.69.11-.7l5.54-.18c.49 0 .57 2.07.23 3.44-.18.72-.64 2.3-1.12 1.86l-4.76-4.42zm.11-.79c-.39.06-.46-.35-.23-.64l4.16-5.19c.36-.46 1.37 1.07 1.74 2.43.19.71.55 2.35 0 2.45l-5.65 1zm-.28-.71c-.27.41-.51.16-.47-.27l.84-7.78c.07-.68 1.54-.43 2.43.28.47.37 1.49 1.3 1.1 1.89l-3.91 5.9z"/><path class="cls-13" d="M214.53 259.67h-26.91c.35 5.14.59 12.22 1.14 19.94-.2 1 5.31 1.85 12.31 1.85s12.51-.84 12.31-1.85c.56-7.73.8-14.8 1.15-19.94z"/><path class="cls-14" d="M214.23 265c-3.69.32-8.13.55-13.17.55s-9.46-.24-13.15-.56l-.09-1.79a128.43 128.43 0 0 0 26.51 0zm-.65 11.67a61.47 61.47 0 0 1-25-.12l-.1-1.61a66 66 0 0 0 25.22.16zm.25-3.81a63.9 63.9 0 0 1-25.51 0l-.3-6a120.37 120.37 0 0 0 26.12 0z"/><path class="cls-2" d="M215.39 260a84.11 84.11 0 0 1-28.7 0l-.53-2.85h29.76z"/><ellipse class="cls-2" cx="201.07" cy="257.13" rx="14.92" ry="1.74"/><path class="cls-13" d="M237.26 261h-26.91c.35 5.14.59 12.22 1.14 19.94-.2 1 5.31 1.85 12.31 1.85s12.51-.84 12.31-1.85c.56-7.72.8-14.79 1.15-19.94z"/><path class="cls-14" d="M237 266.36c-3.69.32-8.13.55-13.17.55s-9.46-.24-13.15-.56l-.09-1.79a128.43 128.43 0 0 0 26.51 0zm-.69 11.64a61.47 61.47 0 0 1-25-.12l-.1-1.61a66 66 0 0 0 25.22.16zm.25-3.8a63.9 63.9 0 0 1-25.51 0l-.3-6a120.37 120.37 0 0 0 26.12 0z"/><path class="cls-2" d="M238.12 261.32a84.11 84.11 0 0 1-28.7 0l-.53-2.85h29.76z"/><ellipse class="cls-2" cx="223.8" cy="258.47" rx="14.92" ry="1.74"/><path class="cls-13" d="M260.76 261.8h-26.92c.35 5.14.59 12.22 1.14 19.94-.2 1 5.31 1.85 12.31 1.85s12.51-.84 12.31-1.85c.57-7.74.8-14.79 1.16-19.94z"/><path class="cls-14" d="M260.46 267.16c-3.69.32-8.13.55-13.17.55s-9.46-.24-13.15-.56l-.09-1.79a128.43 128.43 0 0 0 26.51 0zm-.65 11.64a61.47 61.47 0 0 1-25-.12l-.1-1.61a66 66 0 0 0 25.22.16zm.25-3.8a63.9 63.9 0 0 1-25.51 0l-.3-6a120.37 120.37 0 0 0 26.12 0z"/><path class="cls-2" d="M261.61 262.12a84.11 84.11 0 0 1-28.7 0l-.53-2.85h29.76z"/><ellipse class="cls-2" cx="247.3" cy="259.27" rx="14.92" ry="1.74"/><path class="cls-13" d="M293.3 263.07h-26.91c.35 5.14.59 12.22 1.14 19.94-.2 1 5.31 1.85 12.31 1.85s12.51-.84 12.31-1.85c.57-7.72.85-14.8 1.15-19.94z"/><path class="cls-14" d="M293 268.42c-3.69.32-8.13.55-13.17.55s-9.46-.24-13.15-.56l-.09-1.79a128.43 128.43 0 0 0 26.51 0zm-.64 11.65a61.47 61.47 0 0 1-25-.12l-.1-1.61a66 66 0 0 0 25.22.16zm.24-3.81a63.9 63.9 0 0 1-25.51 0l-.3-6a120.37 120.37 0 0 0 26.12 0z"/><path class="cls-2" d="M294.16 263.39a84.11 84.11 0 0 1-28.7 0l-.53-2.85h29.76z"/><ellipse class="cls-2" cx="279.85" cy="260.54" rx="14.92" ry="1.74"/><path class="cls-13" d="M324.54 263.94h-26.91c.35 5.14.59 12.22 1.14 19.94-.2 1 5.31 1.85 12.31 1.85s12.51-.84 12.31-1.85c.61-7.72.8-14.8 1.15-19.94z"/><path class="cls-14" d="M324.24 269.29c-3.69.32-8.13.55-13.17.55s-9.46-.24-13.15-.56l-.09-1.79a128.43 128.43 0 0 0 26.51 0zm-.64 11.65a61.47 61.47 0 0 1-25-.12l-.1-1.61a66 66 0 0 0 25.22.16zm.24-3.81a63.9 63.9 0 0 1-25.51 0l-.3-6a120.37 120.37 0 0 0 26.12 0z"/><path class="cls-2" d="M325.4 264.26a84.11 84.11 0 0 1-28.7 0l-.53-2.85h29.76z"/><ellipse class="cls-2" cx="311.09" cy="261.4" rx="14.92" ry="1.74"/><path class="cls-13" d="M224.07 236.37h-26.91c.35 5.14.59 12.22 1.14 19.94-.2 1 5.31 1.85 12.31 1.85s12.51-.84 12.31-1.85c.56-7.72.8-14.8 1.15-19.94z"/><path class="cls-14" d="M223.77 241.72c-3.69.32-8.13.55-13.17.55s-9.46-.24-13.15-.56l-.09-1.79a128.43 128.43 0 0 0 26.51 0zm-.65 11.65a61.47 61.47 0 0 1-25-.12l-.1-1.61a66 66 0 0 0 25.22.16zm.25-3.81a63.9 63.9 0 0 1-25.51 0l-.3-6a120.37 120.37 0 0 0 26.12 0z"/><path class="cls-2" d="M224.93 236.69a84.11 84.11 0 0 1-28.7 0l-.53-2.85h29.76z"/><ellipse class="cls-2" cx="210.61" cy="233.84" rx="14.92" ry="1.74"/><path class="cls-13" d="M255.31 237.24H228.4c.35 5.14.59 12.22 1.14 19.94-.2 1 5.31 1.85 12.31 1.85s12.51-.84 12.31-1.85c.56-7.72.84-14.8 1.15-19.94z"/><path class="cls-14" d="M255 242.59c-3.69.32-8.13.55-13.17.55s-9.46-.24-13.15-.56l-.09-1.79a128.43 128.43 0 0 0 26.51 0zm-.64 11.65a61.47 61.47 0 0 1-25-.12l-.1-1.61a66 66 0 0 0 25.22.16zm.25-3.81a63.9 63.9 0 0 1-25.51 0l-.3-6a120.37 120.37 0 0 0 26.12 0z"/><path class="cls-2" d="M256.17 237.55a84.11 84.11 0 0 1-28.7 0l-.53-2.85h29.76z"/><ellipse class="cls-2" cx="241.85" cy="234.7" rx="14.92" ry="1.74"/><path class="cls-13" d="M310 239.3h-27c.35 5.14.59 12.22 1.14 19.94-.2 1 5.31 1.85 12.31 1.85s12.51-.84 12.31-1.85c.61-7.72.84-14.79 1.24-19.94z"/><path class="cls-14" d="M309.66 244.66c-3.69.32-8.13.55-13.17.55s-9.46-.24-13.15-.56l-.09-1.79a128.43 128.43 0 0 0 26.51 0zm-.66 11.65a61.47 61.47 0 0 1-25-.12l-.1-1.61a66 66 0 0 0 25.22.16zm.26-3.81a63.9 63.9 0 0 1-25.51 0l-.3-6a120.37 120.37 0 0 0 26.12 0z"/><path class="cls-2" d="M310.81 239.62a84.11 84.11 0 0 1-28.7 0l-.53-2.85h29.76z"/><ellipse class="cls-2" cx="296.5" cy="236.77" rx="14.92" ry="1.74"/><path class="cls-13" d="M214.13 264h-26.91c.35 5.14.59 12.22 1.14 19.94-.2 1 5.31 1.85 12.31 1.85s12.51-.84 12.31-1.85c.56-7.77.8-14.84 1.15-19.94z"/><path class="cls-14" d="M213.83 269.31c-3.69.32-8.13.55-13.17.55s-9.46-.24-13.15-.56l-.09-1.79a128.43 128.43 0 0 0 26.51 0zm-.64 11.69a61.47 61.47 0 0 1-25-.12l-.1-1.61a66 66 0 0 0 25.22.16zm.24-3.85a63.9 63.9 0 0 1-25.51 0l-.3-6a120.37 120.37 0 0 0 26.12 0z"/><path class="cls-2" d="M215 264.27a84.11 84.11 0 0 1-28.7 0l-.53-2.85h29.76z"/><ellipse class="cls-2" cx="200.68" cy="261.42" rx="14.92" ry="1.74"/><path class="cls-13" d="M244.63 265.51h-26.91c.35 5.14.59 12.22 1.14 19.94-.2 1 5.31 1.85 12.31 1.85s12.51-.84 12.31-1.85c.52-7.72.8-14.79 1.15-19.94z"/><path class="cls-14" d="M244.33 270.87c-3.69.32-8.13.55-13.17.55s-9.46-.24-13.15-.56l-.09-1.79a128.43 128.43 0 0 0 26.51 0zm-.64 11.64a61.47 61.47 0 0 1-25-.12l-.1-1.61a66 66 0 0 0 25.22.16zm.24-3.8a63.9 63.9 0 0 1-25.51 0l-.3-6a120.37 120.37 0 0 0 26.12 0z"/><path class="cls-2" d="M245.49 265.83a84.11 84.11 0 0 1-28.7 0l-.53-2.85H246z"/><ellipse class="cls-2" cx="231.18" cy="262.98" rx="14.92" ry="1.74"/><path class="cls-13" d="M279.75 266.31h-26.91c.35 5.14.59 12.22 1.14 19.94-.2 1 5.31 1.85 12.31 1.85s12.51-.84 12.31-1.85c.56-7.72.8-14.79 1.15-19.94z"/><path class="cls-14" d="M279.45 271.67c-3.69.32-8.13.55-13.17.55s-9.46-.24-13.15-.56l-.09-1.79a128.43 128.43 0 0 0 26.51 0zm-.65 11.65a61.47 61.47 0 0 1-25-.12l-.1-1.61a66 66 0 0 0 25.22.16zm.25-3.81a63.9 63.9 0 0 1-25.51 0l-.3-6a120.37 120.37 0 0 0 26.12 0z"/><path class="cls-2" d="M280.61 266.63a84.11 84.11 0 0 1-28.7 0l-.53-2.85h29.76z"/><ellipse class="cls-2" cx="266.29" cy="263.78" rx="14.92" ry="1.74"/><path class="cls-13" d="M318 267.87h-27c.35 5.14.59 12.22 1.14 19.94-.2 1 5.31 1.85 12.31 1.85s12.51-.84 12.31-1.85c.61-7.72.85-14.81 1.24-19.94z"/><path class="cls-14" d="M317.66 273.23c-3.69.32-8.13.55-13.17.55s-9.46-.24-13.15-.56l-.09-1.79a128.43 128.43 0 0 0 26.51 0zm-.66 11.65a61.47 61.47 0 0 1-25-.12l-.1-1.61a66 66 0 0 0 25.22.16zm.26-3.81a63.9 63.9 0 0 1-25.51 0l-.3-6a120.37 120.37 0 0 0 26.12 0z"/><path class="cls-2" d="M318.82 268.19a84.11 84.11 0 0 1-28.7 0l-.53-2.85h29.76z"/><ellipse class="cls-2" cx="304.5" cy="265.34" rx="14.92" ry="1.74"/><path class="cls-13" d="M234.6 241.47h-26.91c.35 5.14.59 12.22 1.14 19.94-.2 1 5.31 1.85 12.31 1.85s12.51-.84 12.31-1.85c.55-7.72.8-14.8 1.15-19.94z"/><path class="cls-14" d="M234.3 246.82c-3.69.32-8.13.55-13.17.55s-9.46-.24-13.15-.56l-.09-1.79a128.43 128.43 0 0 0 26.51 0zm-.64 11.65a61.47 61.47 0 0 1-25-.12l-.1-1.61a66 66 0 0 0 25.22.16zm.24-3.8a63.9 63.9 0 0 1-25.51 0l-.3-6a120.37 120.37 0 0 0 26.12 0z"/><path class="cls-2" d="M235.46 241.79a84.11 84.11 0 0 1-28.7 0l-.53-2.85H236z"/><ellipse class="cls-2" cx="221.14" cy="238.94" rx="14.92" ry="1.74"/><path class="cls-13" d="M278.67 242.06h-26.91c.35 5.14.59 12.22 1.14 19.94-.2 1 5.31 1.85 12.31 1.85s12.51-.84 12.31-1.85c.56-7.72.8-14.8 1.15-19.94z"/><path class="cls-14" d="M278.37 247.41c-3.69.32-8.13.55-13.17.55s-9.46-.24-13.15-.56l-.09-1.79a128.43 128.43 0 0 0 26.51 0zm-.65 11.65a61.47 61.47 0 0 1-25-.12l-.1-1.61a66 66 0 0 0 25.22.16zm.28-3.8a63.9 63.9 0 0 1-25.51 0l-.3-6a120.37 120.37 0 0 0 26.12 0z"/><path class="cls-2" d="M279.53 242.38a84.11 84.11 0 0 1-28.7 0l-.53-2.85h29.76z"/><ellipse class="cls-2" cx="265.21" cy="239.53" rx="14.92" ry="1.74"/><path class="cls-11" d="M365.66 333.89v4.41c2.45-.56 4-1.34 4-2.2s-1.52-1.64-4-2.2zm19.99 22.89c-.92-1.25-.93-3.1.32-3.71a2.78 2.78 0 0 0 .19 3.27l-.51.44z"/><path class="cls-15" d="M358.26 332.73c0-9.21 6.62-6.92 6.62-17.55v-8.84l16.73.36v8.84c0 10.63 6.62 8.34 6.62 17.55v41.11c-.08 5.35-30 5.7-30 .14v-41.61z"/><path class="cls-16" d="M386.43 365.89v-32.8a8.46 8.46 0 0 0-2.34-6.46 18.37 18.37 0 0 1-2.85-3.91 16 16 0 0 1-1.43-7.18v-7.08l-13.15-.28v7a16 16 0 0 1-1.43 7.18 18.46 18.46 0 0 1-2.85 3.91 8.46 8.46 0 0 0-2.34 6.46v33.38c0 14.4 26.38 13.58 26.38-.22z"/><path class="cls-17" d="M364.29 301.21h17.91v11.67c0 2.53-17.91 2.29-17.91 0v-11.67z"/><path class="cls-17" d="M382.2 301.21c0 2.32-17.91 2.32-17.91 0s17.91-2.32 17.91 0z"/><path class="cls-11" d="M373.25 347.92c4.38 0 7.93 5.08 7.93 11.35s-3.55 11.35-7.93 11.35-7.93-5.08-7.93-11.35 3.55-11.35 7.93-11.35z"/><path class="cls-11" d="M372.53 360.66c-2-3.36-1.57-8.8 1.87-11.09l.4.31c-3.4 2.1-3.7 7.51-1.77 10.68l-.49.11z"/><path class="cls-17" d="M372.12 359.3c3.92-5 9.64 4.31 2.9 7s-9.37-8-2.9-7z"/><path class="cls-11" d="M394.91 335.63V340c2.45-.56 4-1.34 4-2.2s-1.52-1.64-4-2.2zm19.99 22.89c-.92-1.25-.93-3.1.32-3.71a2.78 2.78 0 0 0 .19 3.27l-.51.44z"/><path class="cls-15" d="M387.51 334.47c0-9.21 6.62-6.92 6.62-17.55v-8.84l16.73.36v8.84c0 10.63 6.62 8.34 6.62 17.55v41.11c-.08 5.35-30 5.7-30 .14v-41.61z"/><path class="cls-16" d="M415.68 367.63v-32.8a8.46 8.46 0 0 0-2.34-6.46 18.37 18.37 0 0 1-2.85-3.91 16 16 0 0 1-1.43-7.18v-7.08l-13.15-.28v7a16 16 0 0 1-1.43 7.18 18.46 18.46 0 0 1-2.85 3.91 8.46 8.46 0 0 0-2.34 6.46v33.38c0 14.4 26.38 13.58 26.38-.22z"/><path class="cls-17" d="M393.53 302.95h17.91v11.67c0 2.53-17.91 2.29-17.91 0v-11.67z"/><path class="cls-17" d="M411.45 303c0 2.32-17.91 2.32-17.91 0s17.91-2.32 17.91 0z"/><path class="cls-11" d="M402.49 349.66c4.38 0 7.93 5.08 7.93 11.35s-3.55 11.35-7.93 11.35-7.93-5.08-7.93-11.35 3.55-11.35 7.93-11.35z"/><path class="cls-11" d="M401.77 362.4c-2-3.36-1.57-8.8 1.87-11.09l.4.31c-3.4 2.1-3.7 7.51-1.77 10.68l-.49.11z"/><path class="cls-17" d="M401.37 361c3.92-5 9.64 4.31 2.9 7s-9.37-8-2.9-7z"/><path class="cls-11" d="M430.61 340.18v4.41c2.45-.56 4-1.34 4-2.2s-1.52-1.64-4-2.2zm19.99 22.89c-.92-1.25-.93-3.1.32-3.71a2.78 2.78 0 0 0 .19 3.27l-.51.44z"/><path class="cls-15" d="M423.21 339c0-9.21 6.62-6.92 6.62-17.55v-8.84l16.73.36v8.84c0 10.63 6.62 8.34 6.62 17.55v41.11c-.08 5.35-30 5.7-30 .14V339z"/><path class="cls-16" d="M451.38 372.17v-32.8a8.46 8.46 0 0 0-2.34-6.46 18.37 18.37 0 0 1-2.84-3.91 16 16 0 0 1-1.43-7.18v-7.08l-13.15-.28v7a16 16 0 0 1-1.43 7.18 18.46 18.46 0 0 1-2.85 3.91A8.46 8.46 0 0 0 425 339v33.38c0 14.4 26.38 13.58 26.38-.22z"/><path class="cls-17" d="M429.24 307.5h17.91v11.67c0 2.53-17.91 2.29-17.91 0V307.5z"/><path class="cls-17" d="M447.15 307.5c0 2.32-17.91 2.32-17.91 0s17.91-2.32 17.91 0z"/><path class="cls-11" d="M438.19 354.2c4.38 0 7.93 5.08 7.93 11.35s-3.55 11.35-7.93 11.35-7.93-5.08-7.93-11.35 3.55-11.35 7.93-11.35z"/><path class="cls-11" d="M437.48 367c-2-3.36-1.57-8.8 1.87-11.09l.4.31c-3.4 2.1-3.7 7.51-1.77 10.68l-.49.11z"/><path class="cls-17" d="M437.07 365.59c3.92-5 9.64 4.31 2.9 7s-9.37-8-2.9-7z"/><path class="cls-11" d="M463.57 342v4.41c2.45-.56 4-1.34 4-2.2s-1.52-1.64-4-2.2zm19.99 22.9c-.92-1.25-.93-3.1.32-3.71a2.78 2.78 0 0 0 .19 3.27l-.51.44z"/><path class="cls-15" d="M456.17 340.84c0-9.21 6.62-6.92 6.62-17.55v-8.84l16.73.36v8.84c0 10.63 6.62 8.34 6.62 17.55v41.11c-.08 5.35-30 5.7-30 .14v-41.61z"/><path class="cls-16" d="M484.35 374v-32.8a8.46 8.46 0 0 0-2.34-6.46 18.37 18.37 0 0 1-2.85-3.91 16 16 0 0 1-1.43-7.18v-7.08l-13.15-.28v7a16 16 0 0 1-1.43 7.18 18.46 18.46 0 0 1-2.85 3.91 8.46 8.46 0 0 0-2.34 6.46v33.38c0 14.4 26.38 13.58 26.38-.22z"/><path class="cls-17" d="M462.2 309.32h17.91V321c0 2.53-17.91 2.29-17.91 0v-11.68z"/><path class="cls-17" d="M480.11 309.33c0 2.32-17.91 2.32-17.91 0s17.91-2.32 17.91 0z"/><path class="cls-11" d="M471.16 356c4.38 0 7.93 5.08 7.93 11.35s-3.55 11.35-7.93 11.35-7.93-5.08-7.93-11.35 3.55-11.35 7.93-11.35z"/><path class="cls-11" d="M470.44 368.78c-2-3.36-1.57-8.8 1.87-11.09l.4.31c-3.4 2.1-3.7 7.51-1.77 10.68l-.49.11z"/><path class="cls-17" d="M470 367.41c3.92-5 9.64 4.31 2.9 7s-9.37-8-2.9-7z"/><path class="cls-11" d="M497.26 342.89v4.41c2.45-.56 4-1.34 4-2.2s-1.52-1.64-4-2.2zm19.99 22.89c-.92-1.25-.93-3.1.32-3.71a2.78 2.78 0 0 0 .19 3.27l-.51.44z"/><path class="cls-15" d="M489.86 341.73c0-9.21 6.62-6.92 6.62-17.55v-8.84l16.73.36v8.84c0 10.63 6.62 8.34 6.62 17.55v41.11c-.08 5.35-30 5.7-30 .14v-41.61z"/><path class="cls-16" d="M518 374.89v-32.8a8.46 8.46 0 0 0-2.34-6.46 18.37 18.37 0 0 1-2.85-3.91 16 16 0 0 1-1.43-7.18v-7.08l-13.15-.28v7a16 16 0 0 1-1.43 7.18 18.46 18.46 0 0 1-2.85 3.91 8.46 8.46 0 0 0-2.34 6.46v33.38c0 14.4 26.38 13.58 26.38-.22z"/><path class="cls-17" d="M495.89 310.21h17.91v11.67c0 2.53-17.91 2.29-17.91 0v-11.67z"/><path class="cls-17" d="M513.8 310.21c0 2.32-17.91 2.32-17.91 0s17.91-2.32 17.91 0z"/><path class="cls-11" d="M504.85 356.92c4.38 0 7.93 5.08 7.93 11.35s-3.55 11.35-7.93 11.35-7.93-5.08-7.93-11.35 3.55-11.35 7.93-11.35z"/><path class="cls-11" d="M504.13 369.66c-2-3.36-1.57-8.8 1.87-11.09l.4.31c-3.4 2.1-3.7 7.51-1.77 10.68l-.49.11z"/><path class="cls-17" d="M503.72 368.3c3.92-5 9.64 4.31 2.9 7s-9.37-8-2.9-7z"/><path class="cls-11" d="M376.7 344.09v4.41c2.45-.56 4-1.34 4-2.2s-1.52-1.64-4-2.2zm20 22.91c-.92-1.25-.93-3.1.32-3.71a2.78 2.78 0 0 0 .19 3.27l-.51.44z"/><path class="cls-15" d="M369.31 342.92c0-9.21 6.62-6.92 6.62-17.55v-8.84l16.73.36v8.84c0 10.63 6.62 8.34 6.62 17.55v41.11c-.08 5.35-30 5.7-30 .14v-41.61z"/><path class="cls-16" d="M397.48 376.08v-32.8a8.46 8.46 0 0 0-2.34-6.46 18.37 18.37 0 0 1-2.85-3.91 16 16 0 0 1-1.43-7.18v-7.08l-13.15-.28v7a16 16 0 0 1-1.43 7.18 18.46 18.46 0 0 1-2.85 3.91 8.46 8.46 0 0 0-2.34 6.46v33.38c0 14.4 26.38 13.58 26.38-.22z"/><path class="cls-17" d="M375.33 311.4h17.91v11.67c0 2.53-17.91 2.29-17.91 0V311.4z"/><path class="cls-17" d="M393.25 311.41c0 2.32-17.91 2.32-17.91 0s17.91-2.32 17.91 0z"/><path class="cls-11" d="M384.29 358.11c4.38 0 7.93 5.08 7.93 11.35s-3.55 11.35-7.93 11.35-7.93-5.08-7.93-11.35 3.55-11.35 7.93-11.35z"/><path class="cls-11" d="M383.57 370.86c-2-3.36-1.57-8.8 1.87-11.09l.4.31c-3.4 2.1-3.7 7.51-1.77 10.68l-.49.11z"/><path class="cls-17" d="M383.16 369.49c3.92-5 9.64 4.31 2.9 7s-9.37-8-2.9-7z"/><path class="cls-11" d="M406 345.83v4.41c2.45-.56 4-1.34 4-2.2s-1.52-1.64-4-2.2zm19.94 22.89c-.92-1.25-.93-3.1.32-3.71a2.78 2.78 0 0 0 .19 3.27l-.51.44z"/><path class="cls-15" d="M398.55 344.66c0-9.21 6.62-6.92 6.62-17.55v-8.84l16.73.36v8.84c0 10.63 6.62 8.34 6.62 17.55v41.11c-.08 5.35-30 5.7-30 .14v-41.61z"/><path class="cls-16" d="M426.72 377.82V345a8.46 8.46 0 0 0-2.34-6.46 18.37 18.37 0 0 1-2.85-3.91 16 16 0 0 1-1.43-7.18v-7.08l-13.1-.26v7a16 16 0 0 1-1.43 7.18 18.46 18.46 0 0 1-2.85 3.91 8.46 8.46 0 0 0-2.34 6.46V378c0 14.4 26.38 13.58 26.38-.22z"/><path class="cls-17" d="M404.58 313.14h17.91v11.67c0 2.53-17.91 2.29-17.91 0v-11.67z"/><path class="cls-17" d="M422.49 313.15c0 2.32-17.91 2.32-17.91 0s17.91-2.32 17.91 0z"/><path class="cls-11" d="M413.54 359.85c4.38 0 7.93 5.08 7.93 11.35s-3.55 11.35-7.93 11.35-7.93-5.08-7.93-11.35 3.55-11.35 7.93-11.35z"/><path class="cls-11" d="M412.82 372.6c-2-3.36-1.57-8.8 1.87-11.09l.4.31c-3.4 2.1-3.7 7.51-1.77 10.68l-.49.11z"/><path class="cls-17" d="M412.41 371.23c3.92-5 9.64 4.31 2.9 7s-9.37-8-2.9-7z"/><path class="cls-11" d="M441.65 350.38v4.41c2.45-.56 4-1.34 4-2.2s-1.52-1.64-4-2.2zm20 22.89c-.92-1.25-.93-3.1.32-3.71a2.78 2.78 0 0 0 .19 3.27l-.51.44z"/><path class="cls-15" d="M434.25 349.21c0-9.21 6.62-6.92 6.62-17.55v-8.84l16.73.36V332c0 10.63 6.62 8.34 6.62 17.55v41.11c-.08 5.35-30 5.7-30 .14v-41.59z"/><path class="cls-16" d="M462.43 382.37v-32.8a8.46 8.46 0 0 0-2.34-6.46 18.37 18.37 0 0 1-2.85-3.91 16 16 0 0 1-1.43-7.18v-7.08l-13.15-.28v7a16 16 0 0 1-1.43 7.18 18.46 18.46 0 0 1-2.85 3.91 8.46 8.46 0 0 0-2.34 6.46v33.38c0 14.4 26.38 13.58 26.38-.22z"/><path class="cls-17" d="M440.28 317.69h17.91v11.67c0 2.53-17.91 2.29-17.91 0v-11.67z"/><path class="cls-17" d="M458.19 317.7c0 2.32-17.91 2.32-17.91 0s17.91-2.32 17.91 0z"/><path class="cls-11" d="M449.24 364.4c4.38 0 7.93 5.08 7.93 11.35s-3.55 11.35-7.93 11.35-7.93-5.08-7.93-11.35 3.55-11.35 7.93-11.35z"/><path class="cls-11" d="M448.52 377.15c-2-3.36-1.57-8.8 1.87-11.09l.4.31c-3.4 2.1-3.7 7.51-1.77 10.68l-.49.11z"/><path class="cls-17" d="M448.11 375.78c3.92-5 9.64 4.31 2.9 7s-9.37-8-2.9-7z"/><path class="cls-11" d="M474.62 352.2v4.41c2.45-.56 4-1.34 4-2.2s-1.52-1.64-4-2.2zm19.99 22.89c-.92-1.25-.93-3.1.32-3.71a2.78 2.78 0 0 0 .19 3.27l-.51.44z"/><path class="cls-15" d="M467.22 351c0-9.21 6.62-6.92 6.62-17.55v-8.84l16.73.36v8.84c0 10.63 6.62 8.34 6.62 17.55v41.11c-.08 5.35-30 5.7-30 .14V351z"/><path class="cls-16" d="M495.39 384.19v-32.8a8.46 8.46 0 0 0-2.34-6.46 18.37 18.37 0 0 1-2.85-3.93 16 16 0 0 1-1.43-7.18v-7.08l-13.15-.28v7a16 16 0 0 1-1.43 7.18 18.46 18.46 0 0 1-2.85 3.91A8.46 8.46 0 0 0 469 351v33.38c0 14.4 26.38 13.58 26.38-.22z"/><path class="cls-17" d="M473.24 319.52h17.91v11.67c0 2.53-17.91 2.29-17.91 0v-11.67z"/><path class="cls-17" d="M491.16 319.52c0 2.32-17.91 2.32-17.91 0s17.91-2.32 17.91 0z"/><path class="cls-11" d="M482.2 366.23c4.38 0 7.93 5.08 7.93 11.35s-3.55 11.35-7.93 11.35-7.93-5.08-7.93-11.35 3.55-11.35 7.93-11.35z"/><path class="cls-11" d="M481.48 379c-2-3.36-1.57-8.8 1.87-11.09l.4.31c-3.4 2.1-3.7 7.51-1.77 10.68l-.49.11z"/><path class="cls-17" d="M481.08 377.61c3.92-5 9.64 4.31 2.9 7s-9.37-8-2.9-7z"/><path class="cls-11" d="M508.31 353.09v4.41c2.45-.56 4-1.34 4-2.2s-1.52-1.64-4-2.2zM528.3 376c-.92-1.25-.93-3.1.32-3.71a2.78 2.78 0 0 0 .19 3.27l-.51.44z"/><path class="cls-15" d="M500.91 351.92c0-9.21 6.62-6.92 6.62-17.55v-8.84l16.73.36v8.84c0 10.63 6.62 8.34 6.62 17.55v41.11c-.08 5.35-30 5.7-30 .14v-41.61z"/><path class="cls-16" d="M529.08 385.08v-32.8a8.46 8.46 0 0 0-2.34-6.46 18.37 18.37 0 0 1-2.85-3.91 16 16 0 0 1-1.43-7.18v-7.08l-13.15-.28v7a16 16 0 0 1-1.43 7.18 18.46 18.46 0 0 1-2.85 3.91 8.46 8.46 0 0 0-2.34 6.46v33.38c0 14.4 26.38 13.58 26.38-.22z"/><path class="cls-17" d="M506.93 320.4h17.91v11.67c0 2.53-17.91 2.29-17.91 0V320.4z"/><path class="cls-17" d="M524.85 320.41c0 2.32-17.91 2.32-17.91 0s17.91-2.32 17.91 0z"/><path class="cls-11" d="M515.89 367.11c4.38 0 7.93 5.08 7.93 11.35s-3.55 11.35-7.93 11.35-7.89-5.08-7.89-11.35 3.55-11.35 7.93-11.35z"/><path class="cls-11" d="M515.17 379.86c-2-3.36-1.57-8.8 1.87-11.09l.4.31c-3.4 2.1-3.7 7.51-1.77 10.68l-.49.11z"/><path class="cls-17" d="M514.77 378.49c3.92-5 9.64 4.31 2.9 7s-9.37-8-2.9-7z"/><path class="cls-2" d="M602.71 485.88l-69.35 24.54V.38l69.35 18.66v466.84zm-69.35 24.54l-10.67-1.28V1.35l10.67-.97v510.04zm-10.67-211.86v9.15L14.08 289.32v-7.21l508.61 16.45z"/><path class="cls-11" d="M257.14 360.7v-19.31c-1.06.18-2.15.33-3.26.46v19.29q1.67-.19 3.26-.44z"/><path class="cls-11" d="M257.14 357.74v-13.38q-1.63.27-3.26.45v13.37q1.63-.19 3.26-.45z"/><path class="cls-11" d="M257.14 354.77v-7.44q-1.63.26-3.26.45v7.45q1.64-.19 3.26-.46z"/><path class="cls-11" d="M247.5 371.45v-36.66c0-3.63 2.07-7.4 3.64-10.59 1.66-3.38 3.45-6.69 3.58-10.68l.12-3.62h11.38l.12 3.61c.13 3.85 1.94 7.41 3.6 10.83 1.56 3.21 3.67 7.09 3.67 10.73v36.22l-.28.4c-.77 1.11-3.2 1.75-4.51 2a41.26 41.26 0 0 1-8.24.8 40.6 40.6 0 0 1-8.31-.67c-1.33-.27-3.81-.89-4.54-2.06l-.24-.38z"/><path class="cls-11" d="M249.06 371c.4.63 2.89 1.23 3.53 1.36a39.55 39.55 0 0 0 8 .64 40.27 40.27 0 0 0 7.93-.77c.65-.14 3.12-.77 3.55-1.4V335.1c0-3.28-2.09-7.15-3.51-10.05-.74-1.53-1.46-3.05-2.07-4.61a19.43 19.43 0 0 1-1.69-9.27h-8.51a19.69 19.69 0 0 1-1.74 9.35c-.59 1.48-1.28 2.93-2 4.39-1.42 2.88-3.48 6.63-3.48 9.9V371z"/><path class="cls-18" d="M249.06 371c.4.63 2.89 1.23 3.53 1.36a39.55 39.55 0 0 0 8 .64 40.27 40.27 0 0 0 7.93-.77c.65-.14 3.12-.77 3.55-1.4V335.1c0-3.28-2.09-7.15-3.51-10.05-.5-1-1-2-1.43-3.08h-13.2c-.43 1-.9 1.94-1.37 2.91-1.42 2.88-3.48 6.63-3.48 9.9V371z"/><path class="cls-18" d="M260.51 320.57c3.66 0 6.63.7 6.63 1.56s-3 1.56-6.63 1.56-6.63-.7-6.63-1.56 3-1.56 6.63-1.56z"/><path class="cls-19" d="M251.59 345.82v19.41a65.11 65.11 0 0 0 13.62.47c2.36-.15 4.65-.41 6.83-.76v-19.32a67.55 67.55 0 0 1-6.83.79 59.39 59.39 0 0 1-13.62-.59z"/><path class="cls-20" d="M253.87 349.14v13.39a64.91 64.91 0 0 0 11.35.21c2.27-.15 4.55-.39 6.83-.76V348.6c-2.28.38-4.57.63-6.83.77a63.45 63.45 0 0 1-11.35-.23z"/><path class="cls-19" d="M256.14 352.33v7.43a65.11 65.11 0 0 0 9.08 0c2.28-.15 4.56-.4 6.83-.77v-7.44c-2.27.37-4.56.62-6.83.76a67.59 67.59 0 0 1-9.08 0z"/><path class="cls-20" d="M253.14 303.66H268v8.06c0 1.74-14.83 1.58-14.83 0v-8.06z"/><path class="cls-20" d="M268 303.67c0 1.6-14.83 1.6-14.83 0s14.83-1.6 14.83 0z"/><path class="cls-11" d="M278 360v-19.28c-1.06.18-2.15.33-3.26.46v19.29q1.67-.19 3.26-.44z"/><path class="cls-11" d="M278 357.06v-13.37q-1.63.27-3.26.45v13.37q1.63-.19 3.26-.45z"/><path class="cls-11" d="M278 354.1v-7.44q-1.63.26-3.26.45v7.45q1.64-.19 3.26-.46z"/><path class="cls-11" d="M268.39 370.77v-36.66c0-3.63 2.07-7.4 3.64-10.59 1.66-3.38 3.45-6.69 3.58-10.68l.12-3.62h11.38l.12 3.61c.13 3.85 1.94 7.41 3.6 10.83 1.56 3.21 3.67 7.09 3.67 10.73v36.22l-.28.4c-.77 1.11-3.2 1.75-4.51 2a41.26 41.26 0 0 1-8.24.8 40.6 40.6 0 0 1-8.31-.67c-1.33-.27-3.81-.89-4.54-2.06l-.24-.38z"/><path class="cls-11" d="M269.95 370.32c.4.63 2.89 1.23 3.53 1.36a39.55 39.55 0 0 0 8 .64 40.27 40.27 0 0 0 7.93-.77c.65-.14 3.12-.77 3.55-1.4v-35.72c0-3.28-2.09-7.15-3.51-10.05-.74-1.53-1.46-3.05-2.07-4.61a19.43 19.43 0 0 1-1.69-9.27h-8.51a19.69 19.69 0 0 1-1.74 9.35c-.59 1.48-1.28 2.93-2 4.39-1.42 2.88-3.48 6.63-3.48 9.9v36.21z"/><path class="cls-18" d="M269.95 370.32c.4.63 2.89 1.23 3.53 1.36a39.55 39.55 0 0 0 8 .64 40.27 40.27 0 0 0 7.93-.77c.65-.14 3.12-.77 3.55-1.4v-35.72c0-3.28-2.09-7.15-3.51-10.05-.5-1-1-2-1.43-3.08h-13.2c-.43 1-.9 1.94-1.37 2.91-1.42 2.88-3.48 6.63-3.48 9.9v36.21z"/><path class="cls-18" d="M281.4 319.89c3.66 0 6.63.7 6.63 1.56s-3 1.56-6.63 1.56-6.63-.7-6.63-1.56 3-1.56 6.63-1.56z"/><path class="cls-19" d="M272.49 345.14v19.41a65.11 65.11 0 0 0 13.62.47c2.36-.15 4.65-.41 6.83-.76v-19.31a67.55 67.55 0 0 1-6.83.79 59.39 59.39 0 0 1-13.62-.59z"/><path class="cls-20" d="M274.76 348.46v13.39a64.91 64.91 0 0 0 11.35.21c2.27-.15 4.55-.39 6.83-.76v-13.38c-2.28.38-4.57.63-6.83.77a63.45 63.45 0 0 1-11.35-.23z"/><path class="cls-19" d="M277 351.65v7.43a65.11 65.11 0 0 0 9.08 0c2.28-.15 4.56-.4 6.83-.77v-7.44c-2.27.37-4.56.62-6.83.76a67.59 67.59 0 0 1-9.08 0z"/><path class="cls-20" d="M274 303h14.83v8c0 1.74-14.83 1.58-14.83 0v-8z"/><path class="cls-20" d="M288.86 303c0 1.6-14.83 1.6-14.83 0s14.83-1.6 14.83 0z"/><path class="cls-11" d="M304.91 360.49v-19.31c-1.06.18-2.15.33-3.26.46v19.29q1.67-.19 3.26-.44z"/><path class="cls-11" d="M304.91 357.53v-13.38q-1.63.27-3.26.45V358q1.63-.19 3.26-.45z"/><path class="cls-11" d="M304.91 354.56v-7.44q-1.63.26-3.26.45V355q1.64-.19 3.26-.46z"/><path class="cls-11" d="M295.26 371.23v-36.65c0-3.63 2.07-7.4 3.64-10.59 1.66-3.38 3.45-6.69 3.58-10.68l.12-3.62h11.38l.12 3.61c.13 3.85 1.94 7.41 3.6 10.83 1.56 3.21 3.67 7.09 3.67 10.73v36.22l-.28.4c-.77 1.11-3.2 1.75-4.51 2a41.26 41.26 0 0 1-8.24.8 40.6 40.6 0 0 1-8.31-.67c-1.33-.27-3.81-.89-4.54-2.06l-.24-.38z"/><path class="cls-11" d="M296.82 370.79c.4.63 2.89 1.23 3.53 1.36a39.55 39.55 0 0 0 8 .64 40.27 40.27 0 0 0 7.93-.77c.65-.14 3.12-.77 3.55-1.4v-35.73c0-3.28-2.09-7.15-3.51-10.05-.74-1.53-1.46-3.05-2.07-4.61a19.43 19.43 0 0 1-1.69-9.27h-8.51a19.69 19.69 0 0 1-1.74 9.35c-.59 1.48-1.28 2.93-2 4.39-1.42 2.88-3.48 6.63-3.48 9.9v36.21z"/><path class="cls-18" d="M296.82 370.79c.4.63 2.89 1.23 3.53 1.36a39.55 39.55 0 0 0 8 .64 40.27 40.27 0 0 0 7.93-.77c.65-.14 3.12-.77 3.55-1.4v-35.73c0-3.28-2.09-7.15-3.51-10.05-.5-1-1-2-1.43-3.08h-13.2c-.43 1-.9 1.94-1.37 2.91-1.42 2.88-3.48 6.63-3.48 9.9v36.21z"/><path class="cls-18" d="M308.28 320.36c3.66 0 6.63.7 6.63 1.56s-3 1.56-6.63 1.56-6.63-.7-6.63-1.56 3-1.56 6.63-1.56z"/><path class="cls-19" d="M299.36 345.61V365a65.11 65.11 0 0 0 13.62.47c2.36-.15 4.65-.41 6.83-.76v-19.3a67.55 67.55 0 0 1-6.83.79 59.39 59.39 0 0 1-13.62-.59z"/><path class="cls-20" d="M301.63 348.93v13.39a64.91 64.91 0 0 0 11.35.21c2.27-.15 4.55-.39 6.83-.76v-13.38c-2.28.38-4.57.63-6.83.77a63.45 63.45 0 0 1-11.35-.23z"/><path class="cls-19" d="M303.9 352.12v7.43a65.11 65.11 0 0 0 9.08 0c2.28-.15 4.56-.4 6.83-.77v-7.44c-2.27.37-4.56.62-6.83.76a67.59 67.59 0 0 1-9.08 0z"/><path class="cls-20" d="M300.9 303.45h14.83v8.06c0 1.74-14.83 1.58-14.83 0v-8.06z"/><path class="cls-20" d="M315.73 303.46c0 1.6-14.83 1.6-14.83 0s14.83-1.6 14.83 0z"/><path class="cls-11" d="M336 362.9v-19.3c-1.06.18-2.15.33-3.26.46v19.29q1.67-.19 3.26-.44z"/><path class="cls-11" d="M336 359.94v-13.37q-1.63.27-3.26.45v13.37q1.63-.19 3.26-.45z"/><path class="cls-11" d="M336 357v-7.44q-1.63.26-3.26.45v7.45q1.64-.19 3.26-.46z"/><path class="cls-11" d="M326.38 373.65V337c0-3.63 2.07-7.4 3.64-10.59 1.66-3.38 3.45-6.69 3.58-10.68l.12-3.62h11.38l.12 3.61c.13 3.85 1.94 7.41 3.6 10.83 1.56 3.21 3.67 7.09 3.67 10.73v36.22l-.28.4c-.77 1.11-3.2 1.75-4.51 2a41.26 41.26 0 0 1-8.24.8 40.6 40.6 0 0 1-8.31-.67c-1.33-.27-3.81-.89-4.54-2.06l-.24-.38z"/><path class="cls-11" d="M327.94 373.2c.4.63 2.89 1.23 3.53 1.36a39.55 39.55 0 0 0 8 .64 40.27 40.27 0 0 0 7.93-.77c.65-.14 3.12-.77 3.55-1.4v-35.72c0-3.28-2.09-7.15-3.51-10.05-.74-1.53-1.46-3.05-2.07-4.61a19.43 19.43 0 0 1-1.69-9.27h-8.51a19.69 19.69 0 0 1-1.74 9.35c-.59 1.48-1.28 2.93-2 4.39-1.42 2.88-3.48 6.63-3.48 9.9v36.18z"/><path class="cls-18" d="M327.94 373.2c.4.63 2.89 1.23 3.53 1.36a39.55 39.55 0 0 0 8 .64 40.27 40.27 0 0 0 7.93-.77c.65-.14 3.12-.77 3.55-1.4v-35.72c0-3.28-2.09-7.15-3.51-10.05-.5-1-1-2-1.43-3.08H332.8c-.43 1-.9 1.94-1.37 2.91-1.42 2.88-3.48 6.63-3.48 9.9v36.21z"/><path class="cls-18" d="M339.4 322.77c3.66 0 6.63.7 6.63 1.56s-3 1.56-6.63 1.56-6.63-.7-6.63-1.56 3-1.56 6.63-1.56z"/><path class="cls-19" d="M330.48 348v19.41a65.11 65.11 0 0 0 13.62.47c2.36-.15 4.65-.41 6.83-.76v-19.29a67.55 67.55 0 0 1-6.83.79 59.39 59.39 0 0 1-13.62-.59z"/><path class="cls-20" d="M332.75 351.34v13.39a64.91 64.91 0 0 0 11.35.21c2.27-.15 4.55-.39 6.83-.76V350.8c-2.28.38-4.57.63-6.83.77a63.45 63.45 0 0 1-11.35-.23z"/><path class="cls-19" d="M335 354.53V362a65.11 65.11 0 0 0 9.08 0c2.28-.15 4.56-.4 6.83-.77v-7.44c-2.27.37-4.56.62-6.83.76a67.59 67.59 0 0 1-9.08 0z"/><path class="cls-20" d="M332 305.87h14.83v8.06c0 1.74-14.83 1.58-14.83 0v-8.06z"/><path class="cls-20" d="M346.85 305.87c0 1.6-14.83 1.6-14.83 0s14.83-1.6 14.83 0z"/><path class="cls-11" d="M265 366.4v-19.31c-1.06.18-2.15.33-3.26.46v19.29q1.67-.19 3.26-.44z"/><path class="cls-11" d="M265 363.44v-13.38q-1.63.27-3.26.45v13.37q1.63-.19 3.26-.45z"/><path class="cls-11" d="M265 360.47V353q-1.63.26-3.26.45v7.45q1.64-.19 3.26-.46z"/><path class="cls-11" d="M255.33 377.14v-36.65c0-3.63 2.07-7.4 3.64-10.59 1.66-3.38 3.45-6.69 3.58-10.68l.12-3.62h11.38l.12 3.61c.13 3.85 1.94 7.41 3.6 10.83 1.56 3.21 3.67 7.09 3.67 10.73V377l-.28.4c-.77 1.11-3.2 1.75-4.51 2a41.26 41.26 0 0 1-8.24.8 40.6 40.6 0 0 1-8.31-.67c-1.33-.27-3.81-.89-4.54-2.06l-.24-.38z"/><path class="cls-11" d="M256.89 376.7c.4.63 2.89 1.23 3.53 1.36a39.55 39.55 0 0 0 8 .64 40.27 40.27 0 0 0 7.93-.77c.65-.14 3.12-.77 3.55-1.4V340.8c0-3.28-2.09-7.15-3.51-10.05-.74-1.53-1.46-3.05-2.07-4.61a19.43 19.43 0 0 1-1.69-9.27h-8.51a19.69 19.69 0 0 1-1.74 9.35c-.59 1.48-1.28 2.93-2 4.39-1.42 2.88-3.48 6.63-3.48 9.9v36.19z"/><path class="cls-18" d="M256.89 376.7c.4.63 2.89 1.23 3.53 1.36a39.55 39.55 0 0 0 8 .64 40.27 40.27 0 0 0 7.93-.77c.65-.14 3.12-.77 3.55-1.4V340.8c0-3.28-2.09-7.15-3.51-10.05-.5-1-1-2-1.43-3.08h-13.2c-.43 1-.9 1.94-1.37 2.91-1.42 2.88-3.48 6.63-3.48 9.9v36.22z"/><path class="cls-18" d="M268.35 326.27c3.66 0 6.63.7 6.63 1.56s-3 1.56-6.63 1.56-6.63-.7-6.63-1.56 3-1.56 6.63-1.56z"/><path class="cls-19" d="M259.43 351.52v19.41a65.11 65.11 0 0 0 13.62.47c2.36-.15 4.65-.41 6.83-.76v-19.32a67.55 67.55 0 0 1-6.83.79 59.39 59.39 0 0 1-13.62-.59z"/><path class="cls-20" d="M261.7 354.84v13.39a64.91 64.91 0 0 0 11.35.21c2.27-.15 4.55-.39 6.83-.76V354.3c-2.28.38-4.57.63-6.83.77a63.45 63.45 0 0 1-11.35-.23z"/><path class="cls-19" d="M264 358v7.43a65.11 65.11 0 0 0 9.08 0c2.28-.15 4.56-.4 6.83-.77v-7.44c-2.27.37-4.56.62-6.83.76a67.59 67.59 0 0 1-9.08 0z"/><path class="cls-20" d="M261 309.36h14.8v8.06c0 1.74-14.83 1.58-14.83 0v-8.06z"/><path class="cls-20" d="M275.8 309.37c0 1.6-14.83 1.6-14.83 0s14.83-1.6 14.83 0z"/><path class="cls-11" d="M298.22 368.35V349c-1.06.18-2.15.33-3.26.46v19.29q1.67-.19 3.26-.44z"/><path class="cls-11" d="M298.22 365.39V352q-1.63.27-3.26.45v13.37q1.63-.19 3.26-.45z"/><path class="cls-11" d="M298.22 362.42V355q-1.63.26-3.26.45v7.45q1.64-.19 3.26-.46z"/><path class="cls-11" d="M288.57 379.09v-36.65c0-3.63 2.07-7.4 3.64-10.59 1.66-3.38 3.45-6.69 3.58-10.68l.12-3.62h11.38l.12 3.61c.13 3.85 1.94 7.41 3.6 10.83 1.56 3.21 3.67 7.09 3.67 10.73V379l-.28.4c-.77 1.11-3.2 1.75-4.51 2a41.26 41.26 0 0 1-8.24.8 40.6 40.6 0 0 1-8.31-.67c-1.33-.27-3.81-.89-4.54-2.06l-.24-.38z"/><path class="cls-11" d="M290.13 378.64c.4.63 2.89 1.23 3.53 1.36a39.55 39.55 0 0 0 8 .64 40.27 40.27 0 0 0 7.93-.77c.65-.14 3.12-.77 3.55-1.4v-35.72c0-3.28-2.09-7.15-3.51-10.05-.74-1.53-1.46-3.05-2.07-4.61a19.43 19.43 0 0 1-1.69-9.27h-8.51a19.69 19.69 0 0 1-1.74 9.35c-.59 1.48-1.28 2.93-2 4.39-1.42 2.88-3.48 6.63-3.48 9.9v36.21z"/><path class="cls-18" d="M290.13 378.64c.4.63 2.89 1.23 3.53 1.36a39.55 39.55 0 0 0 8 .64 40.27 40.27 0 0 0 7.93-.77c.65-.14 3.12-.77 3.55-1.4v-35.72c0-3.28-2.09-7.15-3.51-10.05-.5-1-1-2-1.43-3.08H295c-.43 1-.9 1.94-1.37 2.91-1.42 2.88-3.48 6.63-3.48 9.9v36.21z"/><path class="cls-18" d="M301.59 328.22c3.66 0 6.63.7 6.63 1.56s-3 1.56-6.63 1.56-6.63-.7-6.63-1.56 3-1.56 6.63-1.56z"/><path class="cls-19" d="M292.67 353.47v19.41a65.11 65.11 0 0 0 13.62.47c2.36-.15 4.65-.41 6.83-.76v-19.32a67.55 67.55 0 0 1-6.83.79 59.39 59.39 0 0 1-13.62-.59z"/><path class="cls-20" d="M294.94 356.79v13.39a64.91 64.91 0 0 0 11.35.21c2.27-.15 4.55-.39 6.83-.76v-13.39c-2.28.38-4.57.63-6.83.77a63.45 63.45 0 0 1-11.35-.23z"/><path class="cls-19" d="M297.21 360v7.43a65.11 65.11 0 0 0 9.08 0c2.28-.15 4.56-.4 6.83-.77v-7.44c-2.27.37-4.56.62-6.83.76a67.59 67.59 0 0 1-9.08 0z"/><path class="cls-20" d="M294.22 311.31H309v8.06c0 1.74-14.83 1.58-14.83 0v-8.06z"/><path class="cls-20" d="M309 311.32c0 1.6-14.83 1.6-14.83 0s14.83-1.6 14.83 0z"/><path class="cls-11" d="M327.07 370.95v-19.31c-1.06.18-2.15.33-3.26.46v19.29q1.67-.19 3.26-.44z"/><path class="cls-11" d="M327.07 368v-13.39q-1.63.27-3.26.45v13.37q1.63-.19 3.26-.45z"/><path class="cls-11" d="M327.07 365v-7.44q-1.63.26-3.26.45v7.45q1.64-.19 3.26-.46z"/><path class="cls-11" d="M317.42 381.69V345c0-3.63 2.07-7.4 3.64-10.59 1.66-3.38 3.45-6.69 3.58-10.68l.12-3.62h11.38l.12 3.61c.13 3.85 1.94 7.41 3.6 10.83 1.56 3.21 3.67 7.09 3.67 10.73v36.22l-.28.4c-.77 1.11-3.2 1.75-4.51 2a41.26 41.26 0 0 1-8.24.8 40.6 40.6 0 0 1-8.31-.67c-1.33-.27-3.81-.89-4.54-2.06l-.24-.38z"/><path class="cls-11" d="M319 381.25c.4.63 2.89 1.23 3.53 1.36a39.55 39.55 0 0 0 8 .64 40.27 40.27 0 0 0 7.93-.77c.65-.14 3.12-.77 3.55-1.4v-35.73c0-3.28-2.09-7.15-3.51-10.05-.74-1.53-1.46-3.05-2.07-4.61a19.43 19.43 0 0 1-1.69-9.27h-8.51a19.69 19.69 0 0 1-1.74 9.35c-.59 1.48-1.28 2.93-2 4.39C321 338 319 341.77 319 345v36.21z"/><path class="cls-18" d="M319 381.25c.4.63 2.89 1.23 3.53 1.36a39.55 39.55 0 0 0 8 .64 40.27 40.27 0 0 0 7.93-.77c.65-.14 3.12-.77 3.55-1.4v-35.73c0-3.28-2.09-7.15-3.51-10.05-.5-1-1-2-1.43-3.08h-13.2c-.43 1-.9 1.94-1.37 2.91-1.5 2.87-3.5 6.64-3.5 9.87v36.21z"/><path class="cls-18" d="M330.44 330.82c3.66 0 6.63.7 6.63 1.56s-3 1.56-6.63 1.56-6.63-.7-6.63-1.56 3-1.56 6.63-1.56z"/><path class="cls-19" d="M321.52 356.07v19.41a65.11 65.11 0 0 0 13.62.47c2.36-.15 4.65-.41 6.83-.76v-19.32a67.55 67.55 0 0 1-6.83.79 59.39 59.39 0 0 1-13.62-.59z"/><path class="cls-20" d="M323.79 359.39v13.39a64.91 64.91 0 0 0 11.35.21c2.27-.15 4.55-.39 6.83-.76v-13.38c-2.28.38-4.57.63-6.83.77a63.45 63.45 0 0 1-11.35-.23z"/><path class="cls-19" d="M326.07 362.58V370a65.11 65.11 0 0 0 9.08 0c2.28-.15 4.56-.4 6.83-.77v-7.44c-2.27.37-4.56.62-6.83.76a67.59 67.59 0 0 1-9.08 0z"/><path class="cls-20" d="M323.07 313.91h14.83V322c0 1.74-14.83 1.58-14.83 0v-8.06z"/><path class="cls-20" d="M337.9 313.92c0 1.6-14.83 1.6-14.83 0s14.83-1.6 14.83 0z"/><path class="cls-11" d="M349.7 372.25v-19.31c-1.06.18-2.15.33-3.26.46v19.3q1.67-.19 3.26-.44z"/><path class="cls-11" d="M349.7 369.29v-13.38q-1.63.27-3.26.45v13.37q1.63-.19 3.26-.45z"/><path class="cls-11" d="M349.7 366.32v-7.44q-1.63.26-3.26.45v7.45q1.64-.19 3.26-.46z"/><path class="cls-11" d="M340.06 383v-36.66c0-3.63 2.07-7.4 3.64-10.59 1.66-3.38 3.45-6.69 3.58-10.68l.12-3.62h11.38l.12 3.61c.13 3.85 1.94 7.41 3.6 10.83 1.56 3.21 3.67 7.09 3.67 10.73v36.22l-.28.4c-.77 1.11-3.2 1.75-4.51 2a41.26 41.26 0 0 1-8.24.8 40.6 40.6 0 0 1-8.31-.67c-1.33-.27-3.81-.89-4.54-2.06l-.24-.38z"/><path class="cls-11" d="M341.62 382.55c.4.63 2.89 1.23 3.53 1.36a39.55 39.55 0 0 0 8 .64 40.27 40.27 0 0 0 7.93-.77c.65-.14 3.12-.77 3.55-1.4v-35.73c0-3.28-2.09-7.15-3.51-10.05-.74-1.53-1.46-3.05-2.07-4.61a19.43 19.43 0 0 1-1.69-9.27h-8.51a19.69 19.69 0 0 1-1.75 9.28c-.59 1.48-1.28 2.93-2 4.39-1.42 2.88-3.48 6.63-3.48 9.9v36.21z"/><path class="cls-18" d="M341.62 382.55c.4.63 2.89 1.23 3.53 1.36a39.55 39.55 0 0 0 8 .64 40.27 40.27 0 0 0 7.93-.77c.65-.14 3.12-.77 3.55-1.4v-35.73c0-3.28-2.09-7.15-3.51-10.05-.5-1-1-2-1.43-3.08h-13.2c-.43 1-.9 1.94-1.37 2.91-1.42 2.88-3.48 6.63-3.48 9.9v36.21z"/><path class="cls-18" d="M353.07 332.12c3.66 0 6.63.7 6.63 1.56s-3 1.56-6.63 1.56-6.63-.7-6.63-1.56 3-1.56 6.63-1.56z"/><path class="cls-19" d="M344.16 357.37v19.41a65.11 65.11 0 0 0 13.62.47c2.36-.15 4.65-.41 6.83-.76v-19.31a67.55 67.55 0 0 1-6.83.79 59.39 59.39 0 0 1-13.62-.59z"/><path class="cls-20" d="M346.43 360.69v13.39a64.91 64.91 0 0 0 11.35.21c2.27-.15 4.55-.39 6.83-.76v-13.38c-2.28.38-4.57.63-6.83.77a63.45 63.45 0 0 1-11.35-.23z"/><path class="cls-19" d="M348.7 363.88v7.43a65.11 65.11 0 0 0 9.08 0c2.28-.15 4.56-.4 6.83-.77v-7.44c-2.27.37-4.56.62-6.83.76a67.59 67.59 0 0 1-9.08 0z"/><path class="cls-20" d="M345.7 315.21h14.83v8.06c0 1.74-14.83 1.58-14.83 0v-8.06z"/><path class="cls-20" d="M360.53 315.22c0 1.6-14.83 1.6-14.83 0s14.83-1.6 14.83 0z"/><path class="cls-11" d="M198.84 351.1a1.67 1.67 0 1 1-1.27 2 1.67 1.67 0 0 1 1.27-2z"/><path class="cls-11" d="M199.4 351.07a1.67 1.67 0 1 1-1 3.14 1.67 1.67 0 0 0 1-3.14zm-1.14.98a.35.35 0 1 1-.26.41.35.35 0 0 1 .26-.41z"/><path class="cls-21" d="M204.55 323.66l-3.2 38.51c-.47 6-27.24 5.35-27.59 0l-2.88-38.51h33.67z"/><path class="cls-11" d="M197.39 323.67q.15 2.14.15 4.35c0 18.83-8.48 34.1-18.94 34.1a11.23 11.23 0 0 1-4.94-1.17l-2.78-37.27z"/><path class="cls-21" d="M190.61 323.67c.12 1.42.19 2.87.19 4.35 0 15.48-7 28-15.57 28a8.86 8.86 0 0 1-1.95-.22l-2.4-32.15z"/><path class="cls-22" d="M206.58 317.75l.07.27v4.71c0 4.09-17.65 4.36-18.93 4.36-10.46 0-18.93-1.94-18.93-4.34v-4.83l37.8-.17z"/><path class="cls-11" d="M192.13 321v2.19c0 1.4-.39 2.28-3 2.82a18.66 18.66 0 0 1-8-.32c-3.1-.87-3.69-2.37-3.69-3.81V319c3.57 0 14.35-4.23 14.7 2z"/><path class="cls-22" d="M192.13 321v2.19c0 1.4-.39 2.28-3 2.82a18.66 18.66 0 0 1-8-.32c-3.1-.87-3.69-2.37-3.69-3.81V319c1.51 0 4.32-.76 7.08-1.16h4.94a3.2 3.2 0 0 1 2.68 3.19z"/><path class="cls-22" d="M187.72 313.64c10.46 0 18.93 1.94 18.93 4.34s-8.48 4.34-18.93 4.34-18.93-1.94-18.93-4.34 8.48-4.34 18.93-4.34z"/><path class="cls-22" d="M187.72 314.06c8.71 0 15.78 1.36 15.78 3s-7.07 3-15.78 3-15.78-1.36-15.78-3 7.07-3 15.78-3z"/><path class="cls-23" d="M187.72 333c5.32 0 9.64 1.73 9.64 3.85s-4.32 3.85-9.64 3.85-9.64-1.73-9.64-3.85 4.32-3.85 9.64-3.85z"/><path class="cls-11" d="M180.84 356.2c5.76-.68 8.07-3.07 10.62-6.84a12.49 12.49 0 0 1-2 8.06h.19c1.87-3.25 2.31-5.77 2-8.31.54-.81 1.1-1.68 1.7-2.61 1.35 2.14 2 4.59 1.68 8.28l.18-.07c.32-3.75-.36-6.22-1.74-8.38l-.12-.17c-.66 1-1.27 2-1.85 2.84-2.58 3.86-4.86 6.3-10.69 7l.11.16z"/><path class="cls-23" d="M179.91 354.26a1.67 1.67 0 1 1-1.27 2 1.67 1.67 0 0 1 1.27-2zm3.7-.59a1.67 1.67 0 1 1-1.27 2 1.67 1.67 0 0 1 1.27-2zm3.5-1.6a1.67 1.67 0 1 1-1.27 2 1.67 1.67 0 0 1 1.27-2zm3.28 1.27a1.67 1.67 0 1 1-1.27 2 1.67 1.67 0 0 1 1.27-2zm-1.39 3.49a1.67 1.67 0 1 1-1.27 2 1.67 1.67 0 0 1 1.27-2zm5.71-7.13a1.67 1.67 0 1 1-1.27 2 1.67 1.67 0 0 1 1.27-2zm.11 3.67a1.67 1.67 0 1 1-1.27 2 1.67 1.67 0 0 1 1.27-2z"/><path class="cls-11" d="M166 355.15a1.67 1.67 0 1 1-1.27 2 1.67 1.67 0 0 1 1.27-2z"/><path class="cls-11" d="M166.51 355.12a1.67 1.67 0 1 1-1 3.14 1.67 1.67 0 0 0 1-3.14zm-1.13.98a.35.35 0 1 1-.26.41.35.35 0 0 1 .26-.41z"/><path class="cls-21" d="M171.66 327.71l-3.2 38.51c-.47 6-27.24 5.35-27.59 0L138 327.73h33.67z"/><path class="cls-11" d="M164.5 327.71q.15 2.14.15 4.35c0 18.83-8.48 34.1-18.94 34.1a11.23 11.23 0 0 1-4.94-1.17L138 327.73z"/><path class="cls-21" d="M157.73 327.72c.12 1.42.19 2.87.19 4.35 0 15.48-7 28-15.57 28a8.86 8.86 0 0 1-1.95-.22l-2.4-32.12z"/><path class="cls-22" d="M173.7 321.8l.07.27v4.71c0 4.09-17.65 4.36-18.93 4.36-10.46 0-18.93-1.94-18.93-4.34V322l37.8-.17z"/><path class="cls-11" d="M159.24 325.07v2.19c0 1.4-.39 2.28-3 2.82a18.66 18.66 0 0 1-8-.32c-3.1-.87-3.69-2.37-3.69-3.81v-2.9c3.57 0 14.35-4.23 14.7 2z"/><path class="cls-22" d="M159.24 325.07v2.19c0 1.4-.39 2.28-3 2.82a18.66 18.66 0 0 1-8-.32c-3.1-.87-3.69-2.37-3.69-3.81v-2.9c1.51 0 4.32-.76 7.08-1.16h4.94a3.2 3.2 0 0 1 2.68 3.19z"/><path class="cls-22" d="M154.83 317.69c10.46 0 18.93 1.94 18.93 4.34s-8.48 4.34-18.93 4.34-18.93-1.94-18.93-4.34 8.48-4.34 18.93-4.34z"/><path class="cls-22" d="M154.83 318.11c8.71 0 15.78 1.36 15.78 3s-7.07 3-15.78 3-15.78-1.36-15.78-3 7.07-3 15.78-3z"/><path class="cls-23" d="M154.83 337c5.32 0 9.64 1.73 9.64 3.85s-4.32 3.85-9.64 3.85-9.64-1.73-9.64-3.85 4.32-3.85 9.64-3.85z"/><path class="cls-11" d="M148 360.24c5.76-.68 8.07-3.07 10.62-6.84a12.49 12.49 0 0 1-2 8.06h.19c1.87-3.25 2.31-5.77 2-8.31.54-.81 1.1-1.68 1.7-2.61 1.35 2.14 2 4.59 1.68 8.28l.18-.07c.32-3.75-.36-6.22-1.74-8.38l-.12-.17c-.66 1-1.27 2-1.85 2.84-2.58 3.86-4.86 6.3-10.69 7l.11.16z"/><path class="cls-23" d="M147 358.31a1.67 1.67 0 1 1-1.27 2 1.67 1.67 0 0 1 1.27-2zm3.72-.6a1.67 1.67 0 1 1-1.27 2 1.67 1.67 0 0 1 1.27-2zm3.5-1.59a1.67 1.67 0 1 1-1.27 2 1.67 1.67 0 0 1 1.27-2zm3.28 1.27a1.67 1.67 0 1 1-1.27 2 1.67 1.67 0 0 1 1.27-2zm-1.36 3.48a1.67 1.67 0 1 1-1.27 2 1.67 1.67 0 0 1 1.27-2zm5.68-7.12a1.67 1.67 0 1 1-1.27 2 1.67 1.67 0 0 1 1.27-2zm.11 3.67a1.67 1.67 0 1 1-1.27 2 1.67 1.67 0 0 1 1.27-2z"/><path class="cls-11" d="M239.52 353.7a1.67 1.67 0 1 1-1.27 2 1.67 1.67 0 0 1 1.27-2z"/><path class="cls-11" d="M240.08 353.67a1.67 1.67 0 1 1-1 3.14 1.67 1.67 0 0 0 1-3.14zm-1.13.99a.35.35 0 1 1-.26.41.35.35 0 0 1 .26-.41z"/><path class="cls-21" d="M245.23 326.27L242 364.78c-.47 6-27.24 5.35-27.59 0l-2.88-38.51h33.67z"/><path class="cls-11" d="M238.07 326.27q.15 2.14.15 4.35c0 18.83-8.48 34.1-18.94 34.1a11.23 11.23 0 0 1-4.94-1.17l-2.78-37.27z"/><path class="cls-21" d="M231.3 326.27c.12 1.42.19 2.87.19 4.35 0 15.48-7 28-15.57 28a8.86 8.86 0 0 1-1.95-.22l-2.4-32.15z"/><path class="cls-22" d="M247.26 320.36l.07.27v4.71c0 4.09-17.65 4.36-18.93 4.36-10.46 0-18.93-1.94-18.93-4.34v-4.83l37.8-.17z"/><path class="cls-11" d="M232.81 323.62v2.19c0 1.4-.39 2.28-3 2.82a18.66 18.66 0 0 1-8-.32c-3.1-.87-3.69-2.37-3.69-3.81v-2.9c3.57 0 14.35-4.23 14.7 2z"/><path class="cls-22" d="M232.81 323.62v2.19c0 1.4-.39 2.28-3 2.82a18.66 18.66 0 0 1-8-.32c-3.1-.87-3.69-2.37-3.69-3.81v-2.9c1.51 0 4.32-.76 7.08-1.16h4.94a3.2 3.2 0 0 1 2.68 3.19z"/><path class="cls-22" d="M228.4 316.24c10.46 0 18.93 1.94 18.93 4.34s-8.48 4.34-18.93 4.34-18.93-1.94-18.93-4.34 8.48-4.34 18.93-4.34z"/><path class="cls-22" d="M228.4 316.66c8.71 0 15.78 1.36 15.78 3s-7.07 3-15.78 3-15.78-1.36-15.78-3 7.07-3 15.78-3z"/><path class="cls-23" d="M228.4 335.57c5.32 0 9.64 1.73 9.64 3.85s-4.32 3.85-9.64 3.85-9.64-1.73-9.64-3.85 4.32-3.85 9.64-3.85z"/><path class="cls-11" d="M221.52 358.8c5.76-.68 8.07-3.07 10.62-6.84a12.49 12.49 0 0 1-2 8.06h.19c1.87-3.25 2.31-5.77 2-8.31.54-.81 1.1-1.68 1.7-2.61 1.35 2.14 2 4.59 1.68 8.28l.18-.07c.32-3.75-.36-6.22-1.74-8.38l-.12-.17c-.66 1-1.27 2-1.85 2.84-2.58 3.86-4.86 6.3-10.69 7l.11.16z"/><path class="cls-23" d="M220.59 356.86a1.67 1.67 0 1 1-1.27 2 1.67 1.67 0 0 1 1.27-2zm3.7-.59a1.67 1.67 0 1 1-1.27 2 1.67 1.67 0 0 1 1.27-2zm3.5-1.6a1.67 1.67 0 1 1-1.27 2 1.67 1.67 0 0 1 1.27-2zm3.28 1.27a1.67 1.67 0 1 1-1.27 2 1.67 1.67 0 0 1 1.27-2zm-1.36 3.49a1.67 1.67 0 1 1-1.27 2 1.67 1.67 0 0 1 1.27-2zm5.68-7.13a1.67 1.67 0 1 1-1.27 2 1.67 1.67 0 0 1 1.27-2zm.11 3.7a1.67 1.67 0 1 1-1.27 2 1.67 1.67 0 0 1 1.27-2z"/><path class="cls-11" d="M206.3 359a1.67 1.67 0 1 1-1.27 2 1.67 1.67 0 0 1 1.27-2z"/><path class="cls-11" d="M206.85 358.95a1.67 1.67 0 1 1-1 3.14 1.67 1.67 0 0 0 1-3.14zm-1.13.98a.35.35 0 1 1-.26.41.35.35 0 0 1 .26-.41z"/><path class="cls-21" d="M212 331.54l-3.2 38.51c-.47 6-27.24 5.35-27.59 0l-2.88-38.51H212z"/><path class="cls-11" d="M204.84 331.54q.15 2.14.15 4.35c0 18.83-8.48 34.1-18.94 34.1a11.23 11.23 0 0 1-4.94-1.17l-2.78-37.27z"/><path class="cls-21" d="M198.07 331.55c.12 1.42.19 2.87.19 4.35 0 15.48-7 28-15.57 28a8.86 8.86 0 0 1-1.95-.22l-2.4-32.15z"/><path class="cls-22" d="M214 325.63l.07.27v4.71c0 4.09-17.65 4.36-18.93 4.36-10.46 0-18.93-1.94-18.93-4.34v-4.83l37.8-.17z"/><path class="cls-11" d="M199.58 328.9v2.19c0 1.4-.39 2.28-3 2.82a18.66 18.66 0 0 1-8-.32c-3.1-.87-3.69-2.37-3.69-3.81v-2.9c3.57 0 14.35-4.23 14.7 2z"/><path class="cls-22" d="M199.58 328.9v2.19c0 1.4-.39 2.28-3 2.82a18.66 18.66 0 0 1-8-.32c-3.1-.87-3.69-2.37-3.69-3.81v-2.9c1.51 0 4.32-.76 7.08-1.16h4.94a3.2 3.2 0 0 1 2.68 3.19z"/><path class="cls-22" d="M195.17 321.52c10.46 0 18.93 1.94 18.93 4.34s-8.48 4.34-18.93 4.34-18.93-1.94-18.93-4.34 8.48-4.34 18.93-4.34z"/><path class="cls-22" d="M195.17 321.94c8.71 0 15.78 1.36 15.78 3s-7.07 3-15.78 3-15.78-1.36-15.78-3 7.07-3 15.78-3z"/><path class="cls-23" d="M195.17 340.84c5.32 0 9.64 1.73 9.64 3.85s-4.32 3.85-9.64 3.85-9.64-1.73-9.64-3.85 4.32-3.85 9.64-3.85z"/><path class="cls-11" d="M188.3 364.07c5.76-.68 8.07-3.07 10.62-6.84a12.49 12.49 0 0 1-2 8.06h.19c1.87-3.25 2.31-5.77 2-8.31.54-.81 1.1-1.68 1.7-2.61 1.35 2.14 2 4.59 1.68 8.28l.18-.07c.32-3.75-.36-6.22-1.74-8.38l-.12-.17c-.66 1-1.27 2-1.85 2.84-2.58 3.86-4.86 6.3-10.69 7l.11.16z"/><path class="cls-23" d="M187.36 362.14a1.67 1.67 0 1 1-1.27 2 1.67 1.67 0 0 1 1.27-2zm3.7-.6a1.67 1.67 0 1 1-1.27 2 1.67 1.67 0 0 1 1.27-2zm3.5-1.59a1.67 1.67 0 1 1-1.27 2 1.67 1.67 0 0 1 1.27-2zm3.28 1.27a1.67 1.67 0 1 1-1.27 2 1.67 1.67 0 0 1 1.27-2zm-1.36 3.48a1.67 1.67 0 1 1-1.27 2 1.67 1.67 0 0 1 1.27-2zm5.69-7.12a1.67 1.67 0 1 1-1.27 2 1.67 1.67 0 0 1 1.27-2zm.1 3.66a1.67 1.67 0 1 1-1.27 2 1.67 1.67 0 0 1 1.27-2z"/><path class="cls-11" d="M244.37 362.12a1.67 1.67 0 1 1-1.27 2 1.67 1.67 0 0 1 1.27-2z"/><path class="cls-11" d="M244.93 362.09a1.67 1.67 0 1 1-1 3.14 1.67 1.67 0 0 0 1-3.14zm-1.14.98a.35.35 0 1 1-.26.41.35.35 0 0 1 .26-.41z"/><path class="cls-21" d="M250.08 334.68l-3.2 38.51c-.47 6-27.24 5.35-27.59 0l-2.88-38.51h33.67z"/><path class="cls-11" d="M242.92 334.69q.15 2.14.15 4.35c0 18.83-8.48 34.1-18.94 34.1a11.23 11.23 0 0 1-4.93-1.14l-2.78-37.27z"/><path class="cls-21" d="M236.14 334.69c.12 1.42.19 2.87.19 4.35 0 15.48-7 28-15.57 28a8.86 8.86 0 0 1-1.95-.22l-2.4-32.15z"/><path class="cls-22" d="M252.11 328.77l.07.27v4.71c0 4.09-17.65 4.36-18.93 4.36-10.46 0-18.93-1.94-18.93-4.34v-4.83l37.8-.17z"/><path class="cls-11" d="M237.66 332v2.19c0 1.4-.39 2.28-3 2.82a18.66 18.66 0 0 1-8-.32c-3.1-.87-3.69-2.37-3.69-3.81V330c3.57 0 14.35-4.23 14.7 2z"/><path class="cls-22" d="M237.66 332v2.19c0 1.4-.39 2.28-3 2.82a18.66 18.66 0 0 1-8-.32c-3.1-.87-3.69-2.37-3.69-3.81V330c1.51 0 4.32-.76 7.08-1.16h4.94a3.2 3.2 0 0 1 2.68 3.19z"/><path class="cls-22" d="M233.25 324.66c10.46 0 18.93 1.94 18.93 4.34s-8.48 4.34-18.93 4.34-18.93-1.94-18.93-4.34 8.48-4.34 18.93-4.34z"/><path class="cls-22" d="M233.25 325.08c8.71 0 15.78 1.36 15.78 3s-7.07 3-15.78 3-15.78-1.36-15.78-3 7.07-3 15.78-3z"/><path class="cls-23" d="M233.25 344c5.32 0 9.64 1.73 9.64 3.85s-4.32 3.85-9.64 3.85-9.64-1.73-9.64-3.85 4.32-3.85 9.64-3.85z"/><path class="cls-11" d="M226.37 367.22c5.76-.68 8.07-3.07 10.62-6.84a12.49 12.49 0 0 1-2 8.06h.19c1.87-3.25 2.31-5.77 2-8.31.54-.81 1.1-1.68 1.7-2.61 1.35 2.14 2 4.59 1.68 8.28l.18-.07c.32-3.75-.36-6.22-1.74-8.38l-.12-.17c-.66 1-1.27 2-1.85 2.84-2.58 3.86-4.86 6.3-10.69 7l.11.16z"/><path class="cls-23" d="M225.43 365.28a1.67 1.67 0 1 1-1.27 2 1.67 1.67 0 0 1 1.27-2zm3.71-.59a1.67 1.67 0 1 1-1.27 2 1.67 1.67 0 0 1 1.27-2zm3.5-1.6a1.67 1.67 0 1 1-1.27 2 1.67 1.67 0 0 1 1.27-2zm3.27 1.27a1.67 1.67 0 1 1-1.27 2 1.67 1.67 0 0 1 1.27-2zm-1.35 3.49a1.67 1.67 0 1 1-1.27 2 1.67 1.67 0 0 1 1.27-2zm5.68-7.13a1.67 1.67 0 1 1-1.27 2 1.67 1.67 0 0 1 1.27-2zm.1 3.67a1.67 1.67 0 1 1-1.27 2 1.67 1.67 0 0 1 1.27-2z"/><path class="cls-2" d="M522.69 509.14L14.08 448.18v15.96l508.61 65.24v-20.24zM.38 446.72l13.7 1.46V47.71L.38 48.93v397.79z"/></g></g></svg>