<svg xmlns="http://www.w3.org/2000/svg" viewBox="0 0 567.59 369.54"><defs><style>.cls-1{fill:#5eb7e8}.cls-1,.cls-12,.cls-6{stroke:#1a2d78}.cls-1,.cls-10,.cls-11,.cls-12,.cls-13,.cls-14,.cls-15,.cls-16,.cls-17,.cls-18,.cls-19,.cls-2,.cls-20,.cls-3,.cls-4,.cls-5,.cls-6,.cls-7,.cls-8,.cls-9{stroke-linecap:round;stroke-linejoin:round}.cls-1,.cls-10,.cls-11,.cls-12,.cls-13,.cls-14,.cls-15,.cls-16,.cls-17,.cls-18,.cls-19,.cls-2,.cls-20,.cls-21,.cls-22,.cls-23,.cls-3,.cls-4,.cls-5,.cls-6,.cls-7,.cls-8,.cls-9{stroke-width:.75px}.cls-2{fill:#fff}.cls-10,.cls-11,.cls-13,.cls-14,.cls-15,.cls-16,.cls-17,.cls-18,.cls-19,.cls-2,.cls-20,.cls-3,.cls-4,.cls-5,.cls-7,.cls-8,.cls-9{stroke:#182987}.cls-3{fill:#4f8d72}.cls-4{fill:#ffe770}.cls-5{fill:#f6ae68}.cls-6{fill:#c7e8fa}.cls-7{fill:#e8a8b4}.cls-15,.cls-8{fill:#d9d9d9}.cls-9{fill:#eb6159}.cls-10{fill:#a6a6a6}.cls-11{fill:#666}.cls-12{fill:#ffe100}.cls-13{fill:#d0a44a}.cls-14{fill:#00a63c}.cls-15{opacity:.1}.cls-16{fill:#94bd5a}.cls-17{fill:#5cb531}.cls-18{fill:#f1be4d}.cls-19{fill:#f198a0}.cls-20{fill:gray}.cls-21{fill:#ce3129}.cls-21,.cls-22,.cls-23{stroke:#182991;stroke-miterlimit:10}.cls-22{fill:#727171}.cls-23{fill:#e84134}</style></defs><title>market</title><g id="圖層_2" data-name="圖層 2"><g id="family"><path class="cls-1" d="M407.66 139.62h-33.33l-.21-77.11h33.33l.21 77.11z"/><path class="cls-1" d="M407.66 139.62h-27.33l-.21-77.11h27.33l.21 77.11zm-33.54-77.68l5.96-9.42h21.25l6.12 9.42h-33.33z"/><path class="cls-1" d="M380.12 61.94l3.63-9.42h17.58l6.12 9.42h-27.33z"/><path class="cls-2" d="M380.12 44.55h21.21v7.97h-21.21z"/><path class="cls-2" d="M383.75 44.55h17.59v7.97h-17.59zm0 36.04h20.36v29.12h-20.36zm-9.63-18.33h33.33v2.34h-33.33z"/><path class="cls-3" transform="rotate(-.3 421.913 64.13)" d="M416.53 57.43h7.21v14.09h-7.21z"/><path class="cls-4" transform="rotate(-.3 421.938 54.58)" d="M416.27 51.17h7.74v7.16h-7.74z"/><path class="cls-5" transform="rotate(-.3 421.938 54.58)" d="M416.26 53.27H424v.44h-7.74z"/><path class="cls-5" transform="translate(-.29 2.21)" d="M416.28 55.5h7.74v.44h-7.74z"/><path class="cls-3" d="M426.37 139.26l-12.3.06a3.19 3.19 0 0 1-3.2-3.17l-.34-63.77c0-5.79 18.64-5.71 18.67-.1l.34 63.77a3.19 3.19 0 0 1-3.17 3.21z"/><path class="cls-4" d="M425.27 80.59c-.53-3.4-2.61-5.94-5.08-5.92s-4.52 2.57-5 6h-.12l.25 47 10.34-.05-.25-47z"/><path class="cls-6" d="M464.61 109.62l-6.07-17.87V89h-9v2.79l-6 16.91a5.62 5.62 0 0 0-.59 2.47v24a4.62 4.62 0 0 0 4.61 4.61h12.64a4.62 4.62 0 0 0 4.61-4.61v-24a5.6 5.6 0 0 0-.23-1.5z"/><path class="cls-7" d="M463.12 109.74l-2.91-9.09c-4.09-.2-8.18.16-12.27 0l-3 8.58v.07a4.16 4.16 0 0 0-.44 1.83v24a3.15 3.15 0 0 0 3.15 3.15h12.64a3.15 3.15 0 0 0 3.15-3.15v-24a4.1 4.1 0 0 0-.17-1.11z"/><path class="cls-8" d="M459.43 89.82h-10.91a.37.37 0 0 0 0 .75h10.91a.37.37 0 0 0 0-.75z"/><path class="cls-9" d="M457.67 85.85h-7.4a1.4 1.4 0 0 0-1.4 1.4v2.57h10.2v-2.57a1.4 1.4 0 0 0-1.4-1.4z"/><path class="cls-6" d="M443 109.62l-6.07-17.87V89h-9v2.79l-6 16.91a5.62 5.62 0 0 0-.59 2.47v24a4.62 4.62 0 0 0 4.66 4.53h12.6a4.62 4.62 0 0 0 4.61-4.61v-24a5.6 5.6 0 0 0-.23-1.5z"/><path class="cls-7" d="M441.5 109.74l-2.91-9.09c-4.09-.2-8.18.16-12.27 0l-3 8.58v.07a4.16 4.16 0 0 0-.44 1.83v24a3.15 3.15 0 0 0 3.15 3.15h12.57a3.15 3.15 0 0 0 3.15-3.15v-24a4.11 4.11 0 0 0-.17-1.11z"/><path class="cls-8" d="M437.81 89.82h-10.9a.37.37 0 0 0 0 .75h10.91a.37.37 0 0 0 0-.75z"/><path class="cls-9" d="M436.06 85.85h-7.4a1.4 1.4 0 0 0-1.4 1.4v2.57h10.2v-2.57a1.4 1.4 0 0 0-1.4-1.4z"/><path class="cls-8" transform="rotate(180 249.7 255.335)" d="M38.5 155.99h422.4v198.69H38.5z"/><path class="cls-10" transform="rotate(180 252.09 242.365)" d="M26.36 145.18h451.47v194.37H26.36z"/><path class="cls-8" transform="rotate(180 78.615 242.365)" d="M26.01 145.18h105.21v194.37H26.01z"/><rect class="cls-8" x="13.04" y="139.65" width="478.64" height="11.06" rx="5.53" ry="5.53" transform="rotate(180 252.365 145.185)"/><ellipse class="cls-11" cx="331.65" cy="349.91" rx="18.39" ry="18.42"/><ellipse class="cls-8" cx="331.65" cy="349.91" rx="8.45" ry="8.46"/><path class="cls-2" d="M327 322.76V349a4.63 4.63 0 1 0 9.27 0v-26.24z"/><ellipse class="cls-11" cx="485.67" cy="349.91" rx="18.39" ry="18.42"/><ellipse class="cls-8" cx="485.67" cy="349.91" rx="8.45" ry="8.46"/><path class="cls-2" d="M481 322.76V349a4.63 4.63 0 1 0 9.27 0v-26.24z"/><rect class="cls-4" x="480.08" y="169.44" width="33.92" height="29.88" rx="12.99" ry="12.99" transform="rotate(-73.81 497.066 184.374)"/><path class="cls-4" d="M496.07 194.72l-3.75-1.09a13 13 0 0 0-16.09 8.85l-12.78 44a6.47 6.47 0 0 0 4.4 8l16.29 4.73a6.48 6.48 0 0 0 8-4.4l12.78-44a13 13 0 0 0-8.85-16.09z"/><path class="cls-4" transform="rotate(-73.81 493.65 197.367)" d="M490.24 185.29h6.77v24.18h-6.77z"/><path class="cls-8" d="M472.85 257.53l3.83-3.43-12.68-3.36c.63.92 1.52 8.92 8.85 6.79zm5.22 1.47c5 5.72 10.09-.56 11.14-1l-12.54-4z"/><path class="cls-8" d="M471.36 248.85l1.49 8.69s2.37-.64 5.23 1.52l3.58-1.36-4-7z"/><path class="cls-4" transform="rotate(-73.81 501.807 168.035)" d="M499.97 163.44h3.63v9.2h-3.63z"/><rect class="cls-8" x="501.67" y="159.32" width="1.7" height="12.34" rx=".74" ry=".74" transform="rotate(-73.81 502.55 165.48)"/><path class="cls-8" d="M506.92 160.18l-5.26-1.53a2.82 2.82 0 0 0-3.5 1.93l-.75 2.58 10.68 3.1.75-2.58a2.82 2.82 0 0 0-1.92-3.5z"/><path class="cls-8" transform="rotate(-73.81 486.372 221.203)" d="M473.65 206.27h25.4v29.88h-25.4z"/><path class="cls-8" transform="rotate(-73.81 486.372 221.203)" d="M476.45 206.27h19.81v29.88h-19.81z"/><rect class="cls-12" x="401.93" y="147.29" width="29.88" height="33.92" rx="12.99" ry="12.99" transform="matrix(1 -.08 .08 1 -12.13 34.96)"/><path class="cls-12" d="M419.66 174.26l-3.89.32a13 13 0 0 0-11.87 14l3.79 45.7a6.48 6.48 0 0 0 7 5.9l16.91-1.4a6.48 6.48 0 0 0 5.9-7l-3.79-45.7a13 13 0 0 0-14.05-11.82z"/><path class="cls-12" transform="rotate(-4.74 417.668 177.268)" d="M405.96 174.03h24.18v6.77h-24.18z"/><path class="cls-8" d="M420.39 241.22l2.35-4.57-13.07 1.4c.95.62 4.64 7.77 10.72 3.17zm5.43-.45c6.76 3.54 9.22-4.13 10.05-4.89l-13.13.77z"/><path class="cls-8" d="M415.9 233.64l4.49 7.58s2-1.45 5.42-.45l2.86-2.55-6.22-5.13z"/><path class="cls-12" transform="rotate(-4.74 415.158 147.274)" d="M410.86 145.49h9.2v3.63h-9.2z"/><path class="cls-2" d="M420.58 143.35l-10.82.9a.74.74 0 0 0-.67.8v.22a.74.74 0 0 0 .8.67l10.82-.9a.74.74 0 0 0 .67-.79v-.22a.74.74 0 0 0-.8-.68zm-3.13-5.23l-5.46.45a2.82 2.82 0 0 0-2.58 3l.22 2.68 11.09-.92-.22-2.68a2.82 2.82 0 0 0-3.05-2.53z"/><path class="cls-8" transform="rotate(-4.74 419.774 202.406)" d="M405.09 189.76h29.88v25.4h-29.88z"/><path class="cls-8" transform="rotate(-4.74 419.774 202.406)" d="M405.09 192.56h29.88v19.81h-29.88z"/><path class="cls-2" d="M472.8 153.79l.63-2-5.43-1.72-1.55-.49-5.48-1.75-.63 2-15.92 11a8.56 8.56 0 0 0-3.95 5.09l-.72 2.26a3 3 0 0 0 .26 2.08l-.76 2.39s-1 .31-1.25 1l-2.49 7.82a2 2 0 0 0 .43 1.56l-.76 2.39a4.91 4.91 0 0 0-1.49 1.76l-11.88 37.23a2 2 0 0 0 .36 2.07l-.82 2.58a1.22 1.22 0 0 0-1.28.83l-2.27 7.1a8 8 0 0 0 5.17 10l24 7.67a8 8 0 0 0 10-5.18l2.27-7.1a1.22 1.22 0 0 0-.57-1.42l.82-2.58a2 2 0 0 0 1.49-1.48l11.88-37.23a4.91 4.91 0 0 0-.2-2.3l.76-2.39s1-.31 1.25-1l2.49-7.82a2 2 0 0 0-.43-1.56l.76-2.39a3 3 0 0 0 1.42-1.54l.72-2.26a8.56 8.56 0 0 0-.27-6.43z"/><path class="cls-6" d="M471.3 155.79l-10.93-3.49-14.76 10.7a7.21 7.21 0 0 0-3.14 4.22l-.71 2.23a1.64 1.64 0 0 0 .15 1 1.37 1.37 0 0 1 .09 1l-.75 2.35a1.36 1.36 0 0 1-.88.89 3.08 3.08 0 0 1-.33.13l-2.44 7.59a1.14 1.14 0 0 0 .18.4 1.36 1.36 0 0 1 .2 1.23l-.74 2.33a1.36 1.36 0 0 1-.84.87.78.78 0 0 0-.49.5l-11.71 36.79a2.1 2.1 0 0 0 .16 1.29 1.37 1.37 0 0 1 .08 1l-.81 2.54a1.34 1.34 0 0 1-1.28.95l-2.19 6.87a6.42 6.42 0 0 0 4 8.11l22.71 7.25a6.42 6.42 0 0 0 8-4.27l2.19-6.87a1.34 1.34 0 0 1-.49-1.51l.81-2.54a1.36 1.36 0 0 1 .66-.79 2.15 2.15 0 0 0 .88-1l11.71-36.72a.78.78 0 0 0-.11-.69 1.36 1.36 0 0 1-.18-1.19l.74-2.33a1.39 1.39 0 0 1 .87-.88 3.18 3.18 0 0 1 .34-.13l2.44-7.59a1.17 1.17 0 0 0-.18-.4 1.36 1.36 0 0 1-.2-1.23l.75-2.35a1.37 1.37 0 0 1 .68-.8 1.69 1.69 0 0 0 .7-.72l.71-2.23a7.2 7.2 0 0 0-.13-5.28z"/><path class="cls-1" d="M474.81 146.06l-4.36-1.39-2.95-.94-4.36-1.39a.88.88 0 0 0-1.1.57l-1.38 4.31 5.2 1.66 2.95.94 5.2 1.66 1.38-4.31a.88.88 0 0 0-.58-1.11z"/><path class="cls-1" d="M474.77 151l-6.32-2-1.83-.58-6.32-2a.59.59 0 1 0-.36 1.12l6.32 2 1.83.58 6.32 2a.59.59 0 0 0 .36-1.12z"/><path class="cls-6" transform="rotate(-72.31 458.346 177.42)" d="M457.15 157.71h2.45v39.42h-2.45z"/><path class="cls-6" transform="rotate(-72.31 454.26 190.22)" d="M453.07 170.51h2.45v39.42h-2.45z"/><path class="cls-8" transform="rotate(-72.31 440.331 233.878)" d="M439.14 214.17h2.45v39.42h-2.45z"/><path class="cls-13" d="M335.19 118.5c-3-8.32-8-14.18-16.37-11.19s-7.06 22.56-4.06 30.88l35.09 97.44c3 8.32 13.59 21.67 21.91 18.68s8.47-10.74 5.47-19.05z"/><path class="cls-8" d="M343.17 217l4.27 11.87s17 12.93 13.32 3.67S343.17 217 343.17 217zm-9.23-25.57l4.27 11.87s17 12.93 13.32 3.67-17.59-15.54-17.59-15.54zm-9.22-25.61l4.28 11.87s17 12.93 13.32 3.67-17.6-15.54-17.6-15.54z"/><path class="cls-4" d="M315.5 140.22l4.27 11.87s17 12.93 13.32 3.67-17.59-15.54-17.59-15.54z"/><path class="cls-14" d="M374.25 138.29c.6-1.75-3.28-8.64-5-9.89s-3.82-4.09-10.74-3.31-6.57 4-9.63 5.93-7.12-.31-9.54 5.37-4.82 5-1.21 13.29a17.42 17.42 0 0 1 1 2.56c.24.85 3.39 1.08 3.56 1.15 1.07.51-3.09.55-3.05.78.4 2.56-1.16 1.73 1.61 5.47 6.28 8.47 26.62 4.69 26.62 4.69l3.15.12s-6.76-6.81-1.37-9.14c18.35-7.88 4-15.31 4.6-17.02z"/><path class="cls-14" d="M400.53 153.19c0-.47 3.46-2.49 3.49-3 .14-1.85.26-3.77-2.74-6.84-4.48-4.6-12.57-2.8-14.64-2.94s-7.66 3.6-8.43 5.14-16.24-1.87-8.42 14.23c2.31 4.75-7.28 5.4-7.28 5.4l2.36 1.77s14 16.89 24.35 14.83c6.25-1.24.82-1.45 9.12-4.93s6.9-9.28 9.05-14.56-2.31-6.16-3.22-9.26c-.17-.45-3.63.63-3.64.16z"/><path class="cls-8" d="M404.36 158.41l-.86 1c.05.06-.08.43-.41 1.14-.41 1.8-1.65 3.38-2.63 4.87-5.58 8.49-16.33 11.46-26.62 10.31 4.68 3.74 10.43 7.07 15.38 6.09 6.25-1.24.82-1.45 9.12-4.93s6.9-9.28 9.05-14.56c1.36-3.35.07-4.93-1.29-6.43a28.39 28.39 0 0 1-1.74 2.51z"/><path class="cls-8" d="M402.71 161.73c-.58-.27-1.23-.6-2-.9s-1.52-.64-2.39-.93-1.79-.56-2.74-.85-2-.47-3-.66-2.1-.36-3.17-.4l-1.61-.12h-3.19c-.53 0-1 .13-1.54.19a13.05 13.05 0 0 0-1.47.27c-.47.14-.93.27-1.38.42l-1.29.42-1.15.55c-.73.36-1.4.68-2 1s-1 .72-1.38 1c-.75.57-1.14.92-1.14.92l.12.19s.53-.13 1.41-.4c.44-.14 1-.31 1.55-.52s1.3-.32 2-.54l1.14-.32 1.24-.24c.43-.08.86-.17 1.3-.27s.9-.14 1.37-.21.93-.16 1.41-.26 1-.11 1.46-.18 1-.13 1.5-.15h1.52c1 0 2 .08 3 .13s2 .24 2.94.4 1.86.36 2.72.59 1.67.43 2.41.67 1.41.48 2 .68 1.11.42 1.52.61c.84.35 1.3.59 1.3.59l.11-.19s-.44-.3-1.24-.75c-.26-.2-.76-.47-1.33-.74z"/><path class="cls-8" d="M392.21 165.28c-.14-.28-.31-.55-.47-.82a4.14 4.14 0 0 0-.54-.79 9.72 9.72 0 0 0-1.27-1.41l-.69-.63a5.85 5.85 0 0 0-.74-.52c-.25-.15-.5-.31-.75-.45l-.37-.21-.38-.15c-.5-.2-1-.37-1.42-.51a6.9 6.9 0 0 0-1.23-.29l-1-.15c-.54-.07-.84-.08-.84-.08v.14s.26.18.72.45l.83.46c.32.17.69.33 1.07.58s.79.47 1.23.7.84.56 1.31.82c.22.14.48.26.69.42l.67.48a7.38 7.38 0 0 1 1.26 1.11 3.39 3.39 0 0 1 .54.65c.16.23.33.45.49.68a8.51 8.51 0 0 1 .66 1.49 8.38 8.38 0 0 1 .36 1.5 9 9 0 0 1 .06 1.4 8.77 8.77 0 0 1-.11 1.2c-.06.35-.12.66-.19.91a5.67 5.67 0 0 1-.24.78l.14.06a5.85 5.85 0 0 0 .36-.76 8.71 8.71 0 0 0 .32-.91 9.22 9.22 0 0 0 .26-1.23 9.62 9.62 0 0 0 .11-1.5 8.12 8.12 0 0 0-.22-1.69 9.43 9.43 0 0 0-.62-1.73z"/><path class="cls-15" d="M391.22 139.89a17.51 17.51 0 0 1-8.47 1.72h-.6l.2-.05h-.13c-.72.27-1.47.64-1.82.78-1 .4-1.91.9-2.88 1.28l-.26.1-.33.19c-1.93 1.09-3.75 2.55-5.68 3.6-.09.08-.31.25-.76.56-.3.38-.5.63-.63.78-.34.69-.68 1.37-1 2.07l-.2.43c0 .21-.08.49-.15.87-.44 2.25-.9 4.5-1.31 6.75-.57 3.15-1.09 6.28-1.79 9.36a22.1 22.1 0 0 1 3.59 3.17 18.67 18.67 0 0 0 12.94-.09 16.59 16.59 0 0 0 2.13-1q.45-.26.89-.55.44-.29.86-.61.39-.3.77-.62a19.12 19.12 0 0 0 3.5-4c3.61-5.42 3.9-12.27 2.58-18.89a40.91 40.91 0 0 0-1.45-5.85z"/><path class="cls-16" d="M386 132.09c-5.43-3.68-13.28-2.75-19.65-.42-5 1.82-8.8 4.12-11.54 8.23-6.25 9.38-2 21 7.66 27.54s21.06 5.54 27.31-3.84c3.61-5.42 3.9-12.27 2.58-18.89-.94-4.84-2.26-9.86-6.36-12.62z"/><path class="cls-16" d="M386.89 132.75a10.5 10.5 0 0 0-.86-.66c-5.43-3.68-13.28-2.75-19.65-.42-5 1.82-8.8 4.12-11.54 8.23a17 17 0 0 0-2.57 13.1 37.64 37.64 0 0 0 14.85 1.57c5.35-.62 11-2.25 14.76-6.44a20.46 20.46 0 0 0 5-14.86 3.87 3.87 0 0 1 .01-.52z"/><path class="cls-14" d="M376.22 126.85c-5.15 1.64-2.51 7.16-1.91 9 0 0-5.54-.49-2.3 6.84s3.65 8.07 2.23 12.23c0 0-2.2-.09-3.21 4.82a41.57 41.57 0 0 1-4 10.2l.58.24c15.22-8.07 12.31-23.17 12.06-29.4a12.3 12.3 0 0 1 4.14-9.69s-2.44-5.88-7.59-4.24z"/><path class="cls-14" d="M383.79 131s-9.11.82-6.09 15.92-10.11 23.17-10.11 23.17c11.78-4.14 15.18-19.27 15.76-23.53a14.35 14.35 0 0 0-1.45-8c.35-2.56 2.93-.34 5.21-5.79s-3.32-1.77-3.32-1.77z"/><path class="cls-8" d="M353.6 157.11c0-.27.08-.54.13-.81l-.31.4zm36.82-4.52a9.82 9.82 0 0 0-.2-1.21 8.06 8.06 0 0 0-.28-1.11 16.31 16.31 0 0 0-.68-1.87c-.26-.53-.49-1-.69-1.35l-.7-1.12.62 1.16c.18.38.37.85.6 1.39a16.23 16.23 0 0 1 .55 1.88 8 8 0 0 1 .2 1.1 9.52 9.52 0 0 1 .12 1.19 10.23 10.23 0 0 1 0 1.26v.65l-.07.66a17.43 17.43 0 0 1-.52 2.71 21.36 21.36 0 0 1-1 2.69c-.07.18-.16.35-.25.53a12.28 12.28 0 0 0 0-1.78l-.12-.91-.19-.83-.25-.74c-.09-.23-.2-.44-.29-.64a9.9 9.9 0 0 0-.56-1c-.37-.5-.59-.77-.59-.77s.2.3.52.82a9.74 9.74 0 0 1 .47 1c.07.2.16.41.23.64l.18.73.12.81v.88a11.34 11.34 0 0 1-.18 1.88 13.19 13.19 0 0 1-.51 2c0 .1-.08.2-.11.3-.4.68-.81 1.34-1.25 2s-1 1.43-1.54 2.07-1 1.23-1.5 1.76-.69.75-1 1.08a16.58 16.58 0 0 0 2.13-1 16.94 16.94 0 0 0 1.79-1.19q.39-.3.77-.62c.28-.59.54-1.21.78-1.83s.75-1.33 1.09-2a26.34 26.34 0 0 0 1.16-2.74 22.33 22.33 0 0 0 .82-2.86 18.15 18.15 0 0 0 .36-2.85v-1.37a10.6 10.6 0 0 0-.03-1.4z"/><path class="cls-5" d="M399.08 151.39l-3.89 3.03-3.88-3.03-3.89 3.03-3.85-3v-.03l-.02.02-.02-.02-3.87 3.01-3.86-3.01-.03.02-.02-.02-3.87 3.01-3.86-3.01-.02.02-.02-.02-3.87 3.01-3.87-3.01-.02.02-.02-.02-3.87 3.01-3.87-3.01-.02.02-.02-.02-3.87 3.01-3.86-3.01-.03.02-.02-.02-3.86 3.01-3.87-3.01-.02.02-.02-.02v.03l-3.85 3-3.89-3.03-3.89 3.03-3.89-3.03-3.89 3.03-3.88-3.03v126.49h93.28V151.39l-3.89 3.03-3.89-3.03zm48.29 58.8h48.46v67.04h-48.46z"/><path class="cls-2" d="M454.85 238.1h33.5v39.12h-33.5z"/><path class="cls-8" d="M482.56 216.93h-21.92a5.79 5.79 0 0 0 0 11.57h21.92a5.79 5.79 0 0 0 0-11.57z"/><path class="cls-17" d="M460.68 246.64s-1 10.68 10.93 9.44c0 .01.25-9.44-10.93-9.44z"/><path class="cls-17" d="M471.59 256.09c11.93 1.24 10.93-9.44 10.93-9.44-11.18-.01-10.93 9.44-10.93 9.44z"/><path class="cls-9" d="M461.25 263.22h20.71v5.48h-20.71z"/><path class="cls-6" d="M459.41 238.13l-8.15-24v-3.75h-12.1v3.75l-8 22.71a7.54 7.54 0 0 0-.79 3.31v32.17a6.21 6.21 0 0 0 6.19 6.19h17a6.21 6.21 0 0 0 6.19-6.19v-32.17a7.52 7.52 0 0 0-.31-2z"/><path class="cls-18" d="M457.4 238.29l-3.91-12.21c-5.49-.26-11 .21-16.48 0l-4.07 11.52v.1a5.59 5.59 0 0 0-.59 2.45v32.17a4.24 4.24 0 0 0 4.23 4.23h17a4.24 4.24 0 0 0 4.23-4.23v-32.17a5.51 5.51 0 0 0-.23-1.49z"/><path class="cls-8" d="M452.44 211.54H437.8a.5.5 0 0 0 0 1h14.65a.5.5 0 0 0 0-1z"/><path class="cls-4" d="M450.09 206.21h-9.93a1.88 1.88 0 0 0-1.88 1.88v3.45H452v-3.45a1.88 1.88 0 0 0-1.91-1.88z"/><path class="cls-6" d="M430.39 238.13l-8.15-24v-3.75h-12.1v3.75l-8 22.71a7.54 7.54 0 0 0-.79 3.31v32.17a6.21 6.21 0 0 0 6.18 6.19h17a6.21 6.21 0 0 0 6.19-6.19v-32.17a7.51 7.51 0 0 0-.31-2z"/><path class="cls-18" d="M428.38 238.29l-3.91-12.21c-5.49-.26-11 .21-16.48 0l-4.07 11.52v.1a5.59 5.59 0 0 0-.59 2.45v32.17a4.24 4.24 0 0 0 4.23 4.23h17a4.24 4.24 0 0 0 4.23-4.23v-32.17a5.52 5.52 0 0 0-.23-1.49z"/><path class="cls-8" d="M423.42 211.54h-14.64a.5.5 0 0 0 0 1h14.65a.5.5 0 0 0 0-1z"/><path class="cls-4" d="M421.07 206.21h-9.93a1.88 1.88 0 0 0-1.88 1.88v3.45h13.69v-3.45a1.88 1.88 0 0 0-1.88-1.88z"/><rect class="cls-19" x="305.21" y="218.42" width="82.91" height="60.22" rx="2.07" ry="2.07"/><path class="cls-19" d="M386.17 218.42h-79a2 2 0 0 0-1.95 1.95v21.74h82.91v-21.74a2 2 0 0 0-1.96-1.95zm-80.96 23.69h82.91v2.1h-82.91zm-4.77-22.37h4.77v56.93h-4.77z"/><path class="cls-19" d="M388.12 219.74h4.77v56.93h-4.77z"/><path class="cls-2" d="M560.65 112l-36.95 14a3.46 3.46 0 0 0-2.18 2.69l-4.43 27.71-230.89 11a3.46 3.46 0 0 0-3.27 3.87L295.3 273.7a12.14 12.14 0 0 0 11.9 10.83h193.44a3.46 3.46 0 0 0 3.41-2.91l19.41-121.29v-.05l4.54-28.49 35.08-13.36a3.46 3.46 0 0 0-2.46-6.47zm-63 165.64H307.21a5.23 5.23 0 0 1-5-4.74l-11.93-98.7L516 163.41z"/><path class="cls-2" d="M515.18 187.72l-225.75 7.08a2.07 2.07 0 0 0 .06 4.15h.07l225.75-7.08a2.07 2.07 0 0 0 2-2.14 2 2 0 0 0-2.13-2.01zm-5.27 32.71l-216.81 3.86a2.08 2.08 0 0 0 0 4.15l216.77-3.86a2.08 2.08 0 0 0 0-4.15zm-4.62 29.49H296.5a2.08 2.08 0 0 0 0 4.15h208.79a2.08 2.08 0 0 0 0-4.15z"/><path class="cls-2" d="M482.88 159.69a2.07 2.07 0 0 0-2.27 1.86l-11.69 119.31a2.08 2.08 0 0 0 1.86 2.27h.22a2.07 2.07 0 0 0 2.06-1.87L484.74 162a2.08 2.08 0 0 0-1.86-2.31zm-43.16 2.13a2.07 2.07 0 0 0-2.17 2L432.14 281a2.07 2.07 0 0 0 2 2.17h.1a2.07 2.07 0 0 0 2.07-2L441.69 164a2.07 2.07 0 0 0-1.97-2.18zm-36.87 1.94a2.07 2.07 0 0 0-2.07 2.08v115.22a2.07 2.07 0 1 0 4.15 0V165.83a2.07 2.07 0 0 0-2.08-2.07zm-37.55 2.02a2.08 2.08 0 0 0-2 2.18l6.08 113.21a2.08 2.08 0 0 0 2.07 2h.11a2.08 2.08 0 0 0 2-2.18l-6.08-113.21a2.07 2.07 0 0 0-2.18-2zm-42.47 1.5a2.08 2.08 0 0 0-1.86 2.27l11 111.72a2.08 2.08 0 0 0 2.06 1.87h.21a2.08 2.08 0 0 0 1.86-2.27l-11-111.72a2.1 2.1 0 0 0-2.27-1.87zm195.33 146.13l-13.52-33.81a3.46 3.46 0 1 0-6.26 2.92l13.4 33.56a3.56 3.56 0 0 1-3.45 4.42h-199a3.46 3.46 0 0 0 0 6.92h199a10.48 10.48 0 0 0 10-13.56 3.35 3.35 0 0 0-.17-.45z"/><path class="cls-9" d="M561.82 111.52a5.37 5.37 0 0 0-3.52 1.31l-18.66 6.93 2.1 6.74 16.15-5.91a5.39 5.39 0 1 0 3.93-9.08z"/><path class="cls-20" d="M179.17 110.81h42.63a2.14 2.14 0 0 0 2-2.87 2.14 2.14 0 0 0-2-1.42h-42.63a2.14 2.14 0 0 0-2 2.87 2.14 2.14 0 0 0 2 1.42z"/><rect class="cls-20" x="136.96" y=".38" width="115.18" height="88.34" rx="8.19" ry="8.19"/><rect class="cls-10" x="144.8" y=".38" width="115.18" height="88.34" rx="11.41" ry="11.41" transform="rotate(180 202.395 44.545)"/><path class="cls-20" d="M197.74 110.67h34.39L220.67 51.7h-34.39l11.46 58.97z"/><path class="cls-10" d="M203.13 110.67h34.39L226.06 51.7h-34.39l11.46 58.97z"/><path class="cls-8" d="M157.54 220.03h121.92v7.47H157.54z"/><path class="cls-2" d="M188.84 219.55v94.78h65.93v-94.78h-10.98l-.39 29.51-43.17.92-.28-30.43h-11.11z"/><path class="cls-10" d="M121.13 110.81h153.48v28.84H121.13z"/><path class="cls-9" d="M386.78 84.53h14.12v2.02h-14.12zm0 4.28h14.12v2.02h-14.12zm0 4.3h14.12v2.02h-14.12zm34.58 20.5h43.46v16.87h-43.46z"/><path class="cls-9" d="M421.36 113.61h21.73v16.87h-21.73z"/><path class="cls-2" d="M423.76 116.41h14.66v1.97h-14.66zm0 3.66h14.66v1.97h-14.66zm0 3.66h14.66v1.97h-14.66zm30.21-7.32h10.85v1.97h-10.85zm0 3.66h10.85v1.97h-10.85zm0 3.66h10.85v1.97h-10.85z"/><path class="cls-21" d="M105.87 222.78v-8.15H.38v8.15h4.71l3.68 42.58v6.7h87.61v-7.88h-.16l4.41-41.39zm-65.31 0h9.29v41.39h-7.6zm-4.16 41.4h-7.76l-3.11-41.39h9.17zm19.28-41.39h9.25l-1.67 41.39h-7.57zm15.1 0h8.83l-2.49 41.39h-8zm-51.12 0l3.11 41.39h-8.24L11 222.78zm70.68 41.39H83l2.48-41.39h9.3z"/><path class="cls-22" d="M8.77 269.4h87.61v2.65H8.77zm97.1-48.46H.38v2.52h26.48v11.24c0 4.77 4.24 8.66 9.45 8.66h32.54c5.21 0 9.45-3.89 9.45-8.66v-11.23h27.56zM73.76 234.7a4.86 4.86 0 0 1-4.91 4.78H36.31a4.86 4.86 0 0 1-4.92-4.78v-11.23h42.37z"/><path class="cls-23" d="M105.87 255.15V247H.38v8.15h4.71l3.68 42.58v6.7h87.61v-7.88h-.16l4.41-41.39zm-65.31 0h9.29v41.39h-7.6zm-4.16 41.4h-7.76l-3.11-41.39h9.17zm19.28-41.39h9.25l-1.67 41.39h-7.57zm15.1 0h8.83l-2.49 41.39h-8zm-51.12 0l3.11 41.39h-8.24L11 255.15zm70.68 41.39H83l2.48-41.39h9.3z"/><path class="cls-22" d="M8.77 301.77h87.61v2.65H8.77zm97.1-48.46H.38v2.52h26.48v11.23c0 4.77 4.24 8.66 9.45 8.66h32.54c5.21 0 9.45-3.89 9.45-8.66v-11.22h27.56zm-32.1 13.75a4.86 4.86 0 0 1-4.91 4.78H36.31a4.86 4.86 0 0 1-4.92-4.78v-11.22h42.37z"/><path class="cls-21" d="M105.87 287.52v-8.15H.38v8.15h4.71l3.68 42.58v6.7h87.61v-7.88h-.16l4.41-41.39zm-65.31 0h9.29v41.39h-7.6zm-4.16 41.4h-7.76l-3.11-41.39h9.17zm19.28-41.39h9.25l-1.67 41.39h-7.57zm15.1 0h8.83l-2.49 41.39h-8zm-51.12 0l3.11 41.39h-8.24L11 287.52zm70.68 41.39H83l2.48-41.39h9.3z"/><path class="cls-22" d="M8.77 334.15h87.61v2.65H8.77zm97.1-48.46H.38v2.52h26.48v11.23c0 4.77 4.24 8.66 9.45 8.66h32.54c5.21 0 9.45-3.89 9.45-8.66v-11.23h27.56zm-32.1 13.75a4.86 4.86 0 0 1-4.91 4.78H36.31a4.86 4.86 0 0 1-4.92-4.78v-11.23h42.37z"/><path class="cls-23" d="M105.87 319.89v-8.15H.38v8.15h4.71l3.68 42.58v6.7h87.61v-7.88h-.16l4.41-41.39zm-65.31 0h9.29v41.39h-7.6zm-4.16 41.4h-7.76l-3.11-41.39h9.17zm19.28-41.39h9.25l-1.67 41.39h-7.57zm15.1 0h8.83l-2.49 41.39h-8zm-51.12 0l3.11 41.39h-8.24L11 319.89zm70.68 41.39H83l2.48-41.39h9.3z"/><path class="cls-22" d="M8.77 366.52h87.61v2.65H8.77zm97.1-48.46H.38v2.52h26.48v11.23c0 4.77 4.24 8.66 9.45 8.66h32.54c5.21 0 9.45-3.89 9.45-8.66v-11.23h27.56zm-32.1 13.75a4.86 4.86 0 0 1-4.91 4.78H36.31a4.86 4.86 0 0 1-4.92-4.78v-11.23h42.37z"/></g></g></svg>