<svg xmlns="http://www.w3.org/2000/svg" viewBox="0 0 28.13 104"><defs><style>.cls-1{fill:#fff}.cls-2{fill:#273772}.cls-3{fill:#fff000}.cls-4{fill:#d61718}</style></defs><title>資產 3</title><g id="圖層_2" data-name="圖層 2"><g id="群組_5" data-name="群組 5"><path class="cls-1" d="M25 0A25 25 0 0 0 0 25v54a25 25 0 0 0 25 25h3.14V0z"/><path class="cls-2" d="M25 3A22 22 0 0 0 3 25v54a22 22 0 0 0 22 22h3.14V3z"/><path class="cls-3" d="M22.13 94a3 3 0 0 1 3-3 3 3 0 0 1 3 3 3 3 0 0 1-3 3 3 3 0 0 1-3-3zm-10.47-2.91a3 3 0 0 1 .21-4.24 3 3 0 0 1 4.24.2 3 3 0 0 1-.21 4.24 3 3 0 0 1-2 .78 3 3 0 0 1-2.24-.98zM7 77.4a3 3 0 0 1 3-3 3 3 0 0 1 3 3 3 3 0 0 1-3 3 3 3 0 0 1-3-3zm0-12.65a3 3 0 0 1 3-3 3 3 0 0 1 3 3 3 3 0 0 1-3 3 3 3 0 0 1-3-3zM7 52.1a3 3 0 0 1 3-3 3 3 0 0 1 3 3 3 3 0 0 1-3 3 3 3 0 0 1-3-3zm0-12.65a3 3 0 0 1 3-3 3 3 0 0 1 3 3 3 3 0 0 1-3 3 3 3 0 0 1-3-3zM7 26.8a3 3 0 0 1 3-3 3 3 0 0 1 3 3 3 3 0 0 1-3 3 3 3 0 0 1-3-3zm4.76-9.48a3 3 0 0 1-.26-4.24 3 3 0 0 1 4.24-.27 3 3 0 0 1 .26 4.25 3 3 0 0 1-2.25 1 3 3 0 0 1-1.99-.74zM21.93 10a3 3 0 0 1 3-3H25a3 3 0 0 1 3 3 3 3 0 0 1-3 3h-.06a3 3 0 0 1-3.01-3z"/><path class="cls-4" d="M25 17a8 8 0 0 0-8 8v54a8 8 0 0 0 8 8h3.14V17z"/></g></g></svg>