<svg xmlns="http://www.w3.org/2000/svg" viewBox="0 0 28.11 104"><defs><style>.cls-1{fill:#fff}.cls-2{fill:#273772}.cls-3{fill:#fff000}.cls-4{fill:#d61718}</style></defs><title>資產 1</title><g id="圖層_2" data-name="圖層 2"><g id="群組_5" data-name="群組 5"><path class="cls-1" d="M3.11 0H0v104h3.11a25 25 0 0 0 25-25V25a25 25 0 0 0-25-25z"/><path class="cls-2" d="M3.11 3H0v98h3.11a22 22 0 0 0 22-22V25a22 22 0 0 0-22-22z"/><path class="cls-3" d="M.14 94a3 3 0 0 1 3-3 3 3 0 0 1 3 3 3 3 0 0 1-3 3 3 3 0 0 1-3-3zm12.2-2.8a3 3 0 0 1-.25-4.2 3 3 0 0 1 4.23-.25 3 3 0 0 1 .26 4.23 3 3 0 0 1-2.25 1 3 3 0 0 1-1.99-.78zm2.77-13.97a3 3 0 0 1 3-3 3 3 0 0 1 3 3 3 3 0 0 1-3 3 3 3 0 0 1-3-3zm0-12.65a3 3 0 0 1 3-3 3 3 0 0 1 3 3 3 3 0 0 1-3 3 3 3 0 0 1-3-3zm0-12.65a3 3 0 0 1 3-3 3 3 0 0 1 3 3 3 3 0 0 1-3 3 3 3 0 0 1-3-3zm0-12.65a3 3 0 0 1 3-3 3 3 0 0 1 3 3 3 3 0 0 1-3 3 3 3 0 0 1-3-3zm0-12.65a3 3 0 0 1 3-3 3 3 0 0 1 3 3 3 3 0 0 1-3 3 3 3 0 0 1-3-3zM12 16.95a3 3 0 0 1 .22-4.23 3 3 0 0 1 4.24.21 3 3 0 0 1-.22 4.24 3 3 0 0 1-2 .77 3 3 0 0 1-2.24-.99zM0 10a3 3 0 0 1 3-3 3 3 0 0 1 3 3 3 3 0 0 1-3 3 3 3 0 0 1-3-3z"/><path class="cls-4" d="M3.11 17H0v70h3.11a8 8 0 0 0 8-8V25a8 8 0 0 0-8-8z"/></g></g></svg>