<?xml version="1.0" encoding="utf-8"?>
<!-- Generator: Adobe Illustrator 15.1.0, SVG Export Plug-In . SVG Version: 6.00 Build 0)  -->
<!DOCTYPE svg PUBLIC "-//W3C//DTD SVG 1.1//EN" "http://www.w3.org/Graphics/SVG/1.1/DTD/svg11.dtd">
<svg version="1.1" id="圖層_1" xmlns="http://www.w3.org/2000/svg" xmlns:xlink="http://www.w3.org/1999/xlink" x="0px" y="0px"
	 width="200px" height="70px" viewBox="0 0 200 70" enable-background="new 0 0 200 70" xml:space="preserve">
<g>
	<path fill="#0071B9" d="M35.471,26.97l-1.54,0.265l0.399-3.069l-0.399-0.601l0.399-3.474l3.947,1.601L35.471,26.97L35.471,26.97z
		 M41.757,36.196h-5.152l4.877-7.688l1.475-5.012l3.076,1.065C45.765,28.44,44.489,32.385,41.757,36.196L41.757,36.196z
		 M39.953,28.241l-1.948,1.666l-3.875,6.29h-2.532l2.532-4.483l2-1.673l2.887-8.082l3.068,1.276L39.953,28.241L39.953,28.241z
		 M33.334,12.603L23.1,6.655l-3.738-0.673v2.743l2.88,2.672l-4.018-0.336c0,0,0.136,0.199,3.483,3.742l15.232,2.545l2.678,1.741
		l-6.954,0.332l-2.875,10.485l-9.425,6.29h-6.151l2.075-4.078l-0.328-0.133l-5.558,4.211H9.064l5.693-7.956
		c0.262-2.273,0.122-1.271,0.46-5.349l-0.868-1.2l-2.272,8.814l-4.739,5.69H6.133l2.802-3.945l3.937-12.099l-0.998,0.473
		l-1.735,4.809l-1.205,0.666c0,0-2.802,6.819-4.275,10.159c-2.145-3.073-4.55-7.216-4.55-14.431c0-10.84,9.296-22.258,23.267-22.258
		c13.423,0,20.577,10.691,21.777,16.24L33.334,12.603L33.334,12.603z M30.189,36.196h-3.208l5.943-7.425l0.598,1.135L30.189,36.196
		L30.189,36.196z M23.235,45.42c-5.683,0-12.63-2.011-17.646-8.16h35.226C36.736,42.544,29.725,45.42,23.235,45.42L23.235,45.42z
		 M23.377,1.034c-13.098,0-21.656,10.765-21.656,20.793c0,5.746,1.401,8.622,2.939,11.357c1.933-5.211,5.812-15.568,5.812-15.568
		s1.809-0.943,1.809-0.798l2.599-6.62l1.675-0.867l2.074-4.41l4.545,0.731l9.218,5.144l10.366,2.878
		C40.082,6.853,32.527,1.034,23.377,1.034L23.377,1.034z"/>
	<g>
		<path fill="#0071B9" d="M191.927,36.177c0.719,0,1.297-0.112,1.555-0.36c0.209-0.204,0.31-0.703,0.31-1.508V17.599
			c0-0.849-0.091-1.402-0.262-1.69c-0.24-0.35-0.733-0.535-1.487-0.535h-0.576v-1.036l6.343-0.513v20.493
			c0,1.051,0.284,1.637,0.854,1.764c0.216,0.064,1.021,0.095,1.447,0.095v1.122h-8.184V36.177L191.927,36.177z"/>
		<path fill="#0071B9" d="M179.143,23.81c0.136-0.346,0.476-0.834,1.026-1.152c0.653-0.361,1.348-0.548,2.088-0.548
			c2.012,0,3.172,0.916,3.172,2.755v2.69c-2.967,0.579-5.094,1.245-6.379,1.994c-1.695,0.985-2.535,2.18-2.535,3.93
			c0,1.04,0.313,1.94,0.953,2.714c0.832,0.996,1.897,1.489,3.539,1.489c0.932,0,1.98-0.27,2.824-0.805
			c0.787-0.483,1.537-1.262,1.941-2.017v0.939c0.026,0.659,0.026,1.127,0,1.396h5.594v-0.966h-0.375
			c-0.924,0-1.388-0.636-1.388-1.904v-7.843c0-3.703-2.097-5.555-6.282-5.555c-1.698,0-3.113,0.355-4.27,1.072
			c-1.145,0.707-1.564,1.489-1.564,2.65c0,0.798,0.112,1.425,0.637,1.885c0.455,0.387,0.992,0.585,1.611,0.585
			c0.674,0,1.242-0.212,1.682-0.638c0.445-0.42,0.678-0.729,0.678-1.254c0-1.275-0.682-1.925-2.043-1.925
			c-0.514,0-0.926,0.167-1.241,0.491l0.332,0.124c0.009-0.069,0.009-0.108,0.009-0.108H179.143z M181.972,29.953
			c0.615-0.52,1.871-0.934,3.457-1.253v2.364c0,1.329-0.202,2.501-0.604,3.2c-0.515,0.919-1.181,1.378-2.016,1.378
			c-0.502,0-1.08-0.222-1.424-0.66c-0.338-0.434-0.513-1.067-0.513-1.898C180.873,31.724,181.243,30.577,181.972,29.953
			L181.972,29.953z"/>
		<path fill="#0071B9" d="M71.935,20.718c0,3.404-1.385,5.421-4.162,5.421h-1.772V15.23h1.454
			C70.233,15.23,71.935,17.163,71.935,20.718L71.935,20.718z M67.416,27.292c2.626,0,4.412-0.51,5.978-1.533
			c1.782-1.139,2.839-2.824,2.839-5.061c0-2.324-1.067-4.052-2.872-5.189c-1.532-0.978-3.603-1.31-6.214-1.31h-8.728v1.106
			c1.043,0,2.315,0.073,2.565,0.215c0.421,0.237,0.639,0.892,0.639,1.953v16.766c0,0.819-0.174,1.362-0.526,1.642
			c-0.299,0.234-1.477,0.336-2.273,0.336h-0.404v0.968h10.387v-0.968h-1.09c-0.832,0-1.077-0.137-1.379-0.402
			c-0.298-0.259-0.456-0.778-0.456-1.563v-6.96H67.416L67.416,27.292z"/>
		<path fill="#0071B9" d="M82.837,25.036c0.583-2.327,2.004-3.959,3.929-3.959c0.708,0,1.27,0.192,1.694,0.576
			c0.426,0.385,0.643,0.578,0.643,1.219c0,0.549-0.029,1.047-0.386,1.479c-0.405,0.479-1.079,0.718-1.706,0.718
			c-0.591,0-1.063-0.179-1.409-0.539c-0.34-0.322-0.484-0.712-0.458-1.176c0-0.041-0.134-0.312-0.091-0.485
			c-0.586,0.739-1.047,2.146-1.381,3.914c-0.28,1.415-0.414,3.025-0.414,4.202v3.432c0,0.741,0.233,1.22,0.393,1.432
			c0.205,0.26,0.746,0.395,1.625,0.395h1.319v0.941H76.132v-1.099h1.434c0.584,0,1.007-0.103,1.263-0.317
			c0.257-0.21,0.395-0.871,0.395-1.668v-6.804c0-2.349-0.069-3.655-0.201-3.915c-0.183-0.416-0.533-0.786-1.053-0.786h-0.931v-1.099
			h5.685L82.837,25.036L82.837,25.036z"/>
		<path fill="#0071B9" d="M100.449,34.86c-0.057,0.049,0.183,0.098,0.099,0.151l-0.099-0.127c-0.267,0.75-0.607,1.251-1.344,1.828
			c-0.864,0.671-1.848,1.01-2.938,1.01c-1.836,0-2.98-0.349-3.723-1.362c-0.604-0.793-0.904-2.035-0.904-3.725v-6.663
			c0-1.503-0.067-2.69-0.204-2.942c-0.178-0.337-0.609-0.509-1.301-0.509h-0.131v-1.018h5.688v11.849
			c0,1.555,0.801,2.165,2.09,2.165c1.065,0,1.936-0.744,2.306-2.231c0.164-0.595,0.25-1.425,0.25-2.474v-4.836
			c0-1.657-0.082-2.718-0.24-2.895c-0.233-0.266-0.718-0.56-1.45-0.56h-0.617v-1.018h6.394v11.929c0,1.305,0.08,2.065,0.244,2.278
			c0.203,0.268,0.587,0.415,1.169,0.415h0.722v1.119h-5.982l0.07-2.404l-0.226,0.069l0.029,0.066L100.449,34.86L100.449,34.86z"/>
		<path fill="#0071B9" d="M117.486,27.644v3.231c0,0.896-0.067,1.625-0.196,2.218c-0.404,1.776-1.25,2.661-2.533,2.661
			c-1.801,0-2.866-2.128-2.866-6.379c0-1.894,0.104-3.448,0.312-4.35c0.41-1.747,1.396-2.619,2.619-2.619
			C116.601,22.405,117.486,24.254,117.486,27.644L117.486,27.644z M114.081,20.975c-2.16,0-3.896,0.932-5.229,2.772
			c-1.164,1.633-1.592,3.513-1.592,5.627c0,2.316,0.438,4.197,1.312,5.649c1.102,1.87,2.665,2.645,4.997,2.645
			c1.2,0,2.242-0.361,3.123-1.106c0.694-0.593,0.985-1.089,1.19-1.794l0.053,0.092l-0.135-0.142l0.113,2.625h6.055v-1.107h-0.764
			c-0.656,0-1.091-0.172-1.301-0.512c-0.158-0.251-0.24-0.697-0.24-1.353v-20.66l-6.558,0.516v1.04h0.597
			c0.847,0,1.389,0.225,1.643,0.689c0.14,0.269,0.234,0.879,0.263,1.833c0,2.568-0.117,4.233-0.028,4.667
			C116.962,21.473,115.798,20.975,114.081,20.975L114.081,20.975z"/>
		<path fill="#0071B9" d="M131.83,21.821c1.688,0,2.692,2.308,2.692,5.973h-5.451c0.016-0.573,0.044-1.053,0.077-1.434
			C129.369,23.654,130.265,21.821,131.83,21.821L131.83,21.821z M129.071,28.823h9.738c-0.016-2.411-0.393-3.988-1.453-5.379
			c-1.203-1.583-2.975-2.367-5.32-2.367c-2.152,0-3.938,0.773-5.355,2.326c-1.431,1.595-2.15,3.634-2.15,6.095
			c0,2.542,0.627,4.403,1.879,5.889c1.348,1.636,3.26,2.283,5.738,2.283c1.919,0,3.374-0.544,4.69-1.968
			c1.155-1.228,1.753-2.39,1.796-3.808h-1.303c-0.018,1.041-0.566,2.024-1.352,2.944c-0.895,1.046-2.107,1.562-3.331,1.562
			c-1.765,0-2.874-1.257-3.334-3.764C129.156,31.805,129.071,30.318,129.071,28.823L129.071,28.823z"/>
		<path fill="#0071B9" d="M145.772,23.587c0.374-0.736,0.962-1.346,1.754-1.815c0.801-0.462,1.84-0.695,2.819-0.695
			c3.21,0,4.334,1.746,4.334,5.222v7.289c0,0.811,0.007,1.291,0.023,1.458c0.063,0.783,0.868,1.173,1.794,1.173h0.33v0.968h-6.229
			V25.585c0-0.814-0.102-1.399-0.292-1.756c-0.28-0.517-0.813-0.777-1.592-0.777c-0.745,0-1.495,0.363-1.943,1.087
			c-0.447,0.723-0.662,1.794-0.662,3.212v6.189c0,1.356,0.071,2.112,0.197,2.263c0.268,0.268,1.056,0.416,1.742,0.416h0.269v0.968
			h-8.441v-0.968h0.596c0.83,0,1.275-0.391,1.328-1.173c0.028-0.176,0.055-0.705,0.055-1.571v-8.319
			c0-1.246-0.094-2.004-0.276-2.272c-0.19-0.276-0.571-0.414-1.159-0.414h-0.543v-0.966h5.896V23.587L145.772,23.587z"/>
		<path fill="#0071B9" d="M162.862,37.722c-2.668,0-3.999-1.345-3.999-4.363V22.582h-2.868v-1.125h0.437
			c1.567,0,2.894-0.881,3.989-2.653c0.928-1.484,1.408-3.004,1.436-4.551h1.032v7.204h3.206v1.125h-3.049V33.9
			c0,1.31,0.397,1.962,1.215,1.962c0.711,0,1.332-0.619,1.538-1.863c0.076-0.448,0.115-1.338,0.115-2.674h1.344
			c0,2.195-0.201,3.702-0.597,4.496C166.002,37.202,164.835,37.722,162.862,37.722L162.862,37.722z"/>
		<path fill="#0071B9" d="M169.005,16.507c0-0.699,0.244-1.302,0.748-1.804c0.502-0.493,1.102-0.747,1.814-0.747
			c0.703,0,1.312,0.254,1.823,0.747c0.503,0.502,0.759,1.104,0.759,1.804c0,0.711-0.256,1.322-0.759,1.828
			c-0.511,0.512-1.12,0.771-1.823,0.771c-0.713,0-1.312-0.26-1.814-0.771C169.249,17.829,169.005,17.218,169.005,16.507
			L169.005,16.507z M167.635,36.121h0.577c0.634,0,1.033-0.203,1.196-0.599c0.097-0.283,0.149-1.14,0.149-2.266v-8.368
			c0-1.135-0.108-1.802-0.336-2c-0.233-0.201-0.562-0.3-1.01-0.3h-0.893v-1.128h6.418v11.795c0,1.314,0.088,2.239,0.243,2.462
			c0.198,0.266,0.75,0.403,1.315,0.403h0.601v1.123h-8.262V36.121L167.635,36.121z"/>
	</g>
	<g>
		<path fill="#0071B9" d="M63.422,46.191l1.919,0.928c0,0-0.893,3.39-1.604,5.138v17.03h-2.251V56.29
			c-0.522,0.837-1.259,1.715-1.898,2.634l-0.927-3.103c0.834-1.085,1.408-1.992,2.273-3.716
			C61.771,50.524,62.601,48.547,63.422,46.191z M66.263,47.442h13.436v8.189h-5.506v2.233h7.383v2.188h-5.549
			c1.647,2.299,3.273,4.509,5.828,5.851l-1.61,1.979c-1.02-0.658-1.837-1.58-2.618-2.494c-1.401-1.65-2.487-3.24-3.433-5.192v9.155
			h-2.359v-9.196c-0.58,0.875-1.028,1.989-1.625,2.854c-0.319,0.469-4.259,5.217-4.701,4.772l-1.529-1.953
			c2.621-1.221,4.011-3.477,5.57-5.775h-4.893v-2.188h7.177v-2.233h-5.57V47.442z M77.35,53.445v-3.814h-8.733v3.814H77.35z"/>
		<path fill="#0071B9" d="M118.052,47.095c-0.262,1.063-1.698,4.462-1.698,4.462v17.633h-2.231V55.648
			c-0.161,0.423-2.019,2.813-2.019,2.813l-0.847-2.444c3.236-4.037,4.729-9.721,4.729-9.721L118.052,47.095z M117.712,51.237h16.487
			v-2.124h-7.169c-0.319-1.486-1.062-2.816-1.062-2.816l-2.285,0.216c0.213,0.478,1.116,2.655,1.116,2.655h-7.087V51.237z
			 M132.766,52.99h-13.81v2.018h13.81V52.99z M132.819,56.814h-13.863v1.912h13.863V56.814z M133.294,66.004v1.859h-0.051v1.326
			h-2.176v-1.326h-10.41v1.326h-2.178v-8.338h14.764v5.152H133.294z M131.067,62.816h-10.41v3.133h10.41V62.816z"/>
		<path fill="#0071B9" d="M89.637,46.561l1.754,1.225c-1.063,1.913-5.365,5.046-5.365,5.046l-1.01-2.179
			C86.77,50.125,89.637,46.561,89.637,46.561z M85.707,60.691c0.426-0.319,1.7-1.539,1.7-1.539v10.037h2.339V56.229
			c0.688-0.848,1.698-2.76,1.698-2.76l-1.751-1.222c-1.33,2.603-4.677,5.95-4.677,5.95L85.707,60.691z M107.22,49.803v-1.805h-6.932
			v-1.701h-2.26v1.755h-6.32v1.751h6.32v1.596h-6.054v5.896h14.34v-5.896h-6.026v-1.596H107.22z M102.175,53.258h2.177v2.174h-2.177
			V53.258z M96.119,55.432h-2.178v-2.174h2.178V55.432z M100.208,55.432h-2.18v-2.174h2.18V55.432z M107.433,58.566H91.179v1.912
			h7.958c-0.357,0.338-1.034,0.977-1.265,1.168c0,0,2.546,2.072,2.97,2.549c0,0,1.226-1.166,1.649-1.379
			c0,0-2.021-1.716-2.833-2.338h7.774V58.566z M90.594,67.065c0.213,0.106,2.018,1.169,2.018,1.169
			c0.477-0.477,2.02-5.788,2.02-5.788l-1.966-0.694C92.401,63.24,90.594,67.065,90.594,67.065z M106.103,67.809
			c0,0,1.277-0.688,1.858-1.115c-0.213-1.008-2.813-4.992-2.813-4.992l-1.809,0.955C104.454,63.986,106.103,67.809,106.103,67.809z
			 M95.586,67.014c0.056,1.699,2.073,1.699,2.073,1.699h4.461c0.85-0.212,1.541-1.274,1.646-1.699
			c0.106-0.426,0.213-1.753,0.213-1.753l-2.283-0.743c0,0,0.054-0.531,0.054,0.85c0,1.38-1.011,1.485-1.011,1.485s-1.541,0-2.335,0
			c-0.798,0-0.69-1.33-0.69-1.33v-3.129h-2.126C95.586,62.394,95.536,65.312,95.586,67.014z"/>
	</g>
</g>
</svg>
