<svg id="圖層_1" xmlns="http://www.w3.org/2000/svg" viewBox="0 0 110 20"><style>.st0{fill:#008f43}.st1{fill:url(#SVGID_1_)}.st2{fill:url(#SVGID_2_)}</style><title>工作區域 1</title><path d="M85 13.3h.8l-.1-2.1c0-.1 0-.2-.1-.2h-.8s-.1 0-.1.1l.3 2.1c-.1 0-.1.1 0 .1zm3.9-2.3h-.8c-.1 0-.2.1-.2.1l-.1 2.1h.8s.1 0 .1-.1l.4-2V11h-.2zm-1.2-6.3h-1.9c-.2 0-.3.1-.3.3l-.1.2c-.3.8-.8 1.5-1.4 2.2V8c0 .1.1.1.1.1h.1c1.1-.6 1.9-1.5 2.5-2.5.5.9 1.3 1.7 2.3 2.2 0 0 .1 0 .1-.1v-.6c-.4-.6-.8-1.2-1-1.9 0-.3-.1-.5-.4-.5zm1.4 8.8c-.6.2-1.2.3-1.7.4v-3.5H89c.1 0 .1-.1.1-.1v-.5c0-.1-.1-.1-.2-.1h-1.6V8.6h1.2c.1 0 .1-.1.2-.1V8c0-.1-.1-.1-.1-.2H85c-.1 0-.1.1-.2.1v.5c0 .1.1.1.2.1h1.2v1h-1.6c-.1 0-.2.1-.2.1v.5c0 .1.1.1.2.1h1.6v3.7c-.7.1-1.3.2-2 .2-.1 0-.2.1-.2.1v.7c0 .1.1.1.2.1 1.6-.1 3.2-.5 4.8-1.1.1 0 .1-.1.1-.1v-.3zm5.1-.6c.3-.7.6-1.4.8-2.2 0-.2-.2-.2-.2-.2H94l-.3 1.5c-.4-.6-.6-1.3-.8-2h2c.1 0 .2-.1.2-.1V5.3c0-.3-.2-.6-.6-.6h-4.6c-.1 0-.2.1-.2.1v10.4c0 .1.1.2.2.2 1-.1 2-.3 2.9-.7.1 0 .1-.1.1-.1v-.7c-.7.1-1.3.3-2 .3V10h.8c.6 2.2 2 4.2 4 5.3h.1c.1 0 .1-.1.2-.1v-.9c-.8-.4-1.3-.9-1.8-1.4zm-3.4-7.3H94v1.3h-3.2V5.6zm0 3.5V7.8H94v1.3h-3.2zM67.2 7.7h-1.6V5.5c0-.4-.3-.6-.6-.6h-.7c-.1 0-.1.1-.1.1v2.7h-2.4V5c0-.1-.1-.1-.1-.1H61c-.4 0-.6.3-.6.6v2.2h-2.1V5.3c0-.1-.1-.2-.2-.2h-.7c-.4 0-.6.3-.6.6v1.9h-1.1c-.1 0-.1.1-.1.1v.6c0 .1.1.1.1.1h1.1v6.2c0 .4.3.6.6.6h9.2c.1 0 .2-.1.2-.1v-.6c0-.1-.1-.1-.2-.1h-8.4V8.6h2.1v3.3c0 .4.3.6.6.6h4c.4 0 .6-.3.6-.6V8.6h1.6c.1 0 .1-.1.1-.1v-.7c.1-.1 0-.1 0-.1zm-3 3.9h-2.4v-3h2.4v3zm38.1-4.3h-1.2c-.7 1-1.6 1.7-2.7 2.2 0 0-.1 0-.1.1v.6s0 .3.2.2c.4-.1.8-.3 1.1-.5v4.9c0 .4.3.6.6.6h.7c.1 0 .2-.1.2-.1V8.9c.5-.4.9-.9 1.2-1.4.1-.3 0-.2 0-.2zm0-2.6h-1.2c-.7 1-1.6 1.7-2.7 2.2 0 0-.1 0-.1.1v.6s0 .3.2.2c1.6-.4 2.9-1.5 3.8-2.8.1-.3 0-.3 0-.3zm1.3 1.3h5.8c.1 0 .1-.1.1-.1v-.7c0-.1-.1-.1-.1-.1h-5.8c-.1 0-.1.1-.1.1v.6c-.1.1 0 .2.1.2zm6.3 2h-7c-.1 0-.1.1-.1.1v.6c0 .1.1.1.1.1h4V14c0 .3-.1.5-.6.5h-.5v.6c0 .1.1.1.1.1h1.1c1.1 0 1.4-.2 1.4-1.3v-5h1.5c.1 0 .1-.1.1-.1v-.6c.1-.1 0-.2-.1-.2zm-76.6 3.9v.5s0 .1-.1.1c-.7.3-1.4.5-2.1.7-.6.2-1.2.3-1.9.3-.1 0-.1 0-.1-.1v-.9c0-.1.1-.1.1-.1 1.4-.1 2.8-.3 4.1-.5 0-.1 0-.1 0 0zm0-3v1.8c0 .3-.3.6-.6.6h-2.9c-.3 0-.6-.3-.6-.6V8.8c0-.3.3-.6.6-.6h2.9c.3 0 .6.3.6.7zm-1.4 0h-1.4v1.7h1.4V8.9zm1.4 0v1.8c0 .3-.3.6-.6.6h-2.9c-.3 0-.6-.3-.6-.6V8.8c0-.3.3-.6.6-.6h2.9c.3 0 .6.3.6.7zm-1.4 0h-1.4v1.7h1.4V8.9zm1.4 3.5v-.6h-.1c-1.3.3-2.6.5-4 .6-.1 0-.1.1-.1.1v.9c0 .1 0 .1.1.1.6 0 1.3-.1 1.9-.3.7-.2 1.4-.4 2.1-.7 0 0 .1 0 .1-.1zm5.3-6.8v9.2c0 .3-.3.6-.6.6H27.8c-.3 0-.6-.3-.6-.6V5.6c0-.3.3-.6.6-.6H38c.3-.1.6.2.6.6.1-.1.1-.1 0 0zm-4 1.1h1c-.1-.4-.1-.8-.2-1h-.9c.1.2.1.6.1 1zm-6 0h5c0-.5-.1-.8-.1-1h-4.9v1zm8.6-1h-.7l.3 1.5c0 .3-.2.3-.2.3h-1.9c.1 1 .3 2.1.6 3.1.2-.4.4-.8.5-1.1 0 0 0-.1.1-.1h.1l.7.3s.1 0 0 .1c-.3.6-.6 1.2-1 1.8.3.7.7 1.4 1.3 2.1.1.1 0 .1 0 .1l-.3.4h-.1c-.6-.5-1-1.1-1.4-1.8-.6.7-1.2 1.2-2 1.7-.1.1-.1 0-.1 0l-.2-.4v-.1c.7-.5 1.4-1.2 1.9-1.9-.5-1.3-.9-2.6-1.1-4h-5v7h8.6l-.1-9zm-3.9 3.1v1.8c0 .3-.3.6-.6.6h-2.9c-.3 0-.6-.3-.6-.6V8.8c0-.3.3-.6.6-.6h2.9c.3 0 .6.3.6.6zm-1.4 0h-1.4v1.7h1.4V8.8zm1.3 3c-1.3.3-2.6.5-4 .6-.1 0-.1.1-.1.1v.9c0 .1 0 .1.1.1.6 0 1.3-.1 1.9-.3.7-.2 1.4-.4 2.1-.7l.1-.1-.1-.6zm14.1-1.2h-.7c-.1 0-.1.1-.1.1v3.4c0 .3-.1.5-.6.5h-.3v.6c0 .1.1.2.2.2h.5c1.2 0 1.6-.2 1.6-1.2v-2.9c.1-.5-.2-.8-.6-.7 0-.1 0-.1 0 0zm5.6-1.5h-7.3c.3-.3.5-.7.7-1h5.2c.1 0 .1 0 .1-.1v-.6c0-.1-.1-.1-.1-.1h-4.7c.2-.4.4-.7.5-1h5.1c.1 0 .1-.1.1-.1v-.7c0-.1-.1-.1-.1-.1h-4.7l.1-.3c0-.1 0-.2-.1-.2l-1-.2c-.1 0-.2 0-.3.1l-.1.3-.1.3H42v.7c0 .1.1.1.1.1H46c-.1.3-.3.7-.5 1H43c-.1 0-.1.1-.1.1V8c0 .1.1.1.1.1h2c-.2.3-.4.7-.7 1h-2.7c-.1 0-.1.1-.1.1v.6c0 .1.1.1.1.1h1.9c-.5.6-1.2 1.1-1.9 1.4-.1 0-.1.1-.1.2v.1l.1.3c0 .1.1.1.2.1.4-.2.9-.4 1.3-.6.8.2 1.6.5 2.3.9h.1l.3-.7v-.1c-.6-.3-1.3-.5-1.9-.6l.9-.9h4.6c.3.3.6.6.9.8-.6.3-1.3.4-1.9.5-.1 0-.1 0-.1.1.1.3.1.5.2.8 0 .1.1.1.1.1.8-.2 1.6-.6 2.3-1 .5.3 1 .6 1.6.8.1 0 .2 0 .2-.1l.1-.3v-.2h-.1c-.8-.3-1.5-.8-2.2-1.4h2.1c.4-.1.4-.2.4-.2v-.7s0-.1-.1-.1zm-6.8 4.2c0-.2 0-.2-.1-.5 0 0 0-.1-.1-.1-1.1.5-2.3 1-3.6 1.2-.1 0-.1.1-.1.1l.3.8c0 .1.1.1.2.1 1.1-.4 2.2-.9 3.3-1.5.1.1.1 0 .1-.1zm6 .8c-1.1-.5-2.2-.9-3.4-1.2h-.1l-.2.5v.1c1 .4 2 .9 3 1.4.1.1.2 0 .3-.1l.4-.7c0 .1 0 0 0 0zm29.3-8.7h-2.6c0-.3-.3-.6-.6-.6h-.6c-.1 0-.2.1-.2.1v.4h-3.5V5c0-.1-.1-.2-.2-.2h-.6c-.3 0-.6.2-.6.6h-2.6c-.1 0-.1.1-.1.1v.6c0 .1.1.1.1.1h2.6v.4c0 .1.1.2.2.2h1.1c.1 0 .2-.1.2-.1v-.5h3.5v.5c0 .1.1.2.2.2h1.1c.1 0 .2-.1.2-.1v-.6h2.6c.1 0 .1-.1.1-.1v-.6c-.2-.1-.2-.1-.3-.1zm0 4.7c.1 0 .1-.1.1-.1v-.6c0-.1-.1-.1-.1-.1h-1.9V8.2h1.2v-.8c0-.1-.1-.1-.1-.1h-9.8c-.1 0-.1 0-.1.1V8c0 .1 0 .1.1.1h1v1.1h-1.9c-.1 0-.1.1-.1.1v.7c0 .1.1.1.1.1h1.9v1.1h-1c-.1 0-.1 0-.1.1v.6c0 .1 0 .1.1.1H75v1.1h-5.1c-.1 0-.1.1-.1.1v.6c0 .1 0 .1.1.1H75v.8c0 .4.3.6.6.6h.6c.1 0 .2-.1.2-.1V14h5c.1 0 .1-.1.1-.1v-.6c0-.1-.1-.1-.1-.1h-5.1V12h4.2c.1 0 .1-.1.1-.1v-.6c0-.1-.1-.1-.1-.1h-1v-1.1h1.9zM75 11.2h-1.8v-1.1H75v1.1zm0-1.9h-1.8V8.2H75v1.1zm3.1 1.9h-1.8v-1.1h1.8v1.1zm0-1.9h-1.8V8.2h1.8v1.1z"/><path class="st0" d="M20 9.1c-.3-.3-.6-.8-.6-1.2-.1-1.1-.9-2.1-1.9-2.5l-.2-.1c-.4-.2-.7-.5-.9-.8-.6-1-1.7-1.6-2.9-1.4-.5.1-1 0-1.4-.3-1-.7-2.3-.7-3.3 0-.3.3-.8.4-1.3.3-1.2-.1-2.3.5-2.9 1.5-.3.4-.6.7-1.1.9-1.1.3-1.8 1.3-1.9 2.4-.1.5-.3.9-.7 1.2-.6.6-.9 1.4-.9 2.3 0 1.7 1.4 3.2 3.1 3.2h4.5c.5 0 .8.4.8.8v.2c0 .4-.3.8-.7.8l-3.6.6c-.1 0-.2.1-.2.2v.4h13.3v-.4c0-.1-.1-.2-.2-.2l-3.7-.6c-.4-.1-.7-.4-.7-.8v-.2c0-.4.3-.8.8-.8h4.5c1.7 0 3.1-1.4 3.1-3.1 0-.9-.3-1.8-1-2.4z"/><linearGradient id="SVGID_1_" gradientUnits="userSpaceOnUse" x1="13.148" y1="20.323" x2="3.159" y2="8.003" gradientTransform="matrix(1 0 0 -1 0 22)"><stop offset="0" stop-color="#6fb92c"/><stop offset=".36" stop-color="#42a835"/><stop offset=".79" stop-color="#12963f"/><stop offset="1" stop-color="#008f43"/></linearGradient><path class="st1" d="M6.5 7c3.9-1.7 7.8-2.2 10.9-1.6-.4-.2-.7-.5-.9-.8-.6-1-1.8-1.6-2.9-1.4-.5.1-1 0-1.4-.3-1-.7-2.3-.7-3.3 0-.4.2-.9.3-1.4.2-1.2-.1-2.3.5-2.9 1.5-.3.4-.6.7-1.1.9-1.1.3-1.8 1.3-1.9 2.4-.1.5-.3.9-.7 1.2-.6.6-.9 1.4-.9 2.3C1.9 9.5 4 8 6.5 7z"/><linearGradient id="SVGID_2_" gradientUnits="userSpaceOnUse" x1="16.274" y1="20.705" x2="4.377" y2="6.01" gradientTransform="matrix(1 0 0 -1 0 22)"><stop offset="0" stop-color="#44af35"/><stop offset=".22" stop-color="#2da43a"/><stop offset=".51" stop-color="#14983f"/><stop offset=".78" stop-color="#059142"/><stop offset="1" stop-color="#008f43"/></linearGradient><path class="st2" d="M9.9 9.3c3-1.4 6.2-2 9.5-1.8-.2-.9-.9-1.7-1.9-2l-.2-.1c-3-.6-7-.1-10.8 1.6C4 8.1 1.9 9.6 0 11.4c0 1.6 1.2 2.9 2.7 3.1 2-2.2 4.4-4 7.2-5.2z"/><path class="st0" d="M20 9.1c-.3-.3-.6-.8-.6-1.2 0-.1 0-.3-.1-.4-3.3-.2-6.5.4-9.5 1.8-2.7 1.2-5.2 3-7.2 5.2h4.9c.5 0 .8.4.8.8v.2c0 .4-.3.8-.7.8l-3.5.7c-.1 0-.2.1-.2.2v.4h13.3v-.4c0-.1-.1-.2-.2-.2l-3.7-.6c-.4-.1-.7-.4-.7-.8v-.2c0-.4.3-.8.8-.8h4.5c1.7 0 3.1-1.4 3.1-3.1 0-1-.3-1.8-1-2.4z"/></svg>