<svg xmlns="http://www.w3.org/2000/svg" xmlns:xlink="http://www.w3.org/1999/xlink" viewBox="0 0 257.15 479.18"><defs><style>.cls-1{fill:none}.cls-2{isolation:isolate}.cls-3{fill:#fff100}.cls-4{fill:#172a88}.cls-5,.cls-6{fill:#009143}.cls-6{stroke:#172a88;stroke-linecap:round;stroke-linejoin:round;stroke-width:2.5px}.cls-15,.cls-7{fill:#fff}.cls-8{fill:url(#linear-gradient)}.cls-9{fill:#009043}.cls-10{fill:url(#linear-gradient-2)}.cls-11{fill:#231815}.cls-12{clip-path:url(#clip-path)}.cls-13{fill:url(#linear-gradient-3)}.cls-14{fill:#b3b3b3}.cls-15{opacity:.3;mix-blend-mode:screen}.cls-16{fill:#9fd9f6}.cls-17{fill:#dff2fc}</style><linearGradient id="linear-gradient" x1="95.11" y1="15.05" x2="81.2" y2="32.23" gradientUnits="userSpaceOnUse"><stop offset="0" stop-color="#6fba2c"/><stop offset=".36" stop-color="#42a935"/><stop offset=".79" stop-color="#12973f"/><stop offset="1" stop-color="#009043"/></linearGradient><linearGradient id="linear-gradient-2" x1="99.47" y1="14.52" x2="82.89" y2="35.01" gradientUnits="userSpaceOnUse"><stop offset="0" stop-color="#45b035"/><stop offset=".22" stop-color="#2da53a"/><stop offset=".52" stop-color="#14993f"/><stop offset=".78" stop-color="#059242"/><stop offset="1" stop-color="#009043"/></linearGradient><clipPath id="clip-path"><path class="cls-1" d="M212.5 76.92s-34.86 77.85-34.86 181.26v219.58h78.26V76.92z"/></clipPath><linearGradient id="linear-gradient-3" x1="256.88" y1="10.09" x2="158.7" y2="303.51" xlink:href="#linear-gradient"/></defs><title>atm</title><g class="cls-2"><g id="圖層_2" data-name="圖層 2"><g id="圖層_1-2" data-name="圖層 1"><rect class="cls-3" x="70.07" y="1.25" width="168.81" height="81.84" rx="12.62" ry="12.62" transform="rotate(-180 154.48 42.17)"/><path class="cls-4" d="M226.27 84.34H82.69a13.88 13.88 0 0 1-13.87-13.87v-56.6A13.88 13.88 0 0 1 82.69 0h143.58a13.88 13.88 0 0 1 13.87 13.87v56.6a13.88 13.88 0 0 1-13.87 13.87zM82.69 2.5a11.38 11.38 0 0 0-11.37 11.37v56.6a11.38 11.38 0 0 0 11.37 11.37h143.58a11.38 11.38 0 0 0 11.37-11.37v-56.6A11.38 11.38 0 0 0 226.27 2.5z"/><rect class="cls-3" x="54.24" y="1.25" width="168.81" height="81.84" rx="12.62" ry="12.62" transform="rotate(-180 138.65 42.17)"/><path class="cls-4" d="M210.44 84.34H66.86A13.88 13.88 0 0 1 53 70.47v-56.6A13.88 13.88 0 0 1 66.86 0h143.58a13.88 13.88 0 0 1 13.87 13.87v56.6a13.88 13.88 0 0 1-13.87 13.87zM66.86 2.5A11.38 11.38 0 0 0 55.5 13.87v56.6a11.38 11.38 0 0 0 11.36 11.37h143.58a11.38 11.38 0 0 0 11.37-11.37v-56.6A11.38 11.38 0 0 0 210.44 2.5z"/><path class="cls-5" transform="rotate(-180 146.565 63.635)" d="M54.24 50.35h184.64v26.57H54.24z"/><path class="cls-4" d="M238.89 78.17H54.25A1.25 1.25 0 0 1 53 76.92V50.35a1.25 1.25 0 0 1 1.25-1.25h184.64a1.25 1.25 0 0 1 1.25 1.25v26.57a1.25 1.25 0 0 1-1.25 1.25zM55.5 75.67h182.14V51.6H55.5z"/><path class="cls-6" transform="rotate(-180 138.65 63.635)" d="M54.24 50.35h168.81v26.57H54.24z"/><path class="cls-7" d="M96.83 69l-.67-1.75h-5.67L89.83 69a6.21 6.21 0 0 1-.67 1.41 1.06 1.06 0 0 1-.9.37 1.32 1.32 0 0 1-.94-.39 1.19 1.19 0 0 1-.41-.88A2 2 0 0 1 87 69q.1-.3.31-.85L90.88 59l.37-.94a4.77 4.77 0 0 1 .46-.91 1.86 1.86 0 0 1 .64-.58 2 2 0 0 1 1-.22 2 2 0 0 1 1 .22 1.89 1.89 0 0 1 .64.58 4 4 0 0 1 .41.76q.17.4.42 1.08l3.64 9a4.52 4.52 0 0 1 .43 1.49 1.24 1.24 0 0 1-.4.89 1.33 1.33 0 0 1-1 .4 1.27 1.27 0 0 1-.57-.12 1.17 1.17 0 0 1-.4-.32 3 3 0 0 1-.35-.63zm-5.59-3.87h4.16l-2.1-5.76zM111.21 59h-3.08v10.1a1.87 1.87 0 0 1-.39 1.3 1.31 1.31 0 0 1-1 .42 1.33 1.33 0 0 1-1-.43 1.85 1.85 0 0 1-.39-1.29V59h-3.08a1.56 1.56 0 0 1-1.08-.32 1.18 1.18 0 0 1 0-1.7 1.59 1.59 0 0 1 1.06-.31h9a1.58 1.58 0 0 1 1.09.32 1.09 1.09 0 0 1 .36.85 1.07 1.07 0 0 1-.36.84 1.6 1.6 0 0 1-1.13.32zm9.79 9.48l-2.24-8.89v9.63a1.75 1.75 0 0 1-.36 1.2 1.31 1.31 0 0 1-1.88 0 1.73 1.73 0 0 1-.36-1.2v-11a1.38 1.38 0 0 1 .48-1.23 2.28 2.28 0 0 1 1.28-.32h.88a3.35 3.35 0 0 1 1.15.14 1 1 0 0 1 .53.51 7.92 7.92 0 0 1 .39 1.21l2 7.64 2-7.64a8 8 0 0 1 .39-1.21 1 1 0 0 1 .53-.51 3.35 3.35 0 0 1 1.15-.14h.88a2.28 2.28 0 0 1 1.28.32 1.38 1.38 0 0 1 .48 1.23v11a1.75 1.75 0 0 1-.36 1.2 1.22 1.22 0 0 1-1 .4 1.19 1.19 0 0 1-.92-.4 1.74 1.74 0 0 1-.36-1.2v-9.63l-2.24 8.89q-.22.87-.36 1.27a1.75 1.75 0 0 1-.51.74 1.48 1.48 0 0 1-1 .33 1.5 1.5 0 0 1-1.37-.76 3.08 3.08 0 0 1-.3-.74zm18.91-10.15l-2.66 11q-.13.54-.23.86a1 1 0 0 1-.3.49.89.89 0 0 1-.59.18q-1 0-1-.84a7.46 7.46 0 0 1 .19-1.09l2.65-11a4.86 4.86 0 0 1 .4-1.2.79.79 0 0 1 .74-.32 1 1 0 0 1 .73.23.8.8 0 0 1 .25.63 5.22 5.22 0 0 1-.18 1.06zm17.74 7.84a3.72 3.72 0 0 1-.33 1.44 5.29 5.29 0 0 1-2.83 2.73 6.45 6.45 0 0 1-2.55.47 8.9 8.9 0 0 1-2-.21 5.62 5.62 0 0 1-1.64-.6 5.54 5.54 0 0 1-1.36-1.17 6.93 6.93 0 0 1-.94-1.47 7.66 7.66 0 0 1-.58-1.74 9.47 9.47 0 0 1-.19-2 8.71 8.71 0 0 1 .49-3 6.45 6.45 0 0 1 1.4-2.28 6.13 6.13 0 0 1 2.14-1.44 6.94 6.94 0 0 1 2.62-.49 6.54 6.54 0 0 1 3 .68 5.47 5.47 0 0 1 2 1.67 3.3 3.3 0 0 1 .7 1.88 1.22 1.22 0 0 1-.34.86 1.09 1.09 0 0 1-.83.37 1.14 1.14 0 0 1-.81-.26 3.53 3.53 0 0 1-.6-.88 4.26 4.26 0 0 0-1.3-1.55 3.17 3.17 0 0 0-1.84-.51 3.34 3.34 0 0 0-2.74 1.33 6 6 0 0 0-1 3.76 7 7 0 0 0 .46 2.71 3.42 3.42 0 0 0 1.25 1.53 3.57 3.57 0 0 0 2 .53 3.44 3.44 0 0 0 2.06-.6 3.65 3.65 0 0 0 1.27-1.77 3 3 0 0 1 .45-.9 1 1 0 0 1 .86-.35 1.2 1.2 0 0 1 .87.35 1.17 1.17 0 0 1 .31.91zm6.24-9.54h3.68a9.92 9.92 0 0 1 2.46.27 4.53 4.53 0 0 1 1.86 1q2.18 1.86 2.18 5.67a11.15 11.15 0 0 1-.22 2.29 6.75 6.75 0 0 1-.68 1.87 5.79 5.79 0 0 1-1.17 1.49 4.84 4.84 0 0 1-1.23.81 5.56 5.56 0 0 1-1.43.43 10.88 10.88 0 0 1-1.73.12h-3.68a2.3 2.3 0 0 1-1.16-.23 1.08 1.08 0 0 1-.51-.66 4.17 4.17 0 0 1-.12-1.1V58.36a1.48 1.48 0 0 1 1.73-1.73zm1.11 2.24v9.47h3.24a3.45 3.45 0 0 0 .83-.19 2.24 2.24 0 0 0 .74-.43q1.42-1.2 1.42-4.13a6.09 6.09 0 0 0-.62-3.09 2.78 2.78 0 0 0-1.54-1.31 7.59 7.59 0 0 0-2.21-.28zm18.22 9.61L181 59.59v9.63a1.75 1.75 0 0 1-.36 1.2 1.31 1.31 0 0 1-1.88 0 1.73 1.73 0 0 1-.36-1.2v-11a1.38 1.38 0 0 1 .48-1.23 2.28 2.28 0 0 1 1.28-.32h.84a3.35 3.35 0 0 1 1.15.14 1 1 0 0 1 .53.51 7.92 7.92 0 0 1 .39 1.21l2 7.64 2-7.64a8 8 0 0 1 .39-1.21 1 1 0 0 1 .53-.51 3.35 3.35 0 0 1 1.15-.14h.88a2.28 2.28 0 0 1 1.28.32 1.38 1.38 0 0 1 .48 1.23v11a1.75 1.75 0 0 1-.36 1.2 1.22 1.22 0 0 1-1 .4 1.19 1.19 0 0 1-.92-.4 1.74 1.74 0 0 1-.36-1.2v-9.63L187 68.48q-.22.87-.36 1.27a1.75 1.75 0 0 1-.51.74 1.48 1.48 0 0 1-1 .33 1.5 1.5 0 0 1-1.37-.76 3.08 3.08 0 0 1-.3-.74z"/><path class="cls-8" d="M85.76 22.48c5.42-2.43 10.91-3.14 15.13-2.26a2.67 2.67 0 0 1-1.24-1.11 4 4 0 0 0-4.05-2 2.89 2.89 0 0 1-1.89-.42 4 4 0 0 0-4.59 0 2.89 2.89 0 0 1-1.89.42 4 4 0 0 0-4.05 2 2.76 2.76 0 0 1-1.52 1.21 4 4 0 0 0-2.66 3.4 2.92 2.92 0 0 1-.87 1.73 4.33 4.33 0 0 0-1.32 3.14v.05a28.87 28.87 0 0 1 8.95-6.16z"/><path class="cls-9" d="M80.57 32.94a27.93 27.93 0 0 1 10-7.27 27.14 27.14 0 0 1 13.22-2.55 4 4 0 0 0-2.59-2.8l-.27-.11c-4.22-.87-9.72-.17-15.13 2.26a28.87 28.87 0 0 0-9 6.16 4.4 4.4 0 0 0 3.77 4.31z"/><path class="cls-10" d="M80.57 32.94a27.93 27.93 0 0 1 10-7.27 27.14 27.14 0 0 1 13.22-2.55 4 4 0 0 0-2.59-2.8l-.27-.11c-4.22-.87-9.72-.17-15.13 2.26a28.87 28.87 0 0 0-9 6.16 4.4 4.4 0 0 0 3.77 4.31z"/><path class="cls-9" d="M90.54 25.67a27.93 27.93 0 0 0-10 7.27 4.46 4.46 0 0 0 .6 0h6.3a1.09 1.09 0 0 1 1.08 1.09v.26a1.15 1.15 0 0 1-1 1.14l-5.12.88a.35.35 0 0 0-.34.33v.63h18.64v-.63a.35.35 0 0 0-.34-.33l-5.12-.88a1.15 1.15 0 0 1-1-1.14v-.26A1.09 1.09 0 0 1 95.37 33h6.3a4.39 4.39 0 0 0 4.39-4.39 4.33 4.33 0 0 0-1.32-3.14 2.93 2.93 0 0 1-.87-1.73 3.72 3.72 0 0 0-.1-.59 27.14 27.14 0 0 0-13.23 2.52z"/><path class="cls-11" d="M116.86 36.75c-1 0-1.47-.63-1.47-1.63s.41-1.78 1.44-1.78a2.63 2.63 0 0 1 .94.17l.12-.66a4 4 0 0 0-1.08-.16c-1.74 0-2.19 1.17-2.19 2.42a2 2 0 0 0 2.21 2.29 4 4 0 0 0 1.09-.16l-.08-.67a3.25 3.25 0 0 1-.98.18zm4.29-1.8c0-.79-.3-1.16-1.2-1.16a3.13 3.13 0 0 0-1.26.28l.15.59a2.2 2.2 0 0 1 1-.27c.55 0 .61.23.61.58v.23c-1.62.07-2.06.32-2.06 1.14a1 1 0 0 0 1.11 1.07 1.15 1.15 0 0 0 1-.58 1.18 1.18 0 0 0 .22.56l.6-.11a1.64 1.64 0 0 1-.24-1zm-.67 1.24a.83.83 0 0 1-.81.63c-.24 0-.59-.09-.59-.51s.32-.54 1.4-.6zm2.46-3.19l-.7.18v.78h-.54v.55h.54v2.05c0 .63.38.84 1 .81h.32v-.54h-.2c-.3 0-.39-.12-.39-.53v-1.82h.71v-.55h-.71zm3.09.85a1.54 1.54 0 0 0-1.06.43v-1.76l-.71.1v4.7h.74v-2.54a1.15 1.15 0 0 1 .85-.38c.48 0 .63.32.63.76v2.15h.7V35c-.04-.62-.27-1.18-1.18-1.18zm4.52 1.12c0-.79-.3-1.16-1.2-1.16a3.13 3.13 0 0 0-1.26.28l.15.59a2.2 2.2 0 0 1 1-.27c.55 0 .62.23.62.58v.23c-1.62.07-2.06.32-2.06 1.14a1 1 0 0 0 1.11 1.07 1.15 1.15 0 0 0 1-.58 1.2 1.2 0 0 0 .22.56l.59-.11a1.65 1.65 0 0 1-.24-1zm-.67 1.24a.83.83 0 0 1-.82.63c-.23 0-.58-.09-.58-.51s.33-.54 1.4-.6zm2.8.14l-.9-2.43H131l1.33 3.19a3.94 3.94 0 0 1-.84 1.34l.69.31a5.32 5.32 0 0 0 .82-1.56c.35-.88.89-2.45 1.17-3.31h-.78c-.17.69-.47 1.71-.71 2.43zm6.66-.73c0 .68-.24 1.19-1.07 1.19s-1.08-.52-1.08-1.19v-2.84h-.73v3.07a1.58 1.58 0 0 0 1.79 1.57c1 0 1.81-.53 1.81-1.57v-3.07h-.73zm3.46-1.77a1.58 1.58 0 0 0-1.09.46 1.81 1.81 0 0 0-.11-.45l-.65.09a2.77 2.77 0 0 1 .08.71v2.69h.71v-2.58a1.18 1.18 0 0 1 .85-.37c.48 0 .63.32.63.76v2.15h.71V35a1 1 0 0 0-1.14-1.18zm2 3.5h.72v-3.46h-.72zm0-3.95h.74v-.65h-.74zm2.54-.4l-.7.18v.78h-.54v.55h.54v2.05c0 .63.38.84 1 .81h.32v-.54h-.2c-.3 0-.39-.12-.39-.53v-1.82h.71v-.55h-.71zm2.73.8a1.66 1.66 0 0 0-1.64 1.88 1.58 1.58 0 0 0 1.73 1.77 2.89 2.89 0 0 0 1.19-.23l-.13-.56a2.66 2.66 0 0 1-1 .19 1 1 0 0 1-1.07-1.09h2.26v-.42c0-.92-.41-1.57-1.33-1.57zm-.91 1.45a.9.9 0 0 1 .83-.9c.55 0 .74.35.75.9zm5.94-2.7l-.69.1v1.55a1.39 1.39 0 0 0-1-.38c-1.08 0-1.45.87-1.45 1.88s.46 1.73 1.35 1.73a1.34 1.34 0 0 0 1.11-.54 1.23 1.23 0 0 0 .16.5l.61-.12a3 3 0 0 1-.14-1.1zm-.67 3.26a2.62 2.62 0 0 1 0 .47 1 1 0 0 1-.89.56c-.56 0-.77-.5-.77-1.15s.22-1.27.85-1.27a1 1 0 0 1 .81.41 2.94 2.94 0 0 1 0 .53zm5.56-.88a1 1 0 0 0 .7-1c0-.91-.75-1.12-1.51-1.12h-1.32v4.54h1.41c.92 0 1.59-.34 1.59-1.28a1 1 0 0 0-.86-1.18zm-1.42-1.52h.51c.59 0 .9.18.9.65a.63.63 0 0 1-.61.67h-.81zm.63 3.34h-.63v-1.52h.62c.61 0 .93.24.93.73s-.41.75-.9.75zm5-1.77c0-.79-.29-1.16-1.2-1.16a3.1 3.1 0 0 0-1.26.28l.15.59a2.2 2.2 0 0 1 1-.27c.55 0 .61.23.61.58v.23c-1.62.07-2.06.32-2.06 1.14a1 1 0 0 0 1.11 1.07 1.16 1.16 0 0 0 1-.58 1.2 1.2 0 0 0 .22.56l.6-.11a1.64 1.64 0 0 1-.24-1zm-.67 1.24a.83.83 0 0 1-.82.63c-.23 0-.58-.09-.58-.51s.33-.54 1.4-.6zm3.38-2.36a1.57 1.57 0 0 0-1.09.46 2.1 2.1 0 0 0-.11-.45l-.65.09a2.67 2.67 0 0 1 .08.71v2.69h.71v-2.59a1.19 1.19 0 0 1 .85-.37c.48 0 .63.32.63.76v2.15h.71V35a1 1 0 0 0-1.11-1.18zm3.48 1.73l1.39-1.66H171l-1.29 1.67v-3l-.71.1v4.7h.71v-1.77l1.29 1.69h.86zm23.42-16.05h-1.28a6.09 6.09 0 0 1-2.83 2.3.12.12 0 0 0-.06.05v.62s0 .28.24.18a9.19 9.19 0 0 0 1.19-.48v5.17a.67.67 0 0 0 .67.68h.71a.15.15 0 0 0 .15-.15v-6.68a7.15 7.15 0 0 0 1.3-1.53c.1-.18-.09-.16-.09-.16zm0-2.7h-1.28a6.12 6.12 0 0 1-2.83 2.3s-.05 0-.05.05v.62s0 .28.24.19a7 7 0 0 0 4-3c.11-.18-.07-.16-.07-.16zm-18.22 9h.79l-.12-2.2a.16.16 0 0 0-.16-.15h-.87a.09.09 0 0 0-.09.08l.33 2.2a.1.1 0 0 0 .12.11zm4.1-2.38h-.87a.15.15 0 0 0-.16.15l-.12 2.2h.78a.09.09 0 0 0 .09-.09l.33-2.2a.09.09 0 0 0-.05-.02zm-1.21-6.66h-2a.35.35 0 0 0-.37.29l-.07.18a6.49 6.49 0 0 1-1.45 2.32v.63a.13.13 0 0 0 .13.13h.05a6.64 6.64 0 0 0 2.66-2.67 6.6 6.6 0 0 0 2.32 2.45.13.13 0 0 0 .12-.09v-.76a6.68 6.68 0 0 1-1.09-2c.06-.19.01-.45-.3-.44zm1.43 9.27c-.59.17-1.22.32-1.84.44v-3.63h1.69a.15.15 0 0 0 .16-.16v-.51a.15.15 0 0 0-.16-.15h-1.69v-1.12h1.29a.16.16 0 0 0 .16-.16v-.51a.16.16 0 0 0-.16-.15h-3.77a.15.15 0 0 0-.16.15v.51a.16.16 0 0 0 .15.16h1.29v1.13h-1.67a.15.15 0 0 0-.15.15v.51a.15.15 0 0 0 .15.15h1.68v3.89a19.06 19.06 0 0 1-2.12.22.16.16 0 0 0-.15.16v.78a.15.15 0 0 0 .15.15 17.05 17.05 0 0 0 5.1-1.19.16.16 0 0 0 .09-.14v-.61l-.03-.02zM187 27a7.8 7.8 0 0 1-1.64-1.54 10.43 10.43 0 0 0 .82-2.3c0-.25-.16-.21-.16-.21h-.9a7.76 7.76 0 0 1-.38 1.62 5.84 5.84 0 0 1-.79-2.14h2.15a.16.16 0 0 0 .16-.15v-4.85a.6.6 0 0 0-.64-.58h-4.92a.15.15 0 0 0-.15.16v10.9a.15.15 0 0 0 .16.16 12.35 12.35 0 0 0 3.09-.71.16.16 0 0 0 .1-.15v-.71c-.75.16-1.49.28-2.12.35v-4.42h.81a9.21 9.21 0 0 0 4.25 5.63h.06a.15.15 0 0 0 .15-.15zm-5.26-8.94v-.29H185v1.39h-3.33zm0 3.43V20.1H185v1.4zm-9.91-3.93H169a.67.67 0 0 0-.67-.6h-.62a.16.16 0 0 0-.16.15v.45h-3.68v-.45a.16.16 0 0 0-.16-.15h-.61a.68.68 0 0 0-.67.6h-2.78a.12.12 0 0 0-.12.12v.64a.12.12 0 0 0 .12.12h2.77v.5a.15.15 0 0 0 .15.15h1.14a.16.16 0 0 0 .15-.15v-.5h3.68v.5a.15.15 0 0 0 .16.15h1.14a.16.16 0 0 0 .16-.15v-.5h2.77a.12.12 0 0 0 .13-.12v-.64a.12.12 0 0 0-.09-.12zm-15 2.4h-1.67v-2.33a.67.67 0 0 0-.68-.67h-.71a.15.15 0 0 0-.15.14V20h-2.51v-2.89a.15.15 0 0 0-.15-.15h-.71a.68.68 0 0 0-.68.67V20h-2.19v-2.58a.16.16 0 0 0-.15-.16h-.71a.68.68 0 0 0-.68.67v2h-1.14a.13.13 0 0 0-.12.13v.67a.12.12 0 0 0 .12.12h1.14v6.51a.68.68 0 0 0 .68.68h9.74a.15.15 0 0 0 .15-.16v-.58a.15.15 0 0 0-.15-.15h-8.88v-6.26h2.19v3.44a.68.68 0 0 0 .68.68h4.24a.68.68 0 0 0 .67-.68v-3.44h1.67a.12.12 0 0 0 .12-.12v-.67a.13.13 0 0 0-.16-.1zm-5.72 4.1v-3.17h2.51v3.18zm44.12-5.89h6.11a.12.12 0 0 0 .12-.12v-.67a.13.13 0 0 0-.12-.13h-6.11a.13.13 0 0 0-.12.13v.67a.12.12 0 0 0 .07.12zm6.66 2.19h-7.39a.12.12 0 0 0-.12.12v.68a.12.12 0 0 0 .12.12h4.24v5.47c0 .33-.1.51-.64.51h-.55V28a.12.12 0 0 0 .12.12h1.18c1.11 0 1.48-.26 1.48-1.33v-5.51h1.61a.12.12 0 0 0 .12-.12v-.68a.12.12 0 0 0-.22-.12zm-80.76 4.59v-.57a.07.07 0 0 0-.09-.07 18.9 18.9 0 0 1-4.17.61.12.12 0 0 0-.12.12V26a.12.12 0 0 0 .12.12 14.39 14.39 0 0 0 4.18-1 .13.13 0 0 0 .04-.17zm-3.73-1.23h3.07a.66.66 0 0 0 .66-.66v-1.9a.66.66 0 0 0-.66-.66h-3.06a.66.66 0 0 0-.66.66v1.9a.66.66 0 0 0 .61.66zm.8-2.53h1.46V23h-1.46zm7.91-4.13h-10.83a.66.66 0 0 0-.67.66v9.68a.67.67 0 0 0 .66.66h10.79a.66.66 0 0 0 .66-.66v-9.67a.67.67 0 0 0-.65-.66zm-3.58.81h.93c0 .25.11.63.18 1.1h-1.09c-.07-.5-.06-.89-.06-1.09zm-6.37 0h5.19c0 .21 0 .59.07 1.1h-5.26zm9.1 9.39h-9.1v-7.47h5.36a16.24 16.24 0 0 0 1.09 4.21 7.89 7.89 0 0 1-2 2c-.07 0 0 .12 0 .12l.24.47a.07.07 0 0 0 .11 0 7.59 7.59 0 0 0 2.04-1.67 7.45 7.45 0 0 0 1.47 1.9.08.08 0 0 0 .12 0l.37-.44v-.09a9.1 9.1 0 0 1-1.35-2.2 14.4 14.4 0 0 0 1.09-1.88c.05-.1 0-.13 0-.13l-.78-.31a.08.08 0 0 0-.12.05 11.42 11.42 0 0 1-.57 1.17 15.87 15.87 0 0 1-.66-3.23h2s.28 0 .27-.35l-.29-1.57h.71zm10.6-4.26h-.69a.15.15 0 0 0-.15.15v3.59c0 .33-.07.52-.61.52h-.31v.58a.18.18 0 0 0 .19.18h.57c1.3 0 1.72-.17 1.72-1.3v-3.06a.66.66 0 0 0-.72-.66zm5.89-1.52h-7.68c.27-.35.52-.7.75-1h5.48a.13.13 0 0 0 .12-.13v-.66a.12.12 0 0 0-.12-.12h-4.93c.21-.38.4-.73.55-1h5.39a.12.12 0 0 0 .12-.12v-.66a.12.12 0 0 0-.12-.12h-5l.13-.33c0-.12 0-.22-.1-.25l-1.06-.23a.22.22 0 0 0-.27.18l-.1.31-.11.32h-4.45a.12.12 0 0 0-.12.12v.66a.12.12 0 0 0 .12.12h4.08c-.14.33-.32.68-.51 1h-2.57a.12.12 0 0 0-.12.12v.66a.13.13 0 0 0 .12.13h2c-.22.35-.46.7-.72 1h-2.79a.12.12 0 0 0-.12.12v.66a.12.12 0 0 0 .12.12h2a7 7 0 0 1-2 1.52.16.16 0 0 0-.1.24l.15.35a.16.16 0 0 0 .23.08 7 7 0 0 0 1.34-.66 17.89 17.89 0 0 1 2.45.89.09.09 0 0 0 .13 0l.35-.75a.09.09 0 0 0 0-.14 14.64 14.64 0 0 0-2-.6 10.48 10.48 0 0 0 1-.91h4.81a9.18 9.18 0 0 0 1 .86 7.7 7.7 0 0 1-2 .53c-.07 0-.09.05-.07.13.1.3.13.53.23.82 0 .1.08.1.15.08a9.83 9.83 0 0 0 2.47-1 8.88 8.88 0 0 0 1.65.81.16.16 0 0 0 .23-.08l.15-.35a.16.16 0 0 0-.1-.24 8.56 8.56 0 0 1-2.25-1.52h2.25a.12.12 0 0 0 .12-.12v-.72a.12.12 0 0 0-.28-.13zm-7.21 4.47c0-.27 0-.23-.1-.5a.08.08 0 0 0-.12-.06 18.52 18.52 0 0 1-3.77 1.32.1.1 0 0 0-.07.15c.11.23.29.64.37.81a.16.16 0 0 0 .21.07 21.2 21.2 0 0 0 3.43-1.62c.06-.06.06-.12.05-.18zm6.35.81a18.54 18.54 0 0 0-3.55-1.23h-.12l-.23.49a.1.1 0 0 0 0 .14 25.78 25.78 0 0 1 3.12 1.49.24.24 0 0 0 .31-.06l.47-.7a.12.12 0 0 0 0-.14zm30.93-5.12h-2v-1.16h1.11a.12.12 0 0 0 .13-.12v-.64a.13.13 0 0 0-.13-.12H160.6a.12.12 0 0 0-.12.12v.64a.12.12 0 0 0 .12.12h1.11v1.16h-2a.12.12 0 0 0-.12.12v.63a.12.12 0 0 0 .12.13h2v1.15h-1.11a.12.12 0 0 0-.12.12v.64a.12.12 0 0 0 .12.12h4.4v1.15h-5.34a.12.12 0 0 0-.12.12v.64a.12.12 0 0 0 .12.12H165v.81a.67.67 0 0 0 .68.67h.62a.15.15 0 0 0 .15-.15v-1.32h5.34a.13.13 0 0 0 .13-.12v-.64a.12.12 0 0 0-.13-.12h-5.34v-1.16h4.43a.13.13 0 0 0 .13-.12v-.64a.12.12 0 0 0-.13-.12h-1.11v-1.15h2a.13.13 0 0 0 .13-.13v-.63a.12.12 0 0 0-.09-.12zm-6.78 2h-1.87v-1.12H165zm0-2h-1.87v-1.16H165zm3.32 2h-1.87v-1.12h1.87zm0-2h-1.87v-1.16h1.87z"/><path class="cls-5" d="M255.9 477.76h-94.47s-7-116.34-7-219.75 34.88-181.09 34.88-181.09h66.59z"/><g class="cls-12"><path class="cls-5" d="M255.9 151.17a645.49 645.49 0 0 0-100.26 73.54 471.73 471.73 0 0 0-1.19 33.29c0 45.18 1.33 92.83 2.83 132.17a661.09 661.09 0 0 1 92-112.55q3.29-3.26 6.62-6.45z"/><path class="cls-13" d="M155.64 224.71a645.49 645.49 0 0 1 100.26-73.54V76.92h-66.59s-27.57 61.45-33.67 147.79z"/></g><path class="cls-4" d="M255.9 479h-94.47a1.25 1.25 0 0 1-1.25-1.17c-.07-1.16-7-117.56-7-219.83 0-102.49 34.62-180.82 35-181.6a1.25 1.25 0 0 1 1.14-.74h66.58a1.25 1.25 0 0 1 1.25 1.25v400.85a1.25 1.25 0 0 1-1.25 1.24zm-93.29-2.5h92V78.17h-64.48c-3.51 8.2-34.43 83.21-34.43 179.83s6.18 206 6.91 218.51z"/><path class="cls-1" d="M255.9 477.76h-94.47s-7-116.34-7-219.75 34.88-181.09 34.88-181.09h66.59z"/><path class="cls-14" d="M212.5 76.92H39.59S1.25 154.77 1.25 258.18v219.75h176.39V258.18c0-103.41 34.86-181.26 34.86-181.26z"/><path class="cls-15" d="M4.07 209.45H180.2c8-78.23 32.35-132.53 32.35-132.53H39.65s-26.8 54.3-35.58 132.53z"/><path class="cls-7" d="M17.73 264c0-55.54 14.16-116.57 33.48-170.8l96 35c-9.04 35.1-19.31 82.3-19.31 135.8z"/><path class="cls-4" d="M127.9 265.26H17.73a1.25 1.25 0 0 1-1.25-1.26c0-63.66 18.25-128.25 33.55-171.22a1.25 1.25 0 0 1 1.61-.78l96 35a1.25 1.25 0 0 1 .78 1.49c-9 34.75-19.3 81.54-19.3 135.46a1.25 1.25 0 0 1-1.22 1.31zM19 262.76h107.65c.16-53.11 10.21-99.23 19.09-133.73L52 94.81c-15.08 42.5-32.78 105.63-33 167.95z"/><path class="cls-16" d="M37.15 240.38c3.28-44.13 13.92-93.41 23-122.14h120.56c-10.31 35-19.54 68.42-22.65 122.14z"/><path class="cls-7" d="M36.59 240.38l-18.85 22.67v1h139.7c0-6.08.15-17.72.4-23.63z"/><path class="cls-4" d="M157.44 265.26H17.73a1.25 1.25 0 0 1-1.25-1.26v-1a1.25 1.25 0 0 1 .29-.8l18.85-22.67a1.25 1.25 0 0 1 1-.45h121.22a1.25 1.25 0 0 1 1.25 1.3c-.25 6-.4 17.77-.4 23.57a1.25 1.25 0 0 1-1.25 1.31zm-137.83-2.5h136.58c0-5.69.14-15.25.35-21.13H37.18z"/><path class="cls-7" d="M51.21 93.21h136.64c-1.63 6.28-2.58 8.19-7.14 25H61.05s-6.72-7.21-9.84-25z"/><path class="cls-4" d="M180.71 119.48H61.05a1.25 1.25 0 0 1-.91-.4c-.29-.3-7-7.67-10.16-25.67A1.25 1.25 0 0 1 51.21 92h136.64a1.25 1.25 0 0 1 1.21 1.56c-.69 2.66-1.25 4.51-2 7.08-1 3.47-2.48 8.21-5.12 18a1.25 1.25 0 0 1-1.23.84zM61.63 117h118.12c2.49-9.17 3.88-13.74 4.89-17.11.6-2 1.08-3.56 1.58-5.42H52.71c2.68 13.93 7.6 20.86 8.92 22.53z"/><path class="cls-7" transform="rotate(-180 88.785 306.36)" d="M18.73 275.52h140.1v61.68H18.73z"/><path class="cls-4" d="M158.84 338.45H18.73a1.25 1.25 0 0 1-1.25-1.25v-61.68a1.25 1.25 0 0 1 1.25-1.25h140.1a1.25 1.25 0 0 1 1.25 1.25v61.68a1.25 1.25 0 0 1-1.24 1.25zM20 336h137.6v-59.23H20z"/><path class="cls-4" d="M61.93 305H29a1.25 1.25 0 0 1-1.25-1.25v-18.16a1.25 1.25 0 0 1 1.25-1.25h32.93a1.25 1.25 0 0 1 1.25 1.25v18.13a1.25 1.25 0 0 1-1.25 1.28zm-31.66-2.5h30.41v-15.66H30.27zM147.8 305H70.56a1.25 1.25 0 0 1-1.25-1.25v-18.16a1.25 1.25 0 0 1 1.25-1.25h77.24a1.25 1.25 0 0 1 1.25 1.25v18.13a1.25 1.25 0 0 1-1.25 1.28zm-76-2.5h74.74v-15.66H71.81z"/><path class="cls-4" d="M56.88 298.55H34.07a1.25 1.25 0 0 1-1.25-1.25V292a1.25 1.25 0 0 1 1.25-1.25h22.81a1.25 1.25 0 0 1 1.25 1.25v5.28a1.25 1.25 0 0 1-1.25 1.27zM35.32 296h20.31v-2.78H35.32zm112.43 32.38H29a1.25 1.25 0 0 1-1.25-1.25v-16A1.25 1.25 0 0 1 29 309.9h118.75a1.25 1.25 0 0 1 1.25 1.25v16a1.25 1.25 0 0 1-1.25 1.23zm-117.48-2.5H146.5V312.4H30.27z"/><path class="cls-4" d="M138.35 323H38.42a1.25 1.25 0 0 1-1.25-1.25v-5.25a1.25 1.25 0 0 1 1.25-1.25h99.93a1.25 1.25 0 0 1 1.25 1.25v5.28a1.25 1.25 0 0 1-1.25 1.22zm-98.68-2.5h97.43v-2.78H39.67zm97.9-60.89H35.41a1.25 1.25 0 0 1-.95-2.07l11.32-13.16a1.25 1.25 0 0 1 .95-.43h102a1.25 1.25 0 0 1 1 2.06l-11.16 13.16a1.25 1.25 0 0 1-1 .44zm-99.44-2.5H137l9-10.66H47.3z"/><path class="cls-17" d="M60.14 118.23c-3.63 11.5-7.51 26.29-11.07 42.72l56.67-42.72zm.99 122.15h42.67l59-44.44c2.17-13.78 4.81-26.18 7.64-37.92z"/><path class="cls-4" d="M158.05 241.63H37.15a1.25 1.25 0 0 1-1.25-1.34c3.32-44.66 14-93.67 23-122.43a1.25 1.25 0 0 1 1.19-.87h120.62a1.25 1.25 0 0 1 1.19 1.62c-9.69 31.47-19.42 66.8-22.6 121.85a1.25 1.25 0 0 1-1.25 1.17zm-119.55-2.5h118.37c3.22-53.71 12.64-88.66 22.14-119.64h-118c-8.84 28.43-19.13 75.99-22.51 119.64z"/><path class="cls-4" d="M177.64 479.18H1.25A1.25 1.25 0 0 1 0 477.93V258.18c0-102.52 38.09-181 38.47-181.81a1.25 1.25 0 0 1 1.12-.7H212.5a1.25 1.25 0 0 1 1.14 1.76c-.35.78-34.75 78.81-34.75 180.75v219.75a1.25 1.25 0 0 1-1.25 1.25zM2.5 476.68h173.89v-218.5c0-94 29.12-167.83 34.21-180H40.38c-3.76 8-37.88 83.23-37.88 180z"/></g></g></g></svg>