<svg xmlns="http://www.w3.org/2000/svg" viewBox="0 0 764.75 235.68"><defs><style>.cls-1{fill:#131f54}.cls-2{fill:#182987}.cls-3{fill:#fff}.cls-4{fill:#e73828}.cls-5{fill:#fff000}</style></defs><title>site-title</title><g id="圖層_2" data-name="圖層 2"><g id="圖層_1-2" data-name="圖層 1"><path class="cls-1" d="M764.75 0l-1 80.34-653.07 155.34 1.01-80.34L764.75 0z"/><path class="cls-2" d="M763.75 80.34L0 147.16l20.41-40.7L1 66.82 764.75 0l-1 80.34z"/><path class="cls-3" d="M53 79l44.12-3.86.14 42.86c0 3.24-1.58 5-4.62 5.27l-39.48 3.45v-3.14zm35.38 38.29a1.13 1.13 0 0 0 1.14-1.29l-.12-33.87-28.67 2.5.12 35.08zM75.27 84.53l7-.61.25 1.6 1.79-.16-.39-1.79 3-.26.39 1.79 1.11-.1v5.53l-5.16.47 1.53 9.81.79-8.64 3-.26-1 12.77a4.2 4.2 0 0 1-1.66 3.32v.25c.1.85.49 1.28 1.16 1.22l1.35-.12v6.29l-4.63.41c-2.8.24-4.4-1-4.6-3.81l-.49-3.3-1.3.11-1-5.79 1.5-.13-1.65-11.54-14.1 1.24V87.3l13.32-1.16zm.73 26.71v5.53L62.25 118v-5.53zM62.22 94.85l13.32-1.16v11c0 3.19-1.53 5-4.57 5.22l-8.74.76v-2.74zm7 9.68c.77-.07 1.16-.51 1.15-1.37v-3.54l-2.9.25v4.82zM120 93.4l-2.49 4.78a6.1 6.1 0 0 1-4.63 2.69l-9.12.8-1.17-4.21 6.52-.57a2.1 2.1 0 0 0 1.73-1.47l.62-1.27-8.16.71v-5.27l10.86-.95 1.06-2.07-11.39 1v-4.26l13.66-1.19 1.2-2.44L103.41 81v-4.92l17.81-1.56 1.25-2.44 9.41-.82-1.39 2.45L148 72.19v4.92l-20.27 1.77-1.34 2.45 21.48-1.88v4.26l-10.81.95 1.12 1.88 10-.88v5.27l-6.9.6.73 1.15q.66 1.46 1.89 1.36l4.87-.43v4.31l-8 .7a6 6 0 0 1-6.09-3l-2.33-3.35zm-2.4 18.52l-2.3 5.27c-1.2 2.84-3 4.32-5.44 4.53l-5.89.51-1.13-5.78 3.48-.3a2.55 2.55 0 0 0 2.17-1.86l.67-1.63zm-4.6-8.22a2 2 0 0 0 1.94 1l3.09-.27v5.48l-5.26.46a6.69 6.69 0 0 1-6.53-2.78l-2.43-4.15 8.45-.74zm17-7.52l.07 19a5.2 5.2 0 0 1-1.15 3.3 4.74 4.74 0 0 1-3.32 1.86l-6.18.54-.94-5.8 2.12-.19a1.55 1.55 0 0 0 1.25-.62 2.66 2.66 0 0 0 .33-1.2l-.06-16.22zm-2.16-10.71l-3.84.33-1.06 2.07 6.13-.54zM148 99.57l-1.92 3.82c-1.1 2.83-2.88 4.31-5.3 4.52l-6.71.59-1.13-5.38 4.15-.36a2.5 2.5 0 0 0 2.07-1.9l.19-.52zm-3.53 12.33a2.15 2.15 0 0 0 2 1.14l2.46-.22v5.48l-5.16.45a6.52 6.52 0 0 1-6.48-2.93l-3.06-5.36 9-.79zm11.39-30.25l-2.32.2v-6.69l2.32-.2v-5.58l7.87-.69v5.58l7.58-.66v-5.58l7.87-.69v5.58l8.93-.78v-5.58l7.87-.69v5.58l3.38-.3v6.69l-3.38.3.02 19.11q0 4.87-4.62 5.27l-20 1.75-.08-24-7.58.66.1 29.35 35.62-3.11v6.69L156 117.69v-3.35zm29.65 14.7a2.68 2.68 0 0 0 2.65-3l-.05-14.5-8.93.78.06 17.29zm63.41-24.56v5.88l-3.57.31v4.21l4.68-.41v5.88l-4.68.41v4.06l3.57-.31v5.88l-17.71 1.55V102l16.22-1.42v5.93L231.32 108v3.14l-7.92.69v-3.14l-16.07 1.4v-5.93l16.07-1.4v-2.83l-18 1.57v-5.88l3.81-.33v-4.06l-4.92.43v-5.88l4.92-.43v-4.21l-3.81.33v-5.88l5.55-.49v-2.42l-6.66.58v-5.88l6.66-.58v-2.44l7.87-.69v2.43l16.46-1.44v-2.42l7.87-.69V64l7-.61v5.88l-7 .61v2.42zm-32.22 8.7v4.21l6.61-.58v-4.21zm0 10.09v4.06l6.61-.58V90zm18.47-20L218.74 72v2.43L235.21 73zm-4 8.66v4.21l6.61-.58v-4.23zm0 10.09v4.06l6.61-.58v-4.08zM297 104.79l-9.42.82-3.78-9.91-17.14 1.5-3.5 10.54-9.19.8L270.48 62l9.16-.8zm-16-16.43l-6-16.2-5.73 17.22zm25.77 15.57l-.13-37.43-12.73 1.11v-7.62L328 57v7.62l-12.7 1.11.13 37.43zm26.83-2.34l-.16-45 13-1.13 7.89 30 7.59-31.4 13-1.14L375 98l-8 .7-.12-35.46-8.39 36.21-8.34.73-8.61-34.72.12 35.46zm149.83-19.42v6.69l-45.23 4v-6.69l18.68-1.63v-7.55l-17.38 1.52v-6.69l17.38-1.52v-6.39l-18 1.57v-5.93h-.15l-1.13-5 5.36-.47a2.06 2.06 0 0 0 1.83-1.22L446 51l-4.92.43v-6.29l33.31-2.91 4.9 7.13c.49 1 1 1.43 1.65 1.38l2.8-.24v5.93l-1.3.11v5.12l-17.71 1.55v6.39l17.14-1.5v6.69l-17.14 1.5v7.55zm-10.09-26.45l-.87-1.24-4.22-5.48L455 50.17l-3.89 5.92a7.32 7.32 0 0 1-1.73 1.72zm16.3-8.58l-1.45.13v-6.29l19.21-1.68v6.29l-1.5.13.1 41.37-7.1.62V84l-10.62.93v-6.69l1.45-.13zm9.19 5.38v-6.19l-2.61.23v6.19zm0 12.47V58.8l-2.61.23v6.19zm0 12.27v-6l-2.61.23v6zm12.51-26.1l-3.77.33v-5.88l4.9-7.43 7.48-.65-4.78 7.47 4.3-.38v5.22l-4.08 7 .72-.06a1.17 1.17 0 0 0 1.2-1.32v-1l2.56-.22v3.3c0 3.19-1.53 5-4.57 5.22l-7.87.69v-5.32zM507.71 66l3.38-.3v8.16l1.54-.14v-9l7.48-.65.06 17.9a4.41 4.41 0 0 1-1 2.67 3.81 3.81 0 0 1-2.75 1.56l-8.21.72-.58-3.92 3.76-.33a1.47 1.47 0 0 0 1-.49 1.73 1.73 0 0 0 .29-1v-.86l-4.92.43v-3.29zm17.71-16l-4.15.36v-5.88l4.64-7.48 7.53-.66-4.71 7.41 4.68-.41v5.22l-4.08 7 .92-.08a1.17 1.17 0 0 0 1.2-1.32V53l2.56-.22v3.5c0 3.19-1.53 5-4.57 5.22l-8 .7v-5.32zm3.65 35.13l-7.48.65-.08-21.8 7.48-.65v9.38h.48a1.28 1.28 0 0 0 1-.49 1.68 1.68 0 0 0 .29-.94v-7.25l3.33-.29V75.5a4.06 4.06 0 0 1-.81 2.35 3.41 3.41 0 0 1-2.46 1.43l-1.79.16zm14.39-31.23l.08 22.51a4.06 4.06 0 0 1-.86 2.36 3.37 3.37 0 0 1-2.46 1.38h-.43l-1.09-6.6h.19a1.32 1.32 0 0 0 1-.49 1.93 1.93 0 0 0 .24-.93l-.06-17.95zm-4.35-1.8v-6.69l19.21-1.68v6.69l-5.26.46.11 32.12-7.87.69-.11-32.09zm18.24-17.16v6.29L540 42.74v-6.29zm.65 17.69l.09 25.55-3.38.3-.09-25.55zm26.87-20.1v5.88l-25.24 2.21v-5.88zm-25.13 25.73l24.81-2.17.07 19.27c0 3.24-1.53 5-4.57 5.27l-20.22 1.77v-2.8zm.48-15.66l23.94-2.09v9.18c0 3.19-1.58 5-4.62 5.22l-19.31 1.69v-2.75zm8.05 24V63l-2.12.19v3.6zm-2.1 6.07v3.65l2.12-.19v-3.61zm8.95-22.89c.82-.07 1.16-.51 1.15-1.37v-1.74l-8.11.71v3zm3.15 16v-3.6l-2.12.19V66zm-2.1 6.07v3.65l.92-.08a1.19 1.19 0 0 0 1.2-1.37v-2.4zm21.36-21.26l.08 22.66a5.12 5.12 0 0 1-1 2.93 4.3 4.3 0 0 1-3 1.69l-3.09.27-1.09-6.6 1.11-.1a1.59 1.59 0 0 0 1.16-.56 1.81 1.81 0 0 0 .33-1.14l-.06-18.66zm-7.34-1.54v-6.69l9.07-.79v-3.24l-8.35.73-.94-6.21 16.46-1.44a1.65 1.65 0 0 0 1.3-.62 2.09 2.09 0 0 0 .38-1.3v.15l7.87-.69v3a5.83 5.83 0 0 1-1.2 3.35 4.62 4.62 0 0 1-3.47 1.93l-4.2.37v3.24l9.07-.79v6.69l-9.07.79.11 30.67-7.87.69-.11-30.67zm24.67 0l.09 26.52-5.6.49-.09-26.52zm9.4-18.67l.13 37-6 .52-.13-37zm10.18-3.07l.15 43.5a5.88 5.88 0 0 1-1.24 3.46 4.85 4.85 0 0 1-3.52 2l-9 .78-1.08-6.6L625 70a2 2 0 0 0 1.35-.63 2.37 2.37 0 0 0 .35-1.37l-.14-40zm6.96 42.83l-.14-39.39 18.25-1.59v-4l7.92-.69v4l18.1-1.58.12 34.52c0 3.19-1.58 5-4.62 5.27l-13.47 1.18v5.12l-7.92.69v-5.12zm18.13-34.29l-10.38.91.09 26 10.38-.91zm8 25.32l9-.79c.82-.07 1.16-.51 1.15-1.37l-.09-24.74-10.18.89zm34.7-36.77l-1.51 39c-.33 3.58-2.15 5.46-5.53 5.76l-2.75.24-1.13-6.6h.24a1.78 1.78 0 0 0 1.78-1.73l1.42-36zm10.17-3.88l.14 40.61c0 .81.39 1.18 1.21 1.11L726 61.17v6.69l-16.65 1.46q-4.63.41-4.65-4.46l-.15-43.65zm10.58 29c.2.69.78.95 1.64.87h.53v6.69l-3.57.31c-2.51.22-4.16-1-5-3.77l-1.51-30.5 6.76-.59zm12.1 8.12a1.38 1.38 0 0 0 1.64 1h.34v6.69l-4.15.36c-2.41.21-4-1.12-4.75-4l-2.31-39.51 7.48-.65z"/><path class="cls-4" d="M426.14 61.91a17.26 17.26 0 0 0-19.07-17.54A21.31 21.31 0 0 0 388 65.24a18.17 18.17 0 0 0 1.86 8.07c6 13.43 17.24 25.94 17.24 25.94s11.23-14.47 17.24-29a20.31 20.31 0 0 0 1.8-8.34zm-19.07 10.46a7.9 7.9 0 0 1-8.73-8 9.76 9.76 0 0 1 8.73-9.56 7.9 7.9 0 0 1 8.73 8 9.76 9.76 0 0 1-8.73 9.56z"/><path class="cls-2" d="M670.12 186.74l-559.44 48.94 1.01-80.34 559.43-48.95-20.45 44.33 19.45 36.02z"/><path class="cls-3" d="M136.72 214.67v-5.82l6.24-.54v-2.06l-5.45.47v-23.78l5.45-.47v-2.06l-6.05.52v-5.82l6.05-.52v-2.06l7.59-.66v2.06l6-.52v5.82l-6 .52v2.06l5.82-.5v19.28q0 4.5-4.47 4.89l-1.35.12v2.06l5.63-.49V213l-5.63.49v3.28l-7.59.66v-3.28zm6.28-26.76l-1.49.13v3.89l1.49-.13zm0 9.33l-1.49.13v3.56l1.49-.13zm7.59-6.1l1.86-.16v-3.88l-1.86.16zm0 9l.7-.06a1.12 1.12 0 0 0 1.16-1.27v-2.39l-1.86.16zm9.3-20.14l5.77-.5-2.57 6.83 2.74 7.08-5.77.5-2.74-7.08zm21.23-10v6.14l-23.09 2V172zm-14.88 32l-7.49.65v-6.19l22.16-1.92v6.19l-7.08.61v7.18l7.26-.63v6.19l-22.9 2v-6.19l8.05-.7zm1.28-22.67l5.77-.5-2.71 7 3.07 6.86-5.77.5-3.07-6.86zm7.45-.64l5.77-.5-2.74 6.88 3.06 7.05-5.77.5-3.07-7.05zm18.08 21.39v8.86a4.45 4.45 0 0 1-.89 2.47 3.76 3.76 0 0 1-2.65 1.4l-1.16.1-1-6.06a1.39 1.39 0 0 0 1.07-.51 1.66 1.66 0 0 0 .28-1v-4.88zm-4.5-9.08v-4.41l1.44-1.77-2.19.19v-3.28l1.49-.13v-12.38l22.67-2v3l-15.08 1.3v1.5l14-1.21v2.34l-14 1.21V177l14-1.21v2.35l-14 1.21v1.59l15.45-1.34v3.28l-13.4 1.12-1.68 2.54 5.82-.5a1.05 1.05 0 0 0 1.12-1.22v-.19l7.26-.63v1.74a3.14 3.14 0 0 1-3.21 3.51l-11 1zm-.57 7.74v-5.11l6.38-.55v-1.31l7.63-.66v1.31l6.33-.55v5.11l-6.33.55v14.77l-7.63.66v-14.82zm19.64.13v12.1l-4.33.37V199.2zm9.27-3.57l-1.26 4c-.7 1.84-2.19 2.91-4.61 3.12l-1.54.13-1.11-4.64.65-.06a1.57 1.57 0 0 0 1.44-1.2l.28-.82zm-6.21 16.29v-4.74l5.78-7.3 7.77-.67-5.45 6.57 3.54-.31c1.63-.14 2.23-.52 1.72-1.18l-1-2.07 6.28-.54 1.63 3.61c1.39 3.12 0 4.87-4 5.22l-8.15.7zm.39-17.15v-4.55l18.11-1.57 1.07 4.69c.33.63.74.92 1.21.88h.51v4.74l-2.09.18c-2.23.19-3.86-.51-4.79-2l-.88-3.44zM231.62 165l-2.14 3.37a8.13 8.13 0 0 1-6.24 3.59l-8.84.77-1.07-3.89 6.28-.54a2.77 2.77 0 0 0 2.14-1.12l1.21-1.42zm.18 7.49l-2 3.22a8.11 8.11 0 0 1-6.29 3.55l-9 .78-1.07-3.89 6.47-.56a3 3 0 0 0 2.14-1.08l1-1.26zm-.38 7.91l-2.28 3.6a8.29 8.29 0 0 1-6.29 3.59l-8.29.72-1.07-3.89 5.77-.5a2.91 2.91 0 0 0 2.14-1.12l1.35-1.62z"/><path class="cls-5" d="M252 202.71a6 6 0 0 1-1.36 3.58 5.33 5.33 0 0 1-3.8 2.06l-6 .52-1.23-6.87 1.93-.17a2.29 2.29 0 0 0 1.51-.66 2.4 2.4 0 0 0 .42-1.4v-10.02l-5.16 1.92v-8.13l5.16-2v-11.62l-4.95.43v-6.93l4.95-.43v-4.56l8.49-.73v4.56l3.44-.3v6.93l-3.44.3v9.23l3.23-1.28v8.13l-3.19 1.28zm34.83-43.46v40.61c0 3.36-1.72 5.19-5 5.47l-24.27 2.1v-45.65l10.36-.9v-4.56l8.49-.73v4.56zm-18.91 8.56l-3.49.3v12.12l3.49-.3zm0 19l-3.49.3v12.75l3.49-.3zm8.49-7.66l3.54-.31v-12.07l-3.54.31zm0 19.68l2.24-.19a1.24 1.24 0 0 0 1.3-1.37v-11.46l-3.54.31zM295 184.72v-18.26l-2 .17v-6.93l2-.17V154l8.28-.72v5.56l3.91-.34v-5.56l8.33-.72v5.56l1.72-.15v6.93l-1.72.15v17.47l-5.52 8.53 2.86 4.05a5.15 5.15 0 0 0 3.33.66l1.25-.11v6.93l-5.36.46a6.32 6.32 0 0 1-4.63-1.12l-2.39-3.2-1.82 2.89a6.13 6.13 0 0 1-4 2.55l-5.42.47-1.14-6.83 2.24-.19a5.29 5.29 0 0 0 3.18-1.74l2.29-3.56zm12.19-3.57v-15.74l-3.91.34v15.37l2 3zm27.32 14.58q0 5-5 5.47l-8.49.73-1.09-6.83 4.79-.41a1.24 1.24 0 0 0 1.3-1.37v-13.76l-8.18.71v-6.93l8.18-.71v-6l6.15-8.24-13.54 1.17v-6.93l23-2v7.5l-7.14 10.32v3.46l7.92-.68v6.93l-7.92.68zm17.88-28.05v25.08a4 4 0 0 1-.94 2.44 3.53 3.53 0 0 1-2.66 1.44l-.68.06-1.11-6.77h.42a1.46 1.46 0 0 0 1.09-.51 2.15 2.15 0 0 0 .26-1v-20.36zm-4.48-2.5v-6.51l19.96-1.67v6.51l-5.52.48v34.42l-8.49.73v-34.42zm18.5-16.5v6.09l-17.29 1.5v-6.09zm1 17.7v28.28l-3.59.31v-28.28zm5.29 23.31l-2.6.23v-11.65l26.23-2.27v6.61c0 2.78-1.2 4.51-3.49 5.23l-.52 2.67 5-.43v5.25L369 197.77v-5.25l4.22-.37zm24.39-20.53V174l-27.86 2.41v-4.88zm-.4-21.27v14.59c0 3.36-1.67 5.18-5 5.47l-22.24 1.92v-19.62l6.51-.56V147l6-.52v2.73l2.08-.18v-2.73l6-.52v2.73zM376 154.15l-2.08.18v3l2.08-.18zm0 7.24l-2.08.18V165l2.08-.18zM386.54 184c.88-.08 1.25-.53 1.25-1.42v-1.38l-9.16.79v2.73zm-2.3 7.18l.52-2.56-3.91.34.47 2.48zm-.07-37.77l-2.08.18v3l2.08-.18zm0 7.24l-2.08.18v3.46l2.08-.18zm6-4.77l2.08-.18v-3l-2.08.18zm0 7.71l.83-.07c.89-.08 1.25-.53 1.25-1.42V160l-2.08.18zm56.64 21.16l-5.37 7.37a27.77 27.77 0 0 1-7.57-4.69 21.45 21.45 0 0 1-6 4.27 22.12 22.12 0 0 1-7.51 1.86q-8.65.75-13-3.77a11.66 11.66 0 0 1-3.37-8.42 14.22 14.22 0 0 1 2.66-8.29 24.65 24.65 0 0 1 7.93-6.9 22.43 22.43 0 0 1-3.56-5.08 10.78 10.78 0 0 1-1.19-4.75 10.08 10.08 0 0 1 3.37-7.46q3.37-3.23 9.58-3.77 6-.52 9.37 2.27a9 9 0 0 1 3.37 7.25 10.33 10.33 0 0 1-1.68 5.52q-1.68 2.69-6.76 6.34l6.43 8a23.94 23.94 0 0 0 2-5.48l8 1.15a54.06 54.06 0 0 1-2.09 6.46 18.84 18.84 0 0 1-1.9 3.49 31.91 31.91 0 0 0 3.83 2.74 25.79 25.79 0 0 0 3.46 1.89zm-27.6-13.26a13.67 13.67 0 0 0-4.58 4.15 8.42 8.42 0 0 0-1.52 4.62 5.78 5.78 0 0 0 1.87 4.56 6.42 6.42 0 0 0 5 1.39 10.68 10.68 0 0 0 4-1.17 19.74 19.74 0 0 0 4.2-3.1zm3.48-10l2.4-2.05q2.65-2.3 2.66-4.33a3.54 3.54 0 0 0-1.28-2.82 4.49 4.49 0 0 0-3.45-.91 5.23 5.23 0 0 0-3.32 1.35 3.54 3.54 0 0 0-1.2 2.57q0 1.65 2 3.83zm50.84 20.37l-1.83 3.25a9 9 0 0 1-7.09 4.39l-11.46 1-1.25-4.35 7.5-.65a3.36 3.36 0 0 0 2.6-1.43l.68-1.26-9 .77v-26l46.55-4v21c0 3.31-1.67 5.13-5 5.42l-4.27.37.83 1.29a2.93 2.93 0 0 0 2.39.63l7.45-.64v4.46l-13.64 1.18c-2.34.2-4.06-.33-5.1-1.6l-2.29-4.42zm-20.32-40.79l47.79-4.13v9.23c0 3.36-1.72 5.19-5 5.47l-42.75 3.7v-14.27zm13 3.91l-4.95.43v4.14l4.95-.43zm25.6 16.83v-2.41l-29.56 2.6v2.41zm0 6.56v-2.1l-29.58 2.56v2.1zm-29.58 7v2.41l28.28-2.45a1.26 1.26 0 0 0 1.3-1.42v-1.1zm17.37-31.57l-5.31.46v4.14l5.31-.46zm8.12 3.44l3.85-.33a1.2 1.2 0 0 0 1.25-1.37v-2.89l-5.1.44zm58.34-2.03a1.2 1.2 0 0 0 1.25-1.37v-.63l-5.88.51v-1.94l-19 1.64v1.73l-8.49.73v-1.73l-7 .6V138l7-.6V135l8.49-.73v2.41l19-1.64v-2.41l8.49-.73v2.41l6.72-.58v6.72l-6.72.58v1.73l5.52-.48v3.57c0 3.36-1.72 5.19-5 5.47l-30 2.6-1.83 6.24a5.44 5.44 0 0 1-5.05 3.59l-5.42.47-1.09-6 1.82-.16c.83-.07 1.3-.37 1.46-.86l3-9.18zM507 174.56v-6.93l20.52-1.78V164l8.7-.75v1.89l20.41-1.77v6.93l-20.44 1.7v11.28l-8.7.75v-11.25zm13.85.85l-2.19 5.65c-.68 2.47-2.4 3.78-5.11 4l-5.31.46-1.19-6 2.24-.19a2 2 0 0 0 2-1.43l.68-1.74zm15-19.24a3.37 3.37 0 0 0 2.29.38l1.46-.13v4.88l-6.2.54c-2.39.21-4.16-.27-5.26-1.33l-2.23-5.42 8.7-.75zm16.46-1.42a3.57 3.57 0 0 0 2.29.38l1.67-.14v4.88l-6.41.55c-2.4.21-4.17-.27-5.21-1.33l-2-5.44 8.7-.75zm.24 19.6a1.33 1.33 0 0 0 1.61 1.12l2.29-.2v6.09l-7 .61c-2.34.2-4-1.18-4.63-4.27l-1.4-4.23 8.7-.75zm56.52-28.88v-4.14l2.24-.19v-6.87l-1.62.14c-.68.06-1.09-.12-1.3-.52l-4.06-5.53v-.05l-36 3.12-3.18 5.73a1.7 1.7 0 0 1-1.56 1.24l-2.08.18v6.87l2.24-.19v4.14l18.54-1.6v3.94l-18.54 1.6v6.51l18.54-1.6v14.15l-20.36 1.76v6.93l49-4.24v-6.93l-5.65.49a8.93 8.93 0 0 1-4.49 1.72 7.77 7.77 0 0 1-4.49-.94l-5.47.47V157.5l5.45-.47a8.93 8.93 0 0 1 4.51-1.73 7.77 7.77 0 0 1 4.51.95l3.81-.33v-6.51L590.79 151v-3.94zm-37-3.72l.42-.88 1.36-3.06 25.31-2.19 1.77 2.94.31.66z"/><path class="cls-5" d="M571 170.64l8.33-.72v-5.67l-3.44.3c-1 .09-1.67-.22-1.93-.88l-.93-2.17-8.9.77 1.66 5.31c.66 2.3 2.38 3.31 5.21 3.06zm29.75-13.79a7.62 7.62 0 0 0-6.82 7.46 6.17 6.17 0 0 0 6.81 6.28 7.62 7.62 0 0 0 6.82-7.46 6.17 6.17 0 0 0-6.81-6.28zm2.65 9.36a2.73 2.73 0 0 1-1.05 1 3.53 3.53 0 0 1-1 .33v.55a.73.73 0 0 1-.66.72.59.59 0 0 1-.66-.6v-.53a3 3 0 0 1-1.18-.28 2.22 2.22 0 0 1-.85-.76 1.81 1.81 0 0 1-.33-1 .86.86 0 0 1 .23-.59.85.85 0 0 1 .58-.29.65.65 0 0 1 .49.15 1.17 1.17 0 0 1 .31.47 2.51 2.51 0 0 0 .28.52.94.94 0 0 0 .39.3 1.46 1.46 0 0 0 .69.07 1.7 1.7 0 0 0 1-.36.85.85 0 0 0 .35-.67.6.6 0 0 0-.17-.46 1.13 1.13 0 0 0-.51-.26 9.18 9.18 0 0 0-.91-.17 6.48 6.48 0 0 1-1.33-.32 2 2 0 0 1-.89-.64 1.78 1.78 0 0 1-.34-1.12 2.13 2.13 0 0 1 .35-1.18 2.5 2.5 0 0 1 1-.86 3.6 3.6 0 0 1 .87-.28v-.54a.73.73 0 0 1 .66-.72.59.59 0 0 1 .66.6v.54a2.78 2.78 0 0 1 .53.08 2.33 2.33 0 0 1 .85.4 1.77 1.77 0 0 1 .51.58 1.41 1.41 0 0 1 .16.64.93.93 0 0 1-.22.59.81.81 0 0 1-.58.31.63.63 0 0 1-.49-.13 1.63 1.63 0 0 1-.31-.43 1.53 1.53 0 0 0-.43-.56 1.18 1.18 0 0 0-.79-.13 1.49 1.49 0 0 0-.82.29.64.64 0 0 0-.28.5.42.42 0 0 0 .09.28.75.75 0 0 0 .28.21 1.94 1.94 0 0 0 .39.13l.69.13a10.68 10.68 0 0 1 1.12.22 3.19 3.19 0 0 1 .88.37 1.66 1.66 0 0 1 .59.63 2.06 2.06 0 0 1 .21 1 2.47 2.47 0 0 1-.37 1.26z"/></g></g></svg>