<svg id="圖層_1" xmlns="http://www.w3.org/2000/svg" viewBox="0 0 623.1 247.5"><style>.st0{fill:#fff;stroke:#182987;stroke-linecap:round;stroke-linejoin:round}.st0,.st1{stroke-width:2.14}.st1,.st2,.st3{stroke:#182987;stroke-linecap:round;stroke-linejoin:round}.st1{fill:#00a63c}.st2,.st3{fill:#fff;stroke-width:2.21}.st3{fill:#fff000}.st10,.st11,.st12,.st13,.st14,.st4{stroke-linecap:round;stroke-linejoin:round}.st4{fill:#00a63c;stroke:#1a2d78}.st4,.st5{stroke-width:2.3}.st5,.st6,.st7,.st8,.st9{stroke-linecap:round;stroke-linejoin:round}.st5{fill:#fff}.st5,.st6,.st7,.st8,.st9{stroke:#182987}.st6,.st7{fill:#ee8999;stroke-width:2.29}.st7{fill:#fff}.st8,.st9{fill:#fff;stroke-width:2.17}.st9{fill:#fff000}.st10,.st11{fill:#85abda;stroke:#1a2d78;stroke-width:2.24}.st11{fill:#fff;stroke:#182987}.st12,.st13,.st14{stroke:#182987;fill:#ee8999;stroke-width:2.22}.st13,.st14{fill:#fff}.st14{opacity:.3;enable-background:new}</style><title>gifts</title><g id="_群組_3"><path id="_路徑_11" class="st0" d="M47.3 136.9v81.5l43.2-4.1v-73.6z"/><path id="_路徑_12" class="st0" d="M47.8 136.9v81.5l-43.3-4.1v-73.6z"/><path id="_路徑_13" class="st1" d="M48.1 141.6l24.1-10.2c6.4-2.7 13.8-8.2-6.1-24.5-4.7-3.9-18 34.7-18 34.7z"/><path id="_路徑_14" class="st1" d="M48.1 141.6s6.4-35.6 16.4-35.3-16.4 35.3-16.4 35.3z"/><path id="_路徑_15" class="st1" d="M51.1 141.6l-22.3-13.1C22.9 125 16 118 34.4 97.2c4.4-4.9 16.7 44.4 16.7 44.4z"/><path id="_路徑_16" class="st1" d="M51.1 141.6s-5.9-45.5-15.2-45 15.2 45 15.2 45z"/><path id="_路徑_17" class="st0" d="M47.3 136.9v21.5l46.7 1.9V141z"/><path id="_路徑_18" class="st0" d="M47.8 136.9v21.5l-46.7 1.9V141z"/><path id="_路徑_19" class="st1" d="M29 138.6v78l-13-1.2v-75.7z"/><path id="_路徑_20" class="st1" d="M66.1 138.6v78l13-1.2v-75.7z"/></g><g id="_群組_6"><path id="_路徑_33" class="st2" d="M573.6 150.1v84.3l44.8-4.3V154z"/><path id="_路徑_34" class="st2" d="M574.2 150.1v84.3l-44.8-4.3V154z"/><path id="_路徑_35" class="st3" d="M574.5 154.9l24.9-10.6c6.6-2.8 14.3-8.6-6.3-25.4-4.9-4-18.6 36-18.6 36z"/><path id="_路徑_36" class="st3" d="M574.5 154.9s6.6-36.8 17-36.5-17 36.5-17 36.5z"/><path id="_路徑_37" class="st3" d="M577.5 154.9l-23.1-13.5c-6.1-3.6-13.2-10.9 5.8-32.4 4.7-5.2 17.3 45.9 17.3 45.9z"/><path id="_路徑_38" class="st3" d="M577.5 154.9s-6.1-47.1-15.7-46.6 15.7 46.6 15.7 46.6z"/><path id="_路徑_39" class="st2" d="M573.6 150.1v22.2l48.4 2v-20z"/><path id="_路徑_40" class="st2" d="M574.2 150.1v22.2l-48.4 2v-20z"/><path id="_路徑_41" class="st3" d="M554.7 151.8v80.8l-13.5-1.3V153z"/><path id="_路徑_42" class="st3" d="M593.1 151.8v80.8l13.5-1.3V153z"/></g><g id="_群組_4"><g id="_群組_5"><path id="_路徑_21" class="st4" d="M542.1 154.2s-9.9 25.3-30.4 21.3c-1.5-.3 7.2-.4 14.1-6.9 7.1-6.8 11.3-18.3 11.3-18.3l5 3.9z"/><path id="_路徑_22" class="st4" d="M477.6 163.5s16.5 21.5 35.1 12c1.3-.7-7 1.6-15.5-2.7-8.7-4.5-16-14.4-16-14.4l-3.6 5.1z"/><path id="_路徑_23" class="st4" d="M511.8 175.5s.2-12 6.1-19.4 12.3-10.5 13.2-10 9.8 6.5 11.1 8.1-19.2 5.4-30.4 21.3z"/><path id="_路徑_24" class="st4" d="M512.7 175.6s-3.5-11.5-11.2-17-14.7-6.7-15.5-5.9-7.6 9-8.4 10.9 19.8-.2 35.1 12z"/><path id="_路徑_25" class="st5" d="M513.4 173.2c-.9 0-1.8 0-2.7.1-.6.1-.3 1.3-.3 1.3.2.6.5 1.2 1 1.6.5.3 1.2.3 1.6-.1.5-.5.8-1 .9-1.7-.1.1.1-1.2-.5-1.2z"/><path id="_路徑_26" class="st5" d="M512.6 173.5c-.6 0-1.2 0-1.8.1-.4.1-.2.9-.2.9.1.4.3.7.7 1 .3.2.7.2 1.1 0 .3-.3.5-.7.6-1.1-.1-.1 0-.9-.4-.9z"/></g><path id="_路徑_27" class="st5" d="M435.6 179.7l5.6 58.2 86.3 8.5v-60.8z"/><path id="_路徑_28" class="st5" d="M527.5 185.6v60.8l31.1-8.5 6.7-57.2z"/><path id="_路徑_29" class="st5" d="M527.5 186.9v-14.6l-95.9 5.2 2.3 13.1z"/><path id="_路徑_30" class="st5" d="M527.5 172.3v14.6l39.8 3.7 1.7-13.1z"/><path id="_路徑_31" class="st4" d="M471.2 175.4l15.4-.8 5.8 68.3-15.2-1.5z"/><path id="_路徑_32" class="st4" d="M544.8 174.6l-4.6 68.3 9-2.5 6.3-64.6z"/></g><g id="_群組_"><g id="_群組_2"><path id="_路徑_" class="st6" d="M128.2 49.3l32.4-10.9c8.6-2.9 18.6-8.8-8.2-26.2-6.4-4.2-24.2 37.1-24.2 37.1z"/><path id="_路徑_2" class="st6" d="M128.2 49.3s8.6-38.1 22.1-37.7-22.1 37.7-22.1 37.7z"/><path id="_路徑_3" class="st6" d="M132.2 49.3l-30-14C94.3 31.6 85 24 109.8 1.8c5.9-5.2 22.4 47.5 22.4 47.5z"/><path id="_路徑_4" class="st6" d="M132.2 49.3s-8-48.6-20.5-48.2 20.5 48.2 20.5 48.2z"/></g><path id="_路徑_5" class="st7" d="M130.1 41.6v176.7l44.1-5.8V47z"/><path id="_路徑_6" class="st7" d="M130.7 41.6v176.7l-44.1-5.8V47z"/><path id="_路徑_7" class="st7" d="M130.1 41.6V72l47.7 2.7V47.4z"/><path id="_路徑_8" class="st7" d="M130.7 41.6V72L83 74.7V47.4z"/><path id="_路徑_9" class="st6" d="M111.5 43.9v171.9L98.2 214V45.5z"/><path id="_路徑_10" class="st6" d="M149.3 43.9v171.9l13.3-1.8V45.5z"/></g><g id="_群組_10"><path id="_矩形_4" class="st8" d="M56.7 180.1h99.6v44.6H56.7z"/><g id="_群組_11"><path id="_路徑_62" class="st9" d="M108.4 170.4c3.2 1.3 6.7 2.1 10.2 2.3 6.3.3 12.9-.7 12.7-4.5-.1-2.6-15.3-5.4-22.9 2.2z"/><path id="_路徑_63" class="st9" d="M107.7 163.9s14.4-20.6 18.5-13.1 5.1 17.3 5.1 17.3-2.5-3.5-10.2-1-10.7 4.2-14 2.9.6-6.1.6-6.1z"/><path id="_路徑_64" class="st9" d="M102.8 170.4c-3.2 1.3-6.7 2.1-10.2 2.3-6.3.3-12.9-.7-12.7-4.5.1-2.6 15.3-5.4 22.9 2.2z"/><path id="_路徑_65" class="st9" d="M103.5 163.9S89.1 143.3 85 150.8s-5.1 17.3-5.1 17.3 2.5-3.5 10.2-1 10.7 4.2 14 2.9-.6-6.1-.6-6.1z"/></g><path id="_矩形_5" class="st8" d="M53.9 170.2H159v11.4H53.9z"/><path id="_路徑_66" class="st9" d="M110.5 224.6H98.8l2.4-54.4h8.1z"/><path id="_路徑_67" class="st9" d="M156.2 205.5l-99.5 4.8v-13.2h99.5z"/><path id="_路徑_68" class="st9" d="M105 169.8s10.3 20.6 22.3 20.6c2.3 0 4.1-1.9 4.1-4.1-.1-1.5-1.2-2.7-2.6-3.2-3.4-1.1-12.9-3.1-22-13.9-1.1-1.2-1.8.6-1.8.6z"/><path id="_路徑_69" class="st9" d="M105.6 169.3s-5.7 17.4-13.1 17.1c-1.1.2-2.1-.3-2.7-1.3-.8-1.1 0-3.9 2.3-5.5 1.9-1.3 6.2-3 11.8-10.3.7-.8 1.7 0 1.7 0z"/><path id="_路徑_70" class="st9" d="M108.7 164.2c-1.9-.1-3.9-.1-5.8 0-1.3.1-.8 2.7-.8 2.7.3 1.4 1 2.6 2 3.5 1.1.7 2.4.7 3.5 0 1-.9 1.7-2.1 2-3.5-.1 0 .4-2.6-.9-2.7z"/></g><g id="_群組_9"><path id="_路徑_57" class="st10" d="M194.9 145.5c3.7 1.5 7.6 2.4 11.6 2.6 7.2.3 14.7-.8 14.6-5.2-.1-2.8-17.5-6.1-26.2 2.6z"/><path id="_矩形_" class="st11" d="M147.6 159.8h88.2v68.5h-88.2z"/><path id="_路徑_58" class="st10" d="M188.5 145.5c-3.7 1.5-7.6 2.4-11.6 2.6-7.2.3-14.7-.8-14.6-5.2.1-2.8 17.5-6.1 26.2 2.6z"/><path id="_矩形_2" class="st11" d="M145.1 144.5h93.2v17.6h-93.2z"/><path id="_矩形_3" class="st10" d="M184.9 144.5h13.6v83.8h-13.6z"/><path id="_路徑_59" class="st10" d="M194.1 138.1s16.5-23.6 21.2-15 5.8 19.9 5.8 19.9-2.9-4-11.7-1.2-12.3 4.8-16 3.3.7-7 .7-7z"/><path id="_路徑_60" class="st10" d="M189.3 138.1s-16.5-23.6-21.2-15-5.8 19.9-5.8 19.9 2.9-4 11.7-1.2 12.3 4.8 16 3.3-.7-7-.7-7z"/><path id="_路徑_61" class="st10" d="M195.3 138.4c-2.2-.2-4.5-.2-6.7 0-1.5.1-.9 3.1-.9 3.1.3 1.5 1.1 3 2.3 4 1.2.8 2.8.8 4 0 1.2-1 2-2.5 2.3-4-.1 0 .5-2.9-1-3.1z"/></g><g id="_群組_7"><g id="_群組_8"><path id="_路徑_43" class="st12" d="M245.9 182.8l19-8.1c5-2.1 10.9-6.5-4.8-19.3-3.8-3-14.2 27.4-14.2 27.4z"/><path id="_路徑_44" class="st12" d="M245.9 182.8s5-28.1 13-27.8c8 .3-13 27.8-13 27.8z"/><path id="_路徑_45" class="st12" d="M248.2 182.8l-17.6-10.3c-4.7-2.7-10.1-8.3 4.5-24.7 3.4-3.9 13.1 35 13.1 35z"/><path id="_路徑_46" class="st12" d="M248.2 182.8s-4.7-35.9-12-35.6 12 35.6 12 35.6z"/></g><path id="_路徑_47" class="st13" d="M215.4 188.8l4.2 43.1 27.1 3.4V186z"/><path id="_路徑_48" class="st13" d="M246.7 186v49.3l46.9-3.4 4.4-41.6z"/><path id="_路徑_49" class="st13" d="M246.7 188v-9.3l55 4.9-1.5 8.4z"/><path id="_路徑_50" class="st13" d="M246.7 178.7v9.3l-33.2 4-1.1-8.4z"/><path id="_路徑_51" class="st12" d="M270.2 180.8h.7l8.9.8-1.4 51.4-8.8.6z"/><path id="_路徑_52" class="st12" d="M223.3 182.1l8.3-1.3 3 53-7.8-1z"/><path id="_路徑_53" class="st14" d="M250.2 179l2 .3c1.4.2 3.3.4 5.7.7s5.1.6 8.1.9l9.3.9 9.3.8c3 .2 5.7.4 8.1.6s4.4.2 5.8.3h.3l-48.6-4.5z"/><path id="_路徑_54" class="st14" d="M215 183.3l1.2-.1c.8-.1 1.9-.1 3.1-.3s2.8-.3 4.4-.5 3.4-.4 5.1-.7 3.4-.5 5.1-.8 3.1-.6 4.4-.8 2.4-.5 3.1-.6l1.2-.3-27.6 4.1z"/><path id="_路徑_55" class="st12" d="M268.2 196.6c2 0 3.5-1.6 3.5-3.6-.1-1.3-1-2.4-2.2-2.7-2.9-1-10.7-2.6-18.3-11.2l-2.2-.2c.3.5 9 17.7 19.2 17.7z"/><path id="_路徑_56" class="st12" d="M240.4 179.6c-2.4 2.8-5.3 5.1-8.6 6.9-2 1.4-2.6 3.7-2 4.7.5.8 1.4 1.2 2.3 1.1 5.1.2 9.2-9.1 10.6-13l-2.3.3z"/></g></svg>