<svg xmlns="http://www.w3.org/2000/svg" viewBox="0 0 443.75 353.55"><defs><style>.cls-1{fill:#dd3817}.cls-2{fill:#b92825}.cls-3{fill:#da5145}.cls-4{fill:#dce288}.cls-15,.cls-5{fill:#fff}.cls-5{opacity:.5}.cls-10,.cls-6{fill:#221e1f}.cls-6{opacity:.1}.cls-7{fill:#e3be46}.cls-8{fill:#e6c14b}.cls-9{fill:#e2b528}.cls-10{opacity:.2}.cls-11{fill:#f4d2ac}.cls-12{fill:#e8c6a3}.cls-13{fill:#e7ae6f}.cls-14{fill:#faeadc}.cls-16{fill:#2b3864}</style></defs><title>award-5</title><g id="圖層_2" data-name="圖層 2"><g id="圖層_2-2" data-name="圖層 2"><path class="cls-1" d="M381.67 79.83V264.1a14.11 14.11 0 0 1-14.11 14.1H133.77a14.11 14.11 0 0 1-14.11-14.1V79.83a5.61 5.61 0 0 1 5.61-5.62h250.78a5.61 5.61 0 0 1 5.62 5.62z"/><path class="cls-2" d="M367.55 269.88H133.77a14.1 14.1 0 0 1-14.11-14.11v8.32a14.11 14.11 0 0 0 14.11 14.1h233.78a14.11 14.11 0 0 0 14.11-14.1v-8.32a14.1 14.1 0 0 1-14.11 14.11z"/><path class="cls-1" d="M387.4 124.39a2.59 2.59 0 0 1-2.6 2.61H116.52a2.59 2.59 0 0 1-2.59-2.59V79.83a5.74 5.74 0 0 1 5.85-5.61h261.76a5.74 5.74 0 0 1 5.86 5.61z"/><path class="cls-3" d="M387.4 79.83v3.63H113.93v-3.63a5.73 5.73 0 0 1 5.85-5.61h261.77a5.74 5.74 0 0 1 5.85 5.61z"/><path class="cls-4" d="M220.27 42.79h61.08v31.43h-61.08z"/><path class="cls-5" d="M220.27 42.79h61.08v7.71h-61.08z"/><path class="cls-6" d="M220.27 66.51h61.08v7.71h-61.08z"/><path class="cls-7" d="M222.67 74.22h56.44v52.76h-56.44z"/><path class="cls-8" d="M222.67 126.99h56.44V278.2h-56.44z"/><path class="cls-9" transform="rotate(-45 325.092 30.303)" d="M311.35 1.2h27.5v58.2h-27.5z"/><path class="cls-4" d="M355.4 74.22h-74.05l74.05-33.04v33.04z"/><path class="cls-4" d="M281.35 0v74.22L314.39 0h-33.04z"/><path class="cls-9" transform="rotate(-45 176.518 30.294)" d="M147.42 16.55h58.2v27.5h-58.2z"/><path class="cls-4" d="M146.22 74.22h74.05l-74.05-33.04v33.04zM220.27 0v74.22L187.23 0h33.04z"/><path class="cls-10" d="M119.67 126.99h262v11.6h-262z"/><path class="cls-11" d="M443.54 276a8.25 8.25 0 0 1-.51 1.62 7.9 7.9 0 0 1-4.07 4.24L414 293l-.34.15L296.79 347c-9.22 5.36-18.07 8.26-28.74 5.55C100.51 308.09 108.76 310.3 100.36 308H62.21a96.07 96.07 0 0 1 1.45-16.65H50.77v-64h55.56a95.31 95.31 0 0 1 51.59-15.08h169.55c16.08 0 29.13 11.64 29.13 26s-13 26-29.13 26h-92.78L288.05 297l106.41-42.8c17.22-7.7 35.55-2.9 47.42 13.93a10.31 10.31 0 0 1 1.59 3.55 9.57 9.57 0 0 1 .07 4.32z"/><path class="cls-12" d="M327.47 253.88h-92.78v10.4h92.78c16.08 0 29.13-11.65 29.13-26a23.22 23.22 0 0 0-.59-5.2c-2.69 11.86-14.45 20.8-28.54 20.8z"/><path class="cls-13" d="M63.67 280.92h-12.9v10.4h11.68a94 94 0 0 1 1.22-10.4z"/><path class="cls-12" d="M439 271.43l-25.27 11.29-116.9 53.84c-9.22 5.35-18.07 8.24-28.74 5.54-167.68-44.53-159.86-41.82-167.68-44.53H62.8a96.31 96.31 0 0 0-.59 10.4h38.15c9.26 2.59.43.3 167.68 44.53 10.67 2.71 19.52-.19 28.74-5.54l116.9-53.83 25.32-11.3a7.9 7.9 0 0 0 4.07-4.24 8.59 8.59 0 0 0 .51-1.62 10 10 0 0 0-1.31-7.31 7.76 7.76 0 0 1-3.27 2.77z"/><path class="cls-14" d="M346.44 239.31a14.3 14.3 0 0 1-14.3 14.3h-18.61v-30.67h18.62a14.3 14.3 0 0 1 14.3 14.3z"/><path class="cls-15" d="M28.52 204.33h62.4v132.98h-62.4z"/><path class="cls-16" d="M0 193.54h78.44v154.57H0z"/><path class="cls-14" d="M427.3 271.23l-16.11 7.89 4.84 13L439 281.83a7.9 7.9 0 0 0 4.07-4.24 8.25 8.25 0 0 0 .51-1.62c1.68-7.84-10.43-7.6-16.28-4.74z"/></g></g></svg>