<svg xmlns="http://www.w3.org/2000/svg" viewBox="0 0 362.37 316.09"><defs><style>.cls-1,.cls-17,.cls-2,.cls-22,.cls-3{fill:#fff}.cls-1,.cls-10,.cls-11,.cls-2,.cls-24{stroke:#182987}.cls-1,.cls-10,.cls-11,.cls-12,.cls-13,.cls-14,.cls-15,.cls-16,.cls-17,.cls-18,.cls-19,.cls-2,.cls-20,.cls-21,.cls-24,.cls-3,.cls-4,.cls-5,.cls-6,.cls-7,.cls-8,.cls-9{stroke-linecap:round;stroke-linejoin:round;stroke-width:.75px}.cls-10,.cls-11,.cls-12,.cls-13,.cls-14,.cls-18,.cls-2,.cls-3,.cls-4,.cls-5,.cls-6,.cls-7,.cls-8,.cls-9{fill-rule:evenodd}.cls-12,.cls-13,.cls-14,.cls-15,.cls-16,.cls-17,.cls-18,.cls-19,.cls-20,.cls-21,.cls-3,.cls-4,.cls-5,.cls-6,.cls-7,.cls-8,.cls-9{stroke:#1a2d78}.cls-4{fill:#be97c4}.cls-5{fill:#fff5e0}.cls-6{fill:#8e509b}.cls-7{fill:#bbd98c}.cls-8{fill:#fff000}.cls-9{fill:#1eaa39}.cls-10{fill:#f29fa9}.cls-11{fill:#fffcd9}.cls-12{fill:#aedef7}.cls-13{fill:#ee8989}.cls-14{fill:#e9595c}.cls-15{fill:#e7b84f}.cls-16,.cls-18{fill:#f4e827}.cls-19{fill:#daeffb}.cls-20{fill:#51bcb4}.cls-21{fill:#fff589}.cls-23{clip-path:url(#clip-path)}.cls-24{fill:none}</style><clipPath id="clip-path"><path class="cls-1" d="M240.57 78.1l25.29 8.28-25.29-8.28z"/></clipPath></defs><title>basket</title><g id="圖層_2" data-name="圖層 2"><g id="Isolation_Mode" data-name="Isolation Mode"><path class="cls-1" d="M89.33 221.71c-3.52 6-15 31.57 74.65 76.75 13.69 6.9 24.13 14.17 29.28 13.7 14.64-1.33 35.47-17.91 57-29.82 28.7-15.86 30.21-30.91 23.2-34.75-9.62-5.25-91.35-47.94-112.8-48.6s-66.51 14.5-71.33 22.72z"/><path class="cls-1" d="M141.9 192c-8.88 2.55-70.79 24.29-92.36 31.43a5.19 5.19 0 0 0 1.75 2.23c37.32 18.39 94.95 60 106.47 65.69 14.08 6.9 27.85 25.19 46.64 17.34 17.07-7.12 80.16-43.79 101-52.71.06 0 .15-.17.26-.4-16.08-6.51-142.06-63.75-146.91-65.47s-6.66-1-16.85 1.89zm95.91-38.6a8.4 8.4 0 0 0 1.43 2.11 5.8 5.8 0 0 0 1.91 1.36 4 4 0 0 0 2 .31 3.59 3.59 0 0 0 1.36-.46 4.13 4.13 0 0 1-1.4-.33 5.8 5.8 0 0 1-1.91-1.36 8.38 8.38 0 0 1-1.43-2.11 10 10 0 0 1-.83-2.58 9.64 9.64 0 0 1-.09-2.77l4.16-35.9a8 8 0 0 1 .72-2.57 5.56 5.56 0 0 1 1.37-1.82 4.33 4.33 0 0 1 .73-.5 3.76 3.76 0 0 0-.9.06 4 4 0 0 0-1.83.91 5.54 5.54 0 0 0-1.37 1.82 7.91 7.91 0 0 0-.72 2.56l-4.16 35.9a9.57 9.57 0 0 0 .09 2.77 10.07 10.07 0 0 0 .87 2.6zM220 145.89a8.07 8.07 0 0 0 1.37 2 5.4 5.4 0 0 0 1.82 1.31 3.64 3.64 0 0 0 1.94.28 3.37 3.37 0 0 0 1.28-.46 3.87 3.87 0 0 1-1.22-.3 5.44 5.44 0 0 1-1.82-1.31 8.14 8.14 0 0 1-1.37-2 9.93 9.93 0 0 1-.8-2.51 9.72 9.72 0 0 1-.1-2.71l3.72-35.19a8.06 8.06 0 0 1 .67-2.52 5.44 5.44 0 0 1 1.28-1.8 4.13 4.13 0 0 1 .7-.5 3.5 3.5 0 0 0-1 .07 3.8 3.8 0 0 0-1.73.91 5.5 5.5 0 0 0-1.28 1.8 8.06 8.06 0 0 0-.67 2.51l-3.74 35.16a9.66 9.66 0 0 0 .1 2.71 10 10 0 0 0 .85 2.55zm-17-7.16a7.83 7.83 0 0 0 1.32 2 5.11 5.11 0 0 0 1.74 1.26 3.36 3.36 0 0 0 1.85.26 3.13 3.13 0 0 0 1.2-.46 3.56 3.56 0 0 1-1.05-.27 5.18 5.18 0 0 1-1.74-1.26 8 8 0 0 1-1.32-2 10 10 0 0 1-.78-2.45 9.66 9.66 0 0 1-.11-2.65l3.35-34.44a8 8 0 0 1 .62-2.47 5.38 5.38 0 0 1 1.21-1.77A4 4 0 0 1 210 94a3.18 3.18 0 0 0-1 .06 3.59 3.59 0 0 0-1.64.9 5.39 5.39 0 0 0-1.21 1.77 8 8 0 0 0-.62 2.47l-3.35 34.43a9.73 9.73 0 0 0 .11 2.65 9.94 9.94 0 0 0 .71 2.45zm-16.2-6.83a7.69 7.69 0 0 0 1.27 1.93 4.89 4.89 0 0 0 1.66 1.22 3.12 3.12 0 0 0 1.76.23 3 3 0 0 0 1.13-.46 3.45 3.45 0 0 1-.89-.25 4.88 4.88 0 0 1-1.66-1.22 7.67 7.67 0 0 1-1.27-1.94 10 10 0 0 1-.88-5l3-33.75a8 8 0 0 1 .58-2.42 5.29 5.29 0 0 1 1.14-1.74 3.82 3.82 0 0 1 .62-.49 3 3 0 0 0-1.06.06 3.4 3.4 0 0 0-1.56.9 5.25 5.25 0 0 0-1.14 1.74 8 8 0 0 0-.58 2.42l-3 33.75a9.76 9.76 0 0 0 .12 2.6 9.65 9.65 0 0 0 .76 2.42zm89.42 37.7a8.81 8.81 0 0 0 1.56 2.24 6.51 6.51 0 0 0 2.1 1.47 4.64 4.64 0 0 0 2.27.38 4.16 4.16 0 0 0 1.55-.46 4.76 4.76 0 0 1-1.82-.39 6.49 6.49 0 0 1-2.1-1.47 8.8 8.8 0 0 1-1.56-2.24 10 10 0 0 1-.89-2.72 9.41 9.41 0 0 1-.07-2.9l5.12-37.5a8 8 0 0 1 .84-2.67 5.78 5.78 0 0 1 1.54-1.88 4.84 4.84 0 0 1 .8-.5 4.35 4.35 0 0 0-.75.05 4.55 4.55 0 0 0-2 .92 5.85 5.85 0 0 0-1.55 1.88 8 8 0 0 0-.83 2.67L275.27 164a9.36 9.36 0 0 0 .07 2.9 10.07 10.07 0 0 0 .88 2.7zm20.78 8.74a9.19 9.19 0 0 0 1.64 2.32 7 7 0 0 0 2.22 1.53 5.1 5.1 0 0 0 2.39.42 4.5 4.5 0 0 0 1.67-.47 5.17 5.17 0 0 1-2.07-.42 7 7 0 0 1-2.21-1.53 9.17 9.17 0 0 1-1.64-2.32 10.17 10.17 0 0 1-.92-2.79 9.43 9.43 0 0 1 0-3l5.66-38.34a8 8 0 0 1 .91-2.73 6 6 0 0 1 1.65-1.91 5.23 5.23 0 0 1 .84-.49 4.76 4.76 0 0 0-.65.05 4.9 4.9 0 0 0-2.18.92 6 6 0 0 0-1.65 1.91 7.92 7.92 0 0 0-.9 2.73L296 172.57a9.39 9.39 0 0 0 0 3 10.16 10.16 0 0 0 1 2.77zm-125.67-52.96a7.51 7.51 0 0 0 1.22 1.88 4.58 4.58 0 0 0 1.59 1.17 2.88 2.88 0 0 0 1.68.21 2.82 2.82 0 0 0 1.09-.47 3.12 3.12 0 0 1-.77-.22 4.58 4.58 0 0 1-1.59-1.18 7.46 7.46 0 0 1-1.22-1.88 9.76 9.76 0 0 1-.73-2.33 10 10 0 0 1-.13-2.55l2.68-33.08a8.08 8.08 0 0 1 .53-2.37 5.23 5.23 0 0 1 1.08-1.71 3.57 3.57 0 0 1 .58-.48 2.74 2.74 0 0 0-1.1.06 3.23 3.23 0 0 0-1.47.89 5.27 5.27 0 0 0-1.09 1.68 8.11 8.11 0 0 0-.54 2.37l-2.67 33.08a9.82 9.82 0 0 0 .13 2.54 9.69 9.69 0 0 0 .73 2.39zm85.2 35.91a8.5 8.5 0 0 0 1.5 2.17 6.09 6.09 0 0 0 2 1.41 4.28 4.28 0 0 0 2.15.35 3.9 3.9 0 0 0 1.44-.46 4.45 4.45 0 0 1-1.59-.36 6.12 6.12 0 0 1-2-1.41 8.62 8.62 0 0 1-1.5-2.17 10.22 10.22 0 0 1-.86-2.65 9.53 9.53 0 0 1-.08-2.84l4.62-36.68A8 8 0 0 1 263 116a5.69 5.69 0 0 1 1.45-1.85 4.43 4.43 0 0 1 .76-.5 4.19 4.19 0 0 0-.82.06 4.28 4.28 0 0 0-1.94.92 5.73 5.73 0 0 0-1.45 1.85 8 8 0 0 0-.78 2.62l-4.62 36.68a9.6 9.6 0 0 0 .08 2.84 10.09 10.09 0 0 0 .85 2.67zM254.87 220a6.61 6.61 0 0 1-1.93-1.5 9.13 9.13 0 0 1-1.45-2.19 10.11 10.11 0 0 1-.83-2.59 9 9 0 0 1-.08-2.71l4.36-34.61a7 7 0 0 1 .74-2.43 4.79 4.79 0 0 1 1.39-1.65 4 4 0 0 1 .4-.26 3.8 3.8 0 0 0-.54 0 3.76 3.76 0 0 0-1.86.72 4.85 4.85 0 0 0-1.39 1.65 7 7 0 0 0-.74 2.43l-4.36 34.61a9.12 9.12 0 0 0 .08 2.71 10.26 10.26 0 0 0 .83 2.59 9.27 9.27 0 0 0 1.45 2.19 6.58 6.58 0 0 0 1.93 1.5 4.34 4.34 0 0 0 2.07.5 3.46 3.46 0 0 0 1.68-.49 4.38 4.38 0 0 1-1.75-.47zm-18.18-9.14a6.3 6.3 0 0 1-1.84-1.45 9 9 0 0 1-1.38-2.13 10.09 10.09 0 0 1-.81-2.52 9.2 9.2 0 0 1-.09-2.65l3.93-33.92a7.1 7.1 0 0 1 .68-2.39 4.77 4.77 0 0 1 1.31-1.63 3.85 3.85 0 0 1 .39-.26 3.46 3.46 0 0 0-.63 0 3.53 3.53 0 0 0-1.76.73 4.69 4.69 0 0 0-1.31 1.63 7.08 7.08 0 0 0-.69 2.38l-3.93 33.92a9.1 9.1 0 0 0 .1 2.65 10.17 10.17 0 0 0 .8 2.53 9 9 0 0 0 1.39 2.12 6.32 6.32 0 0 0 1.84 1.45 4 4 0 0 0 2 .46 3.26 3.26 0 0 0 1.57-.49 4.15 4.15 0 0 1-1.57-.43zM274 229.57a7.05 7.05 0 0 1-2-1.57 9.33 9.33 0 0 1-1.51-2.26 10.22 10.22 0 0 1-.86-2.66 8.94 8.94 0 0 1-.07-2.77l4.77-35.31a7 7 0 0 1 .8-2.47 4.91 4.91 0 0 1 1.48-1.67 3.82 3.82 0 0 1 .41-.25h-.44a4 4 0 0 0-2 .71 4.94 4.94 0 0 0-1.48 1.67 7 7 0 0 0-.8 2.47l-4.82 35.33a8.9 8.9 0 0 0 .07 2.77 10.4 10.4 0 0 0 .86 2.66 9.41 9.41 0 0 0 1.51 2.26 7.05 7.05 0 0 0 2 1.57 4.74 4.74 0 0 0 2.18.54 3.81 3.81 0 0 0 1.81-.48 4.87 4.87 0 0 1-1.91-.54zm-102.05-51.2a5.05 5.05 0 0 1-1.54-1.25 8.05 8.05 0 0 1-1.18-1.9 9.88 9.88 0 0 1-.71-2.29 9.31 9.31 0 0 1-.13-2.44l2.54-31.42a7.25 7.25 0 0 1 .52-2.22 4.46 4.46 0 0 1 1-1.55 3 3 0 0 1 .32-.26 2.66 2.66 0 0 0-.89 0 2.83 2.83 0 0 0-1.43.74 4.45 4.45 0 0 0-1 1.55 7.25 7.25 0 0 0-.51 2.22L166.39 171a9.38 9.38 0 0 0 .13 2.44 10 10 0 0 0 .71 2.29 8 8 0 0 0 1.18 1.9 5 5 0 0 0 1.54 1.25 2.94 2.94 0 0 0 1.63.33 2.53 2.53 0 0 0 1.27-.51 3.26 3.26 0 0 1-.9-.33zm122.11 61.29a7.49 7.49 0 0 1-2.13-1.63 9.78 9.78 0 0 1-1.58-2.34 10.22 10.22 0 0 1-.89-2.73 8.84 8.84 0 0 1-.06-2.83l5.33-36.07a7 7 0 0 1 .86-2.52 5.06 5.06 0 0 1 1.58-1.69 4.09 4.09 0 0 1 .4-.23h-.32a4.33 4.33 0 0 0-2.08.7 5 5 0 0 0-1.57 1.68 7 7 0 0 0-.86 2.52l-5.33 36.07a9 9 0 0 0 .06 2.83 10.34 10.34 0 0 0 .89 2.73 9.59 9.59 0 0 0 1.58 2.33 7.5 7.5 0 0 0 2.13 1.63 5.12 5.12 0 0 0 2.3.58 4 4 0 0 0 1.93-.48 5.08 5.08 0 0 1-2.24-.55zm-74.7-37.49a5.87 5.87 0 0 1-1.75-1.4 8.6 8.6 0 0 1-1.33-2.06 10.18 10.18 0 0 1-.78-2.46 9.16 9.16 0 0 1-.1-2.6l3.54-33.26a7.15 7.15 0 0 1 .64-2.34 4.61 4.61 0 0 1 1.24-1.61 3.21 3.21 0 0 1 .37-.26 3.17 3.17 0 0 0-2.37.74 4.6 4.6 0 0 0-1.24 1.61 7.1 7.1 0 0 0-.64 2.34l-3.54 33.26a9.28 9.28 0 0 0 .11 2.59 10.09 10.09 0 0 0 .78 2.46 8.65 8.65 0 0 0 1.33 2.06 5.94 5.94 0 0 0 1.75 1.39 3.71 3.71 0 0 0 1.87.43 3.06 3.06 0 0 0 1.48-.49 3.94 3.94 0 0 1-1.36-.4zM187 185.95a5.3 5.3 0 0 1-1.61-1.3 8.18 8.18 0 0 1-1.23-2 10.05 10.05 0 0 1-.74-2.35 9.39 9.39 0 0 1-.12-2.49l2.85-32a7.2 7.2 0 0 1 .55-2.26 4.47 4.47 0 0 1 1.1-1.57 3.29 3.29 0 0 1 .34-.27 2.81 2.81 0 0 0-.84 0 3 3 0 0 0-1.5.73 4.51 4.51 0 0 0-1.1 1.57 7.27 7.27 0 0 0-.55 2.26l-2.85 32a9.24 9.24 0 0 0 .13 2.49 10.07 10.07 0 0 0 .73 2.35 8.2 8.2 0 0 0 1.23 2 5.31 5.31 0 0 0 1.61 1.3 3.16 3.16 0 0 0 1.7.36 2.72 2.72 0 0 0 1.33-.5 3.44 3.44 0 0 1-1.03-.32zm15.83 7.92a5.65 5.65 0 0 1-1.68-1.34 8.46 8.46 0 0 1-1.28-2 10.14 10.14 0 0 1-.76-2.4 9.2 9.2 0 0 1-.11-2.54l3.18-32.63a7.13 7.13 0 0 1 .59-2.3 4.55 4.55 0 0 1 1.17-1.59 3.9 3.9 0 0 1 .36-.27 3 3 0 0 0-.77 0 3.14 3.14 0 0 0-1.58.73 4.54 4.54 0 0 0-1.17 1.59 7.18 7.18 0 0 0-.59 2.3L197 186.05a9.26 9.26 0 0 0 .12 2.54 10.12 10.12 0 0 0 .76 2.4 8.48 8.48 0 0 0 1.28 2 5.54 5.54 0 0 0 1.68 1.34 3.41 3.41 0 0 0 1.78.39 2.87 2.87 0 0 0 1.41-.5 3.7 3.7 0 0 1-1.2-.35z"/><path class="cls-2" d="M27.51 90.18c-10.15 2.43-15.27 5.36-5.51 10.15 1.72.87 21 121.28 29.3 125.35 37.32 18.39 94.95 60 106.47 65.69 14.08 6.9 27.85 25.19 46.64 17.34 17.07-7.12 80.16-43.79 101-52.71 2.11-.9 35.31-128.79 36.1-129.15 8.66-3.92 6.35-5.49-6-9.52S176 63.79 170.28 62s-15.26-2.88-26.92 0S37.66 87.74 27.51 90.18zm22.25 74.58a7.64 7.64 0 0 0-2.51 1.39 8.82 8.82 0 0 0-1.9 2.2 9 9 0 0 0-1.1 2.71 7.92 7.92 0 0 0-.15 2.94l5.54 36.4a6 6 0 0 0 .91 2.44 5.06 5.06 0 0 0 1.72 1.62 5.13 5.13 0 0 0 2.28.66 6.29 6.29 0 0 0 2.59-.43 8 8 0 0 0 2.42-1.49 9.28 9.28 0 0 0 2.87-4.87 7.83 7.83 0 0 0 .12-2.8l-5.24-35.92a6.54 6.54 0 0 0-.9-2.53 5.56 5.56 0 0 0-1.72-1.76 5.45 5.45 0 0 0-2.3-.82 6.23 6.23 0 0 0-2.65.28zm-9-60.46a7.26 7.26 0 0 0-2.61 1.26 8.24 8.24 0 0 0-2 2.16 8.64 8.64 0 0 0-1.15 2.75 8.27 8.27 0 0 0-.11 3l5.84 38.41a6.81 6.81 0 0 0 1 2.62 5.87 5.87 0 0 0 1.79 1.82 5.71 5.71 0 0 0 2.37.86 6.29 6.29 0 0 0 2.68-.25 7.52 7.52 0 0 0 2.51-1.37 8.6 8.6 0 0 0 1.92-2.15 8.79 8.79 0 0 0 1-2.69 8 8 0 0 0 .12-2.91l-5.52-37.87a7.38 7.38 0 0 0-.94-2.71 6.51 6.51 0 0 0-1.79-2 6.11 6.11 0 0 0-2.4-1 6.39 6.39 0 0 0-2.76.08zm32.44 52.85a7.18 7.18 0 0 0-2.38 1.34 8.56 8.56 0 0 0-1.82 2.14 8.88 8.88 0 0 0-1 2.63 8 8 0 0 0-.12 2.84l5 35.54a6.07 6.07 0 0 0 .85 2.4 4.88 4.88 0 0 0 1.62 1.6 4.77 4.77 0 0 0 2.15.67 5.8 5.8 0 0 0 2.45-.39 7.45 7.45 0 0 0 2.3-1.43 8.86 8.86 0 0 0 1.73-2.14 9 9 0 0 0 1-2.57 7.84 7.84 0 0 0 .13-2.73l-4.73-35.08a6.56 6.56 0 0 0-.84-2.48 5.39 5.39 0 0 0-1.62-1.73 5.06 5.06 0 0 0-2.18-.82 5.71 5.71 0 0 0-2.51.25zm-8.12-59a6.75 6.75 0 0 0-2.46 1.21 7.89 7.89 0 0 0-1.87 2.08 8.52 8.52 0 0 0-1.09 2.67 8.29 8.29 0 0 0-.12 3l5.27 37.44a6.82 6.82 0 0 0 .89 2.56 5.65 5.65 0 0 0 1.68 1.79 5.28 5.28 0 0 0 2.23.86 5.77 5.77 0 0 0 2.53-.22 7 7 0 0 0 2.38-1.31 8.3 8.3 0 0 0 1.79-2.1 8.67 8.67 0 0 0 1-2.6 8.07 8.07 0 0 0 .13-2.84l-5-36.94a7.32 7.32 0 0 0-.88-2.65 6.27 6.27 0 0 0-1.68-1.93 5.67 5.67 0 0 0-2.26-1 5.8 5.8 0 0 0-2.6.06zM95.42 150a6.68 6.68 0 0 0-2.26 1.28 8.22 8.22 0 0 0-1.72 2.06 8.79 8.79 0 0 0-1 2.56 8 8 0 0 0-.13 2.77l4.52 34.71a6.05 6.05 0 0 0 .79 2.35 4.71 4.71 0 0 0 1.52 1.58 4.45 4.45 0 0 0 2 .67 5.31 5.31 0 0 0 2.32-.36 7 7 0 0 0 2.18-1.37 8.63 8.63 0 0 0 1.65-2.08 8.92 8.92 0 0 0 1-2.5 7.84 7.84 0 0 0 .14-2.67l-4.27-34.28a6.53 6.53 0 0 0-.78-2.42 5.22 5.22 0 0 0-1.52-1.7 4.73 4.73 0 0 0-2.05-.82 5.23 5.23 0 0 0-2.37.22zm-7.33-57.57a6.26 6.26 0 0 0-2.33 1.16 7.56 7.56 0 0 0-1.78 2 8.43 8.43 0 0 0-1 2.59 8.33 8.33 0 0 0-.13 2.88l4.76 36.54a6.78 6.78 0 0 0 .82 2.5 5.46 5.46 0 0 0 1.58 1.76 4.91 4.91 0 0 0 2.1.86 5.31 5.31 0 0 0 2.4-.2 6.53 6.53 0 0 0 2.26-1.26 8 8 0 0 0 1.71-2 8.67 8.67 0 0 0 1-2.53 8.13 8.13 0 0 0 .14-2.76l-4.56-36.09a7.29 7.29 0 0 0-.81-2.59 6.06 6.06 0 0 0-1.58-1.89 5.28 5.28 0 0 0-2.13-1 5.36 5.36 0 0 0-2.46 0zm28.39 50.71a6.24 6.24 0 0 0-2.14 1.23 8 8 0 0 0-1.64 2 8.67 8.67 0 0 0-1 2.49 8 8 0 0 0-.14 2.7l4.07 33.94a6.05 6.05 0 0 0 .74 2.3 4.59 4.59 0 0 0 1.43 1.55 4.15 4.15 0 0 0 1.92.68 4.88 4.88 0 0 0 2.2-.32 6.53 6.53 0 0 0 2.07-1.32 8.23 8.23 0 0 0 1.58-2 8.8 8.8 0 0 0 .94-2.43 7.92 7.92 0 0 0 .15-2.6l-3.85-33.52a6.48 6.48 0 0 0-.72-2.37 5.05 5.05 0 0 0-1.43-1.67 4.41 4.41 0 0 0-1.94-.82 4.8 4.8 0 0 0-2.25.19zM109.87 87a5.87 5.87 0 0 0-2.22 1.11A7.33 7.33 0 0 0 106 90a8.39 8.39 0 0 0-1.14 5.32L109.1 131a6.77 6.77 0 0 0 .76 2.45 5.34 5.34 0 0 0 1.48 1.73 4.6 4.6 0 0 0 2 .85 4.87 4.87 0 0 0 2.27-.17 6.13 6.13 0 0 0 2.14-1.21 7.67 7.67 0 0 0 1.63-2 8.56 8.56 0 0 0 1-2.46 8.2 8.2 0 0 0 .15-2.7l-4-35.2a7.23 7.23 0 0 0-.76-2.53 5.89 5.89 0 0 0-1.48-1.85 4.86 4.86 0 0 0-4.33-1zm26.6 49.69a5.88 5.88 0 0 0-2 1.18 7.6 7.6 0 0 0-1.57 1.94 8.54 8.54 0 0 0-.93 2.42 8.15 8.15 0 0 0-.15 2.64l3.63 33.13a6.07 6.07 0 0 0 .68 2.25 4.45 4.45 0 0 0 1.35 1.53 3.86 3.86 0 0 0 1.82.68 4.46 4.46 0 0 0 2.09-.29 6.2 6.2 0 0 0 2-1.27 8.08 8.08 0 0 0 1.51-1.95 8.81 8.81 0 0 0 .9-2.37 7.94 7.94 0 0 0 .16-2.54l-3.47-32.79a6.52 6.52 0 0 0-.67-2.32 4.94 4.94 0 0 0-1.35-1.65 4.15 4.15 0 0 0-1.83-.81 4.44 4.44 0 0 0-2.13.17zm-5.93-54.88a5.49 5.49 0 0 0-2.11 1.07 7 7 0 0 0-1.61 1.89 8.3 8.3 0 0 0-1 2.45 8.38 8.38 0 0 0-.15 2.73l3.86 34.83a6.79 6.79 0 0 0 .71 2.4 5.15 5.15 0 0 0 1.39 1.7 4.31 4.31 0 0 0 1.88.85 4.5 4.5 0 0 0 2.16-.15 5.74 5.74 0 0 0 2-1.17 7.43 7.43 0 0 0 1.55-1.91 8.47 8.47 0 0 0 .93-2.4 8.23 8.23 0 0 0 .16-2.63l-3.64-34.39a7.27 7.27 0 0 0-.7-2.47 5.71 5.71 0 0 0-1.39-1.82 4.65 4.65 0 0 0-1.89-1 4.52 4.52 0 0 0-2.2 0zm43 53.47a4.7 4.7 0 0 1 1.59 1.19 7.64 7.64 0 0 1 1.23 1.9 9.82 9.82 0 0 1 .74 2.35 9.72 9.72 0 0 1 .13 2.54L174.55 175a6.67 6.67 0 0 1-.52 2.15 4 4 0 0 1-1 1.44 2.6 2.6 0 0 1-1.41.61 2.94 2.94 0 0 1-1.63-.33 5 5 0 0 1-1.54-1.25 8 8 0 0 1-1.18-1.9 10 10 0 0 1-.71-2.29 9.38 9.38 0 0 1-.13-2.44l2.54-31.42a7.25 7.25 0 0 1 .51-2.22 4.45 4.45 0 0 1 1-1.55 2.83 2.83 0 0 1 1.43-.74 2.86 2.86 0 0 1 1.66.22zm4.38-52.74a2.86 2.86 0 0 0-1.72-.09 3.23 3.23 0 0 0-1.47.89 5.27 5.27 0 0 0-1.05 1.66 8.11 8.11 0 0 0-.54 2.37l-2.67 33.08a9.82 9.82 0 0 0 .13 2.54 9.69 9.69 0 0 0 .73 2.34 7.51 7.51 0 0 0 1.22 1.88 4.58 4.58 0 0 0 1.59 1.17 2.88 2.88 0 0 0 1.68.21 2.93 2.93 0 0 0 1.46-.76 4.61 4.61 0 0 0 1.08-1.6 7.44 7.44 0 0 0 .54-2.29l2.85-33.44a10 10 0 0 0-.13-2.65 9.6 9.6 0 0 0-.76-2.4 7 7 0 0 0-1.26-1.88 4.3 4.3 0 0 0-1.64-1.11zM189.1 142a3.1 3.1 0 0 0-1.75-.25 3 3 0 0 0-1.5.73 4.51 4.51 0 0 0-1.1 1.57 7.27 7.27 0 0 0-.55 2.26l-2.85 32a9.24 9.24 0 0 0 .13 2.49 10.07 10.07 0 0 0 .73 2.35 8.2 8.2 0 0 0 1.23 2 5.31 5.31 0 0 0 1.61 1.3 3.16 3.16 0 0 0 1.7.36 2.74 2.74 0 0 0 1.48-.6 4 4 0 0 0 1.1-1.45 6.63 6.63 0 0 0 .56-2.18l3-32.35a9.57 9.57 0 0 0-.12-2.59 9.8 9.8 0 0 0-.76-2.41 7.88 7.88 0 0 0-1.27-2 5 5 0 0 0-1.64-1.23zm4.9-53.8a3.09 3.09 0 0 0-1.81-.11 3.4 3.4 0 0 0-1.56.9 5.25 5.25 0 0 0-1.14 1.74 8 8 0 0 0-.58 2.42l-3 33.75a9.76 9.76 0 0 0 .12 2.6 9.65 9.65 0 0 0 .75 2.39 7.69 7.69 0 0 0 1.27 1.93 4.89 4.89 0 0 0 1.66 1.22 3 3 0 0 0 3.29-.53 4.69 4.69 0 0 0 1.14-1.62 7.43 7.43 0 0 0 .58-2.33l3.19-34.12a9.94 9.94 0 0 0-.12-2.7 9.57 9.57 0 0 0-.78-2.45 7.26 7.26 0 0 0-1.31-1.93 4.55 4.55 0 0 0-1.7-1.15zm11.35 60.86a3.32 3.32 0 0 0-1.83-.27 3.14 3.14 0 0 0-1.58.73 4.54 4.54 0 0 0-1.17 1.59 7.18 7.18 0 0 0-.59 2.3L197 186.05a9.26 9.26 0 0 0 .12 2.54 10.12 10.12 0 0 0 .76 2.4 8.48 8.48 0 0 0 1.28 2 5.54 5.54 0 0 0 1.68 1.34 3.41 3.41 0 0 0 1.78.39 2.9 2.9 0 0 0 1.56-.6 4.05 4.05 0 0 0 1.16-1.47 6.56 6.56 0 0 0 .6-2.22l3.37-33a9.44 9.44 0 0 0-.11-2.64 9.87 9.87 0 0 0-.78-2.47 8.09 8.09 0 0 0-1.33-2 5.18 5.18 0 0 0-1.74-1.28zm5.48-54.9a3.34 3.34 0 0 0-1.89-.12 3.59 3.59 0 0 0-1.64.9 5.39 5.39 0 0 0-1.21 1.77 8 8 0 0 0-.62 2.47l-3.35 34.43a9.73 9.73 0 0 0 .11 2.65 9.94 9.94 0 0 0 .78 2.45 7.83 7.83 0 0 0 1.32 2 5.11 5.11 0 0 0 1.74 1.26 3.36 3.36 0 0 0 1.85.26 3.29 3.29 0 0 0 1.61-.76 4.81 4.81 0 0 0 1.21-1.64 7.46 7.46 0 0 0 .62-2.38l3.56-34.83a10 10 0 0 0-.11-2.76 9.67 9.67 0 0 0-.81-2.52 7.43 7.43 0 0 0-1.37-2 4.79 4.79 0 0 0-1.8-1.19zm11.56 62.31a3.6 3.6 0 0 0-1.92-.3 3.29 3.29 0 0 0-1.66.73 4.6 4.6 0 0 0-1.24 1.61 7.1 7.1 0 0 0-.64 2.34l-3.54 33.26a9.28 9.28 0 0 0 .11 2.59 10.09 10.09 0 0 0 .78 2.46 8.65 8.65 0 0 0 1.33 2.06 5.94 5.94 0 0 0 1.75 1.39 3.71 3.71 0 0 0 1.87.43 3.08 3.08 0 0 0 1.64-.59 4.12 4.12 0 0 0 1.23-1.48 6.57 6.57 0 0 0 .64-2.25l3.75-33.62a9.38 9.38 0 0 0-.1-2.7 10 10 0 0 0-.81-2.53 8.3 8.3 0 0 0-1.38-2.07 5.57 5.57 0 0 0-1.82-1.33zm6.11-56a3.61 3.61 0 0 0-2-.15 3.8 3.8 0 0 0-1.73.91 5.5 5.5 0 0 0-1.28 1.8 8.06 8.06 0 0 0-.67 2.51l-3.74 35.16a9.66 9.66 0 0 0 .1 2.71 10 10 0 0 0 .8 2.51 8.07 8.07 0 0 0 1.37 2 5.4 5.4 0 0 0 1.82 1.31 3.64 3.64 0 0 0 1.94.28 3.45 3.45 0 0 0 1.7-.76 4.88 4.88 0 0 0 1.28-1.66 7.39 7.39 0 0 0 .67-2.42l4-35.56a9.94 9.94 0 0 0-.1-2.83 9.73 9.73 0 0 0-.83-2.58 7.71 7.71 0 0 0-1.43-2 5.12 5.12 0 0 0-1.89-1.23zm11.78 63.82a3.9 3.9 0 0 0-2-.33 3.53 3.53 0 0 0-1.76.73 4.69 4.69 0 0 0-1.31 1.63 7.08 7.08 0 0 0-.69 2.38l-3.93 33.92a9.1 9.1 0 0 0 .1 2.65 10.17 10.17 0 0 0 .8 2.53 9 9 0 0 0 1.39 2.12 6.32 6.32 0 0 0 1.84 1.45 4 4 0 0 0 2 .46 3.31 3.31 0 0 0 1.73-.58 4.23 4.23 0 0 0 1.31-1.5 6.51 6.51 0 0 0 .69-2.3l4.16-34.3a9.31 9.31 0 0 0-.09-2.76 9.91 9.91 0 0 0-.83-2.59 8.55 8.55 0 0 0-1.44-2.13 5.83 5.83 0 0 0-1.91-1.38zm6.78-57.29a3.93 3.93 0 0 0-2.1-.17 4 4 0 0 0-1.83.91 5.54 5.54 0 0 0-1.37 1.82 7.91 7.91 0 0 0-.72 2.56l-4.16 35.9a9.57 9.57 0 0 0 .09 2.77 10.07 10.07 0 0 0 .83 2.58 8.4 8.4 0 0 0 1.43 2.11 5.8 5.8 0 0 0 1.91 1.36 4 4 0 0 0 2 .31 3.7 3.7 0 0 0 1.8-.75 5 5 0 0 0 1.36-1.68 7.35 7.35 0 0 0 .73-2.47l4.4-36.33a10 10 0 0 0-.94-5.54 7.94 7.94 0 0 0-1.5-2.11 5.38 5.38 0 0 0-2-1.28zm12 65.41a4.25 4.25 0 0 0-2.13-.36 3.76 3.76 0 0 0-1.86.72 4.85 4.85 0 0 0-1.39 1.65 7 7 0 0 0-.74 2.43l-4.36 34.61a9.12 9.12 0 0 0 .08 2.71 10.26 10.26 0 0 0 .83 2.59 9.27 9.27 0 0 0 1.45 2.19 6.58 6.58 0 0 0 1.93 1.5 4.34 4.34 0 0 0 2.07.5 3.5 3.5 0 0 0 1.82-.56 4.28 4.28 0 0 0 1.39-1.51 6.46 6.46 0 0 0 .74-2.33l4.61-35a9.36 9.36 0 0 0-.07-2.83 10 10 0 0 0-.86-2.66 8.7 8.7 0 0 0-1.5-2.2 6.19 6.19 0 0 0-2-1.43zm7.53-58.49a4.16 4.16 0 0 0-4.15.72 5.73 5.73 0 0 0-1.45 1.85 8 8 0 0 0-.78 2.62l-4.62 36.68a9.6 9.6 0 0 0 .08 2.84 10.09 10.09 0 0 0 .86 2.65 8.5 8.5 0 0 0 1.5 2.17 6.09 6.09 0 0 0 2 1.41 4.28 4.28 0 0 0 2.15.35 3.94 3.94 0 0 0 1.9-.75 5.09 5.09 0 0 0 1.44-1.71 7.35 7.35 0 0 0 .78-2.52l4.89-37.12a10 10 0 0 0-1-5.69 8.2 8.2 0 0 0-1.56-2.17 5.75 5.75 0 0 0-2.08-1.33zM278.81 181a4.62 4.62 0 0 0-2.24-.4 4 4 0 0 0-2 .71 4.94 4.94 0 0 0-1.48 1.67 7 7 0 0 0-.8 2.47l-4.82 35.33a8.9 8.9 0 0 0 .07 2.77 10.4 10.4 0 0 0 .86 2.66 9.41 9.41 0 0 0 1.51 2.26 7.05 7.05 0 0 0 2 1.57 4.74 4.74 0 0 0 2.18.54 3.76 3.76 0 0 0 1.93-.55 4.35 4.35 0 0 0 1.47-1.52 6.41 6.41 0 0 0 .8-2.37l5.1-35.73a9.31 9.31 0 0 0-.06-2.89 10.27 10.27 0 0 0-.89-2.74 9.07 9.07 0 0 0-1.58-2.27 6.65 6.65 0 0 0-2.1-1.49zm8.34-59.78a4.64 4.64 0 0 0-2.34-.22 4.55 4.55 0 0 0-2 .92 5.85 5.85 0 0 0-1.55 1.88 8 8 0 0 0-.83 2.67L275.27 164a9.36 9.36 0 0 0 .07 2.9 10.07 10.07 0 0 0 .88 2.72 8.81 8.81 0 0 0 1.56 2.24 6.51 6.51 0 0 0 2.1 1.47 4.64 4.64 0 0 0 2.27.38 4.22 4.22 0 0 0 2-.74 5.21 5.21 0 0 0 1.54-1.73 7.28 7.28 0 0 0 .84-2.57l5.41-38a9.78 9.78 0 0 0-.05-3 10 10 0 0 0-.93-2.8 8.4 8.4 0 0 0-1.64-2.25 6.16 6.16 0 0 0-2.19-1.38zm12.47 68.83a5 5 0 0 0-2.37-.44 4.33 4.33 0 0 0-2.08.7 5 5 0 0 0-1.57 1.69 7 7 0 0 0-.86 2.52l-5.33 36.07a9 9 0 0 0 .06 2.83 10.34 10.34 0 0 0 .89 2.73 9.59 9.59 0 0 0 1.58 2.33 7.5 7.5 0 0 0 2.13 1.63 5.12 5.12 0 0 0 2.3.58 4.06 4.06 0 0 0 2-.53 4.51 4.51 0 0 0 1.56-1.54 6.42 6.42 0 0 0 .86-2.42l5.63-36.49a9.14 9.14 0 0 0 0-3 10.26 10.26 0 0 0-.92-2.81 9.35 9.35 0 0 0-1.65-2.35 7 7 0 0 0-2.21-1.55zm9.24-61.14a5.05 5.05 0 0 0-2.47-.25 4.9 4.9 0 0 0-2.18.92 6 6 0 0 0-1.65 1.91 7.92 7.92 0 0 0-.9 2.73L296 172.57a9.39 9.39 0 0 0 0 3 10.16 10.16 0 0 0 .92 2.79 9.19 9.19 0 0 0 1.64 2.32 7 7 0 0 0 2.22 1.53 5.1 5.1 0 0 0 2.39.42 4.5 4.5 0 0 0 2.13-.74 5.31 5.31 0 0 0 1.64-1.75 7.29 7.29 0 0 0 .91-2.62l6-38.83a9.8 9.8 0 0 0 0-3.11 10 10 0 0 0-1-2.88 8.58 8.58 0 0 0-1.72-2.32 6.57 6.57 0 0 0-2.3-1.44z"/><path class="cls-1" d="M90.69 93.3a6.07 6.07 0 0 1 1.58 1.89 7.3 7.3 0 0 1 .82 2.59l4.49 36.05a8.12 8.12 0 0 1-.14 2.76 8.68 8.68 0 0 1-1 2.53 8 8 0 0 1-1.71 2 6.53 6.53 0 0 1-2.26 1.26 5.69 5.69 0 0 1-.9.19 4.84 4.84 0 0 0 .49.11 5.31 5.31 0 0 0 2.4-.2 6.53 6.53 0 0 0 2.26-1.26 8 8 0 0 0 1.71-2 8.67 8.67 0 0 0 1-2.53 8.13 8.13 0 0 0 .14-2.76l-4.51-36.05a7.29 7.29 0 0 0-.81-2.59 6.06 6.06 0 0 0-1.58-1.89 5.2 5.2 0 0 0-4-1.09 5.27 5.27 0 0 1 2.02.99zm-46.78 11.85a6.49 6.49 0 0 1 1.79 2 7.33 7.33 0 0 1 .95 2.71l5.52 37.87a8.08 8.08 0 0 1-.12 2.91A8.84 8.84 0 0 1 51 153.3a8.61 8.61 0 0 1-1.88 2.17 7.49 7.49 0 0 1-2.51 1.37 6.67 6.67 0 0 1-1.24.26 5.39 5.39 0 0 0 .54.1 6.29 6.29 0 0 0 2.68-.25 7.52 7.52 0 0 0 2.51-1.37 8.6 8.6 0 0 0 1.9-2.17 8.79 8.79 0 0 0 1-2.69 8 8 0 0 0 .12-2.91l-5.52-37.87a7.38 7.38 0 0 0-.94-2.71 6.51 6.51 0 0 0-1.79-2 6.11 6.11 0 0 0-2.4-1 6.25 6.25 0 0 0-1.85-.07 6.11 6.11 0 0 1 2.29.99zM68 99.06a6.27 6.27 0 0 1 1.63 1.94 7.37 7.37 0 0 1 .88 2.65l5 36.94a8.07 8.07 0 0 1-.12 2.83 8.79 8.79 0 0 1-1 2.61 8.28 8.28 0 0 1-1.79 2.1 7 7 0 0 1-2.38 1.31 6.1 6.1 0 0 1-1.06.22l.51.1a5.77 5.77 0 0 0 2.53-.22 7 7 0 0 0 2.38-1.31 8.3 8.3 0 0 0 1.79-2.1 8.67 8.67 0 0 0 1-2.6 8.07 8.07 0 0 0 .13-2.84l-5-36.94a7.32 7.32 0 0 0-.88-2.65 6.27 6.27 0 0 0-1.68-1.93 5.64 5.64 0 0 0-4.12-1.1 5.69 5.69 0 0 1 2.18.99zm44.22-11.22a5.9 5.9 0 0 1 1.48 1.85 7.31 7.31 0 0 1 .75 2.53l4 35.2a8.2 8.2 0 0 1-.15 2.7 8.59 8.59 0 0 1-1 2.46 7.74 7.74 0 0 1-1.63 2 6.15 6.15 0 0 1-2.14 1.21 5.21 5.21 0 0 1-.75.17l.46.11a4.87 4.87 0 0 0 2.27-.17 6.13 6.13 0 0 0 2.14-1.21 7.67 7.67 0 0 0 1.63-2 8.56 8.56 0 0 0 1-2.46 8.2 8.2 0 0 0 .15-2.7l-4-35.2a7.23 7.23 0 0 0-.76-2.53 5.89 5.89 0 0 0-1.48-1.85 5 5 0 0 0-2-1 4.81 4.81 0 0 0-1.85-.06 5 5 0 0 1 1.88.95zm20.43-5.17a5.73 5.73 0 0 1 1.35 1.82 7.34 7.34 0 0 1 .7 2.47l3.64 34.39a8.15 8.15 0 0 1-.16 2.63 8.47 8.47 0 0 1-.93 2.4 7.46 7.46 0 0 1-1.55 1.91 5.76 5.76 0 0 1-2 1.16 4.62 4.62 0 0 1-.61.15l.43.11a4.5 4.5 0 0 0 2.16-.15 5.74 5.74 0 0 0 2-1.17 7.43 7.43 0 0 0 1.55-1.91 8.47 8.47 0 0 0 .93-2.4 8.23 8.23 0 0 0 .16-2.63l-3.64-34.39a7.27 7.27 0 0 0-.7-2.47 5.71 5.71 0 0 0-1.39-1.82 4.65 4.65 0 0 0-1.89-1 4.5 4.5 0 0 0-1.85-.06 4.64 4.64 0 0 1 1.8.96zm-9.83 65.14a6.48 6.48 0 0 0-.72-2.37 5.05 5.05 0 0 0-1.43-1.67 4.41 4.41 0 0 0-1.94-.82 4.63 4.63 0 0 0-1.47 0 4.45 4.45 0 0 1 1.42.7 5.08 5.08 0 0 1 1.43 1.67 6.54 6.54 0 0 1 .72 2.37l3.85 33.52a7.88 7.88 0 0 1-.15 2.6 8.92 8.92 0 0 1-.94 2.44 8.29 8.29 0 0 1-1.58 2 6.6 6.6 0 0 1-2.07 1.32 5.31 5.31 0 0 1-1 .27 4.27 4.27 0 0 0 .78.16 4.88 4.88 0 0 0 2.2-.32 6.53 6.53 0 0 0 2.07-1.32 8.23 8.23 0 0 0 1.58-2 8.8 8.8 0 0 0 .94-2.43 7.92 7.92 0 0 0 .15-2.6zm23.11 26.26l-3.47-32.79a6.52 6.52 0 0 0-.67-2.32 4.94 4.94 0 0 0-1.35-1.65 4.15 4.15 0 0 0-1.83-.81 4.26 4.26 0 0 0-1.49 0 4.17 4.17 0 0 1 1.34.7 4.93 4.93 0 0 1 1.35 1.64 6.55 6.55 0 0 1 .67 2.32l3.47 32.84a7.94 7.94 0 0 1-.15 2.54 8.83 8.83 0 0 1-.9 2.37 8 8 0 0 1-1.51 1.95 6.17 6.17 0 0 1-2 1.27 4.85 4.85 0 0 1-.86.24 3.85 3.85 0 0 0 .75.16 4.46 4.46 0 0 0 2.09-.29 6.2 6.2 0 0 0 2-1.27 8.08 8.08 0 0 0 1.51-1.95 8.81 8.81 0 0 0 .9-2.37 7.94 7.94 0 0 0 .15-2.58zm-43.79-19.38a6.53 6.53 0 0 0-.78-2.42 5.22 5.22 0 0 0-1.52-1.7 4.73 4.73 0 0 0-2.05-.82 5 5 0 0 0-1.44 0 4.72 4.72 0 0 1 1.51.71 5.2 5.2 0 0 1 1.52 1.7 6.56 6.56 0 0 1 .78 2.42l4.27 34.28a7.86 7.86 0 0 1-.14 2.67 9 9 0 0 1-1 2.5 8.53 8.53 0 0 1-1.65 2.07 7 7 0 0 1-2.18 1.37 5.6 5.6 0 0 1-1.16.31 4.47 4.47 0 0 0 .82.15 5.31 5.31 0 0 0 2.32-.36 7 7 0 0 0 2.18-1.37 8.63 8.63 0 0 0 1.65-2.08 8.92 8.92 0 0 0 1-2.5 7.84 7.84 0 0 0 .14-2.67zm-44.81 14.9a6.54 6.54 0 0 0-.9-2.53 5.56 5.56 0 0 0-1.72-1.76 5.45 5.45 0 0 0-2.3-.82 5.91 5.91 0 0 0-1.38 0 5.43 5.43 0 0 1 1.7.72 5.58 5.58 0 0 1 1.71 1.8 6.53 6.53 0 0 1 .9 2.53l5.24 35.91a7.81 7.81 0 0 1-.12 2.81 9.14 9.14 0 0 1-1.05 2.65 9.28 9.28 0 0 1-1.82 2.22 8 8 0 0 1-2.42 1.49 6.53 6.53 0 0 1-1.57.39 5.42 5.42 0 0 0 1 .15 6.29 6.29 0 0 0 2.59-.43 8 8 0 0 0 2.42-1.49 9.28 9.28 0 0 0 2.87-4.87 7.83 7.83 0 0 0 .12-2.8zm23.01-7.65a6.56 6.56 0 0 0-.84-2.48 5.39 5.39 0 0 0-1.62-1.73 5.06 5.06 0 0 0-2.18-.82 5.49 5.49 0 0 0-1.41 0 5.12 5.12 0 0 1 1.6.71 5.38 5.38 0 0 1 1.62 1.73 6.53 6.53 0 0 1 .84 2.48l4.73 35.08a7.8 7.8 0 0 1-.13 2.73 9 9 0 0 1-1 2.57 8.85 8.85 0 0 1-1.73 2.14 7.48 7.48 0 0 1-2.3 1.43 6.11 6.11 0 0 1-1.35.35 4.85 4.85 0 0 0 .89.15 5.8 5.8 0 0 0 2.45-.39 7.45 7.45 0 0 0 2.3-1.43 8.86 8.86 0 0 0 1.73-2.14 9 9 0 0 0 1-2.57 7.84 7.84 0 0 0 .13-2.73z"/><path class="cls-1" d="M199.25 192c-11.13 0-20.21-3.71-27.62-7.35C160.18 179.06 72 135.6 34.3 117l-25-13.53c-17.37-9-8.18-14.22 16.93-20.27 10.15-2.44 96.85-24 112.51-27.57s27.84-1.76 31.06-.76c0 0 145.7 47.8 169.29 55.32s33.82 13.78 6.3 25.32c-8.28 3.47-89.35 37.6-116 48.74l-5.07 2.12c-9.05 3.78-17.25 5.62-25 5.62zM27.51 90.18c-10.15 2.43-15.27 5.36-5.51 10.15s139.79 68.89 153.87 75.78 26 9.34 44.8 1.49 112.19-46.82 120.85-50.75 6.35-5.49-6-9.52S176 63.79 170.28 62s-15.26-2.88-26.92 0S37.66 87.74 27.51 90.18z"/><path class="cls-1" d="M199.25 192c-11.13 0-20.21-3.71-27.62-7.35C160.18 179.06 72 135.6 34.3 117l-25-13.53c-17.37-9-8.18-14.22 16.93-20.27 10.15-2.44 96.85-24 112.51-27.57s27.84-1.76 31.06-.76c0 0 145.7 47.8 169.29 55.32s33.82 13.78 6.3 25.32c-8.28 3.47-89.35 37.6-116 48.74l-5.07 2.12c-9.05 3.78-17.25 5.62-25 5.62zM27.51 90.18c-10.15 2.43-15.27 5.36-5.51 10.15s139.79 68.89 153.87 75.78 26 9.34 44.8 1.49 112.19-46.82 120.85-50.75 6.35-5.49-6-9.52S176 63.79 170.28 62s-15.26-2.88-26.92 0S37.66 87.74 27.51 90.18z"/><path class="cls-1" d="M27.59 90.88c10.15-2.44 104.2-25.19 115.86-28.11s21.23-1.8 26.92 0S323.25 114 335.57 118c6.69 2.19 10.42 3.65 11.06 5.16.36-1.77-3.43-3.33-11.14-5.85C323.17 113.3 176 63.79 170.28 62s-15.26-2.88-26.92 0S37.66 87.74 27.51 90.18c-6.87 1.65-11.43 3.52-10.64 6 .13-2.13 4.5-3.81 10.72-5.3z"/><path class="cls-3" d="M166.83 210a4.3 4.3 0 1 1 2 5.74 4.3 4.3 0 0 1-2-5.74z"/><path class="cls-3" d="M167.65 208.88a4.3 4.3 0 1 1 4.85 6.93 4.3 4.3 0 0 0-4.85-6.93zm.2 3.86a.89.89 0 1 1 .42 1.19.89.89 0 0 1-.42-1.19z"/><path class="cls-4" d="M120.18 154.86l73.12 67.71c11.47 10.52-32.42 63.81-43.81 56l-82.78-55.32 53.47-68.39z"/><path class="cls-3" d="M108.8 169.41q4.58 3.09 9.08 6.6c38.24 29.93 55.78 71.42 39.16 92.65a29 29 0 0 1-10.23 8.16l-80.1-53.57 42.1-53.85z"/><path class="cls-4" d="M98 183.17c3.07 2 6.13 4.18 9.13 6.53 31.44 24.6 45.85 58.71 32.19 76.16a22.85 22.85 0 0 1-3.54 3.61l-69.07-46.22L98 183.17z"/><path class="cls-5" d="M111.41 141.34l.65.29 9.56 7.48c8.3 6.5-19.2 42.76-21.25 45.37-16.62 21.23-34 35.36-38.9 31.55l-9.81-7.67 59.74-77z"/><path class="cls-3" d="M95.07 175.88l4.45 3.48c2.84 2.22 4 4.4 1 10.51a48.13 48.13 0 0 1-13.42 15.82c-6.68 4.92-10.67 3.74-13.61 1.44l-5.88-4.6c5.67-7.25 14.23-35.86 27.44-26.65z"/><path class="cls-5" d="M95.07 175.88l4.45 3.48c2.84 2.22 4 4.4 1 10.51a48.13 48.13 0 0 1-13.42 15.82c-6.68 4.92-10.67 3.74-13.61 1.44l-5.88-4.6c2.4-3.07 5.32-10 8.9-16.22l7.8-10.06c3.19-2.49 6.75-3.16 10.74-.37z"/><path class="cls-5" d="M73.07 173.11c16.62-21.23 34-35.36 38.9-31.56s-4.66 24.12-21.28 45.35-34 35.36-38.9 31.56 4.66-24.11 21.28-45.35z"/><path class="cls-5" d="M73.92 173.78c13.85-17.7 27.84-29.89 31.25-27.23s-5.07 19.18-18.92 36.87-27.84 29.9-31.25 27.24 5.07-19.17 18.92-36.88z"/><path class="cls-6" d="M112.31 203.82c8.46-10.81 18.82-16.83 23.14-13.44s1 14.89-7.49 25.7-18.82 16.83-23.14 13.45-1-14.89 7.49-25.7z"/><path class="cls-3" d="M148.57 254.71c7.77-12.78 6.58-21.28 3-32.44 5.43 3.34 9.68 8.2 13.16 16.9l.32-.38c-3.62-9-8-13.87-13.71-17.23-.78-2.39-1.67-4.9-2.59-7.6 6.49.66 12.5 3.22 19.49 9.75l.13-.48c-7.11-6.6-13.21-9.15-19.8-9.78h-.54c1 3 2 5.7 2.83 8.28v.16c3.72 11.38 5.06 19.89-2.84 32.79h.49z"/><path class="cls-6" d="M143.15 253.53a4.3 4.3 0 1 1 2 5.74 4.3 4.3 0 0 1-2-5.74zm4.68-8.46a4.3 4.3 0 1 1 2 5.74 4.3 4.3 0 0 1-2-5.74zm2.32-9.64a4.3 4.3 0 1 1 2 5.73 4.3 4.3 0 0 1-2-5.73zm7.79-4.64a4.3 4.3 0 1 1 2 5.74 4.3 4.3 0 0 1-2-5.74zm4.92 8.29a4.3 4.3 0 1 1 2 5.74 4.3 4.3 0 0 1-2-5.74zm-5.44-22.86a4.3 4.3 0 1 1 2 5.73 4.29 4.29 0 0 1-2-5.73zm7.58 5.61a4.3 4.3 0 1 1 2 5.73 4.3 4.3 0 0 1-2-5.73z"/><path class="cls-3" d="M268.73 224.65l-7.45-41.15q-3.29 1.19-6.78 2.25l7.44 41.11q3.48-1 6.78-2.21z"/><path class="cls-3" d="M267.59 218.34l-5.16-28.5q-3.37 1.2-6.78 2.23l5.16 28.49q3.41-1 6.78-2.22z"/><path class="cls-3" d="M266.44 212l-2.87-15.86q-3.37 1.19-6.78 2.22l2.87 15.88q3.41-1 6.78-2.23z"/><path class="cls-3" d="M252.32 251.26l-14.14-78.11c-1.4-7.73 1.56-16.57 3.67-24 2.24-7.85 4.76-15.59 3.51-24.14l-1.14-7.75 24.26-4.34 1.65 7.65c1.76 8.16 7 15 11.86 21.69 4.57 6.25 10.55 13.7 12 21.46l14 77.18-.44 1c-1.2 2.66-6.15 5-8.82 6.08a89.35 89.35 0 0 1-17.25 4.89 87.92 87.92 0 0 1-18 1.78c-2.93-.06-8.47-.44-10.48-2.65l-.66-.72z"/><path class="cls-3" d="M255.47 249.71c1.09 1.19 6.64 1.51 8.05 1.54a85.64 85.64 0 0 0 17.26-1.72 87.21 87.21 0 0 0 16.59-4.69c1.33-.55 6.35-2.84 7-4.35l-13.79-76.14c-1.27-7-7.22-14.42-11.35-20.06-2.17-3-4.29-5.94-6.19-9-4.06-6.59-5.79-10.12-7.17-19.1l-18.15 3.25c1.81 8.6 1.45 13-.1 20.58-.69 3.38-1.6 6.74-2.56 10.12-1.91 6.69-4.86 15.48-3.6 22.44l14 77.16z"/><path class="cls-7" d="M255.47 249.71c1.09 1.19 6.64 1.51 8.05 1.54a85.64 85.64 0 0 0 17.26-1.72 87.21 87.21 0 0 0 16.59-4.69c1.33-.55 6.35-2.84 7-4.35l-13.79-76.14c-1.27-7-7.22-14.42-11.35-20.06-1.46-2-2.88-4-4.24-6l-28.12 5.09c-.54 2.24-1.16 4.49-1.8 6.74-1.91 6.69-4.86 15.48-3.6 22.44l14 77.16z"/><path class="cls-7" d="M260.43 137.83c7.8-1.41 14.4-1.07 14.73.77s-5.73 4.47-13.53 5.88-14.4 1.07-14.73-.77 5.73-4.47 13.53-5.88z"/><path class="cls-8" d="M251.17 195.08l7.49 41.35a141 141 0 0 0 29.21-4.25c5-1.23 9.75-2.67 14.27-4.26l-7.45-41.15a146.29 146.29 0 0 1-14.26 4.32 128.62 128.62 0 0 1-29.25 4z"/><path class="cls-9" d="M257.29 201.27l5.17 28.54a140.57 140.57 0 0 0 24.27-3.94c4.77-1.19 9.55-2.6 14.27-4.26l-5.16-28.51c-4.72 1.68-9.49 3.1-14.26 4.28a137.4 137.4 0 0 1-24.27 3.89z"/><path class="cls-8" d="M263.36 207.2l2.87 15.8a141 141 0 0 0 19.35-3.47c4.8-1.19 9.57-2.6 14.26-4.28L297 199.43c-4.7 1.67-9.47 3.07-14.27 4.27a146.38 146.38 0 0 1-19.34 3.51z"/><path class="cls-9" d="M238.19 104.65l31.6-5.72 3.11 17.17c.67 3.72-31 9.09-31.6 5.73l-3.11-17.18z"/><path class="cls-9" d="M269.8 98.93c.62 3.42-31 9.14-31.6 5.72s31-9.14 31.6-5.72z"/><path class="cls-10" d="M120.46 86.59l-6.72 80.81c-1 12.63-57.15 11.22-57.88 0l-6-80.81h70.64z"/><path class="cls-2" d="M105.44 86.59q.32 4.49.32 9.13c0 39.51-17.79 71.56-39.73 71.56a23.57 23.57 0 0 1-10.36-2.46l-5.84-78.2h55.62z"/><path class="cls-10" d="M91.22 86.6c.26 3 .39 6 .39 9.12C91.62 128.2 77 154.55 59 154.55a18.54 18.54 0 0 1-4.09-.46l-5-67.47h41.4z"/><path class="cls-11" d="M124.73 74.19l.14.57v9.88c0 8.58-37 9.14-39.73 9.14-21.94 0-39.73-4.08-39.73-9.11V74.53l79.32-.35z"/><path class="cls-11" d="M85.14 65.55c21.94 0 39.73 4.08 39.73 9.11s-17.79 9.1-39.73 9.1-39.73-4.08-39.73-9.1 17.79-9.11 39.73-9.11z"/><path class="cls-11" d="M85.14 66.43c18.29 0 33.12 2.85 33.12 6.37s-14.83 6.37-33.12 6.37S52 76.32 52 72.8s14.83-6.37 33.12-6.37z"/><path class="cls-3" d="M300.15 131.11l-3.6 6.78c4.22 1.14 7.19 1.18 7.9-.15s-1-3.77-4.3-6.63zm12.06 51.53c-.4-2.68 1.09-5.53 3.52-5.44-1.71.68-2.68 3-2.38 5.19l-1.14.25z"/><path class="cls-12" d="M289.72 123.27c7.52-14.17 15.83-5.24 24.51-21.59l7.21-13.59 25.44 14.21-7.21 13.59c-8.68 16.35 3.37 18.23-4.15 32.39L302 211.53c-4.49 8.17-50.75-15.7-46.21-24.25l34-64z"/><path class="cls-13" d="M306 197.28l9.34-17.58 17.45-32.87c2.3-4.34 2.73-7.14 1.67-11.84a32 32 0 0 1-1.18-8.35 27.8 27.8 0 0 1 3.66-12.21l5.78-10.89-20-11.17-5.72 10.78a27.85 27.85 0 0 1-8.06 9.87 32.14 32.14 0 0 1-7.58 3.7c-4.49 1.76-6.57 3.68-8.87 8l-17.8 33.52-9.46 17.82c-11.76 22.15 29.49 42.44 40.76 21.2z"/><path class="cls-14" d="M324.73 79.71l27.55 14.63-9.53 18c-2.06 3.89-29.42-11.11-27.56-14.62l9.53-18z"/><path class="cls-14" d="M352.28 94.35c-1.9 3.58-29.45-11.05-27.55-14.63s29.45 11.05 27.55 14.63z"/><path class="cls-3" d="M300.37 158.87c6.74 3.58 8.05 14.29 2.94 23.93s-14.73 14.55-21.47 11-8.06-14.29-2.94-23.93 14.73-14.55 21.47-11z"/><path class="cls-3" d="M288.85 177.9c-.26-6.76 4.77-14.81 11.93-15.54l.36.8c-6.94.45-11.83 8.53-11.45 15l-.84-.24z"/><path class="cls-14" d="M289.34 175.46c10.15-4.55 11.32 14.5-1.27 13.17s-7.88-19.93 1.27-13.17z"/><path class="cls-15" d="M188.94 215.06l58.25-21.05L199.7 51l-58.66 19.83 47.9 144.23z"/><path class="cls-16" d="M178.06 182.3l58.35-20.78-4.11-12.36-58.38 20.68 4.14 12.46zm-13.93-41.96l58.46-20.42-8.08-24.33-58.53 20.22 8.15 24.53zm24.81 74.72l58.25-21.05-7.94-23.94-58.32 20.86 8.01 24.13z"/><path class="cls-17" d="M160.46 38.74l4.82-1.62-4.54-13.67-4.83 1.6 4.55 13.69z"/><path class="cls-17" d="M141.04 70.83l4.56 2.25 19.72-39.22-4.54-2.26-19.74 39.23z"/><path class="cls-17" d="M199.7 51l-2.26 4.52-38.95-19.37 2.29-4.53L199.7 51z"/><path class="cls-17" d="M144.32 69.72l52.14-17.63-30.06-3.55zm52.14-17.63l-30.06-3.55-4.4-13.21 14.43 7z"/><path class="cls-17" d="M144.33 69.71l22.07-21.18-4.4-13.2-7.39 14.33z"/><path class="cls-15" d="M149.74 222.93l39.18-7.93-47.89-144.19L106 91.22l43.74 131.71z"/><path class="cls-15" d="M139.8 193.01l38.24-10.76-4.13-12.46-37.89 11.84 3.78 11.38zm9.94 29.92l39.18-7.93-8.01-24.13-38.49 10.02 7.32 22.04z"/><path class="cls-15" d="M149.74 222.93l39.18-7.93-47.89-144.19L106 91.22l43.74 131.71z"/><path class="cls-17" d="M106 91.22l35-20.41 18.13-36-34.05 23.95zm16.85-39.88L155.91 25l3.25 9.77-34.08 23.99z"/><path class="cls-3" d="M179.52 84.35c11.58-3.84 25.39 6.36 30.84 22.79s.5 32.87-11.08 36.71-25.39-6.36-30.84-22.79-.5-32.87 11.08-36.71z"/><path class="cls-18" d="M188.16 111.15l-7.72-20.5c-.78-2.07 2.51-2.53 4-2.62 2.82-.15 7 1.75 6.84 3.47l-1.67 19.79c-.09 1-1 .87-1.43-.15zm1.61.22L193 91.79c.33-2 3.53.59 4.9 1.82 2.63 2.34 5.45 7.16 4.45 8.1L191 112.7c-.68.65-1.43 0-1.22-1.33zm1.34 1.54l12.69-9.5c1.28-1 2.89 3.43 3.53 5.39 1.21 3.75 1.36 9.23 0 8.94l-15.76-3a1 1 0 0 1-.44-1.89zm.44 2.13l16.21 5c1.63.51.91 4.67.5 6.45-.78 3.4-3.37 7-4.48 5.6L191 116.6c-.73-.89-.55-1.91.54-1.57zm-.66 1.73L203 134c1.22 1.73-1.5 3.71-2.76 4.48-2.4 1.46-6.53 1.46-6.85-.36l-3.8-20.81c-.22-1.19.46-1.68 1.28-.51zm-1.46.52l2.39 21.33c.24 2.14-3.21 1-4.73.42-2.9-1.16-6.62-4.74-6-6.16l6.91-16.39c.4-.94 1.25-.66 1.41.78zm-1.57-.94l-8.48 15.47c-.85 1.56-3.42-2.13-4.49-3.83-2-3.24-3.62-8.72-2.35-9.08l14.46-4.28c.79-.24 1.47.63.88 1.71zm-.95-2l-15.38 2.38c-1.55.23-2-4.31-2.14-6.3-.23-3.81 1.07-8.62 2.4-7.75l15.21 9.87c.83.54 1 1.67-.06 1.84zm.11-2.06L172 100.5c-1.51-1.18.32-4.45 1.21-5.81 1.69-2.59 5.27-4.48 6-2.79l8.79 19.34c.48 1.06.07 1.91-1 1.09z"/><path class="cls-19" d="M246.5 167.5a25 25 0 0 0-1.48-7.92 28.36 28.36 0 0 0-4.76-7.91c-2.29-3.22-4.24-8.79-2.31-19.08l-12.22-2.48-12.22-2.48c-2.23 10.23-6.19 14.6-9.55 16.67a28.37 28.37 0 0 0-7.46 5.43 25 25 0 0 0-4.45 6.72 24.39 24.39 0 0 0-1.42 4.15L170.3 260.9c-.84 4.22 10.9 10.16 26.24 13.27s28.47 2.21 29.33-2l20.33-100.31a24.34 24.34 0 0 0 .3-4.36z"/><path class="cls-20" d="M243 166.86a21.82 21.82 0 0 0-1.29-6.9 22.43 22.43 0 0 0-3.82-6.45c-16.86 1.11-28.74-4.45-32.53-6.55a22.24 22.24 0 0 0-6 4.42 21.81 21.81 0 0 0-3.88 5.86 21.26 21.26 0 0 0-1.24 3.62l-20 98.53c-.74 3.68 9.5 8.86 22.88 11.57s24.82 1.93 25.58-1.75l20-98.54a21.23 21.23 0 0 0 .3-3.81z"/><path class="cls-17" d="M240 119.41l-23.25-4.71a3.83 3.83 0 0 0-4.51 3l-1.89 9.3c-.25 1.25 6.43 3.65 14.92 5.37s15.58 2.11 15.83.86l1.89-9.31a3.83 3.83 0 0 0-2.99-4.51z"/><ellipse class="cls-17" cx="228.25" cy="117.64" rx="1.97" ry="13.4" transform="rotate(-78.54 228.254 117.64)"/><path class="cls-21" d="M215.31 182.69a117.17 117.17 0 0 1-27.32-9.1L175.13 237a106.72 106.72 0 0 0 44.53 11.44l12.9-63.65a116.7 116.7 0 0 1-17.25-2.1z"/><path class="cls-20" d="M205.35 147s15.1-4.15 32.53 6.55c.01-.04-18.39 1.53-32.53-6.55z"/><path class="cls-2" d="M342.37 144.32s-28.49 93.2-31.23 101-5.81 12.89-15.69 17.94-82.86 45.69-89.38 49.51-18.26 4.69-27.88-1.83S60.14 238 55.1 234.83c-4.52-2.83-7.39-7.56-10.55-17.83S18.34 110.6 18.34 110.6l178.37 88.85zM221.46 259.95a14.13 14.13 0 0 0-2.67 1.76 16.28 16.28 0 0 0-2.28 2.33 13.63 13.63 0 0 0-1.66 2.58 7.89 7.89 0 0 0-.78 2.53l-3.13 29.24a3 3 0 0 0 .29 1.79 2 2 0 0 0 1.2.91 3.9 3.9 0 0 0 1.92 0 9.17 9.17 0 0 0 2.43-1 14.46 14.46 0 0 0 2.52-1.78 16.78 16.78 0 0 0 2.14-2.22 13.55 13.55 0 0 0 1.55-2.41 7.42 7.42 0 0 0 .75-2.32l3.6-29a3.59 3.59 0 0 0-.23-2 2.27 2.27 0 0 0-1.17-1.14 3.71 3.71 0 0 0-1.95-.2 8.14 8.14 0 0 0-2.53.82zm6.06-52.48a7.42 7.42 0 0 1 2.69-.63 3.8 3.8 0 0 1 2.05.49 3 3 0 0 1 1.23 1.47 4.74 4.74 0 0 1 .23 2.33l-4.11 33.08a8.34 8.34 0 0 1-.81 2.58 13.63 13.63 0 0 1-1.66 2.59 16 16 0 0 1-2.28 2.31 13.3 13.3 0 0 1-2.67 1.74 8.11 8.11 0 0 1-2.58.81 3.87 3.87 0 0 1-2-.23 2.47 2.47 0 0 1-1.26-1.2 3.85 3.85 0 0 1-.29-2.1l3.59-33.48a8.94 8.94 0 0 1 .84-2.84 14 14 0 0 1 1.78-2.79 15.5 15.5 0 0 1 2.44-2.41 12.62 12.62 0 0 1 2.84-1.7zm17.4 40.83a7.21 7.21 0 0 1 2.35-.75 3.17 3.17 0 0 1 1.77.25 2.1 2.1 0 0 1 1 1.15 3.76 3.76 0 0 1 .14 1.95l-4.36 28.46a7.84 7.84 0 0 1-.77 2.27 13.64 13.64 0 0 1-1.51 2.33 16.56 16.56 0 0 1-2 2.14 14.31 14.31 0 0 1-2.37 1.68 7.85 7.85 0 0 1-2.26.87 3.36 3.36 0 0 1-1.75-.06 1.81 1.81 0 0 1-1.06-.94 3.08 3.08 0 0 1-.2-1.78l3.95-28.73a8.31 8.31 0 0 1 .8-2.47 13.89 13.89 0 0 1 1.61-2.49 16.09 16.09 0 0 1 2.14-2.18 12.66 12.66 0 0 1 2.5-1.66zm7.46-51.3a6.39 6.39 0 0 1 2.47-.56 3.26 3.26 0 0 1 1.86.52 2.78 2.78 0 0 1 1.07 1.47 4.92 4.92 0 0 1 .12 2.28L253 233a8.93 8.93 0 0 1-.84 2.52 13.9 13.9 0 0 1-1.66 2.48 15.67 15.67 0 0 1-2.17 2.21 12.38 12.38 0 0 1-2.51 1.64 7.24 7.24 0 0 1-2.38.73 3.32 3.32 0 0 1-1.83-.28 2.32 2.32 0 0 1-1.11-1.21 4 4 0 0 1-.18-2.07l4.5-32.74a9.45 9.45 0 0 1 .87-2.76 14.11 14.11 0 0 1 1.72-2.69 15 15 0 0 1 2.32-2.31 11.63 11.63 0 0 1 2.65-1.61zm14.44 40.46a6.27 6.27 0 0 1 2.17-.67 2.77 2.77 0 0 1 1.61.29 2 2 0 0 1 .91 1.16 4 4 0 0 1 .06 1.93l-5 27.95a8.12 8.12 0 0 1-.79 2.22 13.74 13.74 0 0 1-1.47 2.27 15.23 15.23 0 0 1-2 2.05 12.38 12.38 0 0 1-2.24 1.6 7.08 7.08 0 0 1-2.11.8 2.92 2.92 0 0 1-1.6-.11 1.71 1.71 0 0 1-.94-1 3.29 3.29 0 0 1-.11-1.75L260 246a8.63 8.63 0 0 1 .82-2.41 13.86 13.86 0 0 1 1.56-2.42 15.67 15.67 0 0 1 2.07-2.14 12.1 12.1 0 0 1 2.35-1.58zm8.63-50.22a5.61 5.61 0 0 1 2.28-.5 2.81 2.81 0 0 1 1.68.55 2.67 2.67 0 0 1 .93 1.46 5.14 5.14 0 0 1 0 2.24l-5.67 31.63a9.27 9.27 0 0 1-.86 2.46 13.85 13.85 0 0 1-1.56 2.42 15 15 0 0 1-2.06 2.12 11.63 11.63 0 0 1-2.35 1.56 6.17 6.17 0 0 1-2.21.65 2.79 2.79 0 0 1-1.67-.32 2.18 2.18 0 0 1-1-1.22 4.2 4.2 0 0 1-.1-2l5.29-32a9.73 9.73 0 0 1 .9-2.68 14.13 14.13 0 0 1 1.67-2.6 14.58 14.58 0 0 1 2.2-2.21 10.62 10.62 0 0 1 2.48-1.52zm11.82 40.06a5.54 5.54 0 0 1 2-.61 2.33 2.33 0 0 1 1.48.32 2 2 0 0 1 .8 1.16 4.17 4.17 0 0 1 0 1.9L286 257.48a8.55 8.55 0 0 1-.81 2.17 13.57 13.57 0 0 1-1.43 2.2 15.29 15.29 0 0 1-1.87 2 12 12 0 0 1-2.12 1.52 6.3 6.3 0 0 1-2 .73 2.44 2.44 0 0 1-1.47-.15 1.62 1.62 0 0 1-.84-1 3.46 3.46 0 0 1 0-1.74l5.27-27.73a8.93 8.93 0 0 1 .84-2.35 14.12 14.12 0 0 1 1.52-2.34 15.11 15.11 0 0 1 2-2.06 11.13 11.13 0 0 1 2.21-1.49zm9.67-49.15a4.9 4.9 0 0 1 2.11-.44 2.44 2.44 0 0 1 1.52.57 2.6 2.6 0 0 1 .8 1.45 5.4 5.4 0 0 1 0 2.19l-6.28 30.95a9.82 9.82 0 0 1-.87 2.4 14 14 0 0 1-1.52 2.35 14.58 14.58 0 0 1-2 2 10.9 10.9 0 0 1-2.21 1.47 5.5 5.5 0 0 1-2.05.6 2.43 2.43 0 0 1-1.52-.35 2.1 2.1 0 0 1-.85-1.23 4.41 4.41 0 0 1 0-2l6-31.32a10.17 10.17 0 0 1 .91-2.61 14.27 14.27 0 0 1 1.62-2.51 13.93 13.93 0 0 1 2.09-2.12 9.77 9.77 0 0 1 2.33-1.43zm9.51 39.62a4.88 4.88 0 0 1 1.89-.56 2.05 2.05 0 0 1 1.35.35 1.9 1.9 0 0 1 .7 1.16 4.44 4.44 0 0 1-.07 1.87l-6.06 27a9.11 9.11 0 0 1-.81 2.14 14.07 14.07 0 0 1-1.4 2.13 14.93 14.93 0 0 1-1.79 1.91 11.3 11.3 0 0 1-2 1.45 5.67 5.67 0 0 1-1.84.68 2.16 2.16 0 0 1-1.35-.19 1.57 1.57 0 0 1-.74-1 3.67 3.67 0 0 1 0-1.72l5.8-27.24a9.31 9.31 0 0 1 .86-2.3 14 14 0 0 1 1.48-2.27 14.48 14.48 0 0 1 1.89-2 10.4 10.4 0 0 1 2.09-1.42zM317 169.62a4.32 4.32 0 0 1 2-.39 2.15 2.15 0 0 1 1.38.59 2.58 2.58 0 0 1 .69 1.43 5.69 5.69 0 0 1-.11 2.15l-6.8 30.29a10.11 10.11 0 0 1-.88 2.34 14.55 14.55 0 0 1-3.36 4.24 10.05 10.05 0 0 1-2.09 1.4 5 5 0 0 1-1.91.54 2.15 2.15 0 0 1-1.4-.39 2.07 2.07 0 0 1-.74-1.22 4.64 4.64 0 0 1 .06-2l6.45-30.6a10.6 10.6 0 0 1 .93-2.55 14.19 14.19 0 0 1 1.58-2.43 13.5 13.5 0 0 1 2-2 9 9 0 0 1 2.19-1.36zM49.83 185.69a8.39 8.39 0 0 1 1.7 1.35 13 13 0 0 1 1.53 1.88 13.34 13.34 0 0 1 1.18 2.15 9.6 9.6 0 0 1 .66 2.17L59.19 219a4 4 0 0 1 0 1.63 1.55 1.55 0 0 1-.62.94 1.58 1.58 0 0 1-1.12.19 4.1 4.1 0 0 1-1.5-.62 8.89 8.89 0 0 1-1.62-1.34 13.22 13.22 0 0 1-1.44-1.79 13 13 0 0 1-1.12-2 8.81 8.81 0 0 1-.64-2l-4.55-25.57a4.78 4.78 0 0 1 0-1.78 1.88 1.88 0 0 1 .6-1.1 1.55 1.55 0 0 1 1.13-.33 3.67 3.67 0 0 1 1.55.54zM41.94 140a7.66 7.66 0 0 1 1.8 1.34 12.66 12.66 0 0 1 1.62 2 14.1 14.1 0 0 1 1.26 2.34 10.89 10.89 0 0 1 .73 2.43l4.86 29.08a5 5 0 0 1 0 1.87 2 2 0 0 1-.64 1.15 1.62 1.62 0 0 1-1.16.35 3.67 3.67 0 0 1-1.57-.53 8.24 8.24 0 0 1-1.71-1.35 12.59 12.59 0 0 1-1.53-1.88 13.71 13.71 0 0 1-1.19-2.17 10.13 10.13 0 0 1-.69-2.23l-5.13-28.87a6.05 6.05 0 0 1-.05-2 2.52 2.52 0 0 1 .61-1.35 1.67 1.67 0 0 1 1.17-.52 3.26 3.26 0 0 1 1.63.43zm23.45 54.77a8.75 8.75 0 0 1 1.78 1.4 13 13 0 0 1 1.57 1.93 13.22 13.22 0 0 1 1.19 2.2 9.17 9.17 0 0 1 .64 2.21l3.8 26a3.73 3.73 0 0 1-.06 1.63 1.53 1.53 0 0 1-.69.92 1.77 1.77 0 0 1-1.2.16 4.5 4.5 0 0 1-1.58-.67 9.29 9.29 0 0 1-1.69-1.39 13 13 0 0 1-1.48-1.84 12.71 12.71 0 0 1-1.13-2 8.64 8.64 0 0 1-.62-2l-4.08-25.82a4.54 4.54 0 0 1 0-1.79 1.88 1.88 0 0 1 .67-1.09 1.73 1.73 0 0 1 1.21-.3 4.06 4.06 0 0 1 1.64.58zm-7.06-46.31a8 8 0 0 1 1.88 1.4 12.78 12.78 0 0 1 1.67 2 13.84 13.84 0 0 1 1.28 2.39 10.67 10.67 0 0 1 .7 2.47l4.32 29.45a4.81 4.81 0 0 1 0 1.88 2 2 0 0 1-.71 1.15 1.81 1.81 0 0 1-1.25.32 4 4 0 0 1-1.67-.57 8.67 8.67 0 0 1-1.78-1.4 12.82 12.82 0 0 1-1.57-1.93 13.4 13.4 0 0 1-1.2-2.22 10 10 0 0 1-.67-2.27l-4.62-29.24a5.84 5.84 0 0 1 0-2.07 2.53 2.53 0 0 1 .69-1.35 1.84 1.84 0 0 1 1.26-.5 3.61 3.61 0 0 1 1.72.46zm23.4 55.8a9.16 9.16 0 0 1 1.85 1.46 13.12 13.12 0 0 1 1.62 2 13 13 0 0 1 1.2 2.24 8.78 8.78 0 0 1 .62 2.24l3.26 26.21a3.55 3.55 0 0 1-.12 1.64 1.59 1.59 0 0 1-.76.91 2 2 0 0 1-1.28.13 4.79 4.79 0 0 1-1.67-.71 9.65 9.65 0 0 1-1.76-1.45 13.09 13.09 0 0 1-1.52-1.93 12.57 12.57 0 0 1-1.17-2.12 8.22 8.22 0 0 1-.6-2.07l-3.57-26.07a4.34 4.34 0 0 1 .08-1.8 1.9 1.9 0 0 1 .75-1.08 1.94 1.94 0 0 1 1.3-.27 4.5 4.5 0 0 1 1.74.63zm-6.13-46.88a8.42 8.42 0 0 1 2 1.45 12.84 12.84 0 0 1 1.72 2.09 13.61 13.61 0 0 1 1.29 2.44 10.15 10.15 0 0 1 .67 2.51L85 195.65a4.53 4.53 0 0 1-.11 1.9 1.9 1.9 0 0 1-2.16 1.45 4.44 4.44 0 0 1-1.76-.62 9.08 9.08 0 0 1-1.86-1.45 13 13 0 0 1-1.62-2 13.36 13.36 0 0 1-1.22-2.27 9.4 9.4 0 0 1-.65-2.3l-4.05-29.61a5.53 5.53 0 0 1 .06-2.09 2.54 2.54 0 0 1 .78-1.35 2.06 2.06 0 0 1 1.37-.48 4 4 0 0 1 1.83.51zm23.3 56.81a9.77 9.77 0 0 1 1.94 1.51 13.34 13.34 0 0 1 1.67 2 12.58 12.58 0 0 1 1.22 2.29 8.46 8.46 0 0 1 .59 2.27l2.68 26.48a3.37 3.37 0 0 1-.18 1.64 1.62 1.62 0 0 1-.85.89 2.25 2.25 0 0 1-1.37.1 5.43 5.43 0 0 1-1.76-.76 10.33 10.33 0 0 1-1.83-1.5 13.57 13.57 0 0 1-1.57-1.93 12.53 12.53 0 0 1-1.19-2.18 7.87 7.87 0 0 1-.57-2.09l-3-26.31a4.08 4.08 0 0 1 .14-1.81 1.93 1.93 0 0 1 .84-1.07 2.19 2.19 0 0 1 1.4-.24 4.94 4.94 0 0 1 1.84.68zm-5.09-47.46a8.88 8.88 0 0 1 2.06 1.51 13 13 0 0 1 1.78 2.15A13.29 13.29 0 0 1 99 172.9a9.71 9.71 0 0 1 .64 2.55l3 30.18a4.31 4.31 0 0 1-.18 1.91 2.1 2.1 0 0 1-.89 1.13 2.27 2.27 0 0 1-1.45.26 4.87 4.87 0 0 1-1.86-.67 9.49 9.49 0 0 1-1.94-1.51 13.24 13.24 0 0 1-1.67-2 12.9 12.9 0 0 1-1.23-2.31 9 9 0 0 1-.62-2.33l-3.42-30a5.31 5.31 0 0 1 .13-2.11 2.59 2.59 0 0 1 .87-1.34 2.31 2.31 0 0 1 1.48-.45 4.48 4.48 0 0 1 1.95.56zM117 224.68a10.3 10.3 0 0 1 2 1.58 13.34 13.34 0 0 1 1.72 2.09 12.4 12.4 0 0 1 1.23 2.34 8 8 0 0 1 .56 2.3l2 26.67a3.22 3.22 0 0 1-.25 1.65 1.7 1.7 0 0 1-.94.87 2.58 2.58 0 0 1-1.47.05 6.05 6.05 0 0 1-1.86-.81 10.89 10.89 0 0 1-1.91-1.56 13.62 13.62 0 0 1-1.62-2 12.24 12.24 0 0 1-1.16-2.18 7.45 7.45 0 0 1-.54-2.11L112.37 227a3.9 3.9 0 0 1 .21-1.82 2 2 0 0 1 .93-1.06A2.47 2.47 0 0 1 115 224a5.5 5.5 0 0 1 1.94.73zm-3.93-48a9.43 9.43 0 0 1 2.17 1.58 13.36 13.36 0 0 1 3.17 4.77 9.39 9.39 0 0 1 .61 2.59l2.28 30.55a4.14 4.14 0 0 1-.25 1.92 2.18 2.18 0 0 1-1 1.11 2.6 2.6 0 0 1-1.56.22 5.42 5.42 0 0 1-2-.72 9.92 9.92 0 0 1-2-1.57 13.2 13.2 0 0 1-1.72-2.1 12.71 12.71 0 0 1-1.25-2.36 8.67 8.67 0 0 1-.59-2.37l-2.71-30.35a5.12 5.12 0 0 1 .21-2.13 2.65 2.65 0 0 1 1-1.34A2.61 2.61 0 0 1 111 176a5 5 0 0 1 2.07.61zm23 59.08a10.88 10.88 0 0 1 2.12 1.64 13.46 13.46 0 0 1 1.78 2.16 12.13 12.13 0 0 1 1.24 2.38 7.69 7.69 0 0 1 .52 2.33l1.24 26.88a3.07 3.07 0 0 1-.32 1.65 1.81 1.81 0 0 1-1 .85 3 3 0 0 1-1.58 0 6.73 6.73 0 0 1-2-.87 11.53 11.53 0 0 1-2-1.62 13.66 13.66 0 0 1-1.67-2 11.86 11.86 0 0 1-1.18-2.22 7.14 7.14 0 0 1-.51-2.14L131 238a3.72 3.72 0 0 1 .29-1.83 2.06 2.06 0 0 1 1-1 2.8 2.8 0 0 1 1.63-.17 6.18 6.18 0 0 1 2.07.79zm-2.64-48.58a10 10 0 0 1 2.27 1.65 13.31 13.31 0 0 1 1.91 2.29 12.74 12.74 0 0 1 1.34 2.62 8.92 8.92 0 0 1 .57 2.64l1.43 30.91a4 4 0 0 1-.33 1.93 2.25 2.25 0 0 1-1.1 1.09 3 3 0 0 1-1.68.19 6 6 0 0 1-2.09-.78 10.56 10.56 0 0 1-2.13-1.64 13.49 13.49 0 0 1-1.78-2.16 12.31 12.31 0 0 1-1.26-2.42 8.25 8.25 0 0 1-.56-2.4L128 190.36a4.88 4.88 0 0 1 .3-2.15 2.72 2.72 0 0 1 1.1-1.33 2.94 2.94 0 0 1 1.73-.39 5.59 5.59 0 0 1 2.21.67zm22.71 60.24a11.36 11.36 0 0 1 2.23 1.71 13.77 13.77 0 0 1 1.84 2.22 11.71 11.71 0 0 1 1.25 2.44 7.23 7.23 0 0 1 .48 2.36l.41 27.08a2.91 2.91 0 0 1-.4 1.64 1.93 1.93 0 0 1-1.14.82 3.37 3.37 0 0 1-1.7 0 7.25 7.25 0 0 1-2.08-.93 12.28 12.28 0 0 1-2.09-1.69 14 14 0 0 1-1.72-2.11 11.68 11.68 0 0 1-1.19-2.26 6.8 6.8 0 0 1-.48-2.17l-.88-27a3.54 3.54 0 0 1 .37-1.83 2.2 2.2 0 0 1 1.15-1 3.27 3.27 0 0 1 1.75-.12 6.82 6.82 0 0 1 2.19.86zm-1.18-49.13a10.57 10.57 0 0 1 2.39 1.73 13.39 13.39 0 0 1 2 2.36 12.42 12.42 0 0 1 1.25 2.62 8.45 8.45 0 0 1 .52 2.68l.48 31.26a3.79 3.79 0 0 1-.43 1.94A2.38 2.38 0 0 1 160 242a3.4 3.4 0 0 1-1.82.15 6.84 6.84 0 0 1-2.23-.85 11.34 11.34 0 0 1-2.24-1.71 13.89 13.89 0 0 1-1.85-2.23 12.18 12.18 0 0 1-1.27-2.47 7.82 7.82 0 0 1-.52-2.44l-1-31.07a4.67 4.67 0 0 1 .39-2.17 2.85 2.85 0 0 1 1.22-1.32 3.38 3.38 0 0 1 1.88-.35 6.25 6.25 0 0 1 2.35.73zm22.39 61.45a12 12 0 0 1 2.34 1.79 13.91 13.91 0 0 1 1.91 2.3 11.53 11.53 0 0 1 1.27 2.49 6.89 6.89 0 0 1 .44 2.39l-.51 27.26a2.76 2.76 0 0 1-.49 1.64 2.09 2.09 0 0 1-1.26.79 3.84 3.84 0 0 1-1.83-.1 8 8 0 0 1-2.21-1 12.7 12.7 0 0 1-2.19-1.76 14 14 0 0 1-1.78-2.17 11.21 11.21 0 0 1-1.2-2.31 6.44 6.44 0 0 1-.44-2.19v-27.18a3.43 3.43 0 0 1 .46-1.84 2.39 2.39 0 0 1 1.27-1 3.74 3.74 0 0 1 1.89-.07 7.56 7.56 0 0 1 2.33.92zm.45-49.66a11.25 11.25 0 0 1 2.52 1.81 13.6 13.6 0 0 1 2.06 2.44 12.26 12.26 0 0 1 1.37 2.75 8.07 8.07 0 0 1 .47 2.73l-.59 31.6a3.64 3.64 0 0 1-.53 1.94 2.57 2.57 0 0 1-1.35 1 3.94 3.94 0 0 1-2 .09 7.58 7.58 0 0 1-2.37-.91 11.9 11.9 0 0 1-2.35-1.79 13.86 13.86 0 0 1-1.91-2.3 11.84 11.84 0 0 1-1.29-2.52 7.48 7.48 0 0 1-.47-2.48V213a4.49 4.49 0 0 1 .5-2.19 3 3 0 0 1 1.36-1.3 3.84 3.84 0 0 1 2-.31 7 7 0 0 1 2.52.79z"/><path class="cls-1" d="M226.82 189.59a72.69 72.69 0 0 1-17.27 5l-12.84 4.86L113.56 158l-76.74-37.77-9.68-5.23-8.8-4.39s1.83 7.64 4.54 18.83L36.82 137c37.67 18.56 125.88 62 137.33 67.64 7.41 3.63 16.48 7.35 27.61 7.35 7.8 0 16-1.84 25-5.62l5.08-2.12c22-9.2 81.25-34.49 105.86-44.84l4.61-15.07-77.78 29.44c-13.32 5.59-25.17 10.56-32.7 13.7zM3 97.72z"/><path class="cls-1" d="M345.41 135.54c-8.28 3.47-89.35 37.6-116 48.74l-5.07 2.12c-9.05 3.78-17.25 5.62-25 5.62-11.13 0-20.21-3.71-27.62-7.35C160.18 179.06 72 135.6 34.3 117l-25-13.53C3.65 100.58.83 98 .44 95.76L.38 112c0 2.43 2.84 5.12 8.94 8.28l25 13.53c37.67 18.56 125.88 62 137.33 67.64 7.41 3.63 16.48 7.35 27.62 7.35 7.8 0 16-1.84 25-5.62l5.07-2.12c26.68-11.14 107.76-45.27 116-48.74 10.6-4.44 15.6-8.11 16.39-11.36l.11-17.67c.06 3.46-4.84 7.39-16.43 12.25zM.46 94.54z"/><path class="cls-1" d="M361.91 123.17c.08 3.5-4.78 7.46-16.5 12.37-8.28 3.47-89.35 37.6-116 48.74l-5.07 2.12c-9.05 3.78-17.25 5.62-25 5.62-11.13 0-20.21-3.71-27.62-7.35C160.18 179.06 72 135.6 34.3 117l-25-13.53C3.81 100.66 1 98.18.47 95.94c0 2.42 2.84 5.11 8.93 8.27l25 13.53c37.67 18.56 125.88 62 137.33 67.64 7.41 3.63 16.48 7.35 27.62 7.35 7.8 0 16-1.84 25-5.62l5.07-2.12c26.68-11.14 107.76-45.27 116-48.74 12.58-5.25 17.28-9.4 16.49-13.08zM225.55 13.27a14.26 14.26 0 0 0-2-3.07A13.88 13.88 0 0 0 221 7.85a10.29 10.29 0 0 0-2.84-1.42 6.26 6.26 0 0 0-2.78-.25l-34.72 5.43a2.21 2.21 0 0 1-.72 0 3.1 3.1 0 0 1-.76-.24 4.13 4.13 0 0 1-.75-.44 4.73 4.73 0 0 1-.69-.63 14.52 14.52 0 0 0-2.11-1.91A12.75 12.75 0 0 0 173.29 7a9.81 9.81 0 0 0-2.35-.75 7.08 7.08 0 0 0-2.26-.06L128 12.09a6.84 6.84 0 0 0-.68.13 5.85 5.85 0 0 0-.64.2 5.71 5.71 0 0 0-1.16.57l-11.67 7.42a5.78 5.78 0 0 1 .56-.31 6.08 6.08 0 0 1 .6-.25 5.8 5.8 0 0 1 .64-.2 6.8 6.8 0 0 1 .68-.14l40.45-6.2a7.14 7.14 0 0 1 2.24 0 9.66 9.66 0 0 1 2.33.71 12.4 12.4 0 0 1 2.28 1.32 14.1 14.1 0 0 1 2.08 1.86 4.49 4.49 0 0 0 .68.61 3.94 3.94 0 0 0 .74.43 3.08 3.08 0 0 0 .75.23 2.24 2.24 0 0 0 .72 0l34.68-5.7a6.26 6.26 0 0 1 2.78.22 10 10 0 0 1 2.82 1.37 13.23 13.23 0 0 1 2.55 2.3 13.6 13.6 0 0 1 2 3l27.91 58.69L259 84.14zM109.33 15.1l11.59-7.56a9.29 9.29 0 0 0-2.92 3.08 10.26 10.26 0 0 0-.91 2 11.82 11.82 0 0 0-.5 2.3L105 22.42a11.57 11.57 0 0 1 .51-2.27 10.11 10.11 0 0 1 .92-2 9.43 9.43 0 0 1 2.94-3.05z"/><path class="cls-1" d="M121.74 20.73l-.2.09-.21.07h-.23l-47.36 7.44a9 9 0 0 0-.92.19 8.41 8.41 0 0 0-.85.28 7.41 7.41 0 0 0-.79.36 7.2 7.2 0 0 0-.73.43l-1.16.78-.57.39-9.57 6.48a8 8 0 0 1 .72-.43 8 8 0 0 1 1.64-.63 9.06 9.06 0 0 1 .91-.2l47-7.73h.22l.21-.07.2-.08.18-.1 5.77-3.67 5.93-3.71z"/><path class="cls-1" d="M61.59 41.42a19 19 0 0 1-1.51-5.32 14.81 14.81 0 0 1 .17-4.89A12.3 12.3 0 0 1 62 27a11.54 11.54 0 0 1 3-3.14l-11.15 7.81a11.59 11.59 0 0 0-3.06 3.14 12.22 12.22 0 0 0-1.72 4.11 14.48 14.48 0 0 0-.21 4.8 18.37 18.37 0 0 0 1.45 5.2l51.91 118.54 13-4.48z"/><path class="cls-1" d="M119.91 165.44l-13.07 4.4a3.16 3.16 0 0 1-1.34.14 3.72 3.72 0 0 1-1.32-.39 4.29 4.29 0 0 1-1.15-.87 4.49 4.49 0 0 1-.84-1.26l13-4.48a4.61 4.61 0 0 0 .86 1.3 4.45 4.45 0 0 0 1.17.89 3.76 3.76 0 0 0 1.33.41 3.14 3.14 0 0 0 1.36-.14z"/><path class="cls-1" d="M259.75 84.53c-.79-.37.92.31 1.11.37.57.17 1.15.32 1.73.47l1.2.31L229 13.14a23.5 23.5 0 0 0-3.28-5 22.69 22.69 0 0 0-4.23-3.88 17.13 17.13 0 0 0-4.68-2.37 10.46 10.46 0 0 0-4.61-.45L178.75 6.3a23.24 23.24 0 0 0-3.21-2.49A20.08 20.08 0 0 0 172.13 2a15.88 15.88 0 0 0-3.44-1 11.63 11.63 0 0 0-3.3 0l-40.76 5.55a10.79 10.79 0 0 0-3.3 1 9.32 9.32 0 0 0-2.62 1.9 9.51 9.51 0 0 0-1.83 2.7 11.24 11.24 0 0 0-.92 3.38l-45.8 6.7a13.24 13.24 0 0 0-5.85 2.28A11.54 11.54 0 0 0 60.58 29a13.39 13.39 0 0 0-1.23 6A18.31 18.31 0 0 0 61 42l53.61 121.55a5.66 5.66 0 0 0 2.87 2 2.87 2.87 0 0 0 3.7-1.39 3.71 3.71 0 0 0 .17-1.39 4.3 4.3 0 0 0-.37-1.48L67.68 40.84a11.1 11.1 0 0 1-1-4.17 8.14 8.14 0 0 1 .73-3.67 6.94 6.94 0 0 1 2.21-2.71 7.93 7.93 0 0 1 3.51-1.41l47.36-7.41a2.17 2.17 0 0 0 .74-.25 1.87 1.87 0 0 0 .56-.47 2 2 0 0 0 .34-.66 2.44 2.44 0 0 0 .1-.81 7.59 7.59 0 0 1 .3-2.48 6 6 0 0 1 1-2 5.57 5.57 0 0 1 1.67-1.42 6.33 6.33 0 0 1 2.2-.73l40.64-5.89a7 7 0 0 1 2.25.06 9.91 9.91 0 0 1 2.35.75A12.76 12.76 0 0 1 175 8.94a14.59 14.59 0 0 1 2.11 1.92 4.79 4.79 0 0 0 .69.63 4.08 4.08 0 0 0 .75.45 3.23 3.23 0 0 0 .76.24 2.2 2.2 0 0 0 .72 0l34.72-5.43a6.25 6.25 0 0 1 2.78.25 10.28 10.28 0 0 1 2.84 1.42 13.82 13.82 0 0 1 2.58 2.35 14.24 14.24 0 0 1 2 3.07l33.66 70.3a6.24 6.24 0 0 1 1.14.39z"/><path class="cls-1" d="M260.13 84.75c1.48.43 2.92 1 4.38 1.47a5.87 5.87 0 0 1 .54.23l-35.44-73.88a23.58 23.58 0 0 0-3.28-5 22.81 22.81 0 0 0-4.24-3.88 17.15 17.15 0 0 0-4.68-2.37 10.44 10.44 0 0 0-4.61-.49l-33.43 4.9a23.14 23.14 0 0 0-3.21-2.49 20 20 0 0 0-3.41-1.77 15.85 15.85 0 0 0-3.44-1 11.65 11.65 0 0 0-3.31 0L125.25 6a10.75 10.75 0 0 0-3.3 1 9.36 9.36 0 0 0-2.62 1.9 9.57 9.57 0 0 0-1.83 2.7 11.31 11.31 0 0 0-.92 3.38l-45.81 6.68a13.25 13.25 0 0 0-5.85 2.28 11.54 11.54 0 0 0-3.72 4.47 13.41 13.41 0 0 0-1.23 6 18.28 18.28 0 0 0 1.63 7L115.2 163a4.64 4.64 0 0 0 .87 1.32 4.34 4.34 0 0 0 1.19.9 3.78 3.78 0 0 0 1.36.4 3.1 3.1 0 0 0 1.37-.18 2.88 2.88 0 0 0 1.11-.74 3.1 3.1 0 0 0 .66-1.14 3.7 3.7 0 0 0 .17-1.39 4.34 4.34 0 0 0-.37-1.49L68.3 40.27a11.1 11.1 0 0 1-1-4.17 8.13 8.13 0 0 1 .7-3.64 7 7 0 0 1 2.21-2.71 8 8 0 0 1 3.51-1.41l47.36-7.41a2.16 2.16 0 0 0 .74-.25 1.85 1.85 0 0 0 .55-.47 2 2 0 0 0 .34-.66 2.47 2.47 0 0 0 .1-.81 7.57 7.57 0 0 1 .3-2.47 6 6 0 0 1 1-2 5.61 5.61 0 0 1 1.67-1.42 6.34 6.34 0 0 1 2.2-.73l40.7-5.92a7.08 7.08 0 0 1 2.26.06 9.81 9.81 0 0 1 2.35.75 12.75 12.75 0 0 1 2.31 1.36 14.52 14.52 0 0 1 2.11 1.91 4.73 4.73 0 0 0 .69.63 4.13 4.13 0 0 0 .75.44 3.1 3.1 0 0 0 .76.24 2.21 2.21 0 0 0 .72 0l34.72-5.43a6.26 6.26 0 0 1 2.78.25A10.29 10.29 0 0 1 221 7.85a13.88 13.88 0 0 1 2.58 2.35 14.26 14.26 0 0 1 2 3.07l34.13 71.28z"/><path class="cls-22" d="M240.57 78.1l25.29 8.28-25.29-8.28z"/><g class="cls-23"><path class="cls-2" d="M27.51 90.18c-10.15 2.43-15.27 5.36-5.51 10.15 1.72.87 21 121.28 29.3 125.35 37.32 18.39 94.95 60 106.47 65.69 14.08 6.9 27.85 25.19 46.64 17.34 17.07-7.12 80.16-43.79 101-52.71 2.11-.9 35.31-128.79 36.1-129.15 8.66-3.92 6.35-5.49-6-9.52S176 63.79 170.28 62s-15.26-2.88-26.92 0S37.66 87.74 27.51 90.18zm22.25 74.58a7.64 7.64 0 0 0-2.51 1.39 8.82 8.82 0 0 0-1.9 2.2 9 9 0 0 0-1.1 2.71 7.92 7.92 0 0 0-.15 2.94l5.54 36.4a6 6 0 0 0 .91 2.44 5.06 5.06 0 0 0 1.72 1.62 5.13 5.13 0 0 0 2.28.66 6.29 6.29 0 0 0 2.59-.43 8 8 0 0 0 2.42-1.49 9.28 9.28 0 0 0 2.87-4.87 7.83 7.83 0 0 0 .12-2.8l-5.24-35.92a6.54 6.54 0 0 0-.9-2.53 5.56 5.56 0 0 0-1.72-1.76 5.45 5.45 0 0 0-2.3-.82 6.23 6.23 0 0 0-2.65.28zm-9-60.46a7.26 7.26 0 0 0-2.61 1.26 8.24 8.24 0 0 0-2 2.16 8.64 8.64 0 0 0-1.15 2.75 8.27 8.27 0 0 0-.11 3l5.84 38.41a6.81 6.81 0 0 0 1 2.62 5.87 5.87 0 0 0 1.79 1.82 5.71 5.71 0 0 0 2.37.86 6.29 6.29 0 0 0 2.68-.25 7.52 7.52 0 0 0 2.51-1.37 8.6 8.6 0 0 0 1.92-2.15 8.79 8.79 0 0 0 1-2.69 8 8 0 0 0 .12-2.91l-5.52-37.87a7.38 7.38 0 0 0-.94-2.71 6.51 6.51 0 0 0-1.79-2 6.11 6.11 0 0 0-2.4-1 6.39 6.39 0 0 0-2.76.08zm32.44 52.85a7.18 7.18 0 0 0-2.38 1.34 8.56 8.56 0 0 0-1.82 2.14 8.88 8.88 0 0 0-1 2.63 8 8 0 0 0-.12 2.84l5 35.54a6.07 6.07 0 0 0 .85 2.4 4.88 4.88 0 0 0 1.62 1.6 4.77 4.77 0 0 0 2.15.67 5.8 5.8 0 0 0 2.45-.39 7.45 7.45 0 0 0 2.3-1.43 8.86 8.86 0 0 0 1.73-2.14 9 9 0 0 0 1-2.57 7.84 7.84 0 0 0 .13-2.73l-4.73-35.08a6.56 6.56 0 0 0-.84-2.48 5.39 5.39 0 0 0-1.62-1.73 5.06 5.06 0 0 0-2.18-.82 5.71 5.71 0 0 0-2.51.25zm-8.12-59a6.75 6.75 0 0 0-2.46 1.21 7.89 7.89 0 0 0-1.87 2.08 8.52 8.52 0 0 0-1.09 2.67 8.29 8.29 0 0 0-.12 3l5.27 37.44a6.82 6.82 0 0 0 .89 2.56 5.65 5.65 0 0 0 1.68 1.79 5.28 5.28 0 0 0 2.23.86 5.77 5.77 0 0 0 2.53-.22 7 7 0 0 0 2.38-1.31 8.3 8.3 0 0 0 1.79-2.1 8.67 8.67 0 0 0 1-2.6 8.07 8.07 0 0 0 .13-2.84l-5-36.94a7.32 7.32 0 0 0-.88-2.65 6.27 6.27 0 0 0-1.68-1.93 5.67 5.67 0 0 0-2.26-1 5.8 5.8 0 0 0-2.6.06zM95.42 150a6.68 6.68 0 0 0-2.26 1.28 8.22 8.22 0 0 0-1.72 2.06 8.79 8.79 0 0 0-1 2.56 8 8 0 0 0-.13 2.77l4.52 34.71a6.05 6.05 0 0 0 .79 2.35 4.71 4.71 0 0 0 1.52 1.58 4.45 4.45 0 0 0 2 .67 5.31 5.31 0 0 0 2.32-.36 7 7 0 0 0 2.18-1.37 8.63 8.63 0 0 0 1.65-2.08 8.92 8.92 0 0 0 1-2.5 7.84 7.84 0 0 0 .14-2.67l-4.27-34.28a6.53 6.53 0 0 0-.78-2.42 5.22 5.22 0 0 0-1.52-1.7 4.73 4.73 0 0 0-2.05-.82 5.23 5.23 0 0 0-2.37.22zm-7.33-57.57a6.26 6.26 0 0 0-2.33 1.16 7.56 7.56 0 0 0-1.78 2 8.43 8.43 0 0 0-1 2.59 8.33 8.33 0 0 0-.13 2.88l4.76 36.54a6.78 6.78 0 0 0 .82 2.5 5.46 5.46 0 0 0 1.58 1.76 4.91 4.91 0 0 0 2.1.86 5.31 5.31 0 0 0 2.4-.2 6.53 6.53 0 0 0 2.26-1.26 8 8 0 0 0 1.71-2 8.67 8.67 0 0 0 1-2.53 8.13 8.13 0 0 0 .14-2.76l-4.56-36.09a7.29 7.29 0 0 0-.81-2.59 6.06 6.06 0 0 0-1.58-1.89 5.28 5.28 0 0 0-2.13-1 5.36 5.36 0 0 0-2.46 0zm28.39 50.71a6.24 6.24 0 0 0-2.14 1.23 8 8 0 0 0-1.64 2 8.67 8.67 0 0 0-1 2.49 8 8 0 0 0-.14 2.7l4.07 33.94a6.05 6.05 0 0 0 .74 2.3 4.59 4.59 0 0 0 1.43 1.55 4.15 4.15 0 0 0 1.92.68 4.88 4.88 0 0 0 2.2-.32 6.53 6.53 0 0 0 2.07-1.32 8.23 8.23 0 0 0 1.58-2 8.8 8.8 0 0 0 .94-2.43 7.92 7.92 0 0 0 .15-2.6l-3.85-33.52a6.48 6.48 0 0 0-.72-2.37 5.05 5.05 0 0 0-1.43-1.67 4.41 4.41 0 0 0-1.94-.82 4.8 4.8 0 0 0-2.25.19zM109.87 87a5.87 5.87 0 0 0-2.22 1.11A7.33 7.33 0 0 0 106 90a8.39 8.39 0 0 0-1.14 5.32L109.1 131a6.77 6.77 0 0 0 .76 2.45 5.34 5.34 0 0 0 1.48 1.73 4.6 4.6 0 0 0 2 .85 4.87 4.87 0 0 0 2.27-.17 6.13 6.13 0 0 0 2.14-1.21 7.67 7.67 0 0 0 1.63-2 8.56 8.56 0 0 0 1-2.46 8.2 8.2 0 0 0 .15-2.7l-4-35.2a7.23 7.23 0 0 0-.76-2.53 5.89 5.89 0 0 0-1.48-1.85 4.86 4.86 0 0 0-4.33-1zm26.6 49.69a5.88 5.88 0 0 0-2 1.18 7.6 7.6 0 0 0-1.57 1.94 8.54 8.54 0 0 0-.93 2.42 8.15 8.15 0 0 0-.15 2.64l3.63 33.13a6.07 6.07 0 0 0 .68 2.25 4.45 4.45 0 0 0 1.35 1.53 3.86 3.86 0 0 0 1.82.68 4.46 4.46 0 0 0 2.09-.29 6.2 6.2 0 0 0 2-1.27 8.08 8.08 0 0 0 1.51-1.95 8.81 8.81 0 0 0 .9-2.37 7.94 7.94 0 0 0 .16-2.54l-3.47-32.79a6.52 6.52 0 0 0-.67-2.32 4.94 4.94 0 0 0-1.35-1.65 4.15 4.15 0 0 0-1.83-.81 4.44 4.44 0 0 0-2.13.17zm-5.93-54.88a5.49 5.49 0 0 0-2.11 1.07 7 7 0 0 0-1.61 1.89 8.3 8.3 0 0 0-1 2.45 8.38 8.38 0 0 0-.15 2.73l3.86 34.83a6.79 6.79 0 0 0 .71 2.4 5.15 5.15 0 0 0 1.39 1.7 4.31 4.31 0 0 0 1.88.85 4.5 4.5 0 0 0 2.16-.15 5.74 5.74 0 0 0 2-1.17 7.43 7.43 0 0 0 1.55-1.91 8.47 8.47 0 0 0 .93-2.4 8.23 8.23 0 0 0 .16-2.63l-3.64-34.39a7.27 7.27 0 0 0-.7-2.47 5.71 5.71 0 0 0-1.39-1.82 4.65 4.65 0 0 0-1.89-1 4.52 4.52 0 0 0-2.2 0zm43 53.47a4.7 4.7 0 0 1 1.59 1.19 7.64 7.64 0 0 1 1.23 1.9 9.82 9.82 0 0 1 .74 2.35 9.72 9.72 0 0 1 .13 2.54L174.55 175a6.67 6.67 0 0 1-.52 2.15 4 4 0 0 1-1 1.44 2.6 2.6 0 0 1-1.41.61 2.94 2.94 0 0 1-1.63-.33 5 5 0 0 1-1.54-1.25 8 8 0 0 1-1.18-1.9 10 10 0 0 1-.71-2.29 9.38 9.38 0 0 1-.13-2.44l2.54-31.42a7.25 7.25 0 0 1 .51-2.22 4.45 4.45 0 0 1 1-1.55 2.83 2.83 0 0 1 1.43-.74 2.86 2.86 0 0 1 1.66.22zm4.38-52.74a2.86 2.86 0 0 0-1.72-.09 3.23 3.23 0 0 0-1.47.89 5.27 5.27 0 0 0-1.05 1.66 8.11 8.11 0 0 0-.54 2.37l-2.67 33.08a9.82 9.82 0 0 0 .13 2.54 9.69 9.69 0 0 0 .73 2.34 7.51 7.51 0 0 0 1.22 1.88 4.58 4.58 0 0 0 1.59 1.17 2.88 2.88 0 0 0 1.68.21 2.93 2.93 0 0 0 1.46-.76 4.61 4.61 0 0 0 1.08-1.6 7.44 7.44 0 0 0 .54-2.29l2.85-33.44a10 10 0 0 0-.13-2.65 9.6 9.6 0 0 0-.76-2.4 7 7 0 0 0-1.26-1.88 4.3 4.3 0 0 0-1.64-1.11zM189.1 142a3.1 3.1 0 0 0-1.75-.25 3 3 0 0 0-1.5.73 4.51 4.51 0 0 0-1.1 1.57 7.27 7.27 0 0 0-.55 2.26l-2.85 32a9.24 9.24 0 0 0 .13 2.49 10.07 10.07 0 0 0 .73 2.35 8.2 8.2 0 0 0 1.23 2 5.31 5.31 0 0 0 1.61 1.3 3.16 3.16 0 0 0 1.7.36 2.74 2.74 0 0 0 1.48-.6 4 4 0 0 0 1.1-1.45 6.63 6.63 0 0 0 .56-2.18l3-32.35a9.57 9.57 0 0 0-.12-2.59 9.8 9.8 0 0 0-.76-2.41 7.88 7.88 0 0 0-1.27-2 5 5 0 0 0-1.64-1.23zm4.9-53.8a3.09 3.09 0 0 0-1.81-.11 3.4 3.4 0 0 0-1.56.9 5.25 5.25 0 0 0-1.14 1.74 8 8 0 0 0-.58 2.42l-3 33.75a9.76 9.76 0 0 0 .12 2.6 9.65 9.65 0 0 0 .75 2.39 7.69 7.69 0 0 0 1.27 1.93 4.89 4.89 0 0 0 1.66 1.22 3 3 0 0 0 3.29-.53 4.69 4.69 0 0 0 1.14-1.62 7.43 7.43 0 0 0 .58-2.33l3.19-34.12a9.94 9.94 0 0 0-.12-2.7 9.57 9.57 0 0 0-.78-2.45 7.26 7.26 0 0 0-1.31-1.93 4.55 4.55 0 0 0-1.7-1.15zm11.35 60.86a3.32 3.32 0 0 0-1.83-.27 3.14 3.14 0 0 0-1.58.73 4.54 4.54 0 0 0-1.17 1.59 7.18 7.18 0 0 0-.59 2.3L197 186.05a9.26 9.26 0 0 0 .12 2.54 10.12 10.12 0 0 0 .76 2.4 8.48 8.48 0 0 0 1.28 2 5.54 5.54 0 0 0 1.68 1.34 3.41 3.41 0 0 0 1.78.39 2.9 2.9 0 0 0 1.56-.6 4.05 4.05 0 0 0 1.16-1.47 6.56 6.56 0 0 0 .6-2.22l3.37-33a9.44 9.44 0 0 0-.11-2.64 9.87 9.87 0 0 0-.78-2.47 8.09 8.09 0 0 0-1.33-2 5.18 5.18 0 0 0-1.74-1.28zm5.48-54.9a3.34 3.34 0 0 0-1.89-.12 3.59 3.59 0 0 0-1.64.9 5.39 5.39 0 0 0-1.21 1.77 8 8 0 0 0-.62 2.47l-3.35 34.43a9.73 9.73 0 0 0 .11 2.65 9.94 9.94 0 0 0 .78 2.45 7.83 7.83 0 0 0 1.32 2 5.11 5.11 0 0 0 1.74 1.26 3.36 3.36 0 0 0 1.85.26 3.29 3.29 0 0 0 1.61-.76 4.81 4.81 0 0 0 1.21-1.64 7.46 7.46 0 0 0 .62-2.38l3.56-34.83a10 10 0 0 0-.11-2.76 9.67 9.67 0 0 0-.81-2.52 7.43 7.43 0 0 0-1.37-2 4.79 4.79 0 0 0-1.8-1.19zm11.56 62.31a3.6 3.6 0 0 0-1.92-.3 3.29 3.29 0 0 0-1.66.73 4.6 4.6 0 0 0-1.24 1.61 7.1 7.1 0 0 0-.64 2.34l-3.54 33.26a9.28 9.28 0 0 0 .11 2.59 10.09 10.09 0 0 0 .78 2.46 8.65 8.65 0 0 0 1.33 2.06 5.94 5.94 0 0 0 1.75 1.39 3.71 3.71 0 0 0 1.87.43 3.08 3.08 0 0 0 1.64-.59 4.12 4.12 0 0 0 1.23-1.48 6.57 6.57 0 0 0 .64-2.25l3.75-33.62a9.38 9.38 0 0 0-.1-2.7 10 10 0 0 0-.81-2.53 8.3 8.3 0 0 0-1.38-2.07 5.57 5.57 0 0 0-1.82-1.33zm6.11-56a3.61 3.61 0 0 0-2-.15 3.8 3.8 0 0 0-1.73.91 5.5 5.5 0 0 0-1.28 1.8 8.06 8.06 0 0 0-.67 2.51l-3.74 35.16a9.66 9.66 0 0 0 .1 2.71 10 10 0 0 0 .8 2.51 8.07 8.07 0 0 0 1.37 2 5.4 5.4 0 0 0 1.82 1.31 3.64 3.64 0 0 0 1.94.28 3.45 3.45 0 0 0 1.7-.76 4.88 4.88 0 0 0 1.28-1.66 7.39 7.39 0 0 0 .67-2.42l4-35.56a9.94 9.94 0 0 0-.1-2.83 9.73 9.73 0 0 0-.83-2.58 7.71 7.71 0 0 0-1.43-2 5.12 5.12 0 0 0-1.89-1.23zm11.78 63.82a3.9 3.9 0 0 0-2-.33 3.53 3.53 0 0 0-1.76.73 4.69 4.69 0 0 0-1.31 1.63 7.08 7.08 0 0 0-.69 2.38l-3.93 33.92a9.1 9.1 0 0 0 .1 2.65 10.17 10.17 0 0 0 .8 2.53 9 9 0 0 0 1.39 2.12 6.32 6.32 0 0 0 1.84 1.45 4 4 0 0 0 2 .46 3.31 3.31 0 0 0 1.73-.58 4.23 4.23 0 0 0 1.31-1.5 6.51 6.51 0 0 0 .69-2.3l4.16-34.3a9.31 9.31 0 0 0-.09-2.76 9.91 9.91 0 0 0-.83-2.59 8.55 8.55 0 0 0-1.44-2.13 5.83 5.83 0 0 0-1.91-1.38zm6.78-57.29a3.93 3.93 0 0 0-2.1-.17 4 4 0 0 0-1.83.91 5.54 5.54 0 0 0-1.37 1.82 7.91 7.91 0 0 0-.72 2.56l-4.16 35.9a9.57 9.57 0 0 0 .09 2.77 10.07 10.07 0 0 0 .83 2.58 8.4 8.4 0 0 0 1.43 2.11 5.8 5.8 0 0 0 1.91 1.36 4 4 0 0 0 2 .31 3.7 3.7 0 0 0 1.8-.75 5 5 0 0 0 1.36-1.68 7.35 7.35 0 0 0 .73-2.47l4.4-36.33a10 10 0 0 0-.94-5.54 7.94 7.94 0 0 0-1.5-2.11 5.38 5.38 0 0 0-2-1.28zm12 65.41a4.25 4.25 0 0 0-2.13-.36 3.76 3.76 0 0 0-1.86.72 4.85 4.85 0 0 0-1.39 1.65 7 7 0 0 0-.74 2.43l-4.36 34.61a9.12 9.12 0 0 0 .08 2.71 10.26 10.26 0 0 0 .83 2.59 9.27 9.27 0 0 0 1.45 2.19 6.58 6.58 0 0 0 1.93 1.5 4.34 4.34 0 0 0 2.07.5 3.5 3.5 0 0 0 1.82-.56 4.28 4.28 0 0 0 1.39-1.51 6.46 6.46 0 0 0 .74-2.33l4.61-35a9.36 9.36 0 0 0-.07-2.83 10 10 0 0 0-.86-2.66 8.7 8.7 0 0 0-1.5-2.2 6.19 6.19 0 0 0-2-1.43zm7.53-58.49a4.16 4.16 0 0 0-4.15.72 5.73 5.73 0 0 0-1.45 1.85 8 8 0 0 0-.78 2.62l-4.62 36.68a9.6 9.6 0 0 0 .08 2.84 10.09 10.09 0 0 0 .86 2.65 8.5 8.5 0 0 0 1.5 2.17 6.09 6.09 0 0 0 2 1.41 4.28 4.28 0 0 0 2.15.35 3.94 3.94 0 0 0 1.9-.75 5.09 5.09 0 0 0 1.44-1.71 7.35 7.35 0 0 0 .78-2.52l4.89-37.12a10 10 0 0 0-1-5.69 8.2 8.2 0 0 0-1.56-2.17 5.75 5.75 0 0 0-2.08-1.33zM278.81 181a4.62 4.62 0 0 0-2.24-.4 4 4 0 0 0-2 .71 4.94 4.94 0 0 0-1.48 1.67 7 7 0 0 0-.8 2.47l-4.82 35.33a8.9 8.9 0 0 0 .07 2.77 10.4 10.4 0 0 0 .86 2.66 9.41 9.41 0 0 0 1.51 2.26 7.05 7.05 0 0 0 2 1.57 4.74 4.74 0 0 0 2.18.54 3.76 3.76 0 0 0 1.93-.55 4.35 4.35 0 0 0 1.47-1.52 6.41 6.41 0 0 0 .8-2.37l5.1-35.73a9.31 9.31 0 0 0-.06-2.89 10.27 10.27 0 0 0-.89-2.74 9.07 9.07 0 0 0-1.58-2.27 6.65 6.65 0 0 0-2.1-1.49zm8.34-59.78a4.64 4.64 0 0 0-2.34-.22 4.55 4.55 0 0 0-2 .92 5.85 5.85 0 0 0-1.55 1.88 8 8 0 0 0-.83 2.67L275.27 164a9.36 9.36 0 0 0 .07 2.9 10.07 10.07 0 0 0 .88 2.72 8.81 8.81 0 0 0 1.56 2.24 6.51 6.51 0 0 0 2.1 1.47 4.64 4.64 0 0 0 2.27.38 4.22 4.22 0 0 0 2-.74 5.21 5.21 0 0 0 1.54-1.73 7.28 7.28 0 0 0 .84-2.57l5.41-38a9.78 9.78 0 0 0-.05-3 10 10 0 0 0-.93-2.8 8.4 8.4 0 0 0-1.64-2.25 6.16 6.16 0 0 0-2.19-1.38zm12.47 68.83a5 5 0 0 0-2.37-.44 4.33 4.33 0 0 0-2.08.7 5 5 0 0 0-1.57 1.69 7 7 0 0 0-.86 2.52l-5.33 36.07a9 9 0 0 0 .06 2.83 10.34 10.34 0 0 0 .89 2.73 9.59 9.59 0 0 0 1.58 2.33 7.5 7.5 0 0 0 2.13 1.63 5.12 5.12 0 0 0 2.3.58 4.06 4.06 0 0 0 2-.53 4.51 4.51 0 0 0 1.56-1.54 6.42 6.42 0 0 0 .86-2.42l5.63-36.49a9.14 9.14 0 0 0 0-3 10.26 10.26 0 0 0-.92-2.81 9.35 9.35 0 0 0-1.65-2.35 7 7 0 0 0-2.21-1.55zm9.24-61.14a5.05 5.05 0 0 0-2.47-.25 4.9 4.9 0 0 0-2.18.92 6 6 0 0 0-1.65 1.91 7.92 7.92 0 0 0-.9 2.73L296 172.57a9.39 9.39 0 0 0 0 3 10.16 10.16 0 0 0 .92 2.79 9.19 9.19 0 0 0 1.64 2.32 7 7 0 0 0 2.22 1.53 5.1 5.1 0 0 0 2.39.42 4.5 4.5 0 0 0 2.13-.74 5.31 5.31 0 0 0 1.64-1.75 7.29 7.29 0 0 0 .91-2.62l6-38.83a9.8 9.8 0 0 0 0-3.11 10 10 0 0 0-1-2.88 8.58 8.58 0 0 0-1.72-2.32 6.57 6.57 0 0 0-2.3-1.44z"/><path class="cls-1" d="M199.25 192c-11.13 0-20.21-3.71-27.62-7.35C160.18 179.06 72 135.6 34.3 117l-25-13.53c-17.37-9-8.18-14.22 16.93-20.27 10.15-2.44 96.85-24 112.51-27.57s27.84-1.76 31.06-.76c0 0 145.7 47.8 169.29 55.32s33.82 13.78 6.3 25.32c-8.28 3.47-89.35 37.6-116 48.74l-5.07 2.12c-9.05 3.78-17.25 5.62-25 5.62zM27.51 90.18c-10.15 2.43-15.27 5.36-5.51 10.15s139.79 68.89 153.87 75.78 26 9.34 44.8 1.49 112.19-46.82 120.85-50.75 6.35-5.49-6-9.52S176 63.79 170.28 62s-15.26-2.88-26.92 0S37.66 87.74 27.51 90.18z"/><path class="cls-1" d="M199.25 192c-11.13 0-20.21-3.71-27.62-7.35C160.18 179.06 72 135.6 34.3 117l-25-13.53c-17.37-9-8.18-14.22 16.93-20.27 10.15-2.44 96.85-24 112.51-27.57s27.84-1.76 31.06-.76c0 0 145.7 47.8 169.29 55.32s33.82 13.78 6.3 25.32c-8.28 3.47-89.35 37.6-116 48.74l-5.07 2.12c-9.05 3.78-17.25 5.62-25 5.62zM27.51 90.18c-10.15 2.43-15.27 5.36-5.51 10.15s139.79 68.89 153.87 75.78 26 9.34 44.8 1.49 112.19-46.82 120.85-50.75 6.35-5.49-6-9.52S176 63.79 170.28 62s-15.26-2.88-26.92 0S37.66 87.74 27.51 90.18z"/><path class="cls-1" d="M27.59 90.88c10.15-2.44 104.2-25.19 115.86-28.11s21.23-1.8 26.92 0S323.25 114 335.57 118c6.69 2.19 10.42 3.65 11.06 5.16.36-1.77-3.43-3.33-11.14-5.85C323.17 113.3 176 63.79 170.28 62s-15.26-2.88-26.92 0S37.66 87.74 27.51 90.18c-6.87 1.65-11.43 3.52-10.64 6 .13-2.13 4.5-3.81 10.72-5.3z"/></g><path class="cls-24" d="M240.57 78.1l25.29 8.28-25.29-8.28z"/><path class="cls-1" d="M79.11 196.91a13 13 0 0 1-1.62-2 13.36 13.36 0 0 1-1.22-2.27 9.4 9.4 0 0 1-.65-2.3l-4.05-29.61a5.53 5.53 0 0 1 .06-2.09 2.54 2.54 0 0 1 .78-1.35 2.06 2.06 0 0 1 1.37-.48 2.86 2.86 0 0 1 .47 0 2.69 2.69 0 0 0-.58 1.14 5.55 5.55 0 0 0-.06 2.09l4.05 29.61a9.41 9.41 0 0 0 .65 2.3 13.39 13.39 0 0 0 2.84 4.25 9.09 9.09 0 0 0 1.85 1.52 4.72 4.72 0 0 0 1.47.57 1.78 1.78 0 0 1-.41.39 2 2 0 0 1-1.34.3 4.44 4.44 0 0 1-1.76-.62 9.08 9.08 0 0 1-1.85-1.45zm9.38 42.75a9.62 9.62 0 0 1-1.76-1.45 13.25 13.25 0 0 1-1.53-1.89 12.57 12.57 0 0 1-1.14-2.09 8.36 8.36 0 0 1-.6-2.07l-3.56-26.05a4.3 4.3 0 0 1 .08-1.8 2.21 2.21 0 0 1 .32-.66l-.31-.05a1.94 1.94 0 0 0-1.3.27 1.9 1.9 0 0 0-.75 1.08 4.34 4.34 0 0 0-.08 1.8l3.57 26.07a8.22 8.22 0 0 0 .6 2.07 12.57 12.57 0 0 0 1.14 2.11 13.09 13.09 0 0 0 1.53 1.89 9.65 9.65 0 0 0 1.76 1.45 4.79 4.79 0 0 0 1.67.71 2 2 0 0 0 1.28-.13 1.52 1.52 0 0 0 .59-.56 5.08 5.08 0 0 1-1.51-.7zm7.83-32.9a9.49 9.49 0 0 0 1.94 1.51 4.87 4.87 0 0 0 1.86.67 2.27 2.27 0 0 0 1.45-.26 1.88 1.88 0 0 0 .46-.4 5.09 5.09 0 0 1-1.73-.64 9.57 9.57 0 0 1-1.94-1.51 13.17 13.17 0 0 1-1.67-2 12.88 12.88 0 0 1-1.23-2.31 9 9 0 0 1-.62-2.33l-3.42-30a5.28 5.28 0 0 1 .13-2.11 2.72 2.72 0 0 1 .64-1.13h-.33a2.31 2.31 0 0 0-1.48.45 2.59 2.59 0 0 0-.87 1.34 5.31 5.31 0 0 0-.13 2.11l3.42 30a9 9 0 0 0 .62 2.33 12.9 12.9 0 0 0 1.23 2.31 13.24 13.24 0 0 0 1.67 1.97zm-23.44 23.07a9.27 9.27 0 0 1-1.69-1.39 13.4 13.4 0 0 1-1.48-1.84 13 13 0 0 1-1.13-2.05 8.67 8.67 0 0 1-.62-2l-4.08-25.82a4.51 4.51 0 0 1 0-1.79 2.19 2.19 0 0 1 .29-.67 3.07 3.07 0 0 0-.44-.08 1.73 1.73 0 0 0-1.21.3 1.88 1.88 0 0 0-.67 1.09 4.54 4.54 0 0 0 0 1.79l4.08 25.82a8.64 8.64 0 0 0 .62 2 12.71 12.71 0 0 0 1.13 2 13 13 0 0 0 1.48 1.84 9.29 9.29 0 0 0 1.69 1.39 4.5 4.5 0 0 0 1.58.67 1.77 1.77 0 0 0 1.2-.16 1.41 1.41 0 0 0 .53-.55 4.87 4.87 0 0 1-1.28-.55zm-13.6-48.71a10 10 0 0 0 .67 2.27 13.4 13.4 0 0 0 1.2 2.22 12.82 12.82 0 0 0 1.57 1.93 8.67 8.67 0 0 0 1.78 1.4 4 4 0 0 0 1.67.57 1.81 1.81 0 0 0 1.25-.32 1.72 1.72 0 0 0 .36-.39 4.61 4.61 0 0 1-1.24-.5 8.64 8.64 0 0 1-1.78-1.4 12.86 12.86 0 0 1-1.56-1.9 13.65 13.65 0 0 1-1.2-2.22 9.74 9.74 0 0 1-.67-2.27l-4.63-29.27a5.86 5.86 0 0 1 0-2.07 2.72 2.72 0 0 1 .51-1.15 2.73 2.73 0 0 0-.6-.06 1.84 1.84 0 0 0-1.26.5 2.53 2.53 0 0 0-.69 1.35 5.84 5.84 0 0 0 0 2.07zM104.85 250a10.24 10.24 0 0 1-1.83-1.5 13.67 13.67 0 0 1-1.57-1.93 12.54 12.54 0 0 1-1.15-2.13 7.89 7.89 0 0 1-.57-2.09l-3-26.31a4.1 4.1 0 0 1 .14-1.81 2.27 2.27 0 0 1 .35-.64h-.15a2.19 2.19 0 0 0-1.4.24 1.93 1.93 0 0 0-.84 1.07 4.08 4.08 0 0 0-.14 1.81l3 26.31a7.87 7.87 0 0 0 .57 2.09 12.53 12.53 0 0 0 1.15 2.14 13.57 13.57 0 0 0 1.57 1.93 10.33 10.33 0 0 0 1.83 1.5 5.43 5.43 0 0 0 1.76.76 2.25 2.25 0 0 0 1.37-.1 1.56 1.56 0 0 0 .65-.55 5.48 5.48 0 0 1-1.74-.79zM58 220.45a8.89 8.89 0 0 1-1.62-1.34 13.4 13.4 0 0 1-2.56-3.81 9 9 0 0 1-.64-2l-4.54-25.57a4.72 4.72 0 0 1 0-1.78 2.24 2.24 0 0 1 .25-.68 2.69 2.69 0 0 0-.56-.11 1.55 1.55 0 0 0-1.13.33 1.88 1.88 0 0 0-.6 1.1 4.78 4.78 0 0 0 0 1.78l4.55 25.57a8.81 8.81 0 0 0 .64 2 13 13 0 0 0 1.12 2 13.22 13.22 0 0 0 1.44 1.79 8.89 8.89 0 0 0 1.62 1.34 4.1 4.1 0 0 0 1.5.62 1.58 1.58 0 0 0 1.12-.19 1.42 1.42 0 0 0 .41-.5 4.88 4.88 0 0 1-1-.55zM48.84 180a3.67 3.67 0 0 0 1.57.53 1.62 1.62 0 0 0 1.16-.35 1.64 1.64 0 0 0 .33-.39 4.4 4.4 0 0 1-1-.43 8.24 8.24 0 0 1-1.73-1.36 12.66 12.66 0 0 1-1.53-1.88 13.65 13.65 0 0 1-1.19-2.17 10.22 10.22 0 0 1-.69-2.23l-5.13-28.87a6 6 0 0 1-.05-2 2.72 2.72 0 0 1 .45-1.15 2.51 2.51 0 0 0-.71-.08 1.67 1.67 0 0 0-1.17.52 2.52 2.52 0 0 0-.61 1.35 6.05 6.05 0 0 0 .05 2l5.13 28.87a10.13 10.13 0 0 0 .69 2.23 13.71 13.71 0 0 0 1.19 2.17 12.59 12.59 0 0 0 1.53 1.88 8.24 8.24 0 0 0 1.71 1.36zm132.34 117.64a8 8 0 0 1-2.21-1 12.68 12.68 0 0 1-2.19-1.76 14.11 14.11 0 0 1-1.78-2.17 11.32 11.32 0 0 1-1.2-2.31 6.38 6.38 0 0 1-.44-2.19v-27.16a3.44 3.44 0 0 1 .46-1.84 2.42 2.42 0 0 1 .43-.5 3.4 3.4 0 0 0-1.21.15 2.39 2.39 0 0 0-1.27 1 3.43 3.43 0 0 0-.46 1.84v27.16a6.44 6.44 0 0 0 .44 2.19 11.21 11.21 0 0 0 1.2 2.31 14 14 0 0 0 1.78 2.17 12.7 12.7 0 0 0 2.19 1.76 8 8 0 0 0 2.21 1 3.84 3.84 0 0 0 1.83.1 2.13 2.13 0 0 0 1.07-.59 4.24 4.24 0 0 1-.85-.16zm-66.74-80.52a9.92 9.92 0 0 0 2 1.57 5.42 5.42 0 0 0 2 .72 2.6 2.6 0 0 0 1.56-.22 2.24 2.24 0 0 0 .53-.41h-.05a5.46 5.46 0 0 1-2-.73 9.88 9.88 0 0 1-2-1.57 13.25 13.25 0 0 1-1.72-2.1 12.74 12.74 0 0 1-1.25-2.36 8.7 8.7 0 0 1-.59-2.37l-2.7-30.35a5.12 5.12 0 0 1 .21-2.13 2.77 2.77 0 0 1 .7-1.11h-.16a2.61 2.61 0 0 0-1.6.42 2.65 2.65 0 0 0-1 1.34 5.12 5.12 0 0 0-.21 2.13l2.71 30.35a8.67 8.67 0 0 0 .59 2.37 12.71 12.71 0 0 0 1.25 2.36 13.2 13.2 0 0 0 1.73 2.09zm58.63 32.34a13.86 13.86 0 0 0 1.91 2.3 11.9 11.9 0 0 0 2.35 1.79 7.58 7.58 0 0 0 2.37.91 3.94 3.94 0 0 0 2-.09 2.72 2.72 0 0 0 .84-.47 4.69 4.69 0 0 1-.77-.07 7.62 7.62 0 0 1-2.37-.91 12 12 0 0 1-2.35-1.79 13.76 13.76 0 0 1-1.91-2.3 11.71 11.71 0 0 1-1.28-2.52 7.47 7.47 0 0 1-.47-2.48v-31.42a4.55 4.55 0 0 1 .5-2.19 3 3 0 0 1 .86-1 3.61 3.61 0 0 0-1.54.33 3 3 0 0 0-1.36 1.3 4.49 4.49 0 0 0-.5 2.19v31.42a7.48 7.48 0 0 0 .47 2.48 11.84 11.84 0 0 0 1.25 2.52zm-19.39-9.88a11.34 11.34 0 0 0 2.24 1.71 6.84 6.84 0 0 0 2.23.85A3.4 3.4 0 0 0 160 242a2.34 2.34 0 0 0 .71-.44 4.14 4.14 0 0 1-.49-.05 6.78 6.78 0 0 1-2.23-.84 11.41 11.41 0 0 1-2.24-1.71 13.67 13.67 0 0 1-1.85-2.23 12.12 12.12 0 0 1-1.27-2.47 7.84 7.84 0 0 1-.52-2.44l-1-31.07a4.72 4.72 0 0 1 .39-2.17 3 3 0 0 1 .81-1 3.28 3.28 0 0 0-1.62.36 2.85 2.85 0 0 0-1.22 1.32 4.67 4.67 0 0 0-.39 2.17l1 31.07a7.82 7.82 0 0 0 .52 2.44 12.18 12.18 0 0 0 1.27 2.47 13.89 13.89 0 0 0 1.81 2.17zm7.41 45.42a7.24 7.24 0 0 1-2.08-.93 12.32 12.32 0 0 1-2.09-1.69 13.93 13.93 0 0 1-1.72-2.11A11.6 11.6 0 0 1 154 278a6.78 6.78 0 0 1-.48-2.17l-.88-27A3.58 3.58 0 0 1 153 247a2.28 2.28 0 0 1 .43-.55 3 3 0 0 0-1.32.17 2.2 2.2 0 0 0-1.15 1 3.54 3.54 0 0 0-.37 1.83l.88 27a6.8 6.8 0 0 0 .48 2.17 11.68 11.68 0 0 0 1.19 2.26 14 14 0 0 0 1.72 2.11 12.28 12.28 0 0 0 2.09 1.69 7.25 7.25 0 0 0 2.08.93 3.37 3.37 0 0 0 1.7 0 1.94 1.94 0 0 0 .94-.58 3.58 3.58 0 0 1-.58-.03zm-37.22-23.41a6.08 6.08 0 0 1-1.86-.81 10.89 10.89 0 0 1-1.91-1.56 13.58 13.58 0 0 1-1.62-2 12.1 12.1 0 0 1-1.16-2.17 7.56 7.56 0 0 1-.54-2.12l-2.37-26.54a3.92 3.92 0 0 1 .21-1.82 2.17 2.17 0 0 1 .38-.57 2.46 2.46 0 0 0-1.49.2 2 2 0 0 0-.93 1.06 3.9 3.9 0 0 0-.21 1.82l2.37 26.54a7.45 7.45 0 0 0 .54 2.11 12.24 12.24 0 0 0 1.16 2.18 13.62 13.62 0 0 0 1.62 2 10.89 10.89 0 0 0 1.91 1.56 6.05 6.05 0 0 0 1.86.81 2.58 2.58 0 0 0 1.47-.05 1.66 1.66 0 0 0 .74-.56zm9.66-33.59a10.56 10.56 0 0 0 2.13 1.64 6 6 0 0 0 2.09.78 3 3 0 0 0 1.68-.19 2.19 2.19 0 0 0 .62-.42h-.26a6.1 6.1 0 0 1-2.1-.78 10.68 10.68 0 0 1-2.13-1.64 13.54 13.54 0 0 1-1.78-2.16 12.35 12.35 0 0 1-1.26-2.42 8.22 8.22 0 0 1-.56-2.4l-1.91-30.71a4.88 4.88 0 0 1 .3-2.15 2.83 2.83 0 0 1 .75-1.08 2.94 2.94 0 0 0-1.7.39 2.72 2.72 0 0 0-1.1 1.33 4.88 4.88 0 0 0-.3 2.15l1.91 30.71a8.25 8.25 0 0 0 .56 2.4 12.31 12.31 0 0 0 1.26 2.42 13.49 13.49 0 0 0 1.8 2.13zm8.47 45a6.51 6.51 0 0 1-2-.87 11.33 11.33 0 0 1-2-1.62 13.76 13.76 0 0 1-1.67-2 11.9 11.9 0 0 1-1.18-2.22 7.17 7.17 0 0 1-.51-2.14L133 237.34a3.73 3.73 0 0 1 .29-1.83 2.28 2.28 0 0 1 .4-.59 2.66 2.66 0 0 0-1.41.19 2.06 2.06 0 0 0-1 1A3.72 3.72 0 0 0 131 238l1.66 26.77a7.14 7.14 0 0 0 .51 2.14 11.86 11.86 0 0 0 1.18 2.22 13.66 13.66 0 0 0 1.67 2 11.53 11.53 0 0 0 2 1.62 6.73 6.73 0 0 0 2 .87 3 3 0 0 0 1.58 0 1.82 1.82 0 0 0 .84-.56zm115.9-72.34L253 233a8.93 8.93 0 0 1-.84 2.52 13.9 13.9 0 0 1-1.66 2.48 15.67 15.67 0 0 1-2.17 2.21 12.38 12.38 0 0 1-2.51 1.64 7.24 7.24 0 0 1-2.38.73 3.32 3.32 0 0 1-1.83-.28 2.27 2.27 0 0 1-.93-.87 3.7 3.7 0 0 0 1.25.08 7.28 7.28 0 0 0 2.39-.73 12.29 12.29 0 0 0 2.5-1.64A15.47 15.47 0 0 0 249 237a14 14 0 0 0 1.61-2.51 8.73 8.73 0 0 0 .84-2.52l4.94-32.34a5 5 0 0 0-.12-2.29 3.12 3.12 0 0 0-.39-.78 2.87 2.87 0 0 1 .84.38 2.78 2.78 0 0 1 1.07 1.47 4.92 4.92 0 0 1 .11 2.25zM270.6 237a2.32 2.32 0 0 0-.76-.26 2.58 2.58 0 0 1 .15.35 4 4 0 0 1 .06 1.93L265 267a8.16 8.16 0 0 1-.79 2.22 14.09 14.09 0 0 1-1.47 2.27 15.73 15.73 0 0 1-1.95 2.05 12.54 12.54 0 0 1-2.24 1.6 7 7 0 0 1-2.11.8 3.31 3.31 0 0 1-1 0 1.71 1.71 0 0 0 .93.93 2.92 2.92 0 0 0 1.6.11 7.08 7.08 0 0 0 2.11-.8 12.38 12.38 0 0 0 2.24-1.6 15.23 15.23 0 0 0 2-2.05 13.74 13.74 0 0 0 1.47-2.27 8.12 8.12 0 0 0 .79-2.22l5-27.95a4 4 0 0 0-.06-1.93 2 2 0 0 0-.92-1.16zM249 247.8a2.83 2.83 0 0 0-.63-.21 2.18 2.18 0 0 1 .14.28 3.75 3.75 0 0 1 .15 1.95l-4.36 28.46a7.84 7.84 0 0 1-.77 2.27 13.58 13.58 0 0 1-1.51 2.33 16.19 16.19 0 0 1-2 2.14 14.16 14.16 0 0 1-2.37 1.68 7.76 7.76 0 0 1-2.26.87 3.79 3.79 0 0 1-1.3 0 1.81 1.81 0 0 0 1.06.94 3.36 3.36 0 0 0 1.75.06 7.85 7.85 0 0 0 2.26-.87 14.31 14.31 0 0 0 2.37-1.68 16.56 16.56 0 0 0 2-2.14 13.64 13.64 0 0 0 1.51-2.33 7.84 7.84 0 0 0 .77-2.27l4.36-28.46a3.76 3.76 0 0 0-.14-1.95 2.1 2.1 0 0 0-1.03-1.07zm-15.51-39.01a3 3 0 0 0-1.23-1.47 3.32 3.32 0 0 0-.68-.29 3.07 3.07 0 0 1 .39.69 4.75 4.75 0 0 1 .23 2.33l-4.11 33.07a8.49 8.49 0 0 1-.81 2.59 14 14 0 0 1-1.66 2.59 16.2 16.2 0 0 1-2.28 2.31 13.47 13.47 0 0 1-2.67 1.75 8.17 8.17 0 0 1-2.58.81 4.31 4.31 0 0 1-1.6-.09 2.48 2.48 0 0 0 1.1.92 3.87 3.87 0 0 0 2 .23 8.11 8.11 0 0 0 2.58-.81 13.3 13.3 0 0 0 2.67-1.74 16 16 0 0 0 2.28-2.31 13.63 13.63 0 0 0 1.66-2.59 8.34 8.34 0 0 0 .81-2.58l4.11-33.08a4.74 4.74 0 0 0-.21-2.33zm-7.55 50.54a2.67 2.67 0 0 0-.47-.15 2.1 2.1 0 0 1 .12.21 3.58 3.58 0 0 1 .23 2l-3.6 29a7.48 7.48 0 0 1-.75 2.33 13.34 13.34 0 0 1-1.55 2.4 16.52 16.52 0 0 1-2.14 2.23 14.61 14.61 0 0 1-2.52 1.78 9.1 9.1 0 0 1-2.43 1 4.4 4.4 0 0 1-1.64.06v.1a2 2 0 0 0 1.2.91 3.9 3.9 0 0 0 1.92 0 9.17 9.17 0 0 0 2.43-1 14.46 14.46 0 0 0 2.52-1.78 16.78 16.78 0 0 0 2.14-2.22 13.55 13.55 0 0 0 1.55-2.41 7.42 7.42 0 0 0 .75-2.32l3.6-29a3.59 3.59 0 0 0-.23-2 2.27 2.27 0 0 0-1.13-1.14zm83.76-41.81a1.9 1.9 0 0 0-1-.35 2.44 2.44 0 0 1 .14.44 4.32 4.32 0 0 1-.07 1.87l-6.06 27a8.8 8.8 0 0 1-.81 2.14 14 14 0 0 1-1.4 2.14 14.83 14.83 0 0 1-1.79 1.91 11.24 11.24 0 0 1-2 1.45 5.51 5.51 0 0 1-1.84.67 2.85 2.85 0 0 1-.52 0 1.5 1.5 0 0 0 .69.86 2.16 2.16 0 0 0 1.35.19 5.67 5.67 0 0 0 1.84-.68 11.3 11.3 0 0 0 2-1.45 14.93 14.93 0 0 0 1.79-1.91 14.07 14.07 0 0 0 1.4-2.13 9.11 9.11 0 0 0 .81-2.14l6.06-27a4.44 4.44 0 0 0 .07-1.87 1.9 1.9 0 0 0-.66-1.14zm-14.65-4.7l6.28-30.95a5.4 5.4 0 0 0 0-2.19 2.6 2.6 0 0 0-.8-1.45 2.31 2.31 0 0 0-1.06-.52 3 3 0 0 1 .34.89 5.39 5.39 0 0 1 0 2.19l-6.28 30.95a9.43 9.43 0 0 1-.87 2.4 13.9 13.9 0 0 1-1.52 2.35 14.58 14.58 0 0 1-2 2A10.76 10.76 0 0 1 287 220a5.48 5.48 0 0 1-2.05.6 2.83 2.83 0 0 1-.66 0 2 2 0 0 0 .66.75 2.43 2.43 0 0 0 1.52.35 5.48 5.48 0 0 0 2.05-.6 10.9 10.9 0 0 0 2.21-1.47 14.58 14.58 0 0 0 2-2 14 14 0 0 0 1.52-2.35 9.82 9.82 0 0 0 .8-2.46zM321 171.26a2.58 2.58 0 0 0-.69-1.43 2.08 2.08 0 0 0-1.14-.55 3.06 3.06 0 0 1 .31.92 5.74 5.74 0 0 1-.11 2.15l-6.81 30.29a9.78 9.78 0 0 1-.88 2.34 14.41 14.41 0 0 1-3.36 4.24 10.09 10.09 0 0 1-2.09 1.4 4.87 4.87 0 0 1-1.91.54 2.68 2.68 0 0 1-.43 0 1.89 1.89 0 0 0 .56.7 2.15 2.15 0 0 0 1.4.39 5 5 0 0 0 1.91-.54 10.05 10.05 0 0 0 2.09-1.4 14.55 14.55 0 0 0 3.36-4.24 10.11 10.11 0 0 0 .88-2.34l6.8-30.29a5.69 5.69 0 0 0 .11-2.18zM290.78 227a2 2 0 0 0-.87-.3 2.26 2.26 0 0 1 .15.39 4.2 4.2 0 0 1 0 1.9l-5.57 27.45a8.48 8.48 0 0 1-.8 2.17 13.8 13.8 0 0 1-1.43 2.2 16 16 0 0 1-1.87 2 11.85 11.85 0 0 1-2.11 1.51 6.15 6.15 0 0 1-2 .73 3 3 0 0 1-.75 0 1.61 1.61 0 0 0 .8.89 2.44 2.44 0 0 0 1.47.15 6.3 6.3 0 0 0 2-.73 12 12 0 0 0 2.12-1.52 15.29 15.29 0 0 0 1.87-2 13.57 13.57 0 0 0 1.43-2.2 8.55 8.55 0 0 0 .81-2.17l5.53-27.47a4.17 4.17 0 0 0 0-1.9 2 2 0 0 0-.78-1.1zm-16.07-4.43l5.67-31.63a5.14 5.14 0 0 0 0-2.24 2.67 2.67 0 0 0-.93-1.46 2.59 2.59 0 0 0-.95-.44 3 3 0 0 1 .36.83 5.15 5.15 0 0 1 0 2.24l-5.67 31.63a9.1 9.1 0 0 1-.86 2.46 13.9 13.9 0 0 1-1.56 2.42 15.08 15.08 0 0 1-2.06 2.12 11.65 11.65 0 0 1-2.35 1.56 6.21 6.21 0 0 1-2.2.66 3.37 3.37 0 0 1-.93 0 2.09 2.09 0 0 0 .78.79 2.79 2.79 0 0 0 1.67.32 6.17 6.17 0 0 0 2.21-.65 11.63 11.63 0 0 0 2.35-1.56 15 15 0 0 0 2.06-2.12 13.85 13.85 0 0 0 1.56-2.42 9.27 9.27 0 0 0 .85-2.51z"/></g></g></svg>