<svg xmlns="http://www.w3.org/2000/svg" viewBox="0 0 834.01 250.32"><defs><style>.cls-1{fill:#8cd2ef}</style></defs><title>資產 1</title><g id="圖層_2" data-name="圖層 2"><g id="Layer_1" data-name="Layer 1"><path class="cls-1" d="M314.3 0v250.32h276V0zm6.7 12.66h263.41v43.26h-97.83v.28h-11.23v-.28H321zm-.4 49.41H584v43.26H320.57zm.2 48.69h263.41V154h-78.92a1.8 1.8 0 0 1-1.28.53h-11.95a1.8 1.8 0 0 1-1.28-.53H485a1.81 1.81 0 0 1-1.26.5h-11.96a1.81 1.81 0 0 1-1.26-.5h-5.86a1.81 1.81 0 0 1-1.22.47H451.5a1.81 1.81 0 0 1-1.22-.47h-5.93a1.81 1.81 0 0 1-1.19.45h-11.94A1.81 1.81 0 0 1 430 154h-6a1.81 1.81 0 0 1-1.15.42h-11.92a1.81 1.81 0 0 1-1.15-.42h-6.07a1.81 1.81 0 0 1-1.12.39h-11.94a1.81 1.81 0 0 1-1.12-.39h-6.13a1.81 1.81 0 0 1-1.09.37h-11.94a1.81 1.81 0 0 1-1.09-.37h-6.2a1.81 1.81 0 0 1-1.05.34h-11.95A1.81 1.81 0 0 1 349 154h-6.27a1.82 1.82 0 0 1-1 .31H329.8a1.82 1.82 0 0 1-1-.31h-8zm264.5 92.11H583v.4h-14.5v-.4h-4v.4H550v-.4h-3.94v.4h-14.47v-.4h-4v.4h-14.5v-.4h-8.74a1.8 1.8 0 0 1-1.16.43h-11.95a1.8 1.8 0 0 1-1.16-.43h-6a1.81 1.81 0 0 1-1.13.4H471a1.81 1.81 0 0 1-1.13-.4h-6.12a1.81 1.81 0 0 1-1.1.37h-11.97a1.81 1.81 0 0 1-1.1-.37h-6.18a1.81 1.81 0 0 1-1.06.34H430.4a1.81 1.81 0 0 1-1.06-.34h-6.25a1.82 1.82 0 0 1-1 .32h-11.98a1.82 1.82 0 0 1-1-.32h-6.32a1.82 1.82 0 0 1-1 .29h-11.96a1.82 1.82 0 0 1-1-.29h-6.41a1.82 1.82 0 0 1-.94.26h-11.93a1.82 1.82 0 0 1-.94-.26h-6.51a1.82 1.82 0 0 1-.89.24h-11.95a1.82 1.82 0 0 1-.89-.24h-6.61a1.82 1.82 0 0 1-.84.21H329a1.82 1.82 0 0 1-.84-.21h-6.31v-43.25h263.43z"/><path class="cls-1" d="M329.8 154.33h11.94a1.82 1.82 0 0 0 1-.31h-14a1.82 1.82 0 0 0 1.06.31zm13.72-1.71s.16-15 0-20c-.1-2.92-4.41-8.31-4.41-8.31v-2.62h.67v-3h-8v3h.65v2.62s-4.27 5.21-4.41 8.12c-.06 1.23-.08 3.07-.1 5.14v9.57c0 3.13.06 5.47.06 5.47a1.68 1.68 0 0 0 .76 1.39h14a1.68 1.68 0 0 0 .78-1.38zm6.56 1.73H362a1.81 1.81 0 0 0 1.05-.34H349a1.81 1.81 0 0 0 1.08.34zm13.72-1.7s.16-15 0-20c-.1-2.92-4.41-8.31-4.41-8.31v-2.62h.67v-3h-8v3h.65v2.62s-4.27 5.2-4.41 8.12c-.06 1.23-.08 3.07-.1 5.14v9.57c0 3.13.06 5.47.06 5.47A1.68 1.68 0 0 0 349 154h14a1.68 1.68 0 0 0 .8-1.35zm6.57 1.73h11.94a1.81 1.81 0 0 0 1.09-.37h-14.12a1.81 1.81 0 0 0 1.09.37zm13.72-1.71s.16-15 0-20c-.1-2.92-4.41-8.31-4.41-8.31v-2.62h.67v-3h-8v3h.65v2.62s-4.27 5.2-4.41 8.12c-.06 1.23-.08 3.07-.1 5.13v9.57c0 3.13.06 5.47.06 5.47a1.68 1.68 0 0 0 .69 1.34h14.16a1.68 1.68 0 0 0 .69-1.32zm6.56 1.73h11.94a1.81 1.81 0 0 0 1.12-.39h-14.18a1.81 1.81 0 0 0 1.12.39z"/><path class="cls-1" d="M404.37 152.7v-5.59c0-4.8.05-11.4 0-14.4S400 124.4 400 124.4v-2.62h.67v-3h-8v3h.65v2.62s-4.27 5.21-4.41 8.12c-.06 1.23-.08 3.07-.1 5.14v9.58c0 3.13.06 5.47.06 5.47a1.67 1.67 0 0 0 .66 1.31h14.18a1.67 1.67 0 0 0 .66-1.32zm6.56 1.73h11.94A1.81 1.81 0 0 0 424 154h-14.22a1.81 1.81 0 0 0 1.15.43z"/><path class="cls-1" d="M424.65 152.73v-5.59c0-4.8.05-11.4 0-14.4s-4.41-8.31-4.41-8.31v-2.63h.68v-3h-8v3h.65v2.63s-4.27 5.2-4.41 8.12c-.06 1.23-.08 3.07-.1 5.13v9.57c0 3.13.06 5.47.06 5.47a1.67 1.67 0 0 0 .62 1.29H424a1.67 1.67 0 0 0 .65-1.28zm6.57 1.73h11.94a1.81 1.81 0 0 0 1.19-.45H430a1.81 1.81 0 0 0 1.22.45zm13.72-1.7s.16-15 0-20c-.1-2.92-4.41-8.31-4.41-8.31v-2.62h.67v-3h-8v3h.65v2.62s-4.27 5.21-4.41 8.12c-.06 1.23-.08 3.07-.1 5.14v9.57c0 3.13.06 5.47.06 5.47a1.67 1.67 0 0 0 .6 1.25h14.32a1.67 1.67 0 0 0 .62-1.24zm6.56 1.73h11.94a1.81 1.81 0 0 0 1.22-.47h-14.38a1.81 1.81 0 0 0 1.22.47z"/><path class="cls-1" d="M465.22 152.78v-5.47c0-4.81.05-11.48 0-14.5s-4.41-8.31-4.41-8.31v-2.62h.68v-3h-8v3h.65v2.62s-4.27 5.2-4.4 8.12c-.06 1.23-.08 3.07-.1 5.14v9.57c0 3.13.06 5.47.06 5.47a1.66 1.66 0 0 0 .55 1.23h14.39a1.66 1.66 0 0 0 .58-1.25zm6.56 1.73h11.94A1.81 1.81 0 0 0 485 154h-14.47a1.81 1.81 0 0 0 1.25.51z"/><path class="cls-1" d="M485.5 152.81v-5.68c0-4.79.05-11.32 0-14.3s-4.4-8.31-4.4-8.31v-2.62h.68v-3h-8v3h.65v2.62s-4.27 5.2-4.41 8.12c-.06 1.23-.08 3.07-.1 5.13v9.57c0 3.13.06 5.47.06 5.47a1.67 1.67 0 0 0 .52 1.21H485a1.67 1.67 0 0 0 .5-1.21zm6.56 1.73H504a1.8 1.8 0 0 0 1.28-.53h-14.5a1.8 1.8 0 0 0 1.28.53zm13.72-21.7c-.09-2.92-4.4-8.31-4.4-8.31v-2.62h.67v-3h-8v3h.65v2.62s-4.27 5.21-4.41 8.12c-.05 1.23-.08 3.07-.1 5.14v9.57c0 3.13.06 5.47.06 5.47a1.66 1.66 0 0 0 .5 1.18h14.5a1.66 1.66 0 0 0 .5-1.18s.2-14.99.03-19.99zM329 203.08h11.94a1.82 1.82 0 0 0 .84-.21h-13.64a1.82 1.82 0 0 0 .86.21zm13.7-1.7s.16-15 0-20c-.1-2.92-4.41-8.31-4.41-8.31v-2.62h.71v-3h-8v3h.65v2.62s-4.27 5.2-4.41 8.12c-.06 1.23-.08 3.07-.1 5.13v9.57c0 3.13.06 5.47.06 5.47a1.69 1.69 0 0 0 .94 1.5h13.62a1.69 1.69 0 0 0 .94-1.48zm6.56 1.73h11.94a1.82 1.82 0 0 0 .89-.24h-13.72a1.82 1.82 0 0 0 .89.24zm13.74-1.7s.16-15 0-20c-.1-2.91-4.41-8.31-4.41-8.31v-2.62h.67v-3h-8v3h.65v2.62s-4.27 5.21-4.41 8.12c-.06 1.23-.08 3.07-.1 5.13v9.57c0 3.13.06 5.47.06 5.47a1.69 1.69 0 0 0 .89 1.47h13.75a1.69 1.69 0 0 0 .9-1.45zm6.55 1.73h11.94a1.82 1.82 0 0 0 .94-.26h-13.82a1.82 1.82 0 0 0 .94.26z"/><path class="cls-1" d="M383.27 201.43s.16-15 0-20c-.1-2.92-4.41-8.31-4.41-8.31v-2.62h.67v-3h-8v3h.65v2.62s-4.27 5.21-4.41 8.12c-.06 1.23-.08 3.07-.1 5.14V196c0 3.13.06 5.47.06 5.47a1.68 1.68 0 0 0 .84 1.44h13.82a1.69 1.69 0 0 0 .88-1.48zm6.56 1.74h11.94a1.82 1.82 0 0 0 1-.29h-13.93a1.82 1.82 0 0 0 .99.29z"/><path class="cls-1" d="M403.55 201.46v-5.59c0-4.8.05-11.4 0-14.4s-4.41-8.31-4.41-8.31v-2.62h.68v-3h-8v3h.65v2.62s-4.27 5.2-4.41 8.12c-.06 1.23-.08 3.07-.1 5.13V196c0 3.13.06 5.47.06 5.47a1.69 1.69 0 0 0 .78 1.42h13.93a1.69 1.69 0 0 0 .82-1.43zm6.56 1.73h11.94a1.82 1.82 0 0 0 1-.32h-14a1.82 1.82 0 0 0 1.06.32zm13.72-1.7V181.5c0-3-4.41-8.31-4.41-8.31v-2.62h.68v-3h-8v3h.65v2.62s-4.27 5.21-4.41 8.12c-.06 1.23-.08 3.07-.1 5.14V196c0 3.13.06 5.47.06 5.47a1.68 1.68 0 0 0 .75 1.39h14a1.68 1.68 0 0 0 .78-1.37zm6.57 1.73h11.94a1.81 1.81 0 0 0 1.06-.34h-14.06a1.81 1.81 0 0 0 1.06.34zm13.72-1.7s.16-15 0-20c-.1-2.92-4.41-8.31-4.41-8.31v-2.62h.67v-3h-8v3h.62v2.62s-4.27 5.2-4.41 8.12c-.06 1.23-.08 3.07-.1 5.14v9.57c0 3.13.06 5.47.06 5.47a1.67 1.67 0 0 0 .72 1.36h14.13a1.68 1.68 0 0 0 .72-1.35zm6.56 1.73h11.94a1.81 1.81 0 0 0 1.1-.37h-14.14a1.81 1.81 0 0 0 1.1.37z"/><path class="cls-1" d="M464.4 201.54v-5.47c0-4.81.05-11.48 0-14.5s-4.41-8.31-4.41-8.31v-2.62h.68v-3h-8v3h.65v2.62s-4.27 5.21-4.4 8.12c-.06 1.23-.08 3.07-.1 5.14v9.57c0 3.13.06 5.47.06 5.47a1.67 1.67 0 0 0 .68 1.33h14.14a1.67 1.67 0 0 0 .7-1.35zm6.6 1.73h11.9a1.81 1.81 0 0 0 1.13-.4h-14.2a1.81 1.81 0 0 0 1.17.4z"/><path class="cls-1" d="M484.68 201.57v-5.69c0-4.79.05-11.32 0-14.3s-4.4-8.31-4.4-8.31v-2.62h.72v-3h-8v3h.65v2.62s-4.27 5.21-4.41 8.12c-.05 1.23-.08 3.07-.1 5.14v9.58c0 3.13.06 5.47.06 5.47a1.67 1.67 0 0 0 .65 1.31H484a1.67 1.67 0 0 0 .68-1.32zm6.56 1.73h11.94a1.8 1.8 0 0 0 1.16-.43h-14.26a1.8 1.8 0 0 0 1.16.43zm13.76-1.71s.16-15 0-20c-.09-2.92-4.4-8.31-4.4-8.31v-2.62h.67v-3h-8v3h.65v2.62s-4.27 5.2-4.41 8.12c-.06 1.23-.08 3.07-.1 5.13v9.57c0 3.14.06 5.47.06 5.47a1.67 1.67 0 0 0 .61 1.28h14.27a1.67 1.67 0 0 0 .65-1.26zM340.94 71.64v-3.18h-6.73v3.18h-3.28v33.69h12.66V71.64h-2.65zm23.01 0v-3.18h-6.73v3.18h-3.28v33.69h12.67V71.64h-2.66zm23.02 0v-3.18h-6.73v3.18h-3.28v33.69h12.66V71.64h-2.65zm23.02 0v-3.18h-6.74v3.18h-3.28v33.69h12.67V71.64h-2.65zm23.01 0v-3.18h-6.73v3.18h-3.28v33.69h12.66V71.64H433zm23.01 0v-3.18h-6.73v3.18H446v33.69h12.67V71.64h-2.66zm23.02 0v-3.18h-6.73v3.18h-3.28v33.69h12.67V71.64h-2.66zm23.02 0v-3.18h-6.73v3.18h-3.28v33.69h12.66V71.64h-2.65zm23.01 0v-3.18h-6.73v3.18h-3.28v33.69h12.67V71.64h-2.66zm23.02 0v-3.18h-6.73v3.18h-3.28v33.69h12.67V71.64h-2.66zm23.01 0v-3.18h-6.73v3.18h-3.28v33.69h12.67V71.64h-2.66zm-51.98 56.83h9.54v25.54h-9.54zm13.44-.02h9.54v25.54h-9.54zm12.9.01h9.54V154h-9.54zm13.45-.02h9.54v25.54h-9.54zm9.6 74.44h14.48v.4H568.5zm-55.41 0h14.48v.4h-14.48zm18.5 0h14.48v.4h-14.48zm18.42 0h14.48v.4h-14.48zm22.4-9.04v-9.43h-9.21V175h-14.48v9.43h-4V175h-14.49v9.43H521v9.43h-7.92v9h14.48v-9h4v9h14.48v-9H550v9h14.48v-9h4v9H583v-9zm-32.9 0h-4v-9.43h4zm18.42 0H554v-9.43h3.94zM332.38 55.92h14.48v.04h-14.48zm36.92 0h14.48v.04H369.3zm18.5 0h14.48v.04H387.8zm-36.92 0h14.48v.04h-14.48zm40.82-9.39V37.1h-9.21v-9.43H368v9.43h-4v-9.43h-14.48v9.43h-9.21v9.43h-7.92v9.39h14.48v-9.39h4v9.39h14.48v-9.39h3.94v9.39h14.48v-9.39h4v9.39h14.48v-9.39zm-32.9 0h-4V37.1h4zm18.42 0h-3.94V37.1h3.94zm158.67 9.39h14.48v.04h-14.48zm-18.42 0h14.48v.04h-14.48zm-18.5 0h14.48v.04h-14.48zm55.41 0h14.48v.04h-14.48zm3.91-9.39V37.1h-9.21v-9.43H534.6v9.43h-4v-9.43h-14.49v9.43h-9.21v9.43H499v9.39h14.48v-9.39h4v9.39h14.48v-9.39h3.94v9.39h14.48v-9.39h4v9.39h14.48v-9.39zm-32.9 0h-4V37.1h4zm18.42 0h-3.94V37.1h3.94zM411.76 31.39h11.23v24.53h-11.23zm16.17 0h11.23v24.53h-11.23zm15.82 0h11.23v24.53h-11.23zm16.17 0h11.23v24.53h-11.23zm15.43 24.53h11.23v.28h-11.23zm0-24.25h11.23v24.25h-11.23zm357.48 177.88v-4.85h-2.56v-.66a1 1 0 0 0 .22-.6v-11.75a7 7 0 0 0-1.1-2.79l-5.73-99.06h-90.1v-12.1h28.17V42h-62.4v35.74h27.49v12.12H616.74l-6.68 114.84h-2.58v37.11h-1.22v8.51H834v-8.51h-1.18zM620.9 95.22h198.56l1.81 31.26h-10v-13.9h-13.9v13.9h-4.43v-13.9H779v13.9h-3.93v-13.9h-13.9v13.9h-4.43v-13.9h-13.9v13.9h-4.17v-13.9h-13.9v13.9h-4.43v-13.9h-13.9v13.9h-5.14v-13.9h-13.9v13.9H683v-13.9h-13.9v13.9h-4.2v-13.9H651v13.9h-4.43v-13.9h-13.9v13.9h-13.58zm-2.1 36.11h202.74l1.92 33.3h-5.11l.86-12h.79v-1.74h-9.6v1.74h.82l.36 5.06.26 3.71.23 3.23h-7l.86-12h.74v-1.74h-9.56v1.74h.82l.85 12h-7.33l.86-12h.74v-1.74h-9.56v1.74h.82l.3 4.22.32 4.55.23 3.23h-7l.86-12h.74v-1.74h-9.56v1.74h.82l.36 5.06.26 3.71.23 3.23h-7.24l.86-12h.74v-1.74h-9.56v1.74h.82l.36 5.06.26 3.71.23 3.24h-7l.86-12h.8v-1.74h-9.56v1.74h.82l.85 12h-7.33l.86-12h.74v-1.74h-9.56v1.74h.82l.3 4.22.32 4.55.23 3.24h-7l.86-12h.74v-1.74h-9.56v1.74h.82l.36 5.06.26 3.71.23 3.24h-7l.86-12h.74v-1.74h-9.5v1.74h.82l.62 8.74.23 3.24h-7l.86-12h.74v-1.74H690v1.74h.82l.3 4.22.32 4.55.23 3.19h-7l.86-12h.74v-1.74h-9.56v1.74h.82l.61 8.61v.16l.23 3.24h-7l.86-12h.74v-1.74h-9.56v1.74h.82l.61 8.61v.16l.23 3.24h-7l.86-12h.74v-1.74h-9.56v1.74h.82l.85 12h-7l.86-12h.74v-1.74H637v1.74h.82l.85 12h-7l.86-12h.74v-1.74h-9.56v1.74h.82l.62 8.72v.05l.23 3.21h-8.51zm-4.26 73.37l2-35.24h207.21l.82 14.09h-.72v1.75h.37v1.54s-2.4 3.05-2.48 4.76c0 .72 0 1.8-.05 3v8.82a1 1 0 0 0 1 1h3v.26z"/><path class="cls-1" d="M633.75 186.65v-1.54h.38v-1.74h-4.51v1.74h.38v1.54s-2.41 3.05-2.48 4.76c0 .72 0 1.8-.05 3v8.8a1 1 0 0 0 1 1h6.72a1 1 0 0 0 1-1v-11.68c0-1.76-2.44-4.88-2.44-4.88zm11.42.02v-1.54h.38v-1.74H641v1.74h.37v1.54s-2.4 3.05-2.48 4.76c0 .72 0 1.8-.05 3v8.82a1 1 0 0 0 1 1h6.72a1 1 0 0 0 1-1s.09-8.79 0-11.72c.03-1.7-2.39-4.86-2.39-4.86zm11.41.01v-1.54h.42v-1.74h-4.51v1.74h.37v1.54s-2.4 3.05-2.48 4.76c0 .72 0 1.8-.05 3v8.83a1 1 0 0 0 1 1h6.72a1 1 0 0 0 1-1v-11.7c0-1.75-2.47-4.89-2.47-4.89zm11.42.02v-1.54h.38v-1.74h-4.51v1.74h.37v1.54s-2.4 3.05-2.48 4.76c0 .72 0 1.8-.05 3v8.83a1 1 0 0 0 1 1h6.72a1 1 0 0 0 1-1v-11.72c0-1.74-2.43-4.87-2.43-4.87zm11.4.01v-1.54h.38v-1.74h-4.51v1.74h.37v1.54s-2.4 3.05-2.48 4.76c0 .72 0 1.8-.05 3v8.82a1 1 0 0 0 1 1h6.72a1 1 0 0 0 1-1v-11.72c0-1.73-2.43-4.86-2.43-4.86zm11.42.02v-1.54h.38v-1.74h-4.51v1.74h.37v1.54s-2.41 3.05-2.48 4.76c0 .72 0 1.8-.05 3v8.83a1 1 0 0 0 1 1h6.72a1 1 0 0 0 1-1s.09-8.79 0-11.72c-.01-1.71-2.43-4.87-2.43-4.87zm11.41.01v-1.54h.38v-1.74h-4.51v1.74h.37v1.54s-2.41 3.05-2.48 4.76c0 .72 0 1.8-.05 3v8.82a1 1 0 0 0 1 1h6.72a1 1 0 0 0 1-1s.09-8.8 0-11.73c0-1.68-2.43-4.85-2.43-4.85zm11.41.02v-1.54h.36v-1.74h-4.51v1.74h.37v1.54s-2.4 3.05-2.48 4.76c0 .72 0 1.8-.05 3v8.83a1 1 0 0 0 1 1h6.72a1 1 0 0 0 1-1v-11.72c0-1.73-2.41-4.87-2.41-4.87zm11.42.02v-1.54h.38v-1.74h-4.51v1.74h.37v1.54s-2.4 3.05-2.48 4.76c0 .72 0 1.8-.06 3v8.82a1 1 0 0 0 1 1h6.72a1 1 0 0 0 1-1v-11.67c0-1.73-2.42-4.91-2.42-4.91zm11.6-.07v-1.54h.34v-1.74h-4.51v1.74h.37v1.54s-2.4 3.05-2.48 4.76c0 .72 0 1.8-.06 3v8.83a1 1 0 0 0 1 1h6.72a1 1 0 0 0 1-1v-11.68c0-1.77-2.38-4.91-2.38-4.91zm11.42.02v-1.54h.38v-1.74h-4.51v1.74h.37v1.54s-2.41 3.05-2.48 4.76c0 .72 0 1.8-.05 3v8.83a1 1 0 0 0 1 1h6.72a1 1 0 0 0 1-1s.09-8.79 0-11.72c-.01-1.71-2.43-4.87-2.43-4.87zm11.41.02v-1.54h.38v-1.74h-4.51v1.74h.37v1.54s-2.4 3.05-2.48 4.76c0 .72 0 1.8-.05 3v8.83a1 1 0 0 0 1 1h6.8a1 1 0 0 0 1-1v-11.72c0-1.75-2.51-4.87-2.51-4.87zm11.41.01v-1.54h.38v-1.74h-4.51v1.74h.37v1.54s-2.41 3.05-2.48 4.76c0 .72 0 1.8-.05 3v8.82a1 1 0 0 0 1 1h6.72a1 1 0 0 0 1-1v-11.69c0-1.74-2.43-4.89-2.43-4.89zm11.42.02v-1.54h.38v-1.74h-4.51v1.74h.37v1.54s-2.4 3.05-2.48 4.76c0 .72 0 1.8-.05 3v8.82a1 1 0 0 0 1 1h6.72a1 1 0 0 0 1-1v-11.67c0-1.73-2.43-4.91-2.43-4.91zm11.41.01v-1.54h.38v-1.74h-4.51v1.74h.4v1.54s-2.4 3.05-2.48 4.76c0 .72 0 1.8-.05 3v8.83a1 1 0 0 0 1 1h6.72a1 1 0 0 0 1-1s.09-8.8 0-11.72c-.03-1.66-2.46-4.87-2.46-4.87zm11.41.02v-1.54h.38v-1.74H801v1.74h.37v1.54s-2.41 3.05-2.48 4.76c0 .72 0 1.8-.05 3v8.83a1 1 0 0 0 1 1h6.72a1 1 0 0 0 1-1s.09-8.79 0-11.72c.01-1.68-2.42-4.87-2.42-4.87zm11.42.01v-1.54h.38v-1.74h-4.51v1.74h.37v1.54s-2.4 3.05-2.48 4.76c0 .72 0 1.8-.06 3v8.82a1 1 0 0 0 1 1H818a1 1 0 0 0 1-1v-11.71c0-1.73-2.44-4.87-2.44-4.87zm-177.13-39.67v.05l.24 3.43h6.26l.88-12.2h.74v-1.74h-9.56v1.74h.82l.62 8.72zm13.51 3.43h6.26l.88-12.2h.74v-1.74h-9.56v1.74h.82l.86 12.2zm13.27.03h6.26l.87-12.21h.74v-1.73h-9.56v1.73h.82l.87 12.21zm13.01-3.6l.01.17.24 3.43h6.26l.88-12.21h.74v-1.73h-9.56v1.73h.82l.61 8.61zm13.26 0l.01.17.25 3.43H699l.87-12.21h.74v-1.73h-9.56v1.73h.82l.61 8.61zm12.96-4.33l.32 4.55.24 3.43h6.26l.88-12.2h.74v-1.74h-9.56v1.74h.82l.3 4.22zm13.58 4.47v.03l.25 3.43h6.26l.87-12.2h.74v-1.74h-9.56v1.74h.82l.62 8.74zm13-3.69l.27 3.72.24 3.43h6.26l.88-12.2h.74v-1.74h-9.56v1.74h.82l.35 5.05zm13.22-.83h-.01l.32 4.55.25 3.43h6.26l.87-12.2h.74v-1.74h-9.56v1.74h.82l.31 4.22zm14.17 8.03h6.27l.87-12.2h.74v-1.74h-9.56v1.74h.82l.86 12.2zm12.77-7.2l.26 3.72.24 3.43h6.26l.88-12.21h.74v-1.73H771v1.73h.82l.36 5.06zm13.52.01l.27 3.71.24 3.43h6.26l.88-12.2h.74v-1.74h-9.56v1.74h.82l.35 5.06zm13.21-.84l.32 4.55h.01l.24 3.43h6.26l.87-12.2h.74v-1.74h-9.56v1.74h.82l.3 4.22zm14.18 8.03h6.27l.87-12.2h.74v-1.74h-9.56v1.74h.82l.86 12.2zm-524.17 88.8v-47.32h-3.27L277.19 45.7H13.35L4.84 192.14H1.55v47.32H0v10.86h290.42v-10.86zM18.66 52.53h253.2l2.31 39.86h-12.81V74.67h-17.73V92.4H238V74.67h-17.74V92.4h-5V74.67h-17.74V92.4h-5.65V74.67h-17.72V92.4h-5.32V74.67H151.1V92.4h-5.64V74.67h-17.73V92.4h-6.54V74.67h-17.73V92.4h-5.64V74.67H80.09V92.4h-5.32V74.67H57V92.4h-5.6V74.67H33.67V92.4H16.35zM16 98.58h258.53L277 141h-6.52l1.1-15.31h.94v-2.19h-7.72l.22-3.1h.86v-2h-11.09v2h.95l1 14.14H262l.17 2.37.29 4.12h-8.89l1.09-15.25h.94v-2.22H249l.23-3.22h.86v-2H239v2h1l.35 4.89.37 5.28.28 4h4.1l.47 6.55h-9.34l1.1-15.31h.94v-2.25h-4.59l.23-3.16h.86v-2h-11.13v2h.95l.42 5.86.3 4.3.28 4h2.1l.17 2.43.29 4.12h-8.9l1.1-15.31h.95v-2.24H218l.23-3.17h.77v-2h-11v2h.95l.22 3.17v2.22h.18v.48l.3 4.3.28 4h.87l.17 2.43.29 4.12H202l1.1-15.32h.94v-2.22h-1.46l.22-3.1h.86v-2h-11.07v2h.95l.22 3.1h-1.9v2.22h1l.46 6.45.33 4.73.35 4.09h-8.9l.47-6.55h.43l.63-8.7h.49v-2.22h-.34l.23-3.22h.86v-2h-11.06v2h1l.23 3.22h-3v2.22h1l1.03 15.25h-9.35l.47-6.55h2.45l1-14.14h.86v-2h-11.06v2h.95l.22 3.16h-5v2.21h1l.38 5.39.41 5.8.29 4.13h-8.9l.47-6.55h4l1-14.14h.86v-2h-11.06v2h.94l.22 3.16h-6.55l.22-3.1h.86v-2h-11.06v2h1l.22 3.1h-6.55l.23-3.16h.86v-2h-11.13v2h.95l.23 3.22h-6.56l.23-3.22h.83v-2H99.95v2h1l.22 3.16h-6.6l.23-3.16h.86v-2H84.58v2h1l1 14.14h5l.16 2.21v.21L92 141h-8.9l1.1-15.32h.94v-2.22h-6l.23-3.19h.85v-2H69.21v2h.95l1 14.14h3.5l.16 2.24v.21l.29 4.13h-8.9l1.1-15.32h.95v-2.22h-4.43l.22-3.13h.86v-2H53.83v2h1l.71 10.11v.06l.28 4h2l.46 6.52h-8.9l1.1-15.35h.94v-2.22H39.16v2.22h1L41.29 141h-8.9l1.1-15.29h.95v-2.21h-12.2v2.21h1l.78 11.12v.07l.29 4.1H13.52zm118.37 36h5.54l.77-10.66v1.84h1l.46 6.45.33 4.73.29 4.13h-8.9zm-16.91-.06h7.08l.44-6.18.61 8.56.29 4.13H117zm-8.8 2.48l.34 4h-8.9l1.1-15.32h.12l.33 4.6v.19l.28 4h6.58zm168.22 55.18v-10.03c0-2.01-2.87-5.65-2.87-5.65v-1.78h.44v-2h-5.25v2h.42v1.78s-2.78 3.54-2.87 5.52c0 .84-.06 2.09-.06 3.49v6.66h-3.05v-10.05c0-2-2.87-5.65-2.87-5.65v-1.78h.44v-2H256v2h.42v1.78s-2.78 3.54-2.87 5.52c0 .84-.06 2.08-.06 3.49v6.71h-3.05v-10.07c0-2.07-2.87-5.65-2.87-5.65v-1.78h.43v-2h-5.22v2h.43v1.78s-2.79 3.54-2.87 5.52c0 .84-.06 2.09-.06 3.49v6.71h-3.05V182.1c0-2.09-2.88-5.65-2.88-5.65v-1.79h.44v-2h-5.22v2h.43v1.79s-2.79 3.53-2.87 5.52c0 .84-.06 2.08-.06 3.49v6.72H224v-10.11c0-2-2.87-5.65-2.87-5.65v-1.78h.44v-2h-5.27v2h.42v1.78s-2.79 3.54-2.87 5.52c0 .84-.05 2.08-.06 3.49v6.75h-3.05v-10.13c0-2.02-2.87-5.65-2.87-5.65v-1.78h.44v-2h-5.23v2h.43v1.78s-2.79 3.54-2.87 5.52c0 .84-.05 2.08-.06 3.49v6.77h-3.05v-10.14c0-2.03-2.87-5.64-2.87-5.64v-1.79h.44v-2h-5.22v2h.42v1.79s-2.79 3.53-2.87 5.52c0 .84-.06 2.08-.06 3.49v6.79h-3.07v-10.16c0-2.16-2.87-5.65-2.87-5.65v-1.78h.44v-2h-5.23v2h.36v1.78s-2.79 3.53-2.87 5.52c0 .84-.06 2.08-.06 3.49v6.82h-3.05v-10.18c0-2.05-2.87-5.65-2.87-5.65v-1.78h.44v-2h-5.19v2h.42v1.78s-2.79 3.54-2.87 5.52c0 .84-.06 2.09-.06 3.49v6.82h-3.28v-10.1c0-2-2.87-5.65-2.87-5.65v-1.78h.44v-2h-5.22v2h.42v1.78s-2.79 3.54-2.87 5.52c0 .84-.06 2.08-.06 3.49v6.74h-3.05V182.1c0-2-2.87-5.65-2.87-5.65v-1.78h.44v-2h-5.22v2h.42v1.78s-2.78 3.54-2.87 5.52c0 .84-.06 2.08-.06 3.49v6.77h-3.05v-10.15c0-2.15-2.87-5.65-2.87-5.65v-1.78h.44v-2h-5.22v2h.43v1.78s-2.79 3.54-2.87 5.52c0 .84-.06 2.08-.06 3.49v6.78H118v-10.16c0-2.16-2.88-5.65-2.88-5.65v-1.78h.44v-2h-5.22v2h.43v1.78s-2.79 3.54-2.87 5.52c0 .84-.06 2.08-.06 3.49v6.8h-3.05v-10.17c0-2-2.87-5.65-2.87-5.65v-1.78h.44v-2H97v2h.42v1.78s-2.79 3.54-2.87 5.52c0 .84-.05 2.09-.06 3.49v6.81H91.5v-10.2c0-2.02-2.87-5.64-2.87-5.64v-1.79H89v-2h-5.18v2h.42v1.79s-2.78 3.54-2.87 5.52c0 .84-.06 2.08-.06 3.49v6.83h-3.03v-10.21c0-2.03-2.87-5.65-2.87-5.65v-1.78h.44v-2h-5.26v2H71v1.78s-2.78 3.54-2.87 5.52c0 .84-.06 2.08-.06 3.49v6.85h-3.02v-10.24c-.06-2-2.87-5.65-2.87-5.65v-1.78h.44v-2h-5.25v2h.42v1.78s-2.79 3.54-2.87 5.52c0 .84-.06 2.08-.06 3.49v6.87h-3.03V182c0-2.05-2.87-5.65-2.87-5.65v-1.78h.44v-2h-5.26v2h.43v1.78s-2.79 3.53-2.87 5.52c0 .84-.06 2.08-.06 3.49v6.89H10.55l2.61-44.93h264.18l2.6 44.93z"/></g></g></svg>