<svg xmlns="http://www.w3.org/2000/svg" viewBox="0 0 147.91 118.42"><defs><style>.cls-1{isolation:isolate}.cls-12,.cls-2{fill:#f4ca26}.cls-2{stroke:#f4b123;stroke-width:3.69px}.cls-12,.cls-2,.cls-6{stroke-miterlimit:10}.cls-3{fill:#e2891d}.cls-4{fill:#fff;mix-blend-mode:overlay}.cls-11,.cls-4{opacity:.3}.cls-10,.cls-5,.cls-7{opacity:.2}.cls-10,.cls-11,.cls-5,.cls-7{mix-blend-mode:multiply}.cls-6{fill:#d2d6ec;stroke:#afb6d3;stroke-width:4.01px}.cls-7,.cls-9{fill:#85965f}.cls-8{fill:#cadba0}.cls-10{fill:#353e45}.cls-12{stroke:#f5d655;stroke-width:3.85px}.cls-13{opacity:.6}</style></defs><title>award-3</title><g class="cls-1"><g id="圖層_2" data-name="圖層 2"><g id="圖層_2-2" data-name="圖層 2"><path class="cls-2" d="M99.58 14.57A19.55 19.55 0 1 1 74.36 3.22a19.55 19.55 0 0 1 25.22 11.35z"/><path class="cls-3" d="M78.15 16.71l-.38.13q-2.79 1-3.46-.94t2.27-2.9l2.07-.72a2.26 2.26 0 0 1 2.07.06A4 4 0 0 1 82 14.35l4.36 12.47q1 2.94-1.06 3.67t-3.1-2.21z"/><path class="cls-4" d="M80.87 0L61.78 30.92a21.31 21.31 0 0 0 9.07 9.35l22.5-36.33A21.28 21.28 0 0 0 80.87 0z"/><g class="cls-5"><circle class="cls-3" cx="60.05" cy="40.27" r="23.68" transform="rotate(-15.23 60.053 40.272)"/></g><circle class="cls-6" cx="56.69" cy="40" r="21.25" transform="rotate(-46.95 56.7 40.006)"/><path class="cls-7" d="M53.28 56.16L76 26.74s3.56 4.35 2.58 6.8S58.8 64.19 58.8 64.19z"/><path class="cls-4" d="M58.16 16.94l-24 31.9A23.12 23.12 0 0 0 39.74 57c.42.39.87.76 1.31 1.11l28-37.06a23 23 0 0 0-10.89-4.11z"/><path class="cls-8" transform="rotate(-8.05 87.038 85.39)" d="M36.07 61.67h101.99v47.45H36.07z"/><path class="cls-9" d="M141.32 89.72L138 66.19l-2-13.83L30.85 67.23l5.28 37.36 2 13.83 13.61-1.92 78-11 13.6-1.92zm-89.19 22.42v-.34a10.38 10.38 0 0 0-11.75-8.8h-.18l-3.05-21.56h.18a10.38 10.38 0 0 0 8.82-11.74c0-.11 0-.22-.07-.33l27.82-3.93c-6.25 5-9.76 13.74-8.45 23s7.1 16.66 14.49 19.76zm43.41-18a8.92 8.92 0 0 1-5 3.12l-.38.09.37 2.31a3 3 0 0 1-1.33.55 4.1 4.1 0 0 1-1.58-.08l-.39-2.39h-.09a8.42 8.42 0 0 1-4.93-1.1c-1.5-.82-2.54-2.58-3-5.23l-.15-.89a8.19 8.19 0 0 1 3.32-1.21 7.71 7.71 0 0 1 3.46.1l.2 1.2a13.89 13.89 0 0 0 .68 3.21 1.18 1.18 0 0 0 1.41.61 1.65 1.65 0 0 0 1.23-.75 2.26 2.26 0 0 0 .19-1.54 9.73 9.73 0 0 0-.86-3.06 5.06 5.06 0 0 0-2.8-1.74 51.54 51.54 0 0 1-4.84-1.89 7 7 0 0 1-2.32-1.94 6.73 6.73 0 0 1-1.38-3.15 5.19 5.19 0 0 1 1-4.39 9.05 9.05 0 0 1 4.84-2.72l-.32-2a2.44 2.44 0 0 1 1.46-.68 1.78 1.78 0 0 1 1.45.2l.32 2h.38a8.54 8.54 0 0 1 5.16 1.06 5.45 5.45 0 0 1 2.19 3.83c0 .19 0 .48.07.85a7.15 7.15 0 0 1-3.09 1.18 9.53 9.53 0 0 1-3.6-.09l-.11-.7a6.79 6.79 0 0 0-.54-2.28 1.21 1.21 0 0 0-1.35-.49 1.47 1.47 0 0 0-1.14.77 2.48 2.48 0 0 0-.07 1.55 3 3 0 0 0 1.16 2.17 26.51 26.51 0 0 0 4.29 1.69 28.87 28.87 0 0 1 4 1.57 5.77 5.77 0 0 1 1.91 1.79 7.68 7.68 0 0 1 1.16 3.22 7 7 0 0 1-.98 5.28zm41.25-4.81a10.37 10.37 0 0 0-8.79 11.75c0 .11 0 .22.07.33l-27.81 3.93c6.25-5 9.76-13.74 8.45-23s-7.1-16.66-14.5-19.76L122 58.64v.34a10.38 10.38 0 0 0 11.73 8.82h.18L137 89.34z"/><path class="cls-10" d="M139.79 78.93l-3.76-26.57L30.85 67.23l7.23 51.19 13.3-1.88 88.41-37.61z"/><path class="cls-8" transform="rotate(-23.05 81.542 67.555)" d="M24.17 40.86H138.9v53.38H24.17z"/><path class="cls-9" d="M32.52 62.41a11.68 11.68 0 0 1-11.2 16.24l-6.15-14.46 14.22-6.05a11.63 11.63 0 0 1 3.13 4.27z"/><path class="cls-9" d="M147.91 70.91l-6.15-14.46-10.46-24.6-6.15-14.46-110 46.8 16.62 39.06 6.15 14.46L133.69 77l9.85-4.19 4.37-1.86zm-71.75-10a3.32 3.32 0 0 0 1.89 2 29.61 29.61 0 0 0 5.15.59 32.63 32.63 0 0 1 4.82.54 6.47 6.47 0 0 1 2.59 1.39 8.64 8.64 0 0 1 2.2 3.17 7.87 7.87 0 0 1 .49 6 10.07 10.07 0 0 1-4.54 4.85l-.38.21 1.08 2.4a3.34 3.34 0 0 1-1.28 1 4.61 4.61 0 0 1-1.74.38L85.34 81h-.1a9.47 9.47 0 0 1-5.68.24c-1.87-.46-3.51-2.06-4.75-4.82l-.42-.93a9.31 9.31 0 0 1 3.26-2.28 8.67 8.67 0 0 1 3.79-.89l.56 1.21a15.55 15.55 0 0 0 1.67 3.29 1.33 1.33 0 0 0 1.71.26 1.86 1.86 0 0 0 1.12-1.18 2.55 2.55 0 0 0-.24-1.73 11.06 11.06 0 0 0-1.83-3.07c-.59-.59-1.75-.94-3.54-1.07a57.43 57.43 0 0 1-5.81-.64A7.81 7.81 0 0 1 72 68a7.54 7.54 0 0 1-2.41-3 5.83 5.83 0 0 1-.22-5.06 10.22 10.22 0 0 1 4.47-4.36v-.06l-.92-2a2.74 2.74 0 0 1 1.39-1.16 2 2 0 0 1 1.63-.2l.91 2 .45-.16a9.58 9.58 0 0 1 5.91-.35 6.13 6.13 0 0 1 3.5 3.53c.09.2.18.52.32.91a8 8 0 0 1-3 2.18 10.72 10.72 0 0 1-3.94 1l-.33-.73a7.74 7.74 0 0 0-1.25-2.32 1.35 1.35 0 0 0-1.6-.13 1.64 1.64 0 0 0-1 1.17 2.8 2.8 0 0 0 .26 1.65zm-24.91 45.53a11.67 11.67 0 0 0-15.31-6.17l-.18.09-14.32-33.64 40-17c-5.33 7.28-6.62 17.75-2.49 27.44s12.56 16 21.51 17.26l-29.08 12.37c-.05-.11-.08-.24-.13-.35zm85.49-49.06a11.68 11.68 0 0 0-6.17 15.31c.05.12.12.23.17.34L101.65 85.4c5.32-7.29 6.6-17.77 2.48-27.46s-12.56-16-21.51-17.26l29.08-12.37c0 .12.08.24.13.36a11.67 11.67 0 0 0 15.31 6.17l.18-.09 9.6 22.56z"/><g class="cls-11"><circle class="cls-9" cx="32.77" cy="74.31" r="28.87" transform="rotate(-30 32.771 74.301)"/></g><circle class="cls-12" cx="28.82" cy="70.56" r="26.89" transform="rotate(-30 28.813 70.56)"/><path class="cls-4" d="M6.48 88.73a28.92 28.92 0 0 0 11.59 8.54L52.75 54.5a28.87 28.87 0 0 0-10.84-9.59z"/><g class="cls-13"><path class="cls-3" d="M33.13 80.95a11.35 11.35 0 0 1-4.72 1.23 2.73 2.73 0 0 1-2.51-1.11 2.16 2.16 0 0 1-.25-1.72 2.5 2.5 0 0 1 1.26-1.46 3.93 3.93 0 0 1 1-.39l1.28-.29c.46-.1.93-.22 1.42-.37a7.2 7.2 0 0 0 1.46-.65 2.55 2.55 0 0 0 1.21-1.42A2.06 2.06 0 0 0 33.1 73a2.17 2.17 0 0 0-.78-.83 2.41 2.41 0 0 0-1.05-.32 5 5 0 0 0-1.34.09q-.74.14-1.65.35a18.78 18.78 0 0 1-2.88.49 7.45 7.45 0 0 1-2.32-.14 4.55 4.55 0 0 1-1.83-.89A6.21 6.21 0 0 1 19.8 70a6.47 6.47 0 0 1-.8-4.6 7.77 7.77 0 0 1 2.66-4.34l-.77-1.33c-.56-1-.48-1.65.24-2.06a1.07 1.07 0 0 1 1.05-.15 2.47 2.47 0 0 1 .85 1l.71 1.23a8.92 8.92 0 0 1 4-1A2.54 2.54 0 0 1 30 59.84a2.06 2.06 0 0 1 .27 1.65 2.26 2.26 0 0 1-1.15 1.33 3.6 3.6 0 0 1-.88.36l-1 .26-1 .27a4.3 4.3 0 0 0-.93.39 2.71 2.71 0 0 0-1.29 1.37 1.69 1.69 0 0 0 .12 1.48 1.54 1.54 0 0 0 .72.69 2.1 2.1 0 0 0 1 .14 9.38 9.38 0 0 0 1.32-.21l1.71-.37a10.87 10.87 0 0 1 5.25 0 5.68 5.68 0 0 1 3.31 2.78 7.13 7.13 0 0 1 .81 5.17 7.27 7.27 0 0 1-1.06 2.44 8.58 8.58 0 0 1-2 2.09l1 1.76q.85 1.47-.22 2.09a1.08 1.08 0 0 1-1 .14 2.43 2.43 0 0 1-.87-1z"/></g></g></g></g></svg>