<svg xmlns="http://www.w3.org/2000/svg" viewBox="0 0 85.74 100.72"><defs><style>.cls-1{fill:#e1323b}.cls-2{fill:#fff}</style></defs><title>award-2</title><g id="圖層_2" data-name="圖層 2"><g id="圖層_2-2" data-name="圖層 2"><path class="cls-1" d="M82.47 28.14H3.28A3.28 3.28 0 0 0 0 31.41v10.75a3.28 3.28 0 0 0 3.28 3.27h2.85l2.79 52a3.27 3.27 0 0 0 3.27 3.27h61.35a3.27 3.27 0 0 0 3.27-3.27l2.79-52h2.86a3.28 3.28 0 0 0 3.27-3.27V31.41a3.28 3.28 0 0 0-3.26-3.27zM72.14 8.9A11.77 11.77 0 0 0 67.48 2a11.15 11.15 0 0 0-6.21-2c-9 0-15.69 12.29-18.4 18.19C40.16 12.29 33.44 0 24.47 0a11.14 11.14 0 0 0-6.21 2 11.78 11.78 0 0 0-4.66 6.9 10.66 10.66 0 0 0 1.94 8.1c.67 1.21 4.76 7 21.12 7 1.85 0 3.83-.08 5.87-.23h.68c2 .15 4 .23 5.87.23 16.36 0 20.45-5.81 21.12-7a10.67 10.67 0 0 0 1.94-8.1zM36.66 20.23c-14.16 0-17.51-4.63-17.77-5l-.14-.23c-3.92-5.78 1-9.41 1.62-9.79a7.31 7.31 0 0 1 4.09-1.37c6.44 0 12.38 10.25 15.13 16.35-1 .02-1.99.04-2.93.04zM67 15l-.14.24c0 .05-3.1 5-17.77 5-.95 0-1.93 0-2.94-.06 2.74-6.11 8.68-16.35 15.13-16.35a7.29 7.29 0 0 1 4.08 1.36A8.57 8.57 0 0 1 67.81 8c1.19 2.18.88 4.47-.81 7z"/><path class="cls-2" d="M27.63 83.06h7.45v6.35h-1.61v-.55h-4.31v.56h-1.53v-5.18l-.66.9a15.7 15.7 0 0 0-1.06-1.3v5.62h-1.64v-4.67a11.77 11.77 0 0 1-1.42 1.16 6.93 6.93 0 0 0-.77-1.58 10.19 10.19 0 0 0 3.56-3.92h-3.05v-1.5h1.92a19.11 19.11 0 0 0-1-2l1.3-.56a16.92 16.92 0 0 1 1.13 2l-1.09.55h1.67l.28-.07.92.6a14.34 14.34 0 0 1-1.43 2.86c.38.29 1 .83 1.37 1.18zm7.49-6.14v1.4h-7.57v-1.4zm-.66 2v3.5h-6.14v-3.5zm-5.31 5.46v.92h1.39v-.92zm0 3.14h1.39v-1h-1.38zm3.77-7.35h-3.13v1h3.14zm.55 4.22H32v.92h1.44zm0 3.14v-1H32v1zm7.4-7.03h2.52V82h-2.52v.49c.7.56 2.07 1.79 2.44 2.13l-1 1.42c-.35-.43-.94-1.11-1.48-1.71v5h-1.64v-4.87a13.35 13.35 0 0 1-2.1 3.22 9.57 9.57 0 0 0-.85-1.68 13.51 13.51 0 0 0 2.66-4h-2.36v-1.5h2.65v-1.72c-.78.15-1.57.28-2.31.38a5.06 5.06 0 0 0-.49-1.3A24.14 24.14 0 0 0 42 76.41l1.18 1.27a17.55 17.55 0 0 1-2.33.73zm5 5.38h-1.68V78h1.67zm3-9.29v10.77c0 1-.2 1.43-.77 1.71a7.06 7.06 0 0 1-2.79.34 6.33 6.33 0 0 0-.57-1.74h2.1c.28 0 .38-.08.38-.36V76.59zm1.34 12.29a5 5 0 0 0 1-2.48l1.12.34a5.45 5.45 0 0 1-1 2.7zm.31-4.2L53 84.6v-.67h-2.15v-1.26H53v-.62h-2.17v-5.28h5.93v5.28h-2.28v.62h2.24v1.26h-2.24v.62l2.47-.1v1.29c-2.27.14-4.66.27-6.36.34zm1.55-3.74h1.18v-3h-1.18v.59l.66-.2a9.1 9.1 0 0 1 .45 2l-.74.22a8.9 8.9 0 0 0-.36-1.95zm1.33 5.42a14.58 14.58 0 0 1 .29 2.45l-1.08.13a12 12 0 0 0-.24-2.45zm1.37-.13a12.68 12.68 0 0 1 .6 2.33l-1 .21a11.8 11.8 0 0 0-.57-2.34zm.69-8.33h-1.2v2.31a14.13 14.13 0 0 0 .53-1.93l.67.24zm0 3v-2c-.22.59-.45 1.19-.63 1.6l-.57-.21v.6zm.67 5a8.93 8.93 0 0 1 1.08 2.17l-1.05.43a9.79 9.79 0 0 0-1-2.24zm4.57-5.15v2.16h2.24v6.43h-1.6v-.49h-2.59v.55h-1.51v-6.46h1.83v-6.57h1.63v2.87h2.7v1.54zm.64 3.67h-2.59v2.93h2.59zM10 67.17h4.77v-14h-4V50.4a14.4 14.4 0 0 0 5.16-1.86h3.27v18.63h4.17v3.57H10zm16.52-7.62c0-7.68 3-11.43 7.53-11.43s7.5 3.78 7.5 11.43-3 11.61-7.5 11.61-7.53-3.96-7.53-11.61zm10.86 0c0-6.21-1.44-8-3.33-8s-3.36 1.8-3.36 8 1.44 8.16 3.36 8.16 3.33-1.92 3.33-8.16zm6.81 0c0-7.68 3-11.43 7.53-11.43s7.5 3.78 7.5 11.43-3 11.61-7.5 11.61-7.53-3.96-7.53-11.61zm10.86 0c0-6.21-1.44-8-3.33-8s-3.36 1.8-3.36 8 1.44 8.16 3.36 8.16 3.33-1.92 3.33-8.16zm6.81 0c0-7.68 3-11.43 7.53-11.43s7.5 3.78 7.5 11.43-3 11.61-7.5 11.61-7.53-3.96-7.53-11.61zm10.86 0c0-6.21-1.44-8-3.33-8s-3.36 1.8-3.36 8 1.44 8.16 3.36 8.16 3.33-1.92 3.33-8.16z"/></g></g></svg>