<svg xmlns="http://www.w3.org/2000/svg" viewBox="0 0 370.8 286.91"><defs><style>.cls-1{fill:#e7bf62}.cls-2{fill:#c59341}.cls-3{fill:#f0e8db}.cls-4{fill:#cf4e44}.cls-5{fill:#a22a28}.cls-6{fill:#e7dbc8}</style></defs><title>award-4</title><g id="圖層_2" data-name="圖層 2"><g id="圖層_2-2" data-name="圖層 2"><path class="cls-1" d="M326.73 112.24A10 10 0 0 1 333 99.5L328.69 87a10 10 0 0 1-6.5-19l-4.61-13.47a10 10 0 0 1-6.5-19l-5.27-15.4A32.44 32.44 0 0 1 264.62 0L20.19 83.68A32.44 32.44 0 0 1 0 124.88l5.27 15.4a10 10 0 0 1 6.5 19l4.61 13.47a10 10 0 1 1 6.5 19l4.28 12.5a10 10 0 1 1 6.5 19l5.17 15.11a32.42 32.42 0 0 1 40.93 19.44l244.5-83.7a32.42 32.42 0 0 1 20.38-40.52l-5.17-15.11a10 10 0 0 1-12.74-6.23z"/><path class="cls-2" d="M252.4 32L49.48 101.51c-8.67 3-13.15 12.89-10 22.12l31.07 90.77c3.16 9.23 12.78 14.32 21.45 11.36l202.92-69.47c8.67-3 13.15-12.89 10-22.12L273.85 43.4c-3.16-9.23-12.78-14.33-21.45-11.4zm-12.56 8.61l39.89 116.53-175.05 59.96-39.89-116.52zM74.41 213.07l-31.07-90.76c-2.43-7.1.91-14.7 7.46-16.94l10.13-3.47 39.89 116.53-10.13 3.47c-6.54 2.23-13.84-1.72-16.28-8.83zm226.65-77.59c2.43 7.1-.91 14.7-7.46 16.94l-10 3.43-39.9-116.52 10-3.43c6.54-2.24 13.84 1.72 16.27 8.82z"/><path class="cls-3" d="M157.09 84.47l3.95 5.25 6.21-2.13-3.78 5.38 3.95 5.26-6.28-1.93-3.78 5.37-.1-6.57-6.28-1.93 6.21-2.13-.1-6.57zm19.27-3.42l2.95 3.94 4.67-1.6-2.84 4.04 2.96 3.94-4.71-1.45-2.83 4.03-.08-4.93-4.71-1.45 4.66-1.59-.07-4.93z"/><path class="cls-4" d="M356.74 184.93a10 10 0 0 1 8.26-11.51l-2.12-13a10 10 0 0 1-3.22-19.8l-2.28-14.05a10 10 0 0 1-3.21-19.8l-2.61-16.07a32.44 32.44 0 0 1-37.22-26.82l-255 41.4a32.44 32.44 0 0 1-26.82 37.22l2.61 16.07a10 10 0 0 1 3.21 19.8l2.28 14.05a10 10 0 1 1 3.21 19.8l2.12 13A10 10 0 1 1 49.18 245l2.56 15.76a32.42 32.42 0 0 1 37.07 26.13l255.09-41.4A32.42 32.42 0 0 1 370.8 209l-2.56-15.76a10 10 0 0 1-11.5-8.31z"/><path class="cls-5" d="M296.94 93.37L85.23 127.74c-9 1.47-15.13 10.5-13.57 20.13L87 242.57c1.56 9.63 10.19 16.27 19.24 14.8L318 223c9-1.47 15.13-10.5 13.57-20.13l-15.37-94.7c-1.58-9.63-10.2-16.27-19.26-14.8zm-13.83 6.38l19.74 121.57L120.21 251l-19.73-121.6zM91.06 241.91l-15.37-94.7c-1.2-7.41 3.37-14.34 10.2-15.45l10.57-1.72 19.74 121.57-10.57 1.72c-6.84 1.12-13.37-4.01-14.57-11.42zm236.47-38.39c1.2 7.41-3.37 14.34-10.2 15.45l-10.45 1.7L287.14 99.1l10.46-1.7c6.83-1.11 13.36 4 14.56 11.43z"/><path class="cls-6" d="M175.57 135.1l2.25 4.38 4.87-.79-3.47 3.5 2.25 4.38-4.4-2.22-3.47 3.5.75-4.87-4.39-2.22 4.86-.79.75-4.87zm18.61-6.06l3 5.84 6.49-1.05-4.63 4.66 3 5.84-5.86-2.96-4.63 4.67 1-6.5-5.86-2.96 6.48-1.05 1.01-6.49zm19.56-.14l2.26 4.38 4.86-.78-3.47 3.49 2.25 4.39-4.4-2.22-3.47 3.49.75-4.87-4.4-2.22 4.87-.79.75-4.87zm-25.83 81.31l2.25 4.38 4.87-.79-3.48 3.5 2.26 4.39-4.4-2.23-3.47 3.5.75-4.87-4.4-2.22 4.87-.79.75-4.87zm18.2-6l3.01 5.85 6.48-1.06-4.63 4.67 3.01 5.84-5.86-2.96-4.63 4.66 1-6.49-5.87-2.96 6.49-1.05 1-6.5zm19.67-.15l2.26 4.38 4.86-.79-3.47 3.5 2.25 4.39-4.4-2.23-3.47 3.5.75-4.87-4.4-2.22 4.87-.79.75-4.87z"/><path class="cls-5" d="M138.57 188.8l2.43 15.11a4.67 4.67 0 0 1-.6 3.26 3.74 3.74 0 0 1-2.67 1.73l-5.13.84-2.43-3.42 5.38-.88a1.07 1.07 0 0 0 .87-1.27l-2.12-13c-1.91 1.12-4.68 2.59-6.67 3.5l-.65-4c1.87-1 4.68-2.54 6.65-3.61l-1.77-10.82-6.74 1.1-.6-3.66 6.74-1.1-1.49-9.1 4.5-.73 1.49 9.1 5.49-.9.6 3.66-5.49.9 1.49 9.1c1.61-1 3.8-2.39 5.2-3.32l.65 4c-1.01.8-3.58 2.5-5.13 3.51zm25.26-10l4.11 25.2-4.81.79-4.13-25.18-9.1 1.49c1.29 8.86 2.33 17.87 0 25.82l-5.8.95c3.16-6.63 2.9-14.43 1.7-21.8l-2.7-16.52a5 5 0 0 1 .62-3.75 4.58 4.58 0 0 1 2.87-1.81 163.6 163.6 0 0 0 19.86-6.57l.66 4c-5.33 1.89-12.61 4.31-18.12 5.75a1.59 1.59 0 0 0-1.07 1.68l1.38 8.42 21.38-3.49.62 3.82zm19.89-8.7l1.88-.31 5 30.64-4.6.75-4.69-28.7-3.76.61a76.21 76.21 0 0 0 4.83-18.09l4.81-.79a90.1 90.1 0 0 1-3.47 15.89zm16 28.84l-7.47 1.22a43.25 43.25 0 0 0 6.26-7l6.17-1a36.85 36.85 0 0 1-4.92 6.77zm10.39-44.15l.48 2.93 5.44-.89a4.43 4.43 0 0 1 3.24.44 4.15 4.15 0 0 1 1.55 2.91l.43 2.61a4.26 4.26 0 0 1-.44 2.92 4 4 0 0 1-2.94 1.71l-25.25 4.12a3.85 3.85 0 0 1-3-.53 3.68 3.68 0 0 1-1.3-2.36l-.58-3.56a3.43 3.43 0 0 1 .81-2.92 3.87 3.87 0 0 1 2.37-1.25l5.91-1-.43-2.92-7.74 1.26-.55-3.35 32.21-5.26.55 3.35zm12.35 31.91a4.22 4.22 0 0 1-3 1.77L197.87 192a3.63 3.63 0 0 1-3.08-1.1 4.31 4.31 0 0 1-1.13-2.34l-1.73-10.61a3.79 3.79 0 0 1 .94-3.11 4.38 4.38 0 0 1 2.6-1.5l21.12-3.45a3.74 3.74 0 0 1 3.08.79 4.91 4.91 0 0 1 1.75 3.15l1.61 9.88a4.28 4.28 0 0 1-.53 2.97zM193.14 164a.87.87 0 0 0-.7 1l.34 2.09a1 1 0 0 0 1 .75l4.23-.69-.57-3.82zm23.54 10.38a1.14 1.14 0 0 0-1.27-.87l-17.72 2.9a1.35 1.35 0 0 0-1 1.35l.13.78 20-3.27zm.66 4l-20 3.27.31 1.88 20-3.27zm.81 5l-20 3.27.16 1a1.18 1.18 0 0 0 1.16.88l18.09-3a1 1 0 0 0 .79-1.1zm-12.39-27.87l-5 .82.48 2.93 5-.82zm1 6.27l-5 .82.62 3.82 5-.82zm13.52 33.81a38.29 38.29 0 0 1-6.07-5l6.12-1a33.08 33.08 0 0 0 7.33 4.76zm-3.89-34.36a1 1 0 0 0-1-.86l-4.23.69.62 3.82 4.08-.67a.91.91 0 0 0 .84-1.1zm55.12 12.99c-.7-.37-1.54-.88-2-1.17l1.49 9.25a5 5 0 0 1-.83 3.78 5.62 5.62 0 0 1-3.84 2.13l-7.47 1.22-2.2-3.29 8.47-1.38a1.59 1.59 0 0 0 1.24-1.6l-1.61-9.83a1.2 1.2 0 0 0-1.18-1l-7.16 1.17c-1.09 6.83-5.81 13.4-11 18.12l-8.89 1.45c6.35-4.47 13.24-10.59 14.92-18.75l-8.45 1.39c-.89 1.11-2.34 2.8-3.19 3.8l-7.47 1.22a57.49 57.49 0 0 0 11.05-14.15l-12.18 2-.57-3.5 14.64-2.39c.47-1.42 1.06-3.39 1.34-4.62l-15 2.44-.56-3.45 16.31-2.66a50.49 50.49 0 0 0 .87-10.13l5-.81c-.11 3.29-.47 7.32-.87 10.13l19.55-3.19.56 3.45-20.7 3.38c-.33 1.29-1 3.65-1.24 4.6l24.47-4 .57 3.5-11.6 1.9a60.41 60.41 0 0 0 14.91 9.8zm-32.63-20a34.39 34.39 0 0 1-5.15-6.24l5.44-.89a30.73 30.73 0 0 0 5.57 6.17zm19.44 9.92l-9.32 1.52c-.91 2-2.1 4.21-3.16 6l17.52-2.86a57.24 57.24 0 0 1-5.04-4.66zm5.23-14l-5.91 1a38.1 38.1 0 0 0 3.21-7.61l5.23-.85a35.09 35.09 0 0 1-2.52 7.5z"/></g></g></svg>