<svg xmlns="http://www.w3.org/2000/svg" viewBox="0 0 426.75 350.55"><defs><style>.cls-1{fill:#a6a6a6}.cls-1,.cls-10,.cls-12,.cls-14,.cls-2,.cls-3,.cls-4,.cls-5,.cls-6,.cls-7,.cls-8,.cls-9{stroke:#182987}.cls-1,.cls-10,.cls-11,.cls-12,.cls-13,.cls-14,.cls-2,.cls-3,.cls-4,.cls-5,.cls-6,.cls-7,.cls-8,.cls-9{stroke-linecap:round;stroke-linejoin:round;stroke-width:.75px}.cls-2{fill:#d9d9d9}.cls-3{fill:#9b9380}.cls-4{fill:#f19070}.cls-5{fill:#fff}.cls-6{fill:#00a63c}.cls-7{fill:#fff1d1}.cls-8{fill:#f1be4d}.cls-9{fill:#ffe770}.cls-10{fill:#94bd5a}.cls-11{fill:#8cd2f5}.cls-11,.cls-13{stroke:#1a2d78}.cls-12{fill:#eb6159}.cls-13{fill:#ffe100}.cls-14{fill:#fff100}</style></defs><title>display</title><g id="圖層_2" data-name="圖層 2"><g id="cashier"><path class="cls-1" d="M402.93 85.45H23.82L7.1 342.94h412.45zm-375 244.13l15-230.25h340.9l14.95 230.25z"/><path class="cls-2" d="M424 348.07H2.62l17.3-266.46h386.91zm-412.46-9h403.5L399 90.58H27.72z"/><path class="cls-2" d="M21.68 142.9h383.29v8.11H21.68zm-4.16 63.83h391.6v8.11H17.52zm-14.9 67.09h421.42v8.11H2.62z"/><path class="cls-1" d="M2.62 281.93h421.42v66.14H2.62z"/><path class="cls-2" d="M2.62 319.3h421.42v16.62H2.62zM.38 335.93h425.9v12.15H.38z"/><path class="cls-1" d="M.48 342h425.9v8.18H.48z"/><path class="cls-2" d="M13.35 288.78h399.94v30.52H13.35z"/><path class="cls-3" d="M50.63 124.13l14.07-21.72 80.66.91v20.81H50.63z"/><ellipse class="cls-4" cx="67.57" cy="107.07" rx="9.92" ry="9.06"/><path class="cls-5" d="M67.57 96.04h.81v4.47h-.81z"/><path class="cls-6" d="M73.29 102.67a3.76 3.76 0 0 0 1.12.07c-.74-1.13.17-2.87-1.29-3.61a4.61 4.61 0 0 0 .65.32c-1.28-1.65-3.56-3.08-5.6-2.17 0 1.8.12 3.06 1.57 4.24a7.77 7.77 0 0 0 4.11 1.86 1.11 1.11 0 0 1-.56-.71z"/><path class="cls-5" d="M68.06 97.31h.11v-.07z"/><ellipse class="cls-4" cx="87.41" cy="107.07" rx="9.92" ry="9.06"/><path class="cls-5" d="M87.41 96.04h.81v4.47h-.81z"/><path class="cls-6" d="M93.14 102.67a3.75 3.75 0 0 0 1.12.07c-.73-1.13.17-2.87-1.29-3.61a4.48 4.48 0 0 0 .65.32c-1.28-1.65-3.56-3.08-5.61-2.17 0 1.8.12 3.06 1.58 4.24a7.78 7.78 0 0 0 4.11 1.86 1.11 1.11 0 0 1-.56-.71z"/><path class="cls-5" d="M87.9 97.31h.11v-.07z"/><ellipse class="cls-4" cx="107.26" cy="107.07" rx="9.92" ry="9.06"/><path class="cls-5" d="M107.26 96.04h.81v4.47h-.81z"/><path class="cls-6" d="M113 102.67a3.77 3.77 0 0 0 1.12.07c-.74-1.13.17-2.87-1.29-3.61a4.53 4.53 0 0 0 .65.32c-1.28-1.65-3.56-3.08-5.6-2.17 0 1.8.12 3.06 1.57 4.24a7.77 7.77 0 0 0 4.11 1.86 1.11 1.11 0 0 1-.56-.71z"/><path class="cls-5" d="M107.75 97.31h.11v-.07z"/><ellipse class="cls-4" cx="127.1" cy="108.03" rx="9.92" ry="9.06"/><path class="cls-5" d="M127.1 96.99h.81v4.47h-.81z"/><path class="cls-6" d="M132.82 103.63a3.65 3.65 0 0 0 1.12.07c-.73-1.14.17-2.87-1.29-3.61a4.2 4.2 0 0 0 .65.32c-1.28-1.64-3.56-3.08-5.6-2.17 0 1.79.12 3.06 1.57 4.24a7.78 7.78 0 0 0 4.11 1.86 1.12 1.12 0 0 1-.56-.71z"/><path class="cls-5" d="M127.59 98.27h.11v-.07z"/><ellipse class="cls-4" cx="64.12" cy="119.1" rx="10.69" ry="9.75"/><path class="cls-5" d="M64.12 107.21h.87v4.81h-.87z"/><path class="cls-6" d="M70.28 114.35a3.85 3.85 0 0 0 1.21.08c-.79-1.22.18-3.09-1.39-3.89a5.11 5.11 0 0 0 .7.34c-1.38-1.77-3.84-3.32-6-2.34 0 1.93.13 3.29 1.7 4.57a8.4 8.4 0 0 0 4.43 2 1.2 1.2 0 0 1-.65-.76z"/><path class="cls-5" d="M64.64 108.58h.12v-.07z"/><ellipse class="cls-4" cx="85.49" cy="119.1" rx="10.69" ry="9.75"/><path class="cls-5" d="M85.49 107.21h.87v4.81h-.87z"/><path class="cls-6" d="M91.65 114.35a3.85 3.85 0 0 0 1.2.08c-.79-1.22.18-3.09-1.39-3.89a5.24 5.24 0 0 0 .7.34c-1.38-1.77-3.84-3.32-6-2.34 0 1.93.13 3.29 1.7 4.57a8.4 8.4 0 0 0 4.43 2 1.19 1.19 0 0 1-.64-.76z"/><path class="cls-5" d="M86 108.58h.12v-.07z"/><ellipse class="cls-4" cx="106.86" cy="119.1" rx="10.69" ry="9.75"/><path class="cls-5" d="M106.86 107.21h.87v4.81h-.87z"/><path class="cls-6" d="M113 114.35a3.85 3.85 0 0 0 1.2.08c-.79-1.22.18-3.09-1.39-3.89a5.23 5.23 0 0 0 .7.34c-1.38-1.77-3.84-3.32-6-2.34 0 1.93.13 3.29 1.7 4.57a8.41 8.41 0 0 0 4.43 2 1.2 1.2 0 0 1-.64-.76z"/><path class="cls-5" d="M107.38 108.58h.12v-.07z"/><ellipse class="cls-4" cx="128.23" cy="120.13" rx="10.69" ry="9.75"/><path class="cls-5" d="M128.23 108.24h.87v4.81h-.87z"/><path class="cls-6" d="M134.39 115.39a4 4 0 0 0 1.21.08c-.79-1.23.18-3.1-1.39-3.89a4.67 4.67 0 0 0 .7.34c-1.38-1.77-3.84-3.31-6-2.34 0 1.93.13 3.29 1.7 4.57a8.4 8.4 0 0 0 4.43 2 1.19 1.19 0 0 1-.65-.76z"/><path class="cls-5" d="M128.76 109.62h.12v-.07z"/><path class="cls-7" d="M50.63 124.13h94.73v18.77H50.63z"/><path class="cls-3" d="M48.92 188.3l14.07-24.9 78.91 1.54 1.75 23.36H48.92z"/><path class="cls-8" d="M73.57 165.12c0 4-3.52 7.17-7.86 7.17s-7.86-3.21-7.86-7.17 3.52-7.18 7.86-7.18 7.86 3.21 7.86 7.18z"/><path class="cls-5" d="M65.7 156.37h.64v3.54h-.64z"/><path class="cls-5" d="M66.09 157.38h.09v-.05z"/><ellipse class="cls-8" cx="86.36" cy="168.36" rx="9.44" ry="8.62"/><path class="cls-5" d="M86.37 157.86h.77v4.25h-.77z"/><path class="cls-6" d="M91.81 164.17a3.71 3.71 0 0 0 1.07.07c-.7-1.08.16-2.74-1.23-3.44a3.75 3.75 0 0 0 .62.3c-1.22-1.56-3.39-2.93-5.33-2.07 0 1.71.11 2.91 1.5 4a7.41 7.41 0 0 0 3.92 1.77 1.06 1.06 0 0 1-.55-.63z"/><path class="cls-5" d="M86.83 159.07h.1V159z"/><ellipse class="cls-4" cx="74.55" cy="171.82" rx="7.86" ry="7.18"/><path class="cls-5" d="M74.55 163.08h.64v3.54h-.64z"/><path class="cls-5" d="M74.93 164.09h.09v-.05z"/><ellipse class="cls-4" cx="105.43" cy="164.03" rx="9.92" ry="9.06"/><path class="cls-5" d="M105.43 152.99h.81v4.47h-.81z"/><path class="cls-5" d="M105.92 154.27h.11v-.07z"/><ellipse class="cls-8" cx="122.25" cy="169.94" rx="10.42" ry="9.51"/><path class="cls-5" d="M122.25 158.35h.85v4.69h-.85z"/><path class="cls-5" d="M122.76 159.69h.11v-.07z"/><path class="cls-8" d="M141.17 173.2c0 4-3.52 7.17-7.86 7.17s-7.86-3.21-7.86-7.17 3.55-7.2 7.86-7.2 7.86 3.23 7.86 7.2z"/><path class="cls-5" d="M133.31 164.45h.64v3.54h-.64z"/><path class="cls-5" d="M133.7 165.46h.09v-.05z"/><ellipse class="cls-4" cx="98.36" cy="171.75" rx="9.92" ry="9.06"/><path class="cls-5" d="M98.36 160.71h.81v4.47h-.81z"/><path class="cls-5" d="M98.84 162h.11v-.07z"/><ellipse class="cls-8" cx="62.4" cy="182.93" rx="10.69" ry="9.75"/><path class="cls-5" d="M62.4 171.04h.87v4.81h-.87z"/><path class="cls-5" d="M62.93 172.41h.12v-.07z"/><ellipse class="cls-4" cx="83.77" cy="182.93" rx="10.69" ry="9.75"/><path class="cls-5" d="M83.77 171.04h.87v4.81h-.87z"/><path class="cls-5" d="M84.3 172.41h.12v-.07z"/><ellipse class="cls-8" cx="105.15" cy="182.93" rx="10.69" ry="9.75"/><path class="cls-5" d="M105.15 171.04h.87v4.81h-.87z"/><path class="cls-5" d="M105.67 172.41h.12v-.07z"/><path class="cls-4" d="M137.2 184c0 5.39-4.78 9.76-10.68 9.76s-10.69-4.37-10.69-9.76 4.78-9.75 10.69-9.75 10.68 4.33 10.68 9.75z"/><path class="cls-5" d="M126.52 172.07h.87v4.81h-.87z"/><path class="cls-5" d="M127 173.45h.12v-.07z"/><path class="cls-7" d="M48.92 187.96h94.72v18.77H48.92z"/><path class="cls-3" d="M43.77 255.39l14.07-24.9 79.36.96 1.3 23.94H43.77z"/><ellipse class="cls-9" cx="60.55" cy="232.2" rx="7.86" ry="7.18"/><path class="cls-5" d="M60.94 224.47h.09v-.05z"/><ellipse class="cls-9" cx="81.22" cy="235.45" rx="9.44" ry="8.62"/><path class="cls-5" d="M81.68 226.16a.48.48 0 0 0 .1 0v-.06z"/><ellipse class="cls-8" cx="69.4" cy="238.91" rx="7.86" ry="7.18"/><path class="cls-5" d="M69.78 231.17h.09v-.05z"/><ellipse class="cls-8" cx="100.28" cy="231.12" rx="9.92" ry="9.06"/><path class="cls-5" d="M100.77 221.36h.11v-.07z"/><ellipse class="cls-8" cx="117.1" cy="237.02" rx="10.42" ry="9.51"/><path class="cls-5" d="M117.62 226.78h.11v-.07z"/><ellipse class="cls-9" cx="93.2" cy="238.84" rx="9.92" ry="9.06"/><path class="cls-5" d="M93.69 229.07h.11V229z"/><ellipse class="cls-9" cx="57.25" cy="250.01" rx="10.69" ry="9.75"/><ellipse class="cls-9" cx="78.62" cy="250.01" rx="10.69" ry="9.75"/><path class="cls-5" d="M79.15 239.5h.12v-.07z"/><ellipse class="cls-8" cx="100" cy="250.01" rx="10.69" ry="9.75"/><path class="cls-5" d="M100.52 239.5h.12v-.07z"/><ellipse class="cls-9" cx="127.52" cy="240.06" rx="7.86" ry="7.18"/><path class="cls-5" d="M127.9 232.33h.09v-.05z"/><ellipse class="cls-9" cx="121.37" cy="251.05" rx="10.69" ry="9.75"/><path class="cls-5" d="M121.89 240.53h.12v-.07z"/><path class="cls-7" d="M43.77 255.05h94.73v18.77H43.77z"/><path class="cls-3" d="M295.47 255.32v-24.29l82.02.25 12.7 24.04h-94.72z"/><ellipse class="cls-8" cx="309.81" cy="234.2" rx="7.86" ry="7.18"/><path class="cls-5" d="M312.43 226.83h.09v-.05z"/><ellipse class="cls-9" cx="332.91" cy="235.38" rx="9.44" ry="8.62"/><path class="cls-5" d="M333.38 226.09h.1v-.07z"/><ellipse class="cls-9" cx="321.1" cy="238.85" rx="7.86" ry="7.18"/><path class="cls-5" d="M321.48 231.11h.09v-.05z"/><ellipse class="cls-8" cx="351.98" cy="231.05" rx="9.92" ry="9.06"/><path class="cls-5" d="M352.47 221.29h.11v-.07z"/><ellipse class="cls-9" cx="368.8" cy="236.96" rx="10.42" ry="9.51"/><path class="cls-5" d="M369.31 226.71h.11v-.07z"/><ellipse class="cls-8" cx="344.9" cy="238.77" rx="9.92" ry="9.06"/><path class="cls-5" d="M345.39 229h.11v-.07z"/><ellipse class="cls-9" cx="308.95" cy="249.95" rx="10.69" ry="9.76"/><ellipse class="cls-8" cx="330.32" cy="249.95" rx="10.69" ry="9.76"/><path class="cls-5" d="M330.85 239.43h.12v-.07z"/><ellipse class="cls-9" cx="351.69" cy="249.95" rx="10.69" ry="9.76"/><path class="cls-5" d="M352.22 239.43h.12v-.07z"/><path class="cls-8" d="M383.75 251c0 5.39-4.78 9.76-10.69 9.76s-10.69-4.37-10.69-9.76 4.78-9.75 10.69-9.75 10.69 4.35 10.69 9.75z"/><path class="cls-5" d="M373.59 240.47h.12v-.07z"/><path class="cls-7" d="M295.47 254.98h94.73v18.77h-94.73z"/><path class="cls-3" d="M175.82 256l2.88-25 88.2.44L270 256h-94.18z"/><path class="cls-5" d="M244.85 252c.33 11.45-5.42 13.65-12.12 13.65s-12.11-3.27-12.11-13.65c0-7.54 5.42-16.86 12.11-16.86s11.9 9.29 12.12 16.86z"/><path class="cls-10" d="M229.54 238.34s1.48-9.66-4.37-12.29-7-1.3-7-1.3 6-5.51 10.68-2.84 7.18 14 7.18 14-.89 3.35-2.77 3.08-3.72-.65-3.72-.65z"/><path class="cls-6" d="M233.27 218.49c5.22-2.68 7 0 7 0a3.4 3.4 0 0 0-4.18 3.09c-.53 3.87 0 15.47 0 15.47a7.82 7.82 0 0 1-2.45 0c-1.64-.18-5.64-15.88-.37-18.56zm-6.39 18.86s.16-5.65-2.88-6.11a5.36 5.36 0 0 0-4.81 1.84 5.48 5.48 0 0 1 3.85-3.73c3.32-1.09 5.38-.4 6.7 1.66s3.11 8.27 3.11 8.27a9.25 9.25 0 0 1-3.29.75c-1.38-.03-2.68-2.68-2.68-2.68z"/><path class="cls-10" d="M238.48 237.52s.05-11.72 4.14-12.77 5.67 0 5.67 0-4.42-4.41-8.08-3.17-7.37 17.42-7.37 17.42a5.5 5.5 0 0 0 3.56 1c1.91-.19 2.08-2.48 2.08-2.48z"/><path class="cls-9" d="M224.52 240.32s.06-1.85 1.16-2 1.2-1 1.2-1 .55 1 1.16 1.13a2 2 0 0 1 1.5 1.56c.15.9.4 1.07.4 1.07s.61-2.34 1.44-2.4 2-1.35 2-1.35.68 1.21 1.1 1.35 1.38 1.62 1.38 1.62c.18.81.37 1.42.37 1.42s.09-2.92.83-3 1.78-1.65 1.78-1.65a6.79 6.79 0 0 0 .83 1.1c.31.26.83.8.4 2.51s-3.09 4.45-7.69 4.3a10.55 10.55 0 0 1-6.16-2 5.56 5.56 0 0 1-1.7-2.66z"/><path class="cls-8" d="M225.5 239s-1 2.16-.3 2.46.6.66 1 1.84a11.12 11.12 0 0 1 .45 1.63s-.12-3 1-3.23 2-2.44 2-2.44.61 1.75 1.51 2.11 1.64.4 1.82 1.54a6.07 6.07 0 0 1 0 1.89s.09-3.09 1.14-3.24 2.36-2.44 2.36-2.44.2 1.76.88 2a3 3 0 0 1 1.52 2.29v1.26s-.32-2.89.35-3.22.89-2.07.89-2.07 3.65 4 2 6.51-5.89 3.36-9.82 3.57-8.23-1-9.41-4.17 2.61-6.29 2.61-6.29z"/><path class="cls-9" d="M222.12 245.5s.08-2.31 1.55-2.53 1.59-1.19 1.59-1.19.74 1.23 1.55 1.41a2.56 2.56 0 0 1 2 1.95c.2 1.12.53 1.33.53 1.33s.82-2.92 1.92-3 2.66-1.69 2.66-1.69.9 1.51 1.47 1.69 1.84 2 1.84 2c.24 1 .49 1.77.49 1.77s.12-3.65 1.1-3.79 2.37-2.06 2.37-2.06a8.52 8.52 0 0 0 1.1 1.37c.41.32 1.1 1 .53 3.14s-4.11 5.56-10.25 5.38a14.73 14.73 0 0 1-8.22-2.56 6.89 6.89 0 0 1-2.23-3.22z"/><path class="cls-8" d="M222.55 243.62s-.68 2.37.2 2.71a3.78 3.78 0 0 1 2.32 2.27 11.22 11.22 0 0 1 .51 1.74s-.07-3.14 1.33-3.4 2.47-2.54 2.47-2.54.69 1.87 1.77 2.27 2 .47 2.15 1.67a5.63 5.63 0 0 1 0 2s.19-3.27 1.46-3.4 2.91-2.54 2.91-2.54.19 1.87 1 2.14a3.21 3.21 0 0 1 1.77 2.47v1.33s-.32-3.07.5-3.4 2.42-2.54 2.42-2.54 2.41 4.89.32 7.49-6.59 3.24-11.33 3.39-9.59-1.1-10.94-4.46 1.14-7.2 1.14-7.2z"/><path class="cls-9" d="M221.81 251.29s.09-2.41 1.62-2.64 1.67-1.24 1.67-1.24.77 1.28 1.62 1.46a2.68 2.68 0 0 1 2.09 2c.21 1.17.56 1.39.56 1.39s.85-3.06 2-3.13 2.77-1.76 2.77-1.76.94 1.57 1.54 1.76 1.92 2.11 1.92 2.11c.26 1.06.51 1.85.51 1.85s.13-3.82 1.15-4 2.48-2.15 2.48-2.15a8.77 8.77 0 0 0 1.16 1.43c.43.34 1.15 1.06.55 3.28s-4.3 5.81-10.71 5.62a15.41 15.41 0 0 1-8.59-2.68 7.17 7.17 0 0 1-2.34-3.3z"/><path class="cls-8" d="M220.89 249s.38 2.27 1.31 2.61 2.27.67 2.74 1.93a10.25 10.25 0 0 1 .53 1.73s-.07-3.14 1.4-3.4 2.6-2.54 2.6-2.54.73 1.87 1.87 2.27 2.07.46 2.27 1.67a5.38 5.38 0 0 1 0 2s.2-3.27 1.53-3.4 3.07-2.54 3.07-2.54.2 1.87 1.07 2.14a3.23 3.23 0 0 1 1.87 2.47v1.34s-.34-3.07.53-3.4 2.55-2.54 2.55-2.54 2.32 4.33-.26 7.53c-2.14 2.66-6.36 3.2-11.37 3.34s-10.13-1.1-11.55-4.45a10.17 10.17 0 0 1-.16-6.76z"/><path class="cls-9" d="M221.87 257.23s.09-2.85 1.69-3.11a1.87 1.87 0 0 0 1.74-1.47s.8 1.51 1.69 1.73a3 3 0 0 1 2.18 2.41c.22 1.38.58 1.65.58 1.65s.89-3.61 2.09-3.7 2.89-2.08 2.89-2.08 1 1.86 1.6 2.08 2 2.5 2 2.5c.27 1.25.53 2.18.53 2.18s.13-4.5 1.2-4.68 2.58-2.53 2.58-2.53a10.56 10.56 0 0 0 1.2 1.69c.44.4 1.2 1.25.58 3.87s-4.48 6.86-11.16 6.63a14.77 14.77 0 0 1-9-3.16 8.65 8.65 0 0 1-2.39-4.01z"/><path class="cls-8" d="M220.77 254.73s1.12 1.94 2.06 2.28 2.27.67 2.74 1.93a10.27 10.27 0 0 1 .53 1.73s-.07-3.14 1.4-3.4 2.6-2.55 2.6-2.55.73 1.87 1.87 2.28 2.07.46 2.27 1.67a5.35 5.35 0 0 1 0 2s.2-3.27 1.54-3.4 3.07-2.55 3.07-2.55.2 1.87 1.07 2.14a3.22 3.22 0 0 1 1.87 2.47v1.33s-.33-3.07.53-3.4 2.55-2.55 2.55-2.55.52 4.61-1.68 7.22-4.93 3.52-9.94 3.67-9.8-1.31-11.22-4.67a15.38 15.38 0 0 1-1.26-6.2z"/><path class="cls-5" d="M266.47 252.56c-1.52 11.35-7.56 12.59-14.16 11.5s-11.43-5.19-9.75-15.43c1.22-7.44 8.08-15.75 14.68-14.67s10.23 11.13 9.23 18.6z"/><path class="cls-6" d="M253.56 236.63s3-9.29-2.32-12.84-6.69-2.42-6.69-2.42 6.77-4.48 11-1.07 4.83 15 4.83 15-1.42 3.16-3.23 2.59-3.59-1.26-3.59-1.26z"/><path class="cls-10" d="M260.45 217.65c5.59-1.8 6.86 1.13 6.86 1.13a3.4 3.4 0 0 0-4.62 2.37c-1.15 3.73-2.51 15.27-2.51 15.27a7.82 7.82 0 0 1-2.42-.4c-1.54-.45-2.89-16.57 2.69-18.37zm-9.35 17.57s1.07-5.54-1.85-6.49a5.36 5.36 0 0 0-5 1 5.48 5.48 0 0 1 4.4-3.05c3.45-.54 5.37.48 6.34 2.73s1.73 8.67 1.73 8.67a9.23 9.23 0 0 1-3.37.2c-1.35-.28-2.25-3.06-2.25-3.06z"/><path class="cls-6" d="M262.52 237.27s2-11.56 6.16-11.93 5.59.92 5.59.92-3.65-5.06-7.46-4.43-10.1 16-10.1 16a5.5 5.5 0 0 0 3.34 1.63c1.95.04 2.47-2.19 2.47-2.19z"/><path class="cls-8" d="M248.29 237.78s.36-1.82 1.48-1.8 1.33-.75 1.33-.75.38 1.06 1 1.3a2 2 0 0 1 1.23 1.78c0 .91.22 1.12.22 1.12s1-2.22 1.81-2.14 2.18-1 2.18-1 .47 1.3.87 1.52 1.1 1.82 1.1 1.82c.05.83.14 1.46.14 1.46s.56-2.87 1.31-2.86 2-1.33 2-1.33a6.91 6.91 0 0 0 .64 1.22c.26.3.69.92 0 2.54s-3.77 3.89-8.28 3a10.55 10.55 0 0 1-5.75-3 5.55 5.55 0 0 1-1.28-2.88z"/><path class="cls-9" d="M249.48 236.6s-1.37 2-.69 2.38.49.74.68 2a11.27 11.27 0 0 1 .18 1.68s.36-2.93 1.54-3 2.36-2.09 2.36-2.09.32 1.83 1.15 2.33 1.55.66 1.54 1.81a6.05 6.05 0 0 1-.26 1.86s.59-3 1.65-3 2.72-2 2.72-2-.09 1.77.55 2.12a3 3 0 0 1 1.13 2.51l-.18 1.25s.15-2.91.87-3.12 1.21-1.9 1.21-1.9 3 4.56.89 6.74-6.36 2.36-10.27 1.94-8-2.34-8.61-5.64 3.54-5.87 3.54-5.87z"/><path class="cls-8" d="M245.08 242.5s.45-2.27 1.94-2.24 1.76-.92 1.76-.92.53 1.33 1.31 1.64a2.56 2.56 0 0 1 1.66 2.25c0 1.14.31 1.4.31 1.4s1.28-2.76 2.38-2.65 2.9-1.24 2.9-1.24.64 1.63 1.18 1.91 1.49 2.3 1.49 2.3c.08 1 .2 1.82.2 1.82s.71-3.58 1.7-3.56 2.67-1.64 2.67-1.64a8.52 8.52 0 0 0 .87 1.53c.35.39.92 1.18 0 3.19s-5 4.81-11 3.64a14.74 14.74 0 0 1-7.7-3.86 6.9 6.9 0 0 1-1.67-3.57z"/><path class="cls-9" d="M245.81 240.71s-1.05 2.23-.23 2.7a3.78 3.78 0 0 1 1.91 2.62 11 11 0 0 1 .22 1.8s.44-3.11 1.86-3.14 2.85-2.11 2.85-2.11.38 2 1.38 2.53 1.86.78 1.85 2a5.66 5.66 0 0 1-.32 2s.72-3.2 2-3.12 3.28-2 3.28-2-.12 1.88.65 2.27a3.21 3.21 0 0 1 1.35 2.73l-.22 1.31s.19-3.08 1.05-3.28 2.8-2.11 2.8-2.11 1.58 5.22-.9 7.45-7 2.13-11.73 1.5-9.29-2.64-10.07-6.16 2.27-6.99 2.27-6.99z"/><path class="cls-8" d="M243.84 248.16s.48-2.37 2-2.34 1.84-1 1.84-1 .55 1.39 1.36 1.71a2.68 2.68 0 0 1 1.73 2.35c0 1.19.32 1.47.32 1.47s1.34-2.88 2.49-2.76 3-1.29 3-1.29.67 1.7 1.23 2 1.55 2.4 1.55 2.4c.08 1.09.21 1.91.21 1.91s.74-3.75 1.78-3.73 2.79-1.72 2.79-1.72a9 9 0 0 0 .91 1.6c.37.4 1 1.23 0 3.33s-5.18 5-11.48 3.81a15.39 15.39 0 0 1-8-4 7.17 7.17 0 0 1-1.73-3.74z"/><path class="cls-9" d="M243.31 245.7s0 2.31.87 2.79 2.13 1 2.39 2.35a10.19 10.19 0 0 1 .25 1.8s.44-3.11 1.93-3.13 3-2.08 3-2.08.42 2 1.48 2.54 2 .8 2 2a5.34 5.34 0 0 1-.32 2s.73-3.19 2.07-3.11 3.44-2 3.44-2-.1 1.88.71 2.28a3.23 3.23 0 0 1 1.44 2.74l-.22 1.32s.17-3.08 1.08-3.27 2.93-2.09 2.93-2.09 1.59 4.65-1.47 7.39c-2.54 2.28-6.79 2.13-11.76 1.46s-9.82-2.73-10.67-6.27a10.17 10.17 0 0 1 .85-6.72z"/><path class="cls-8" d="M242.94 254s.55-2.79 2.17-2.8a1.86 1.86 0 0 0 2-1.17s.54 1.63 1.39 2a3 3 0 0 1 1.76 2.73c0 1.4.3 1.72.3 1.72s1.46-3.42 2.66-3.31 3.19-1.59 3.19-1.59.66 2 1.24 2.32 1.57 2.78 1.57 2.78c.06 1.28.17 2.24.17 2.24s.86-4.42 1.94-4.42 3-2.08 3-2.08a10.4 10.4 0 0 0 .91 1.86c.37.47 1 1.42-.06 3.91s-5.53 6-12.09 4.73a14.78 14.78 0 0 1-8.32-4.57 8.67 8.67 0 0 1-1.83-4.35z"/><path class="cls-9" d="M242.25 251.38s.79 2.1 1.66 2.58 2.13 1 2.39 2.35a10.43 10.43 0 0 1 .25 1.8s.44-3.1 1.93-3.13 3-2.09 3-2.09.42 2 1.48 2.55 2 .8 2 2a5.37 5.37 0 0 1-.32 2s.73-3.19 2.07-3.11 3.44-2 3.44-2-.11 1.88.71 2.29a3.22 3.22 0 0 1 1.45 2.74l-.22 1.32s.17-3.08 1.08-3.27 2.93-2.1 2.93-2.1-.23 4.63-2.83 6.85-5.44 2.68-10.41 2-9.46-2.88-10.31-6.42a15.38 15.38 0 0 1-.3-6.36z"/><path class="cls-5" d="M202 248.06c4.14 10.35-.38 14.29-6.49 16.53s-12.16 1.07-15.64-8.42c-2.52-6.88-.69-17.21 5.42-19.46s14.02 4.55 16.71 11.35z"/><path class="cls-10" d="M183.48 240.75s-1.88-9.33-8.11-9.77-6.83 1.16-6.83 1.16 3.59-7 8.81-6.18 11.25 10.37 11.25 10.37.31 3.36-1.5 3.75-3.62.67-3.62.67z"/><path class="cls-6" d="M180.24 221.37c3.88-4.2 6.35-2.33 6.35-2.33a3.31 3.31 0 0 0-2.79 4.22c.82 3.74 5.2 14.14 5.2 14.14a7.72 7.72 0 0 1-2.24.82c-1.54.36-10.4-12.65-6.52-16.85zm.48 19.36s-1.75-5.21-4.68-4.61a5.2 5.2 0 0 0-3.78 3.29 5.33 5.33 0 0 1 2.27-4.69c2.66-2.11 4.78-2.17 6.68-.72s5.61 6.51 5.61 6.51a9.06 9.06 0 0 1-2.76 1.79c-1.28.38-3.34-1.57-3.34-1.57z"/><path class="cls-10" d="M191.38 237s-3.87-10.72-.49-13.06 5.18-1.9 5.18-1.9-5.52-2.55-8.44-.19-.92 18.36-.92 18.36a5.34 5.34 0 0 0 3.61-.22c1.68-.83 1.06-2.99 1.06-2.99z"/><path class="cls-9" d="M179.56 244.24s-.56-1.71.39-2.24.77-1.27.77-1.27.83.71 1.44.64a1.93 1.93 0 0 1 1.9.93c.44.76.72.84.72.84s-.23-2.34.51-2.67 1.37-1.91 1.37-1.91 1 .88 1.46.87 1.8 1 1.8 1c.44.68.81 1.17.81 1.17s-.9-2.7-.26-3.05 1.07-2.1 1.07-2.1a6.57 6.57 0 0 0 1.13.72c.37.14 1 .46 1.2 2.16s-1.33 5.1-5.58 6.51a10.31 10.31 0 0 1-6.29.16 5.41 5.41 0 0 1-2.44-1.76z"/><path class="cls-8" d="M180 242.68s-.22 2.32.55 2.34.77.4 1.53 1.35a11 11 0 0 1 1 1.34s-1.1-2.66-.14-3.3 1-2.9 1-2.9 1.15 1.4 2.09 1.42 1.63-.18 2.18.79a6 6 0 0 1 .67 1.71s-1-2.85 0-3.34 1.34-3 1.34-3 .77 1.54 1.48 1.53a3 3 0 0 1 2.16 1.59l.45 1.14s-1.26-2.53-.76-3.06.12-2.19.12-2.19 4.68 2.45 4 5.29-4.26 5-7.78 6.56-7.86 1.82-10-.65.11-6.62.11-6.62z"/><path class="cls-9" d="M179.1 249.78s-.7-2.14.57-2.83 1.06-1.62 1.06-1.62a3.28 3.28 0 0 0 1.89.77 2.5 2.5 0 0 1 2.48 1.11c.56 1 .93 1 .93 1s-.23-2.95.75-3.38 1.86-2.44 1.86-2.44 1.33 1.08 1.91 1.06a8 8 0 0 1 2.36 1.23c.56.84 1 1.45 1 1.45s-1.11-3.38-.26-3.84 1.48-2.67 1.48-2.67a8.26 8.26 0 0 0 1.47.88c.48.16 1.35.55 1.54 2.69s-1.9 6.46-7.56 8.35a14.33 14.33 0 0 1-8.37.41 6.71 6.71 0 0 1-3.11-2.17z"/><path class="cls-8" d="M178.87 247.92s.17 2.39 1.09 2.4a3.67 3.67 0 0 1 2.88 1.31 10.34 10.34 0 0 1 1 1.42s-1.11-2.85.07-3.56 1.4-3.15 1.4-3.15 1.26 1.48 2.38 1.48 1.95-.23 2.52.8a5.48 5.48 0 0 1 .67 1.83s-.92-3.06.19-3.6 1.81-3.29 1.81-3.29.8 1.64 1.64 1.61a3.12 3.12 0 0 1 2.45 1.66l.45 1.22s-1.32-2.7-.68-3.28 1.36-3.13 1.36-3.13 3.84 3.66 2.8 6.73-4.93 5.17-9.22 6.89-9.13 2.21-11.49-.4-1.32-6.94-1.32-6.94z"/><path class="cls-9" d="M180.76 255.17s-.73-2.24.6-3 1.11-1.69 1.11-1.69a3.4 3.4 0 0 0 2 .8 2.61 2.61 0 0 1 2.59 1.16c.59 1 1 1.09 1 1.09s-.25-3.08.78-3.53 1.94-2.54 1.94-2.54 1.39 1.13 2 1.1a8.34 8.34 0 0 1 2.47 1.29c.59.88 1.09 1.52 1.09 1.52s-1.16-3.53-.28-4 1.55-2.79 1.55-2.79a8.71 8.71 0 0 0 1.53.92c.5.16 1.41.58 1.61 2.81s-2 6.75-7.9 8.72a15 15 0 0 1-8.74.43 7 7 0 0 1-3.35-2.29z"/><path class="cls-8" d="M179.13 253.34s1.11 2 2.07 1.95 2.3-.15 3.15.85a10.07 10.07 0 0 1 1.07 1.4s-1.11-2.84.14-3.58 1.53-3.19 1.53-3.19 1.3 1.46 2.47 1.45 2-.27 2.63.77a5.25 5.25 0 0 1 .67 1.83s-.91-3.06.26-3.62 2-3.35 2-3.35.81 1.64 1.69 1.59a3.15 3.15 0 0 1 2.53 1.63l.45 1.22s-1.33-2.69-.65-3.29 1.48-3.17 1.48-3.17 3.57 3.18 2.29 7c-1.06 3.14-4.74 5.06-9.27 6.86s-9.62 2.39-12-.2a9.9 9.9 0 0 1-2.51-6.15z"/><path class="cls-9" d="M182.8 260.58s-.87-2.63.5-3.41a1.82 1.82 0 0 0 1.1-1.92s1.24 1.11 2.12 1a2.9 2.9 0 0 1 2.8 1.46c.67 1.19 1.08 1.31 1.08 1.31s-.4-3.59.67-4.08 1.94-2.87 1.94-2.87 1.52 1.38 2.16 1.37 2.67 1.61 2.67 1.61c.66 1.05 1.22 1.82 1.22 1.82s-1.38-4.16-.47-4.68 1.51-3.19 1.51-3.19a10.17 10.17 0 0 0 1.66 1.14c.54.22 1.51.74 1.83 3.34s-1.8 7.76-8 9.8a14.4 14.4 0 0 1-9.24.11 8.43 8.43 0 0 1-3.55-2.81z"/><path class="cls-8" d="M181 258.66s1.68 1.39 2.64 1.39 2.3-.15 3.15.85a10.05 10.05 0 0 1 1.07 1.41s-1.11-2.84.14-3.58 1.53-3.19 1.53-3.19S190.78 257 192 257s2-.27 2.63.77a5.25 5.25 0 0 1 .67 1.83s-.91-3.06.26-3.62 2-3.35 2-3.35.81 1.64 1.69 1.6a3.14 3.14 0 0 1 2.53 1.63l.45 1.22s-1.33-2.69-.65-3.29 1.48-3.17 1.48-3.17 2 4 .88 7.15-3.33 4.87-7.86 6.68-9.39 2.09-11.81-.5a15 15 0 0 1-3.27-5.29z"/><path class="cls-5" d="M223.09 248c3.09 11-2 14.56-8.46 16.17s-12.55-.25-15.05-10.32c-1.82-7.31 1.19-17.67 7.68-19.28s13.8 6.18 15.83 13.43z"/><path class="cls-6" d="M204.94 238.49s-.89-9.73-7.21-10.87-7.11.43-7.11.43 4.45-6.79 9.68-5.34 10.35 11.83 10.35 11.83-.06 3.47-1.95 3.66-3.76.29-3.76.29z"/><path class="cls-10" d="M203.76 218.33c4.42-3.86 6.75-1.68 6.75-1.68a3.4 3.4 0 0 0-3.31 4c.42 3.88 3.74 15 3.74 15a7.93 7.93 0 0 1-2.38.59c-1.56.22-9.22-14.05-4.8-17.91zm-1.64 19.84s-1.21-5.52-4.27-5.23a5.35 5.35 0 0 0-4.23 2.94 5.47 5.47 0 0 1 2.83-4.54c3-1.86 5.13-1.69 6.9 0s5 7.28 5 7.28a9.21 9.21 0 0 1-3 1.52c-1.35.25-3.23-1.97-3.23-1.97z"/><path class="cls-6" d="M213.42 235.53s-2.78-11.38.94-13.39 5.5-1.37 5.5-1.37-5.36-3.21-8.61-1.12-3 18.65-3 18.65a5.49 5.49 0 0 0 3.72.18c1.84-.68 1.45-2.95 1.45-2.95z"/><path class="cls-8" d="M200.55 241.63s-.39-1.81.64-2.24.93-1.21.93-1.21.77.82 1.4.81a2 2 0 0 1 1.83 1.15c.37.84.65.94.65.94s0-2.42.82-2.68 1.61-1.8 1.61-1.8.94 1 1.4 1 1.73 1.24 1.73 1.24c.37.74.7 1.28.7 1.28s-.62-2.86.07-3.15 1.33-2 1.33-2a6.84 6.84 0 0 0 1.07.86c.36.18 1 .58 1 2.34s-1.92 5.07-6.42 6a10.59 10.59 0 0 1-6.48-.5 5.55 5.55 0 0 1-2.28-2.04z"/><path class="cls-9" d="M201.18 240.07s-.48 2.34.31 2.46.74.49 1.41 1.55a11.21 11.21 0 0 1 .84 1.47s-.83-2.84.22-3.39 1.35-2.85 1.35-2.85 1 1.55 2 1.68 1.68 0 2.13 1.05a6 6 0 0 1 .5 1.82s-.66-3 .32-3.41 1.7-2.94 1.7-2.94.62 1.66 1.34 1.73a3 3 0 0 1 2 1.86l.33 1.22s-1-2.73-.44-3.21.36-2.22.36-2.22 4.51 3 3.49 5.84-4.9 4.68-8.67 5.84-8.23 1-10.14-1.77.95-6.73.95-6.73z"/><path class="cls-8" d="M199.47 247.23s-.48-2.26.9-2.83 1.26-1.54 1.26-1.54 1 1 1.85 1a2.56 2.56 0 0 1 2.41 1.41c.47 1 .84 1.16.84 1.16s.08-3 1.14-3.37 2.17-2.28 2.17-2.28 1.24 1.25 1.84 1.29 2.28 1.52 2.28 1.52c.48.92.9 1.6.9 1.6s-.76-3.57.15-4 1.8-2.56 1.8-2.56a8.43 8.43 0 0 0 1.4 1.06c.47.22 1.31.71 1.27 2.92S217 249 211 250.34a14.75 14.75 0 0 1-8.6-.5 6.9 6.9 0 0 1-2.93-2.61z"/><path class="cls-9" d="M199.44 245.3s-.09 2.46.85 2.57a3.77 3.77 0 0 1 2.8 1.65 10.94 10.94 0 0 1 .91 1.56s-.82-3 .47-3.62 1.78-3.06 1.78-3.06 1.13 1.65 2.27 1.77 2 0 2.49 1.1a5.67 5.67 0 0 1 .48 1.94s-.61-3.22.59-3.66 2.21-3.17 2.21-3.17.64 1.77 1.5 1.83a3.2 3.2 0 0 1 2.32 2l.32 1.3s-1-2.9-.33-3.43 1.73-3 1.73-3 3.52 4.16 2.12 7.19-5.61 4.74-10.18 6-9.58 1.25-11.69-1.68-.64-7.29-.64-7.29z"/><path class="cls-8" d="M200.57 252.93s-.5-2.36.93-3 1.32-1.6 1.32-1.6 1.05 1.06 1.93 1a2.68 2.68 0 0 1 2.52 1.47c.49 1.08.88 1.22.88 1.22s.09-3.17 1.19-3.52 2.27-2.38 2.27-2.38 1.29 1.3 1.92 1.34 2.38 1.59 2.38 1.59c.5 1 .94 1.67.94 1.67s-.8-3.74.16-4.12 1.88-2.68 1.88-2.68a8.88 8.88 0 0 0 1.46 1.11c.5.22 1.37.74 1.33 3s-2.77 6.68-9 8a15.39 15.39 0 0 1-9-.52 7.17 7.17 0 0 1-3.11-2.58z"/><path class="cls-9" d="M199.11 250.88s.92 2.12 1.9 2.22 2.36.1 3.12 1.22a10.48 10.48 0 0 1 .94 1.55s-.82-3 .54-3.64 1.91-3.09 1.91-3.09 1.16 1.64 2.36 1.75 2.12 0 2.61 1.07a5.34 5.34 0 0 1 .48 1.94s-.59-3.22.67-3.67S216 247 216 247s.65 1.76 1.55 1.81a3.23 3.23 0 0 1 2.41 1.95l.32 1.29s-1.07-2.9-.3-3.43 1.86-3.08 1.86-3.08 3.3 3.64 1.57 7.37c-1.43 3.1-5.4 4.64-10.22 6s-10.1 1.38-12.28-1.53a10.18 10.18 0 0 1-1.8-6.5z"/><path class="cls-8" d="M202.06 258.67s-.6-2.79.89-3.43a1.87 1.87 0 0 0 1.33-1.85s1.14 1.28 2.06 1.27a3 3 0 0 1 2.7 1.8c.55 1.29 1 1.46 1 1.46s0-3.72 1.14-4.09 2.3-2.72 2.3-2.72 1.4 1.57 2.06 1.64 2.55 1.94 2.55 1.94c.56 1.14 1 2 1 2s-1-4.4 0-4.83 1.9-3.08 1.9-3.08a10.62 10.62 0 0 0 1.57 1.35c.53.28 1.47.92 1.5 3.62s-2.69 7.73-9.23 9.13a14.77 14.77 0 0 1-9.45-.9 8.64 8.64 0 0 1-3.32-3.31z"/><path class="cls-9" d="M200.39 256.51s1.56 1.61 2.54 1.71 2.37.1 3.13 1.22A10.37 10.37 0 0 1 207 261s-.82-3 .53-3.64 1.91-3.09 1.91-3.09 1.17 1.64 2.36 1.75 2.12 0 2.61 1.07a5.35 5.35 0 0 1 .48 1.94s-.59-3.22.66-3.67 2.37-3.21 2.37-3.21.65 1.77 1.55 1.82a3.23 3.23 0 0 1 2.41 1.94l.32 1.29s-1.07-2.9-.31-3.43 1.86-3.08 1.86-3.08 1.62 4.35.11 7.41-3.94 4.61-8.76 6-9.82 1.1-12-1.82a15.38 15.38 0 0 1-2.71-5.77z"/><path class="cls-7" d="M175.82 255.66H270v18.16h-94.18z"/><path class="cls-5" d="M173.72 166.38v-6.94h-8.62v6.94s-5.51 7-5.68 10.91c-.29 6.77 0 27.12 0 27.12a2.29 2.29 0 0 0 2.29 2.29h15.4a2.29 2.29 0 0 0 2.29-2.29s.21-20.15 0-26.86c-.12-3.92-5.68-11.17-5.68-11.17z"/><path class="cls-11" d="M164.26 158.87h10.33v3.99h-10.33z"/><path class="cls-5" d="M166.31 167.6s-4.71 6.81-4.82 9.37.22 29.74.22 29.74h2.39s.12-28.4.16-30.47 2.05-8.64 2.05-8.64z"/><path class="cls-11" d="M159.29 184.19h20.17v12.87h-20.17z"/><path class="cls-5" d="M199.87 166.42v-6.94h-8.62v6.94s-5.51 7-5.68 10.91c-.3 6.77 0 27.11 0 27.11a2.29 2.29 0 0 0 2.29 2.29h15.4a2.29 2.29 0 0 0 2.29-2.29s.21-20.15 0-26.86c-.12-3.91-5.68-11.16-5.68-11.16z"/><path class="cls-11" d="M190.41 158.9h10.33v3.99h-10.33z"/><path class="cls-5" d="M192.46 167.63s-4.71 6.81-4.82 9.37.22 29.74.22 29.74h2.39s.12-28.4.16-30.47 2.05-8.64 2.05-8.64z"/><path class="cls-11" d="M185.44 184.23h20.17v12.87h-20.17z"/><path class="cls-5" d="M226 166.46v-6.94h-8.6v6.94s-5.51 7-5.68 10.91c-.29 6.77 0 27.12 0 27.12a2.29 2.29 0 0 0 2.29 2.29h15.4a2.29 2.29 0 0 0 2.29-2.29s.21-20.15 0-26.86c-.13-3.93-5.7-11.17-5.7-11.17z"/><path class="cls-11" d="M216.56 158.94h10.33v3.99h-10.33z"/><path class="cls-5" d="M218.61 167.67s-4.71 6.81-4.82 9.37.22 29.74.22 29.74h2.39s.12-28.4.16-30.47 2.05-8.64 2.05-8.64z"/><path class="cls-11" d="M211.59 184.26h20.17v12.87h-20.17z"/><path class="cls-5" d="M252.17 166.49v-6.94h-8.62v6.94s-5.51 7-5.68 10.91c-.3 6.77 0 27.11 0 27.11a2.29 2.29 0 0 0 2.29 2.29h15.39a2.29 2.29 0 0 0 2.29-2.29s.21-20.15 0-26.86c-.12-3.91-5.67-11.16-5.67-11.16z"/><path class="cls-11" d="M242.71 158.97h10.33v3.99h-10.33z"/><path class="cls-5" d="M244.75 167.71s-4.71 6.81-4.82 9.36.22 29.74.22 29.74h2.39s.11-28.4.16-30.47 2.05-8.63 2.05-8.63z"/><path class="cls-11" d="M237.74 184.3h20.17v12.86h-20.17z"/><path class="cls-5" d="M278.31 166.53v-6.94h-8.61v6.94s-5.51 7-5.68 10.91c-.3 6.77 0 27.11 0 27.11a2.29 2.29 0 0 0 2.29 2.29h15.4a2.29 2.29 0 0 0 2.29-2.29s.21-20.15 0-26.86c-.13-3.91-5.69-11.16-5.69-11.16z"/><path class="cls-11" d="M268.86 159.01h10.33V163h-10.33z"/><path class="cls-5" d="M270.9 167.74s-4.71 6.81-4.82 9.37.22 29.74.22 29.74h2.39s.11-28.4.16-30.47 2.05-8.64 2.05-8.64z"/><path class="cls-11" d="M263.88 184.34h20.17v12.86h-20.17z"/><path class="cls-5" d="M304.46 166.56v-6.94h-8.62v6.94s-5.51 7-5.68 10.91c-.3 6.77 0 27.11 0 27.11a2.29 2.29 0 0 0 2.29 2.29h15.4a2.29 2.29 0 0 0 2.29-2.29s.21-20.15 0-26.86c-.14-3.9-5.68-11.16-5.68-11.16z"/><path class="cls-11" d="M295 159.05h10.33v3.99H295z"/><path class="cls-5" d="M297 167.78s-4.71 6.81-4.82 9.36.22 29.74.22 29.74h2.39s.11-28.4.16-30.47 2.05-8.63 2.05-8.63z"/><path class="cls-11" d="M290.03 184.38h20.17v12.86h-20.17z"/><path class="cls-5" d="M330.61 166.6v-6.94H322v6.94s-5.51 7-5.68 10.91c-.3 6.77 0 27.12 0 27.12a2.29 2.29 0 0 0 2.29 2.29H334a2.29 2.29 0 0 0 2.29-2.29s.21-20.15 0-26.86c-.12-3.92-5.68-11.17-5.68-11.17z"/><path class="cls-11" d="M321.15 159.08h10.33v3.99h-10.33z"/><path class="cls-5" d="M323.2 167.81s-4.71 6.81-4.81 9.37.22 29.74.22 29.74H321s.12-28.4.16-30.46 2.04-8.65 2.04-8.65z"/><path class="cls-11" d="M316.18 184.41h20.17v12.87h-20.17z"/><path class="cls-5" d="M356.76 166.63v-6.93h-8.62v6.94s-5.51 7-5.68 10.91c-.29 6.77 0 27.12 0 27.12a2.29 2.29 0 0 0 2.29 2.29h15.4a2.29 2.29 0 0 0 2.29-2.29s.21-20.15 0-26.86c-.13-3.93-5.68-11.18-5.68-11.18z"/><path class="cls-11" d="M347.3 159.12h10.33v3.99H347.3z"/><path class="cls-5" d="M349.34 167.85s-4.71 6.81-4.81 9.37.22 29.74.22 29.74h2.39s.11-28.4.16-30.47 2.04-8.64 2.04-8.64z"/><path class="cls-11" d="M342.33 184.45h20.17v12.86h-20.17z"/><path class="cls-5" d="M382.9 166.67v-6.94h-8.62v6.94s-5.51 7-5.68 10.91c-.29 6.77 0 27.12 0 27.12a2.3 2.3 0 0 0 2.3 2.3h15.39a2.29 2.29 0 0 0 2.29-2.29s.21-20.15 0-26.86c-.12-3.93-5.68-11.18-5.68-11.18z"/><path class="cls-11" d="M373.45 159.15h10.33v3.99h-10.33z"/><path class="cls-5" d="M375.49 167.89s-4.71 6.81-4.82 9.37.22 29.74.22 29.74h2.39s.12-28.4.16-30.47 2.05-8.64 2.05-8.64z"/><path class="cls-11" d="M368.47 184.48h20.17v12.86h-20.17z"/><path class="cls-12" d="M167.37 142.83h-9.88l-1.43-20.1h12.76l-1.45 20.1z"/><path class="cls-5" d="M154.84 120.92h15.08v2.73h-15.08zm12.91 16.51h-10.64l-.51-7.15h11.61l-.46 7.15z"/><path class="cls-13" d="M185.56 142.83h-9.88l-1.43-20.1h12.76l-1.45 20.1z"/><path class="cls-5" d="M173.03 120.92h15.08v2.73h-15.08zm12.91 16.52H175.3l-.51-7.16h11.61l-.46 7.16z"/><path class="cls-12" d="M203.75 142.83h-9.88l-1.43-20.11h12.76l-1.45 20.11z"/><path class="cls-5" d="M191.22 120.92h15.08v2.73h-15.08zm12.91 16.51h-10.64l-.51-7.15h11.61l-.46 7.15z"/><path class="cls-13" d="M221.94 142.83h-9.88l-1.42-20.11h12.75l-1.45 20.11z"/><path class="cls-5" d="M209.41 120.92h15.08v2.73h-15.08zm12.91 16.51h-10.64l-.51-7.15h11.61l-.46 7.15z"/><path class="cls-12" d="M240.13 142.83h-9.88l-1.42-20.1h12.75l-1.45 20.1z"/><path class="cls-5" d="M227.6 120.92h15.08v2.73H227.6zm12.91 16.52h-10.64l-.5-7.16h11.6l-.46 7.16z"/><path class="cls-12" d="M258.32 142.83h-9.88l-1.42-20.11h12.75l-1.45 20.11z"/><path class="cls-5" d="M245.79 120.92h15.08v2.73h-15.08zm12.91 16.51h-10.64l-.51-7.15h11.61l-.46 7.15z"/><path class="cls-12" d="M276.51 142.83h-9.88l-1.42-20.1h12.75l-1.45 20.1z"/><path class="cls-5" d="M263.98 120.92h15.08v2.73h-15.08zm12.91 16.52h-10.64l-.5-7.16h11.6l-.46 7.16z"/><path class="cls-12" d="M294.7 142.83h-9.88l-1.42-20.1h12.75l-1.45 20.1z"/><path class="cls-5" d="M282.17 120.92h15.08v2.73h-15.08zm12.91 16.52h-10.64l-.5-7.16h11.6l-.46 7.16z"/><path class="cls-12" d="M312.89 142.83h-9.87l-1.43-20.1h12.75l-1.45 20.1z"/><path class="cls-5" d="M300.36 120.92h15.08v2.73h-15.08zm12.91 16.52h-10.64l-.5-7.16h11.61l-.47 7.16z"/><path class="cls-13" d="M331.08 142.83h-9.87l-1.43-20.1h12.75l-1.45 20.1z"/><path class="cls-5" d="M318.55 120.92h15.08v2.73h-15.08zm12.91 16.51h-10.64l-.5-7.15h11.61l-.47 7.15z"/><path class="cls-12" d="M349.27 142.83h-9.87l-1.43-20.1h12.75l-1.45 20.1z"/><path class="cls-5" d="M336.74 120.92h15.08v2.73h-15.08zm12.91 16.52h-10.64l-.5-7.16h11.61l-.47 7.16z"/><path class="cls-12" d="M175.99 120.58h-9.87l-1.43-20.1h12.75l-1.45 20.1z"/><path class="cls-5" d="M163.46 98.68h15.08v2.73h-15.08zm12.91 16.51h-10.64l-.51-7.15h11.62l-.47 7.15z"/><path class="cls-12" d="M194.23 120.58h-9.87l-1.43-20.1h12.75l-1.45 20.1z"/><path class="cls-5" d="M181.7 98.67h15.08v2.73H181.7zm12.91 16.52h-10.64l-.5-7.15h11.61l-.47 7.15z"/><path class="cls-12" d="M212.48 120.58h-9.88l-1.43-20.1h12.75l-1.44 20.1z"/><path class="cls-5" d="M199.94 98.67h15.08v2.73h-15.08zm12.91 16.52h-10.63l-.51-7.15h11.61l-.47 7.15z"/><path class="cls-13" d="M230.72 120.58h-9.88l-1.43-20.1h12.76l-1.45 20.1z"/><path class="cls-5" d="M218.19 98.67h15.08v2.73h-15.08zm12.9 16.52h-10.63l-.51-7.15h11.61l-.47 7.15z"/><path class="cls-13" d="M248.96 120.58h-9.88l-1.42-20.1h12.75l-1.45 20.1z"/><path class="cls-5" d="M236.43 98.67h15.08v2.73h-15.08zm12.91 16.52H238.7l-.51-7.15h11.61l-.46 7.15z"/><path class="cls-12" d="M267.2 120.58h-9.87l-1.43-20.1h12.75l-1.45 20.1z"/><path class="cls-5" d="M254.67 98.67h15.08v2.73h-15.08zm12.91 16.52h-10.64l-.5-7.15h11.61l-.47 7.15z"/><path class="cls-13" d="M285.44 120.58h-9.87l-1.43-20.1h12.75l-1.45 20.1z"/><path class="cls-5" d="M272.91 98.67h15.08v2.73h-15.08zm12.91 16.52h-10.63l-.51-7.15h11.61l-.47 7.15z"/><path class="cls-12" d="M303.69 120.58h-9.88l-1.43-20.1h12.76l-1.45 20.1z"/><path class="cls-5" d="M291.15 98.68h15.08v2.73h-15.08zm12.91 16.51h-10.63l-.51-7.15h11.61l-.47 7.15z"/><path class="cls-13" d="M321.93 120.58h-9.88l-1.42-20.1h12.75l-1.45 20.1z"/><path class="cls-5" d="M309.4 98.67h15.08v2.73H309.4zm12.91 16.52h-10.64l-.51-7.15h11.61l-.46 7.15z"/><path class="cls-12" d="M340.17 120.58h-9.87l-1.43-20.1h12.75l-1.45 20.1z"/><path class="cls-5" d="M327.64 98.68h15.08v2.73h-15.08zm12.91 16.51h-10.64l-.51-7.15h11.61l-.46 7.15z"/><path class="cls-12" d="M367.46 142.83h-9.87l-1.43-20.1h12.75l-1.45 20.1z"/><path class="cls-5" d="M354.93 120.92h15.08v2.73h-15.08zm12.91 16.51H357.2l-.5-7.15h11.61l-.47 7.15z"/><path class="cls-12" d="M385.65 142.83h-9.87l-1.43-20.1h12.75l-1.45 20.1z"/><path class="cls-5" d="M373.12 120.92h15.08v2.73h-15.08zm12.91 16.52H375.4l-.51-7.16h11.61l-.47 7.16z"/><path class="cls-13" d="M358.41 120.58h-9.87l-1.43-20.1h12.75l-1.45 20.1z"/><path class="cls-5" d="M345.88 98.67h15.08v2.73h-15.08zm12.91 16.52h-10.64l-.5-7.15h11.6l-.46 7.15z"/><path class="cls-12" d="M376.65 120.58h-9.87l-1.43-20.1h12.75l-1.45 20.1z"/><path class="cls-5" d="M364.12 98.68h15.08v2.73h-15.08zm12.91 16.51H366.4l-.51-7.15h11.61l-.47 7.15z"/><path class="cls-12" d="M91.96.38h98.57v61.75H91.96z"/><path class="cls-7" d="M99.07 7.79h82.56v47.26H99.07z"/><path class="cls-14" d="M109.54 36.4h59.74v9.65h-59.74z"/><path class="cls-3" d="M138.92 62.13h6.44v19.48h-6.44z"/><path class="cls-5" d="M42.92 99.33l-15.2-8.75m371.31 0l-15.21 8.75"/></g></g></svg>