<svg xmlns="http://www.w3.org/2000/svg" viewBox="0 0 145.02 110"><defs><style>.cls-1{fill:#11af9e}.cls-2{fill:#fff}.cls-3{fill:#ffce00}</style></defs><title>explanation-step-1</title><g id="圖層_2" data-name="圖層 2"><g id="栝鍣_1" data-name="栝鍣 1"><path class="cls-1" d="M25.22 35h30.1a1.66 1.66 0 0 0 1.62-1.31l4-18.83a1.65 1.65 0 0 0-1.62-2H29.23a1.66 1.66 0 0 0-1.62 1.31L23.6 33a1.65 1.65 0 0 0 1.62 2z"/><path class="cls-2" d="M19.85 37.68a6.88 6.88 0 0 0 5.37 2.56h30.1a7 7 0 0 0 6.76-5.48l4-18.83a6.91 6.91 0 0 0-6.76-8.35H29.23a7 7 0 0 0-6.76 5.48l-4 18.83a6.88 6.88 0 0 0 1.38 5.79zM23.6 33l4-18.83a1.66 1.66 0 0 1 1.62-1.31h30.1a1.65 1.65 0 0 1 1.62 2l-4 18.83A1.66 1.66 0 0 1 55.31 35H25.22a1.65 1.65 0 0 1-1.62-2z"/><path class="cls-1" d="M87.16 0H19.62A2.63 2.63 0 0 0 17 2.08L8.42 42.57H2.63A2.63 2.63 0 0 0 0 45.2v9.27a2.63 2.63 0 0 0 2.63 2.63h5.29v50.26a2.63 2.63 0 0 0 2.63 2.64h76.61a2.63 2.63 0 0 0 2.63-2.63V2.63A2.63 2.63 0 0 0 87.16 0zM18.45 31.89l4-18.83a7 7 0 0 1 6.76-5.48h30.11a6.91 6.91 0 0 1 6.76 8.35l-4 18.83a7 7 0 0 1-6.76 5.48h-30.1a6.92 6.92 0 0 1-6.76-8.35zm-7.9 19.95H5.26v-4h64.83v4H10.55zm74 52.9h-17V57.1h5.16a2.63 2.63 0 0 0 2.63-2.63V45.2a2.63 2.63 0 0 0-2.63-2.63h-4.53l7.94-37.31h8.41z"/><path class="cls-2" d="M55.65 67.85H40.9a2.63 2.63 0 0 1 0-5.26h14.75a2.63 2.63 0 0 1 0 5.26zm0 7.59H40.9a2.63 2.63 0 0 1 0-5.26h14.75a2.63 2.63 0 0 1 0 5.26z"/><path class="cls-3" d="M119.58 0a25.47 25.47 0 0 0-25.44 25.44v22.81a2.63 2.63 0 0 0 2.63 2.63h22.81a25.44 25.44 0 0 0 0-50.88zm0 22.81c5.28 0 9.42 3.36 9.42 7.64 0 3.54-2.83 6.41-6.78 7.32v1.84a2.63 2.63 0 1 1-5.26 0v-1.84c-4-.91-6.79-3.78-6.79-7.32a2.63 2.63 0 0 1 5.26 0c0 1.12 1.78 2.38 4.15 2.38s4.15-1.26 4.15-2.38-1.78-2.38-4.15-2.38c-5.28 0-9.42-3.36-9.42-7.64 0-3.54 2.83-6.41 6.79-7.32v-1.84a2.63 2.63 0 0 1 5.26 0v1.84c4 .91 6.78 3.78 6.78 7.32a2.63 2.63 0 0 1-5.26 0c0-1.12-1.78-2.38-4.15-2.38s-4.15 1.26-4.15 2.38 1.77 2.38 4.15 2.38z"/><path class="cls-2" d="M119.58 22.81c-2.38 0-4.15-1.26-4.15-2.38S117.2 18 119.58 18s4.15 1.26 4.15 2.38a2.63 2.63 0 0 0 5.26 0c0-3.54-2.83-6.41-6.78-7.32v-1.79a2.63 2.63 0 0 0-5.26 0v1.84c-4 .91-6.79 3.78-6.79 7.32 0 4.29 4.14 7.64 9.42 7.64 2.38 0 4.15 1.26 4.15 2.38s-1.78 2.38-4.15 2.38-4.15-1.26-4.15-2.38a2.63 2.63 0 0 0-5.26 0c0 3.54 2.83 6.41 6.79 7.32v1.84a2.63 2.63 0 1 0 5.26 0v-1.84c4-.91 6.78-3.78 6.78-7.32 0-4.28-4.14-7.64-9.42-7.64z"/></g></g></svg>