<svg xmlns="http://www.w3.org/2000/svg" viewBox="0 0 70.34 110"><defs><style>.cls-1{fill:#ffce00}.cls-2{fill:#fff}.cls-3{fill:#11af9e}</style></defs><title>explanation-step-2</title><g id="圖層_2" data-name="圖層 2"><g id="栝鍣_1" data-name="栝鍣 1"><path class="cls-1" d="M28.35 46.25a17.91 17.91 0 1 1 17.9-17.9 17.93 17.93 0 0 1-17.9 17.9zm0-33.18a15.27 15.27 0 1 0 15.27 15.28 15.29 15.29 0 0 0-15.27-15.28z"/><path class="cls-1" d="M28.35 56.69a28.35 28.35 0 1 1 28.34-28.34 28.38 28.38 0 0 1-28.34 28.34zm0-54.06a25.71 25.71 0 1 0 25.71 25.72A25.74 25.74 0 0 0 28.35 2.63z"/><circle class="cls-1" cx="28.35" cy="28.35" r="9.86"/><path class="cls-2" d="M62.42 58.28a6.43 6.43 0 0 0-3.8.77v10.2h-3.73v-8.79l-.14-2.27c0-.19-.25-4.81-3.56-5a4.2 4.2 0 0 0-3.83 1.51v10.75h-3.73V55.9c0-.85-.47-4.37-1.76-5.7a3.36 3.36 0 0 0-2.55-1 10.06 10.06 0 0 0-3.81.49v15.76h-3.76V32.76c0-2.19-2.55-2.51-4.08-2.51-.86 0-3.68.19-3.68 2.64v40.6h-3.73S17.75 65.1 13 63.87a8.82 8.82 0 0 0-2.22-.26c-.78 0-2.53.14-2.78 1.39 0 1.19 4.38 8.29 4.38 8.29S16.34 79.65 21.6 90c4.68 9.2 5.71 12.74 6.13 15.19l.15.87 30.55.19c1.43-3.84 5.79-15.9 6.86-22.53 1.26-7.82 1.6-9.92 1.12-16.94-.28-4.02-1.49-8.22-3.99-8.5z"/><path class="cls-3" d="M62.62 54.55a11.14 11.14 0 0 0-4.62.69c-.81-2.72-2.75-5.6-6.68-5.82a8.18 8.18 0 0 0-5 1.19 8.4 8.4 0 0 0-1.82-3 7.09 7.09 0 0 0-5.25-2.11 18.2 18.2 0 0 0-3.81.34V32.76c0-3.79-3.07-6.24-7.81-6.24-4.36 0-7.41 2.62-7.41 6.37v31.75c-1.71-2-4-3.88-6.53-4.42a14.72 14.72 0 0 0-3-.33c-4.21 0-6.08 2.35-6.41 4.55-.49 3.15 4.34 10 4.93 10.85.38.62 4.07 6.71 9 16.41 4.46 8.78 5.43 12.07 5.78 14.13l.68 4L61 110l.46-1.21c.25-.66 6.17-16.18 7.51-24.47 1.25-7.73 1.67-10.34 1.15-17.8s-3.17-11.77-7.5-11.97zm2.66 29.17c-1.07 6.63-5.43 18.69-6.86 22.53l-30.55-.19-.15-.87c-.42-2.45-1.46-6-6.13-15.19-5.26-10.35-9.15-16.67-9.18-16.73S8 66.16 8 65c.21-1.23 2-1.36 2.72-1.36a8.82 8.82 0 0 1 2.22.26c4.77 1.23 7.29 9.62 7.29 9.62H24V32.89c0-2.45 2.81-2.64 3.68-2.64 1.52 0 4.08.33 4.08 2.51v32.69h3.73V49.69a10.06 10.06 0 0 1 3.81-.49 3.36 3.36 0 0 1 2.55 1c1.29 1.33 1.78 4.85 1.76 5.7v9.58h3.73V54.66a4.2 4.2 0 0 1 3.83-1.51c3.3.24 3.55 4.85 3.56 5l.14 2.27v8.79h3.73V59a6.43 6.43 0 0 1 3.8-.77c2.5.28 3.7 4.48 4 8.5.49 7.08.15 9.18-1.11 16.99z"/></g></g></svg>