<svg xmlns="http://www.w3.org/2000/svg" viewBox="0 0 124 98.22"><defs><style>.cls-1{fill:#ffce00}.cls-2{fill:#11af9e}.cls-3{fill:#1fa696}</style></defs><title>explanation-step-4</title><g id="圖層_2" data-name="圖層 2"><g id="栝鍣_1" data-name="栝鍣 1"><path class="cls-1" d="M122.64 62.57h-13a9.37 9.37 0 0 0 1.76-1.42c1.8-1.69 2.52-3.8 1.66-5.39v-.06a3 3 0 0 0-.26-.7 3.89 3.89 0 0 0-3.62-1.78 8.91 8.91 0 0 0-4.18 1.12 6.19 6.19 0 0 0-.73.48 7.33 7.33 0 0 0-1.49-4.48A4 4 0 0 0 99.42 48c-1.59 0-2.94 1.19-3.68 3a7.8 7.8 0 0 0-1 3.95 6.46 6.46 0 0 0-.88-.6 8.91 8.91 0 0 0-4.13-1.13A3.89 3.89 0 0 0 86.07 55a3 3 0 0 0-.35 1.23 3.83 3.83 0 0 0 .38 3 5.78 5.78 0 0 0 .28.54 8.38 8.38 0 0 0 2.81 2.8h-13a1.36 1.36 0 0 0-1.36 1.36v8.17a1.36 1.36 0 0 0 1.36 1.36h1.46V97a1.26 1.26 0 0 0 1.26 1.26h41a1.26 1.26 0 0 0 1.27-1.26V73.45h1.46a1.36 1.36 0 0 0 1.36-1.36v-8.17a1.36 1.36 0 0 0-1.36-1.35zm-19.5-3.45a18.24 18.24 0 0 1 1.22-1.41 6.49 6.49 0 0 1 1.34-1 7.45 7.45 0 0 1 3.45-1 4.14 4.14 0 0 1 1 .12 1.76 1.76 0 0 1 .87.75 2 2 0 0 1 0 1.61 7.52 7.52 0 0 1-2.69 2.37c-1.2.65-3.52 1-6.52 1 .46-.7.93-1.56 1.34-2.44zm-3.82-8.6h.39c1.18.56 2.08 2.39 2.08 4.5a9.85 9.85 0 0 1-1.13 3.72l-.34.63c-.34.51-.64 1-.88 1.38l-.31-.47c-1-1.72-1.92-3.84-1.92-5.25 0-2.13.91-3.98 2.11-4.52zm-11.19 8.2a2.33 2.33 0 0 1-.19-2.12 1.85 1.85 0 0 1 1.06-.83 4.47 4.47 0 0 1 .69-.05 7.45 7.45 0 0 1 3.45 1A10.52 10.52 0 0 1 96 59.37c.38.8.79 1.56 1.17 2.21H97c-3 0-5.31-.36-6.52-1a7.81 7.81 0 0 1-2.34-1.87zm-9 38.07v-.19l.19.19z"/><path class="cls-2" d="M77.06 0H20.82A20.85 20.85 0 0 0 0 20.82v69.75A2.43 2.43 0 0 0 2.43 93h9.2a2.43 2.43 0 0 0 2.43-2.43V86h9.46v4.55A2.43 2.43 0 0 0 25.95 93h9.2a2.43 2.43 0 0 0 2.43-2.43V86H47v4.55A2.43 2.43 0 0 0 49.47 93h9.2a2.43 2.43 0 0 0 2.43-2.43V41.65h16A20.82 20.82 0 1 0 77.06 0zM56.24 88.14H51.9v-4.55a2.43 2.43 0 0 0-2.43-2.43H35.15a2.43 2.43 0 0 0-2.43 2.43v4.55h-4.34v-4.55a2.43 2.43 0 0 0-2.43-2.43H11.63a2.43 2.43 0 0 0-2.43 2.43v4.55H4.86V20.82a16 16 0 0 1 16-16h42.85a20.78 20.78 0 0 0-7.48 16zm4.86-64.89h6.53a11.54 11.54 0 0 0 0 13.53H61.1zm16 13.53a6.77 6.77 0 1 1 0-13.53 2.43 2.43 0 0 0 0-4.86H61.3a16 16 0 1 1 15.76 18.4z"/><path class="cls-2" d="M49.77 21.63H36.62a2.43 2.43 0 1 0 0 4.86h13.15a2.43 2.43 0 1 0 0-4.86zm0 10.82H36.62a2.43 2.43 0 1 0 0 4.86h13.15a2.43 2.43 0 0 0 0-4.86zm0 15.96H11.32a2.43 2.43 0 0 0 0 4.86h38.45a2.43 2.43 0 1 0 0-4.86zm0 10.26H38.43a2.43 2.43 0 1 0 0 4.86h11.34a2.43 2.43 0 1 0 0-4.86zm-17.77 0h-1.42a2.43 2.43 0 1 0 0 4.86H32a2.43 2.43 0 1 0 0-4.86zm-7.86 0H11.32a2.43 2.43 0 1 0 0 4.86h12.82a2.43 2.43 0 1 0 0-4.86z"/><path class="cls-3" d="M22.92 40.27h-7.73a7.47 7.47 0 0 1-7.46-7.46v-7.73a7.47 7.47 0 0 1 7.46-7.46h7.73a7.47 7.47 0 0 1 7.46 7.46v7.73a7.47 7.47 0 0 1-7.46 7.46zm-7.73-18.75a3.57 3.57 0 0 0-3.57 3.57v7.73a3.57 3.57 0 0 0 3.57 3.57h7.73a3.57 3.57 0 0 0 3.57-3.57v-7.74a3.57 3.57 0 0 0-3.57-3.57z"/></g></g></svg>