<svg xmlns="http://www.w3.org/2000/svg" viewBox="0 0 99.69 110"><defs><style>.cls-1{fill:#ffce00}.cls-2{fill:#11af9e}</style></defs><title>explanation-step-3</title><g id="圖層_2" data-name="圖層 2"><g id="栝鍣_1" data-name="栝鍣 1"><path class="cls-1" d="M49.84 26.57L61.11 7.06H38.58l11.26 19.51z"/><path class="cls-2" d="M74.75 100.64A50.19 50.19 0 0 0 93 82.41a49.8 49.8 0 0 0-25.86-71.67l4.43-7.67A2 2 0 0 0 69.8 0H29.89a2 2 0 0 0-1.77 3.07l4.43 7.67A49.8 49.8 0 0 0 6.69 82.39a50.19 50.19 0 0 0 18.21 18.22 49.51 49.51 0 0 0 13.1 5.3H16.16a2 2 0 0 0 0 4.09h67.37a2 2 0 0 0 0-4.09H61.64a49.51 49.51 0 0 0 13.1-5.27zm-.3-4.64L56.1 64.25q.26-.24.49-.49l31.79 18.35A46.1 46.1 0 0 1 74.45 96zm-45.68 2.08L47.12 66.3c.22.07.45.12.68.17v36.73a45.42 45.42 0 0 1-19.03-5.12zM4.14 59.54h36.72c.05.23.11.46.17.68L9.25 78.57a45.42 45.42 0 0 1-5.11-19.03zm5.05-23.15L41 54.77c-.07.22-.12.45-.17.68H4.14a45.77 45.77 0 0 1 5.05-19.06zm86.36 19.06H58.82c-.05-.23-.11-.46-.17-.68l31.84-18.38a45.77 45.77 0 0 1 5.06 19.06zm-5.12 23.12L58.65 60.22c.07-.22.12-.45.17-.68h36.73a45.42 45.42 0 0 1-5.12 19.03zm-38.54-12.1c.23-.05.46-.11.68-.17l18.35 31.78a45.42 45.42 0 0 1-19 5.11zm36.56-33.62L56.59 51.23q-.24-.26-.49-.49l18.38-31.83a45.42 45.42 0 0 1 13.97 13.94zm-17.51-16L52.57 48.69c-.22-.07-.45-.12-.68-.17V37.15l13.17-22.82a46.21 46.21 0 0 1 5.88 2.54zM66.26 4.09L49.84 32.52 33.43 4.09zM47.8 37.15v11.36c-.23.05-.46.11-.68.17L28.75 16.87a46.21 46.21 0 0 1 5.87-2.54zM25.2 18.91l18.38 31.83q-.26.24-.49.49L11.24 32.85A45.42 45.42 0 0 1 25.2 18.91zm-13.9 63.2l31.79-18.36q.24.26.49.49L25.23 96A46.1 46.1 0 0 1 11.3 82.11z"/></g></g></svg>