<svg xmlns="http://www.w3.org/2000/svg" viewBox="0 0 19.16 104"><defs><style>.cls-1{fill:#fff}.cls-2{fill:#273772}.cls-3{fill:#fff000}.cls-4{fill:#d61718}</style></defs><title>資產 2</title><g id="圖層_2" data-name="圖層 2"><g id="群組_5" data-name="群組 5"><path class="cls-1" d="M0 0h19.16v104H0z"/><path class="cls-2" d="M0 3h19.16v98H0z"/><path class="cls-3" d="M6.65 94a3 3 0 0 1 3-3 3 3 0 0 1 3 3 3 3 0 0 1-3 3 3 3 0 0 1-3-3zm-.14-84a3 3 0 0 1 3-3 3 3 0 0 1 3 3 3 3 0 0 1-3 3 3 3 0 0 1-3-3z"/><path class="cls-4" d="M0 17h19.16v70H0z"/></g></g></svg>